<svg xmlns="http://www.w3.org/2000/svg" xmlns:xlink="http://www.w3.org/1999/xlink" width="300" zoomAndPan="magnify" viewBox="0 0 224.87999 225" height="300" preserveAspectRatio="xMidYMid meet" version="1.0"><defs><clipPath id="f2328fea3d"><path d="M 0 0.0585938 L 224.761719 0.0585938 L 224.761719 224.9375 L 0 224.9375 Z M 0 0.0585938 " clip-rule="nonzero"/></clipPath><clipPath id="ccf8fde0bd"><path d="M 0 0.0585938 L 224.761719 0.0585938 L 224.761719 224.9375 L 0 224.9375 Z M 0 0.0585938 " clip-rule="nonzero"/></clipPath><clipPath id="f09749ec60"><path d="M 112.441406 0.0585938 C 50.339844 0.0585938 0 50.402344 0 112.5 C 0 174.597656 50.339844 224.941406 112.441406 224.941406 C 174.539062 224.941406 224.878906 174.597656 224.878906 112.5 C 224.878906 50.402344 174.539062 0.0585938 112.441406 0.0585938 Z M 112.441406 0.0585938 " clip-rule="nonzero"/></clipPath><clipPath id="36bc542f8c"><path d="M 0 0.0585938 L 224.761719 0.0585938 L 224.761719 224.9375 L 0 224.9375 Z M 0 0.0585938 " clip-rule="nonzero"/></clipPath><clipPath id="0fbc7bf183"><path d="M 112.441406 0.0585938 C 50.339844 0.0585938 0 50.402344 0 112.5 C 0 174.597656 50.339844 224.941406 112.441406 224.941406 C 174.539062 224.941406 224.878906 174.597656 224.878906 112.5 C 224.878906 50.402344 174.539062 0.0585938 112.441406 0.0585938 Z M 112.441406 0.0585938 " clip-rule="nonzero"/></clipPath><clipPath id="ed29a51413"><rect x="0" width="225" y="0" height="225"/></clipPath><clipPath id="ff1fe0a66c"><rect x="0" width="225" y="0" height="225"/></clipPath></defs><g clip-path="url(#f2328fea3d)"><g transform="matrix(1, 0, 0, 1, -0, -0.000000000000031655)"><g clip-path="url(#ff1fe0a66c)"><g clip-path="url(#ccf8fde0bd)"><g clip-path="url(#f09749ec60)"><g transform="matrix(1, 0, 0, 1, -0, -0.000000000000031655)"><g clip-path="url(#ed29a51413)"><g clip-path="url(#36bc542f8c)"><g clip-path="url(#0fbc7bf183)"><path fill="#fffdff" d="M 0 0.0585938 L 224.878906 0.0585938 L 224.878906 224.941406 L 0 224.941406 Z M 0 0.0585938 " fill-opacity="1" fill-rule="nonzero"/></g></g></g></g></g></g><path fill="#8d232d" d="M 152.460938 138.914062 C 155.15625 136.117188 152.710938 132.308594 148.886719 134.226562 C 145.578125 135.886719 143.527344 137.898438 139.519531 138.886719 C 138.882812 139.042969 135.90625 139.566406 135.457031 139.503906 C 134.503906 139.367188 134.648438 137.730469 135.324219 137.398438 C 135.832031 137.152344 139.082031 137.160156 140.09375 137.003906 C 142.746094 136.597656 146.542969 135.453125 147.804688 132.898438 C 149.230469 130.007812 149.117188 120.214844 148.871094 116.71875 C 148.523438 111.835938 145.617188 111.445312 141.355469 110.949219 C 139.527344 110.738281 137.050781 110.523438 135.214844 110.441406 C 130.925781 110.25 120.078125 110.257812 116.871094 113.035156 C 116.078125 113.71875 115.496094 114.410156 115.386719 115.480469 C 115.015625 118.960938 115.160156 127.585938 115.960938 130.929688 C 117.226562 136.25 124.292969 137.179688 128.898438 137.304688 L 129.179688 139.484375 C 125.757812 139.511719 121.992188 138.371094 119.011719 136.726562 C 117.003906 135.617188 114.441406 132.570312 111.972656 134.699219 C 109.148438 137.132812 112.488281 139.878906 114.605469 141.132812 C 118.566406 143.464844 123.855469 145.046875 128.4375 145.144531 C 127.484375 146.054688 125.773438 146.238281 124.582031 146.816406 C 119.378906 149.335938 116.167969 154.894531 114.300781 160.15625 C 113.28125 163.046875 111.328125 170.449219 111.734375 173.292969 C 112.21875 176.671875 117.386719 176.128906 117.832031 172.546875 C 118.722656 165.410156 119.785156 156.375 126.644531 152.324219 C 127.335938 151.914062 128.082031 151.640625 128.816406 151.304688 C 129.171875 151.523438 129.152344 151.777344 129.191406 152.140625 C 129.714844 156.976562 128.992188 162.308594 128.925781 167.152344 C 128.871094 170.886719 127.699219 177.066406 133.226562 176.128906 C 136.320312 175.609375 135.097656 170.460938 135.078125 168.40625 C 135.011719 162.707031 135.050781 156.976562 135.214844 151.289062 C 142.027344 152.933594 144.816406 160.59375 146.089844 166.742188 C 146.414062 168.308594 146.808594 173.53125 147.378906 174.496094 C 147.554688 174.800781 149.058594 175.609375 149.476562 175.664062 C 151.820312 175.972656 153.03125 174.582031 153.066406 172.320312 C 153.15625 166.1875 150.371094 156.421875 146.40625 151.671875 C 143.429688 148.109375 139.730469 146.484375 135.339844 145.265625 C 140.082031 144.746094 144.84375 143.585938 149.042969 141.25 C 149.894531 140.777344 151.839844 139.570312 152.484375 138.90625 Z M 135.113281 131.335938 C 135.078125 131.15625 134.824219 130.847656 134.824219 130.761719 L 134.824219 126.820312 L 135.195312 126.449219 L 143.191406 126.449219 C 143.691406 131.542969 138.65625 131.007812 135.113281 131.335938 Z M 135.058594 116.71875 C 135.539062 116.382812 142.472656 117.054688 142.882812 117.410156 C 143.289062 117.761719 143.453125 120.34375 142.820312 120.796875 L 135.195312 120.796875 C 134.613281 120.617188 134.703125 117.324219 135.058594 116.71875 Z M 121.785156 117.464844 C 122.3125 117.0625 128.707031 116.324219 129.0625 116.84375 L 128.9375 120.6875 L 121.539062 120.550781 C 121.660156 119.835938 121.265625 117.855469 121.777344 117.464844 Z M 129.171875 130.761719 C 128.871094 131.734375 124.136719 130.765625 123.203125 130.328125 C 121.640625 129.589844 121.511719 128.054688 121.546875 126.449219 L 128.800781 126.449219 L 129.171875 126.820312 Z M 129.171875 130.761719 " fill-opacity="1" fill-rule="nonzero"/><path fill="#8d232d" d="M 119.703125 92.011719 C 122.300781 90.976562 121.914062 87.472656 119.339844 86.699219 L 107.882812 86.351562 L 107.265625 85.980469 L 107.265625 81.800781 L 107.636719 81.429688 L 117.476562 81.429688 C 117.5625 81.429688 118.957031 80.691406 119.015625 80.628906 C 119.152344 80.503906 119.777344 79.066406 119.8125 78.820312 C 120.375 74.316406 112.699219 75.679688 110.089844 75.53125 C 109.285156 75.484375 108.511719 75.148438 107.683594 75.285156 C 107.003906 74.269531 107.113281 72.386719 107.628906 71.324219 C 107.75 71.0625 109.828125 68.601562 109.980469 68.5 C 110.09375 68.425781 110.203125 68.363281 110.347656 68.371094 C 111.527344 68.246094 116.351562 72.386719 117.832031 72.953125 C 119.6875 73.605469 121.992188 72.335938 121.785156 70.253906 C 121.566406 68.042969 115.816406 64.59375 114.179688 63.074219 C 115.84375 60.742188 116.695312 55.222656 112.316406 56.089844 C 111.453125 56.261719 109.5 58.996094 108.929688 59.839844 C 108.246094 60.867188 105.496094 66.4375 104.429688 66.355469 C 101.949219 63.875 99.40625 54.324219 94.527344 56.269531 C 92.882812 56.925781 93.394531 59.839844 93.925781 61.175781 C 94.199219 61.875 95.546875 63.511719 95.472656 64.054688 L 89.183594 68.628906 C 88.96875 66.0625 89.039062 63.449219 89.046875 60.867188 C 89.046875 59.378906 89.601562 58.394531 88.75 56.75 C 87.640625 54.589844 83.953125 55.0625 83.40625 57.449219 C 82.789062 61.8125 83.988281 68.851562 82.535156 72.816406 C 81.84375 74.703125 80.035156 74.90625 78.636719 75.804688 C 76.183594 77.386719 75.121094 79.582031 74.304688 82.300781 C 73.867188 92.632812 74.464844 103.242188 73.277344 113.507812 C 72.984375 116.074219 71.003906 120.585938 74.105469 121.839844 C 77.308594 123.125 78.347656 119.832031 78.683594 117.4375 C 80.183594 106.839844 78.621094 95.695312 79.445312 85.226562 C 79.5625 83.71875 80.109375 81.621094 81.355469 80.675781 C 83.988281 78.683594 86.703125 79.292969 88.1875 75.023438 C 88.421875 74.359375 88.574219 71.832031 88.929688 71.832031 C 90.882812 74.503906 93.773438 72.835938 95.628906 71.089844 L 99.023438 69.117188 C 101.007812 70.550781 102.242188 72.851562 101.378906 75.367188 L 92.875 75.769531 C 90.996094 76.429688 90.132812 77.402344 90.636719 79.472656 C 90.828125 80.257812 91.910156 81.253906 92.621094 81.421875 L 101.605469 81.421875 L 101.605469 86.21875 L 101.234375 86.589844 L 92.375 86.589844 C 91.976562 86.589844 90.765625 87.269531 90.410156 87.578125 C 88.804688 89.003906 89.546875 91.484375 91.367188 92.269531 C 93.191406 93.058594 100.988281 91.765625 101.488281 92.484375 L 101.894531 120.371094 C 102.496094 121.886719 104.503906 122.425781 105.964844 121.839844 C 106.304688 121.703125 107.257812 120.699219 107.257812 120.425781 L 107.257812 92.621094 C 107.476562 92.269531 107.75 92.277344 108.109375 92.238281 C 111.65625 91.820312 116.289062 93.359375 119.695312 92.011719 Z M 119.703125 92.011719 " fill-opacity="1" fill-rule="nonzero"/><path fill="#8d232d" d="M 82.191406 84.535156 C 81.960938 93.222656 82.5 102.097656 81.925781 110.820312 C 81.796875 112.765625 80.644531 116.597656 81.679688 118.207031 C 82.742188 119.851562 85.242188 119.925781 86.523438 118.5 C 87.296875 117.636719 87.503906 113.871094 87.59375 112.558594 C 88.25 103.34375 87.667969 93.976562 88.085938 84.734375 C 88.25 80.347656 82.296875 80.574219 82.191406 84.535156 Z M 82.191406 84.535156 " fill-opacity="1" fill-rule="nonzero"/><path fill="#8d232d" d="M 76.683594 75.460938 C 80.382812 76.3125 81.019531 71.6875 81.191406 69.007812 C 81.335938 66.828125 81.464844 62.167969 81.191406 60.125 C 80.972656 58.496094 78.902344 57.8125 77.421875 58.105469 C 74.132812 58.769531 75.449219 65.855469 75.273438 68.5 C 75.222656 69.261719 75.085938 70.390625 74.96875 71.152344 C 74.886719 71.679688 74.410156 72.289062 74.386719 72.6875 C 74.355469 73.613281 75.785156 75.261719 76.675781 75.46875 Z M 76.683594 75.460938 " fill-opacity="1" fill-rule="nonzero"/><path fill="#8d232d" d="M 112.4375 9.714844 C 105.394531 9.714844 98.515625 10.425781 91.867188 11.777344 C 91.765625 11.796875 91.667969 11.820312 91.566406 11.839844 C 90.914062 11.976562 90.265625 12.113281 89.621094 12.265625 C 89.402344 12.3125 89.183594 12.367188 88.957031 12.414062 C 88.414062 12.542969 87.875 12.675781 87.332031 12.8125 C 87.058594 12.878906 86.785156 12.949219 86.511719 13.019531 C 85.96875 13.15625 85.433594 13.304688 84.898438 13.457031 C 84.652344 13.523438 84.414062 13.585938 84.167969 13.65625 C 41.148438 25.933594 9.65625 65.535156 9.65625 112.5 C 9.65625 169.261719 55.675781 215.28125 112.4375 215.28125 C 169.203125 215.28125 215.222656 169.261719 215.222656 112.5 C 215.222656 55.734375 169.203125 9.714844 112.4375 9.714844 Z M 114.652344 20.273438 C 114.832031 19.707031 118.015625 19.863281 118.707031 19.910156 C 138.449219 21.171875 162.515625 30.847656 176.417969 45.128906 C 177.988281 46.746094 174.390625 46.167969 173.339844 46.246094 C 156.890625 47.347656 136.339844 45.660156 122.929688 35.121094 C 120.546875 33.253906 114.652344 27.269531 114.652344 24.222656 Z M 47.964844 45.621094 C 56.460938 37.800781 66.152344 31.195312 76.875 26.789062 C 85.5625 23.21875 96.40625 20.515625 105.910156 19.898438 C 106.519531 19.855469 110.226562 19.738281 110.226562 20.273438 C 110.082031 21.742188 110.425781 23.535156 110.226562 24.949219 C 109.917969 27.09375 105.632812 31.890625 103.957031 33.445312 C 90.996094 45.46875 68.117188 47.457031 51.289062 46.238281 C 50.691406 46.195312 47.734375 46.558594 47.972656 45.621094 Z M 23.851562 140.96875 L 22.742188 138.261719 C 18.105469 121.652344 18.125 104.179688 22.742188 87.570312 L 23.851562 84.863281 Z M 32.960938 161.148438 C 31.054688 158.757812 29.519531 155.765625 28.53125 152.90625 L 28.53125 134.941406 C 28.53125 134.941406 28.773438 134.445312 28.773438 134.445312 C 31.539062 133.371094 32.007812 129.210938 29.78125 127.300781 C 29.328125 126.910156 28.585938 127 28.527344 126.339844 C 28.820312 123.148438 28.15625 119.34375 28.519531 116.234375 C 28.558594 115.875 28.546875 115.601562 28.902344 115.382812 L 32.597656 115.382812 L 32.964844 115.753906 L 32.964844 161.148438 Z M 32.960938 110.085938 L 32.589844 110.457031 L 28.894531 110.457031 L 28.511719 109.605469 L 28.511719 72.925781 C 29.601562 70.015625 31.039062 67.136719 32.953125 64.691406 L 32.953125 110.085938 Z M 42.304688 172.957031 C 41.214844 172.914062 37.632812 168.980469 37.632812 168.40625 L 37.632812 115.746094 L 38.003906 115.375 L 42.066406 115.375 C 41.984375 115.617188 42.3125 115.910156 42.3125 115.992188 L 42.3125 172.957031 Z M 42.304688 109.839844 C 42.304688 109.921875 41.976562 110.21875 42.058594 110.457031 L 37.996094 110.457031 L 37.625 110.085938 L 37.625 58.660156 C 38.695312 57.851562 39.832031 56.761719 40.996094 56.125 C 41.257812 55.980469 42.300781 55.296875 42.300781 55.953125 L 42.300781 109.839844 Z M 46.738281 166.808594 L 46.738281 61.738281 C 47.128906 61.65625 47.246094 61.855469 47.480469 62.105469 C 48.378906 63.074219 50.664062 69.214844 51.289062 70.851562 C 61.476562 97.730469 61.621094 129.800781 51.609375 156.792969 C 50.761719 159.085938 48.664062 164.761719 47.308594 166.5 C 47.152344 166.707031 47.316406 166.945312 46.746094 166.808594 Z M 78.929688 199.941406 C 69.234375 196.324219 58.628906 189.804688 50.914062 182.925781 C 50.589844 182.636719 47.734375 180.035156 47.964844 179.851562 C 62.761719 184.179688 77.757812 187.851562 93.0625 189.996094 C 96.453125 190.46875 100.03125 191.101562 103.457031 191.410156 C 104.605469 191.511719 105.859375 191.339844 107.019531 191.410156 C 107.582031 191.992188 104.914062 194.617188 104.367188 195.089844 C 100.851562 198.117188 95.636719 200.261719 91.121094 201.222656 C 85.640625 202.386719 84 201.824219 78.929688 199.933594 Z M 127.992188 204.882812 C 126.363281 205.503906 118.640625 206.066406 116.488281 206.175781 C 110.929688 206.449219 104.058594 206.050781 98.5625 205.160156 C 98.21875 205.105469 96.683594 204.902344 96.691406 204.578125 C 102.976562 202.113281 109.066406 198.660156 112.191406 192.402344 C 112.671875 192.074219 114.054688 194.789062 114.398438 195.234375 C 115.335938 196.4375 116.761719 197.980469 117.933594 198.953125 C 120.894531 201.414062 124.765625 203.296875 128.425781 204.464844 C 128.425781 204.722656 128.199219 204.804688 127.992188 204.886719 Z M 175.761719 181.164062 C 168.148438 189.183594 152.769531 198.1875 142.164062 201.332031 C 139.011719 202.261719 136.957031 201.851562 133.796875 201.1875 C 128.773438 200.132812 121.167969 197.042969 118.234375 192.636719 C 117.960938 192.226562 117.460938 191.527344 118.214844 191.417969 C 119.257812 191.265625 120.566406 191.511719 121.660156 191.417969 C 139.574219 189.792969 157.257812 185.3125 174.609375 180.628906 C 175.261719 180.453125 175.890625 180.0625 176.542969 179.855469 C 177.035156 180.628906 176.089844 180.824219 175.761719 181.164062 Z M 178.136719 167.050781 C 177.144531 165.890625 176.335938 164.128906 175.707031 162.710938 C 162.96875 134.050781 162.769531 97.367188 174.574219 68.382812 C 175.480469 66.15625 176.609375 63.25 178.136719 61.492188 Z M 168.53125 71.453125 C 163.945312 84.363281 161.671875 97.820312 161.363281 111.53125 L 160.992188 111.902344 C 154.539062 111.175781 154.855469 121.1875 161.398438 119.808594 L 162.40625 131.71875 C 163.34375 137.40625 164.351562 143.058594 165.898438 148.652344 C 168.429688 157.804688 172.054688 166.78125 176.90625 174.921875 C 172.066406 176.5 167.097656 177.964844 162.144531 179.238281 C 147.585938 182.988281 132.023438 186.160156 117.003906 186.996094 C 116.667969 187.015625 115.550781 187.121094 115.363281 186.847656 C 114.191406 184.679688 116.199219 179.210938 112.78125 178.882812 C 108.703125 178.492188 110.65625 184.757812 109.507812 186.878906 C 109.136719 187.140625 101.644531 186.605469 100.515625 186.496094 C 85.542969 185.003906 68.359375 181.015625 53.886719 176.78125 C 53.050781 176.53125 48.347656 175.25 48.289062 174.820312 C 50.355469 170.789062 52.515625 166.816406 54.257812 162.628906 C 59.894531 149.070312 62.828125 134.496094 63.484375 119.816406 C 65.691406 119.941406 67.226562 120.035156 68.207031 117.773438 C 69.140625 115.628906 68.222656 112.476562 65.769531 112 C 65.089844 111.867188 63.738281 112.199219 63.519531 111.539062 C 63.316406 93.792969 59.304688 76.105469 51.722656 60.097656 L 46.511719 50.671875 L 52.53125 51.171875 C 70.523438 51.765625 92.691406 49.683594 106.710938 37.296875 C 107.582031 36.527344 108.503906 35.15625 109.394531 34.445312 C 109.703125 34.199219 109.78125 34.09375 110.238281 34.183594 L 110.238281 46.855469 C 110.238281 46.921875 110.847656 47.964844 110.984375 48.074219 C 111.945312 48.890625 114.1875 48.621094 114.554688 47.230469 C 115.027344 43.449219 114.300781 39.269531 114.664062 35.535156 C 114.691406 35.226562 114.789062 33.972656 115.277344 34.175781 C 116.808594 35.84375 118.414062 37.445312 120.195312 38.851562 C 125.703125 43.1875 133.0625 46.367188 139.894531 48.183594 C 152.429688 51.519531 165.503906 51.554688 178.390625 50.789062 C 174.417969 57.386719 171.128906 64.167969 168.546875 71.445312 Z M 187.246094 167.917969 C 187.046875 169.578125 184.257812 172.304688 182.6875 172.964844 L 183.175781 115.136719 L 186.867188 115.136719 L 187.25 115.988281 L 187.25 167.925781 Z M 186.867188 110.703125 L 183.175781 110.703125 L 182.804688 110.332031 L 182.804688 55.582031 L 187.109375 58.542969 L 187.25 109.855469 Z M 196.351562 153.152344 C 196.050781 154.503906 195.296875 155.675781 194.664062 156.882812 C 193.933594 158.277344 192.972656 160.039062 191.917969 161.144531 L 191.917969 115.5 L 192.289062 115.128906 L 195.980469 115.128906 L 196.367188 115.980469 L 196.367188 153.152344 Z M 196.34375 100.492188 L 196.34375 110.703125 L 192.28125 110.703125 L 191.910156 110.332031 L 191.910156 64.691406 C 193.773438 67.007812 195.226562 69.910156 196.316406 72.707031 L 196.351562 92.585938 C 192.871094 93.941406 192.945312 98.972656 196.335938 100.488281 Z M 201.019531 140.96875 L 201.019531 84.871094 C 201.320312 85.007812 201.648438 85.898438 201.765625 86.21875 C 206.972656 100.542969 206.917969 125.492188 201.703125 139.8125 C 201.585938 140.128906 201.382812 140.929688 201.023438 140.976562 Z M 201.019531 140.96875 " fill-opacity="1" fill-rule="nonzero"/></g></g></g></svg>