<?xml version="1.0" encoding="UTF-8"?>
<svg id="_圖層_1" data-name="圖層 1" xmlns="http://www.w3.org/2000/svg" viewBox="0 0 141.59 228.19">
  <defs>
    <style>
      .cls-1 {
        fill: #fff;
      }
    </style>
  </defs>
  <g>
    <path class="cls-1" d="M86.82,15.15c6.68-5.09,5.52-9.94,2.15-12.99-3.32-2.79-9.17-3.73-14.39,2.51-16.36,18.28-27.11,30.81-31.72,36.94l2.26,2.13c11.92-7.17,26.01-16.64,41.69-28.59Z"/>
    <path class="cls-1" d="M47.7,46.68C-20.04,53.11,4.44,112.39,3.78,156.87c-.68,45.59-6.66,76.91,61.07,70.48,90.49-8.59,87.93-61.33,58.34-96.56-33.93-40.39-7.75-90.55-75.49-84.12ZM84.04,213.45c-52.98,13.23-53.3-18.01-53.8-66.04-.17-16.26-31.34-49.16,20.36-61.6,52.56-12.85,40.23,31.12,53.59,48.12,32.76,41.68,32.43,67.02-20.16,79.52Z"/>
  </g>
  <g>
    <path class="cls-1" d="M110.62,84.99c-1.11-1.83-.96-3.59-.08-5.32l.18-.31c.07-.18.18-.31.31-.49,0,0,0,0,0,0l.22-.34c.54-.68,1.22-1.3,1.85-1.73,2.72-1.92,6.4-2.02,8.39.53,1.37,1.77,1.58,4.07-.87,5.16-2.85,1.27-5.48-.77-8.21-3.01l-.27.35c2.89,2.51,6.51,5.76,9.03,4.63,2.18-.98,2.3-3.85,1.31-6.06-1.92-4.29-6.36-5.25-9.52-3.84s-5.29,5.3-3.37,9.6c1.02,2.28,2.51,3.33,4.36,4.02l.09-.33c-1.47-.56-2.51-1.38-3.43-2.86Z"/>
    <polygon class="cls-1" points="116.99 54.58 114.76 51.66 114.57 51.81 114.52 52.92 101.25 63.05 100.17 62.81 99.98 62.95 101.69 65.19 101.94 65 115.71 54.48 116.8 54.72 116.99 54.58"/>
    <polygon class="cls-1" points="106.41 70.85 102.4 65.61 102.15 65.8 107.1 72.29 109.78 70.98 109.64 70.79 106.41 70.85"/>
    <g>
      <path class="cls-1" d="M133.72,120.06c2.91-1.86,2.79-4.62,1.44-6.75-.8-1.26-1.97-2.17-3.38-2.74l-.72.46c1.31.06,2.52.7,3.3,1.94,1.16,1.82.46,4.03-1.58,5.33l-6.83,4.36-1.06-.33-.2.13,1.99,3.11.2-.13.15-1.1,6.7-4.27Z"/>
      <polygon class="cls-1" points="128.95 111.4 130.79 110.23 132.5 109.15 132.37 108.94 130.06 107.36 129.86 107.48 129.85 108.5 120.66 114.36 119.6 114.03 119.4 114.15 121.37 117.25 121.57 117.12 121.72 116.02 128.95 111.4"/>
      <path class="cls-1" d="M137.71,116.76l.12.19.29-.19c.75-.21,2.36.97,3.2.52.46-.25.54-.77.17-1.35-.18-.29-.41-.5-.71-.71l-.47.12.03.04c.44.07.87.2,1.1.57.21.33.13.65-.29.87-1.07.54-2.56-.63-3.45-.07Z"/>
      <polygon class="cls-1" points="139.2 118.44 138.42 117.23 138.13 117.42 139.02 118.81 139.45 118.54 139.42 118.5 139.2 118.44"/>
    </g>
    <g>
      <path class="cls-1" d="M126.83,95.01c-1.8-3.63-6.01-4.73-9.48-3.01-3.58,1.78-5,5.68-3.2,9.31,1.84,3.71,5.96,4.76,9.45,3.02,3.63-1.8,5.01-5.72,3.22-9.32ZM123.29,102.31c-2.98,1.98-6.29,2.23-8.11-.5-1.85-2.79-.46-5.53,2.71-7.63,3.04-2.02,6.3-2.29,8.11.45,1.88,2.83.48,5.56-2.72,7.68Z"/>
      <path class="cls-1" d="M128.07,92.73c-.13-.08-.18-.18-.12-.32.05-.17.12-.23.24-.19l3.09.91c.57.17.9.25,1.1,1.11.15.65-.02,1.04-.29,1.11-.15.03-.33.01-.49-.1l-3.54-2.5Z"/>
    </g>
  </g>
</svg>