<?xml version="1.0" encoding="UTF-8"?>
<svg id="_图层_1" data-name="图层 1" xmlns="http://www.w3.org/2000/svg" viewBox="0 0 400 400">
  <defs>
    <style>
      .cls-1 {
        fill: #fff;
      }
    </style>
  </defs>
  <path class="cls-1" d="M343.77,288.03c-17.76-3.52-31.91-9.33-51.12-8.44-26.58,1.22-41.85,13.44-64.13,24.63-1,.5-7.57,3.71-7.91,3.33-.68-2.6,1.4-5.03,1.79-7.02,3.14-16.26-6.39-29.71-23.81-24.41-8.23,2.5-11.48,11.69-6.12,18.51.39.5-.01,1.12,1.39.76-1.11-14.1,19.53-14.12,19.45-.3-.04,6.93-5.65,12.37-12.13,14-24.28,6.1-43.57-13.44-63.91-22.45-33.67-14.93-62.33-5.65-96.3.85l-30.69-1.2c.32.93,2.17,1.68,3.05,2.11,28.98,14.42,46.25-2.14,73.86-3.94,15.52-1.01,31.29,2.44,45.76,7.72,6.37,2.33,13.68,5.17,18.97,9.29-6.27-.85-11.89-4.73-17.76-6.86-15.24-5.54-33.22-8.23-49.41-6.5-1.36.14-3.16.59-4.44,1.06-.97.35-1.63-.33-1.33,1.37,22.14-1.93,44.2,4.37,64.25,13.26,13.52,6,30.85,18.76,45.5,18.38,2.75-.07,6.4-1.3,9.06-1.26,1.99.03,4.63,1.11,6.73,1.23,16.6.94,23.65-6.28,37.59-12.85,21.61-10.17,44.51-18.16,68.78-17.54,2.1.05,4.02,1.3,6.39-.01l-3.98-1.79c-22.43-3.6-42.88,2.12-63.22,10.27-2.74,1.1-5.32,3.01-8.17,3.06l6.87-4.37c26.71-12.43,50.97-16.15,79.45-8.69,19.05,4.99,37.3,11.15,56.1.17.78-.45,1.25-.64,1.04-1.69-13.38.25-28.4,1.94-41.58-.67Z"/>
  <path class="cls-1" d="M293.32,181.78c2.02-2.82,6.72-3.82,1.85-7.77-.33-.27-5.28-3.25-5.6-3.28-1.95-.2-2.73,2.13-4.36,2.93-2.66,1.3-14.46,1.1-17.32-.03-1.9-.75-7.04-5.88-8.25-1.83-.31,23.88-.36,47.77-.7,71.63-.03,2.25.02,4.49-.02,6.66-.06,2.84-2.39,9.94,1.64,11.11,2.44.71,5.55.35,6.78-2.08,1.62-3.18.55-20.99.66-26.08.29-13.33.9-26.85,1.27-40.07.11-4.02-.68-10.43,0-13.99.7-3.73,5.67-1.68,8.12-1.59,1.63.06,6.97-1.42,7.56,1.66.1.51-2.11,8.71-2.5,10.08-1.18,4.14-6.57,16.02-6.54,19.03.03,2.96,4.01,5.81,5.62,8.38,4.25,6.81,9.65,26.15-3.46,26.01-.63,0-6.72-1.67-5.77.24.4.81,3.74,2.3,4.87,3.64,2.95,3.53.79,7.15,7,6.41,9.3-1.11,11.87-12.67,11.25-20.4-.5-6.23-4.37-13.07-8.54-17.6-5.38-5.85-8.78-3.65-4.48-13.01,2.07-4.5,8.24-16.3,10.94-20.06Z"/>
  <path class="cls-1" d="M214.25,146.43c5.47.05,10.98.65,16.4.65.96,0,1.8-.51,2.72-.63.85-1.21-4.78-7.16-6.41-7.32-2.96-.29-4.38,5.55-7.28,6.1-2.01.38-19.14.37-19.14-1.51v-30.4c0-2.18,4.16-.89,5.14-.88,6.36.08,15.28.65,21.33,0,2.91-.31,2.03-1.78.61-3.71-7.37-10.03-7.6.67-11.08,1.74-3.48,1.07-9.9-.83-13.79.54-1.37-.26-2.34-1.01-2.24-2.52.74-7.06-.33-16.38.61-23.17.27-1.98,1.71-2.36,1.74-3.5.06-2.05-6.73-3.77-8.41-1.95l-1.2,64.76h-26.14v1.82c15.7.13,31.43-.16,47.14-.02Z"/>
  <path class="cls-1" d="M324.56,177.46h-15.5c-2.18,0-1.67,3.04-.61,3.04h15.81c1.85,0,2.87,7.48,2.73,9.12-3.02-.37-9.86-1.08-12.42.58-1.55,1.01,1.68,2,2.64,2.82,3.81,3.24,5.11,7.33,8.25,9.99,4.32,3.65,8.37-1.04,8.23-5.76-.04-1.4-1.33-4.11-1.14-4.84.11-.43,3.38-2.6,3.92-4.61.33-1.24-1.36-7.3.55-7.3h13.37c2.88,0-3.03-9.44-4.87-9.76-.69-.12-1.53-.05-2.13.33-.44.27-3.54,5.77-4.37,6.26-.64.37-3.56.29-4.17-.13-2.58-1.78,1.71-6.92,1.3-8.52-2.09-1.78-10.84-2.44-12.26-.7-1.53,1.88,1.58,6.86.67,9.48Z"/>
  <path class="cls-1" d="M115.15,145.22c.94,1.08,1.39,2.95,1.53,3.05.17.14,3.94-.62,4.39-.76,3.92-1.18,4.93-5.16,5.28-8.76,1.68-17.58-1.35-37.94.61-55.86.27-2.48,2.57-2.35-.37-4.43-2.4-1.69-6.5-3.51-6.92.78l-.6,58.98c-.04,3.88-9.15.96-9.09,3.06,0,.32,4.03,2.63,5.17,3.94Z"/>
  <path class="cls-1" d="M367.42,180.5c4.93,0-.69,7.53,1,10.25.56.9,6,.92,7.2.38,3.04-1.37,2.96-10.63,5.18-10.63h18.54c.57-2.37-4.53-9.56-6.41-9.76-2.98-.31-5.83,9.91-11.22,7.33-1.04-3.79,1.97-3.85,2.78-6.7-.59-1.25-7.81-4.39-9.14-4.27-4.23.4-2.33,8.72-5.19,10.05-2.36,1.1-12.92.43-13.38.91-.08.09-.08,2.34,0,2.43.37.38,9.14,0,10.64,0Z"/>
  <path class="cls-1" d="M336.45,309.34c-7.24-3.69-27.52-3.67-35.92-3.03-4.53.35-19.54,2.54-13.08,9.47,4.7,5.04,9.57-.77,14.45-2.63,4.73-1.8,10.57-2.35,15.64-2.6,6.55-.32,13.96-.17,20.39.63.25-1.3-.61-1.41-1.48-1.86Z"/>
  <path class="cls-1" d="M106.15,307.41c-9.87-3.75-33.95-3.52-44.33-.9l-4.74,2.25h24.01c1.8,0,6.83,1.02,8.79,1.55,3.86,1.04,10.84,5.68,13.69,5.81,5.89.27,8.51-6.45,2.58-8.71Z"/>
  <path class="cls-1" d="M101.78,250.98c.87,2.43,6.03,6.21,7.28,9.14l12.46-38.89-2.01.74c-4.01,5.92-7.62,12.19-11.72,18.05-2.25,3.21-7.53,6.73-6.01,10.96Z"/>
  <path class="cls-1" d="M311.41,256.56c.79,1.41,1.35,5.38,3.35,4.11.48-.31,3.47-9.04,4.22-10.67,2.88-6.28,7.88-14.18,10.11-20.29.37-1.02.44-1.94.33-3.01l-21.81,22.92c-.26,1.04,2.99,5.49,3.81,6.94Z"/>
  <path class="cls-1" d="M17.84,225.45c-2.4,2.81-5.06,7.62-7.58,10.66-1.58,1.91-10.06,10.17-10.24,11.1-.34,1.76,2.48,3.96,3.46,5.41,1.28,1.89,1.79,4.25,4.05,5.67l12.46-34.03c-.99-.19-1.59.53-2.15,1.19Z"/>
  <path class="cls-1" d="M5.39,199.05c2.37,2.84,4.79,10.83,7.74,11.71,5.72,1.71,7.64-3.91,6.83-8.65-.27-1.59-1.21-2.07-2.13-3.04-3.8-3.99-9.61-5.87-15.19-5.23-4.46.52,1.03,3.15,2.75,5.21Z"/>
  <path class="cls-1" d="M102.77,116.46c1.53-3.07,3.16-9.18,4.83-11.58,1.04-1.49,3.78-1.49,1.35-3.32-1.06-.8-6.14-3.4-7.12-3.1-1.74.52-1.89,8.34-2.37,10.44-1.29,5.62-3.47,11.92-6,17.1-1.24,2.54-3.41,4.37-3.55,7.08,5.62-4.06,9.76-10.39,12.86-16.62Z"/>
  <path class="cls-1" d="M10.86,172.93c.52.49,2.08,2.05,2.44,2.54,1.44,1.96,4.19,8.81,6.42,9.26,7.87,1.58,8.7-8.55,4.36-12.57-.36-.33-6.81-3.07-7.45-3.19-2.96-.54-5.87.55-8.79.57-.58,2.33,1.72,2.15,3.02,3.38Z"/>
  <path class="cls-1" d="M313.34,212.69c1.51,1.95,3.51,7.44,5.4,8.58,6.8,4.08,11.45-6.44,5.53-11.61-1.18-1.03-5.09-2.84-6.69-3.04-1.6-.2-11.53-.75-9.42,2.42.18.27,3.66,1.7,5.17,3.65Z"/>
  <path class="cls-1" d="M106.58,198.17c1.62,2.18,4.86,10.16,6.08,10.94,6.48,4.18,11.34-7.14,5.25-12.54-3.83-3.39-11.02-3.52-15.84-3.3,1.14,1.92,3.21,3.13,4.52,4.9Z"/>
  <path class="cls-1" d="M151.32,135.21c2.45,1.14,4.49-1.59,4.74-3.82.86-7.51-8.38-20.97-13.56-26.29-.76-.78-1.5-1.97-2.74-1.81l7.64,18.19c.4,3.1.9,12.33,3.92,13.73Z"/>
  <path class="cls-1" d="M249.79,146.71l7.9-22.75c-1.31-1.41-6.72,7.47-7.31,8.19-1.82,2.22-7.77,6.31-6.37,9.41.27.6,5.44,7.79,5.77,5.15Z"/>
  <path class="cls-1" d="M169.23,286.28c-2.87-.29-10.66-1.13-10.02,3.03,7.27-.32,13.89,1.91,19.75,6.08l6.38,6.08c-1.1-8.24-7.77-14.35-16.11-15.19Z"/>
  <path class="cls-1" d="M225.48,301.47c.91,1.05,5.6-5.42,6.38-6.08,4.09-3.43,10.89-5.37,16.11-6.08,1.43-1.58-4.84-3.02-5.81-3.06-8.92-.34-16.15,6.51-16.68,15.22Z"/>
  <path class="cls-1" d="M262.27,91.16c5.64-5.76-3.89-12.27-10.22-10.84-.89.2-1.66.68-2.25,1.38,4.18.87,7.64,14.39,12.47,9.45Z"/>
  <path class="cls-1" d="M253.26,111.81c4.56,1.16,5.53-3.49,5.08-7.03-.14-1.09-.76-.83-.98-1.14-3.02-4.3-7.57-3.93-12.43-3.99,1.84,1.32,7.39,11.92,8.33,12.16Z"/>
  <path class="cls-1" d="M257.31,314.77c-4.97,2.3-10.43,3.83-15.81,4.86-2.39.46-5.26-.2-7.52,1.59,1.46,1.86,2.91,2.12,5.16,2.17,5.36.12,14.81-2.66,19.11-5.86,1.14-.85,2.98-3.97,4.3-5.12-2.37-.47-3.32,1.47-5.24,2.35Z"/>
  <path class="cls-1" d="M159.64,320.19c-2.38-1.24-8.51-1.58-11.96-2.63-4.99-1.51-9.81-4.37-14.61-6.36-.67.65,2.46,3.44,3.02,3.96,4.15,3.86,9.4,5.98,14.98,6.91,1.59.26,9.2,1.09,9.95.07.59-.81-.78-1.63-1.39-1.95Z"/>
  <path class="cls-1" d="M54.29,235.87c3.69,4.25,9.11-2.9,7.33-6.73-.09-.2-2.53-3.21-2.71-3.37-2.51-2.21-7.72-3.05-10.95-2.72,1.04,2.56,3.01,3.67,4.17,6.46.81,1.93.97,4.99,2.16,6.35Z"/>
  <path class="cls-1" d="M61.06,212.13c2.4-1.36,2.56-5.19,2.08-7.62-.67-3.39-9.42-6.27-12.75-5.17-.51.45,2.14,3.64,2.53,4.45,1.67,3.43,2.52,11.52,8.13,8.34Z"/>
  <path class="cls-1" d="M289.9,128.46c.63-4.94-4.79-7.61-9.1-6.93l3.96,9.71c2.27,1.85,4.8-.13,5.14-2.77Z"/>
  <path class="cls-1" d="M285.64,111.51c2.8,3.95,7.49-.27,5.78-3.95-1.08-2.34-5.97-4.83-8.48-4.26-.4.09-.83.57-.63,1.19.18.58,3.03,6.6,3.33,7.03Z"/>
  <path class="cls-1" d="M123.6,173.86c-2.53-4.43-12.02-6.09-16.67-4.91-.21,2.64,2.89,3.87,4.25,5.78,1.44,2.03,3.74,8.92,5.49,9.71,3.65,1.64,5.45-1.72,8.79-2.13,1.86-.23,9.14-.36,10.1.87.86,1.1.93,9.13-.03,9.83-2.29,1.68-8.86-5.6-9.76-2.48v36.47c0,.24,2.61,2.04,3.32,2.08,2.28.12,4.81-3.75,6.12-1.79.89,1.34.25,8.42-.32,10.35h-13.37c.75,5.12,11.77.4,13.68,3.64,1.19,2.01-.31,12.75.31,16.1.24,1.31,1.44,2.48,2.73,2.73,11.9,2.29,4.37-16.77,7.83-19.49,1.35-1.07,10.39-.82,11.93.37,1.26.97-1.5,7.85-2.15,9.41-1.08,2.62-3.76,6.24-4.55,8.83-.25.81.08,1.13.89.89,1.3-.39,5.3-3.96,6.41-5.14,6.63-7.1,9.9-18.22,11.23-27.68,1.07-2.3,7.87-2.54,9.46-.94,2.1,2.1.51,3.55.63,5.44.24,3.65.88,7.19.57,11.03-.68,8.51-3.31,6.48-10.06,6.97-.91.07-1.76-.47-1.51.9,1.64,1.67,4.18,2.31,5.8,3.93,3.16,3.14,1.3,8.02,7.81,5.44,4.03-1.6,6.56-5.06,7.07-9.34,1.33-11.19-.19-24.11-.05-35.25.14-10.95,1.19-21.89.59-32.88.35-2.22,6.74-3.57,2.83-7.62-.17-.18-3.62-2.8-3.89-2.96-7.71-4.64-6.08,1.23-9.36,2.6-1.8.75-5.24.55-7.16.11-2.19-.5-7.88-4.83-8.79-4.56-2.16.64.29,9.88-1.85,10.33-1.7.36-4.06-6.7-6.68-6.7-1.83,0-5.52,6.74-7.19,6.61-3.14-.26-2.67-5.98-1.51-8.02.52-.9,2.84-1.35,1.6-3.35-.51-.82-9.39-3.18-10.56-2.97-1.52.27-.75,6.41-.89,8.04-.07.83-.67,4.93-.87,5.21-.62.92-10.39.92-11.02,0-.56-.83-.16-3.6-1.23-5.46ZM178.83,177.59c4.12.97,1.62,5.3,1.6,8.07-.01,1.46.76,2.84.71,4.26-.1,2.75-1.14,5.78-.72,8.75-1.53,1.02-8.1.72-8.49-.95-.26-1.14.65-3.69.68-5.34.1-6.12-3.67-17.11,6.22-14.79ZM171.38,203.92c.17-1.03,1.25-2.33,2.24-2.63,1.45-.43,6.32.12,6.78,1.47.39,1.13.38,18.91-.19,19.72-.61.87-8.85,1.18-9.38-.43-1.18-3.62,1.71-13.64.54-18.14ZM134.89,223.66c.2-.6-.61-1.32-.61-1.52v-10.33c0-.06.85-.91.91-.91h10.94c.06,0,.91.85.91.91v11.25c-.6-.2-1.32.61-1.52.61h-10.64ZM152.8,182.96c3.22.05,6.29-.09,9.45-.64-.21,17.33.89,34.78-1.92,51.87-1.08,3.57-4.51-3.15-6.76-2.57-1.52.39-7.06,10.45-8.31,3.87-.22-1.13-.19-7.52.26-8.21,1.19-1.82,8.43,3.9,9.79-1.77,1.66-6.94-.53-18.61.89-25.86.28-1.42,1.84-1.95,1.84-3.05,0-1.34-4.25-4.53-5.47-4.89-3.78-1.12-6.7,2.49-6.77-3.63-.09-7.75,2.08-5.22,7.01-5.14ZM147.11,197.15c1.48,1.86,0,8.67-.63,11.04-2.33.18-10.37,1.03-11.65-.59-1-1.27-1.35-11.07,1.09-11.79,1.87-.55,9.92-.26,11.19,1.34Z"/>
  <path class="cls-1" d="M26.08,201.47c2.45.92,6.74-5.77,8.2-5.77.28,0,.98,1.02.93,1.51-.39,2.38-1.79,18.44-2.48,19.11-.54.53-6.88-.85-7.26.95-.61,2.88,5.83,1.87,6.08,2.12,1.81,1.8-4.47,18.36-2.74,21.89.21.42,2.17,1.82,2.43,1.82h34.04c.6,0,.98,1.46.97,2.13-.03,2.74-3.2,3.75-5.42,3.82-.9.03-1.46-.48-1.63-.48h-8.81c.37,2.68,3.9,3.07,5.72,4.92,4.27,4.35,1.24,8.65,10.08,5.1,3.27-1.31,6.31-4.22,7.75-7.45.76-1.7,1.53-7.71,3.59-7.94.56-.06.96.5,1.12.5h10.94c2.85,0-2.86-8.92-3.66-9.12-2.2-.55-4.59,10.26-8.72,5.68l2.34-20.88h12.46c.24,0,.92-.78.83-1.42-.13-.91-4.47-7.08-5.08-7.08-1.4,1.21-4.82,9.2-7.33,5.49-1.32-1.96-.72-15.21.65-17.05.82-1.1,2.75-1.39,2.76-2.74.01-1.91-7.36-7.06-9.47-7.05-2.51.01-2.18,2.06-3.75,2.97-2.16,1.25-22.98,1.03-26.22.31-1.36-.3-4.84-1.58-5.02-2.94-.18-1.34,3.45-8.8,4.6-8.8h44.07c.12-3.08-6.78-10.39-9.42-10.4-3.4-.02-5.07,6.52-8.03,7.84l-24.07.61-1.38-1.09c-1.28-2.96,5.56-4.96,5.21-6.37-.26-1.04-8.76-4.76-10.18-5.03-5.27-1.03-3.32,2.04-3.96,5.48-1.88,10.23-4.62,20.46-10.18,29.34ZM44.91,195.99c1.91-1.12,5.46.27,7.58.33,6.17.19,12.4-.19,18.57-.03-.1,4.53.4,9.15,0,13.68-.12,1.32-.71,7-1.52,7h-26.14c-2.5-.77.04-10.33.3-12.47.25-2.06-.72-7.37,1.21-8.51ZM41.27,219.4c3.14.06,6.3-.06,9.45-.02,1.44.02,2.75.66,4.2.66,3.89,0,8.56-1.19,12.82-.66,3.03.37,2.26,3.62,2.12,6.44-.2,3.92-.88,7.32-1.81,10.95-.33,1.29.51,3.04-.95,3.91h-28.27c-2.26-1.44,3.12-18,2.43-21.28Z"/>
  <path class="cls-1" d="M399.94,219.4h-19.76c-.32,0-4.98-.73-5.2-.88-2.45-1.66,3.2-5.87,4.29-7.32,1.51-2.01,3.7-6.51,5.43-7.95,1.67-1.38,6.31-1.57,3.5-4.95-.72-.86-6.5-5.59-7.45-5.67-2.05-.17-2.78,2.12-4.21,3.06-3.5,2.3-5.23.47-8.51.55-6.88.17-13.47,3.44-5.78-6.01-2.23-.84-10.14-5.35-11.87-3.07-.47.63-.78,3.6-1.23,4.85-1.19,3.33-2.66,6.6-4.21,9.77l-9.44,14.56c.74.72,10.34-6.66,11.48-7.66,1.41-1.23,3.06-5.46,5.46-2.29.96,1.26,7.4,11.31,7.27,11.99-.81,4.23-23.67,10.75-27.87,12.86,2.55,1.54,8.66-1.82,9.6,1.34,1.44,8.31-1.67,18.62-.44,26.58,1.04,6.76,9.54.08,13.03-.26,8.29-.81,19.34.67,27.94.64,1.62,0,7.41.28,8.26-.3,1.81-1.24-1.01-4.08-1.26-6.09-.28-2.27-.32-8.76-.01-10.98.3-2.19,2.32-3.4,2.33-4.75.02-2.05-6.34-4.21-4.73-5.86.58-.6,3.65,1.41,5.22.06.74-.64,1.83-5.01,3.02-6.71.67-.96,5.79-4.94,5.13-5.51ZM353.43,204.19c-.92-2.87.86-4.53,3.65-4.86,2.04-.24,16.28-.39,17.35.3.94.62.67,1.28.28,2.12-1.3,2.83-4.58,6.52-6.74,8.76-.63.65-.98,1.75-1.71,2.25-3.75,2.58-10.35-6.15-12.82-8.57ZM379.27,255.57c0,.43-1.01.82-1.52.91-3.07.56-8.71-.08-12.18-.02-1.45.02-2.81.67-4.22.68-3.26,0-6.59-1.11-9.99-.7.11-2.3-.69-5.54-.68-7.58,0-1.44.63-2.75.66-4.2.03-1.63-1.07-7.63.89-7.63h25.53c.2,0,.92.81,1.52.61v17.93ZM379.58,233.39c-3.25,2.6-14.41.78-18.78.66-1.68-.04-3.85.71-6.17.57-1.64-.1-9.87-1.77-8.18-4.26.29-.43,8.37-2.58,9.9-3.18,2.19-.87,7.47-4.1,9.26-4.06,2.51.05,10.96,6.42,14.51,6.68,1.88,1.15.81,2.5-.54,3.59Z"/>
  <path class="cls-1" d="M263.77,104.21c1.42.81,5.78-5.11,6.64-1.75.18.69-1.58,11.47-2.1,12.36-.88,1.5-3.54,1.59-5.14,1.85-.46,2.42,4.01,1.67,4.29,2.83.29,1.19-.98,8.38-1.31,10.18-.4,2.11-3.01,6.08,1.58,7.05h24.92c.51,0,1.1,1.25.85,2.06-1.17,3.72-10.57,1.04-11.48,3.11,2.06.92,4.12,2.39,5.47,4.25,1.89,2.59.04,4.25,4.08,2.87,6.8-2.31,7.39-6.52,10.2-12.29h9.42c.71-1.16-1.52-6-2.15-6.11-2.4-.42-3.53,5.47-6.97,4.29.28-2.89-.18-16.28,3.31-16.77,2.1-.29,7.8,2.04,8.02-1.25.08-1.29-2-4.48-2.53-4.49-1.88-.04-3,4.13-5.13,4.64-2.94.7-2.12-11.51-.9-13.69.83-1.47,2.8-1.56,1.52-3.42-.38-.54-4.65-3.86-5.24-3.95-2.44-.36-2.53,1.29-3.96,2.1-2.69,1.52-7.78.32-11.23.33-3.91.01-6.39,1.81-10.55-.94-3.23-2.14-.94-6.91,2.2-8.02,10.83,1.14,21.59.03,32.39-.13,1.37-1.42-5-7.76-6.37-7.87-2.76-.23-3.93,5.73-7.44,6.53-3.08.7-5.57-.53-8.38-.53-2.05,0-8.6,1.93-9.35-.33-1.11-3.34,2.96-4.18,2.96-4.78,0-.65-9.27-5.99-10.24-2.95-.38,1.19.05,3.1-.24,4.62-1.31,6.96-3.14,14.33-7.14,20.22ZM276.66,102.5c.29-.96,1.84-2,2.77-2.17,1.32-.24,1.96.53,2.28.53,3.15,0,12.35-.63,14.59,0,.2.06,1.07.94,1.21,1.22.38.82-.09,12.05-.39,12.96-1.26,3.75-16.66.36-20.19,2.09-.49-.09-1.07-.63-1.28-1.08-.61-1.32.5-11.78,1.03-13.55ZM275.62,118.49h20.36c1.49,2.3-.49,15.45-1.95,16.28-3.14.85-7.06-.42-9.97-.41-3.65.01-8,1.56-11.74-.12.72-2.22,1.66-15.75,3.29-15.75Z"/>
  <path class="cls-1" d="M223.35,167.11c-1.16,2.28,1.11,4.09,1.46,6.44.49,3.33-.36,7.15.4,10.6-1.51,2.06-17.1-1.53-18.59.6-.91,1.29,3.03,2.75,3.92,3.67,5.11,5.25,3.27,16.41,4.59,23.07h-11.55c-.12,1.54,1.32,2.47,2.71,2.46,14.69-.83,31.82,2.28,46.26.61.77-.09,1.79-.06,2.07-1,.34-1.15-2.95-6.43-3.89-7.56-4.6-5.52-5.79,4.01-8.24,5.19-1.51.73-3.81.13-5.47.3-1.24-1.19,6.6-9.52,7.53-11.01,2.13-3.45,1.97-7.01,6.45-8.75.55-1.17-2.99-1.48-3.64-3.04-.74-1.79,4.85-.57,4.87-3,0-.94-3.88-7.84-4.37-8.13-3.32-1.96-6.35,5.4-8.22,6.46-1.76,1-4.32.7-6.26.72.25-2.44,2.13-4.38,2.12-6.99-.01-6.2-6.99-9.46-12.15-10.65ZM237.93,187.18c1.06.33.98,2.39.95,3.35-.21,6.96-2.53,13.81-4.59,20.37-.78,1.07-5.13.54-6.69.6-1.26.04-2.86,1.1-3.98.34-1.61-1.09.95-4.53,1.2-6.15.87-5.63-2.53-10.29-6.25-14.04-.42-.42-5.67-3.7-3.74-3.86,1.14-.1,3.25-.61,3.65-.61h19.45Z"/>
  <path class="cls-1" d="M249.13,227.05c-.53-.56-3.83-3.16-4.46-3.44-5.08-2.23-4.06,1.93-6.75,2.46-6.06-.85-13.38,1.72-19.16.33-3.06-.74-6.06-4.02-9.4-3.99-.95,0-1.04-.16-.92.92l-.47,35.76c1.74,3.53,5.48,2.41,8.23.65.78-.5,1.38-1.95,1.67-2.04h30.4c2.1,0-.21-4.7-.32-5.76-.48-4.44-.37-15.09.27-19.5.22-1.54,3.81-2.31.91-5.4ZM238.85,253.75c-.06.33-.6.95-.71,1.42-4.7.58-9.51-.22-14.18-.39-2.5-.09-5.83,2.2-6.41-2.22-.31-2.31-.19-21.06.34-22.21.13-.29,1.1-1.23,1.21-1.23h18.85c.17,0,.6.71.91.91-.85,7.14,1.14,16.91,0,23.71Z"/>
</svg>