<?xml version="1.0" encoding="UTF-8"?>
<svg id="_图层_1" data-name="图层 1" xmlns="http://www.w3.org/2000/svg" viewBox="0 0 200 72.16">
  <defs>
    <style>
      .cls-1 {
        fill: #fff;
      }
    </style>
  </defs>
  <g>
    <path class="cls-1" d="M164.07,19.47c.31.05,1.61.58,1.98.74,7,3.05,7.35,13.84.39,17.2-.53.26-1.38,0-1.5.83l6.7,9.83-.09.59h-8.47l-10.51-14.59c-.35.28-.44.63-.49,1.06-.36,3.12.1,7.18,0,10.5-.03,1.06.23,2.06,0,3.02h-7.01v-29.18h18.98ZM152.58,25.69c-.77.49-.29,1.09-.28,1.84.02,1.29.05,2.59-.17,3.86.03.18.35.72.45.72h8.76c1.22,0,2.51-1.73,2.63-2.84.04-.39-.55-2.2-.77-2.52-.09-.14-1.38-1.06-1.47-1.06h-9.15Z"/>
    <path class="cls-1" d="M106.64,19.27c.97.3-.89,3.2-1.15,3.72-.27.54-.85,2.4-1.29,2.6l-14.69.1c-2.26.97-2.29,4.06.08,4.97,3.05.57,7.5-.47,10.38.13.82.17,2.97.91,3.71,1.35,2.76,1.64,3.66,4.39,3.64,7.47-.02,4.3-1.46,7.17-5.6,8.61-.21.07-.51.43-.54.43h-20.05c-.47,0-.13-.81-.05-1.03.43-1.15,1.22-2.39,1.74-3.51.2-.44.19-1.3.68-1.46,4.32-.36,9.14.37,13.4-.04,1.18-.11,2.63-.64,2.94-1.93.46-1.9-.31-3.52-2.34-3.72-4.6-.45-9.18,1.04-13.44-1.55-6.6-4.02-3.86-16.14,4.47-16.14h18.1Z"/>
    <path class="cls-1" d="M77.92,48.65h-7.3c-.23-.18-.38-.4-.53-.64-.65-1.08-1.06-2.78-1.63-3.82-.11-.21-.39-.46-.6-.57-1.51-.78-5.85.25-7.67-.31-.33-.1-.54-.37-.77-.6-.69-.69-2.36-3.95-3.21-3.8l-4.68,9.74h-7.69c0-.28-.03-.56.05-.83.4-1.35,1.64-3.42,2.23-4.77,2.68-6.04,5.43-12.04,8.18-18.09.81-1.78,1.39-3.74,2.39-5.4.35-.18,7.09-.2,7.9-.11.21.03.43,0,.58.2l12.75,29ZM64.88,36.98c0-.28.03-.56-.05-.83-.47-1.57-2.16-4.37-2.95-6-.25-.53-.2-1.4-.99-1.53-1.2,2.08-2.16,4.31-3.01,6.53-.23.61-.8,1.02-.59,1.84h7.59Z"/>
    <path class="cls-1" d="M173.51,19.76c.26-.95,2.51-.29,3.2-.28,1.39.01,2.73,0,4.09,0,6.39.05,12.79-.05,19.18,0,.04.35,0,.63-.11.96-.55,1.55-1.92,3.28-2.41,4.93-.08.11-.41.33-.5.33h-6.91v22.47c0,.06-.26.3-.19.49h-7.2v-22.47c0-.06-.26-.3-.19-.49h-8.47c-.06,0-.3-.26-.49-.19v-5.74Z"/>
    <path class="cls-1" d="M117.73,19.27c.21.04.6.41.77.59l11.78,16.6c-.09.15-.23.34-.38.41-.4.18-5.9.19-6.43.01-.57-.13-.59-.73-.88-1.07-1.45-1.73-2.82-3.51-3.98-5.46-.89.05-.58.86-.58,1.26v16.73l-.29.29h-6.91l.29-29.38h6.62Z"/>
    <path class="cls-1" d="M.05,16.84c.07-.72,1.01-4.29,1.49-4.59.71,0,1.08-.48,1.58-.71.31-.14.71-.13,1.07-.3C12.37,7.45,20.46,3.76,28.58.02c.4-.05.25.02.29.28.13.99-.17,1.83-.2,2.72-.05,1.4.38,6.07-.58,6.82-7.58,3.48-15.18,6.92-22.82,10.27-.52.23-1.01.41-1.52.62-1.17.5-2.37,1.42-3.69,1.46.12-1.72-.17-3.65,0-5.35Z"/>
    <path class="cls-1" d="M140.61,48.65h-7.3c-.11,0-.31-.33-.3-.49l.12-17.04c-.32-1.15-3.76-.2-4.78-.67-.44-.2-1.45-1.72-1.34-2.29.07-.36,2.24-3.38,2.65-3.98.49-.7,3.09-4.46,3.47-4.7.97-.61,3.15,0,4.26,0,.75,0,3-.67,3.21.47v28.7Z"/>
    <path class="cls-1" d="M2.39,33.28c-.09-1.27-.66-2.44-.93-3.64-.1-.44-.03-.94-.13-1.42-.17-.81-1.09-2.93-.41-3.5l27.17-12.05-1.26,9.35-.39.58L6.42,31.76l-4.02,1.52Z"/>
    <path class="cls-1" d="M25.94,25.7c.41.44-1.76,8.35-1.79,9.59-.07.24-.26.38-.44.53-.83.72-4.51,2.21-5.77,2.8-3.63,1.68-7.35,3.36-11.03,4.93-1.42.61-2.86,1.14-4.27,1.77l-.45-.27c-.02-.45.3-.74.37-1.18.21-1.27.59-3.65.61-4.86,0-.66-.52-2.79-.16-3.15l22.93-10.17Z"/>
    <path class="cls-1" d="M36.84,44.75l-.84-.21-10.55-7.76c-.21-.48.68-2.94.84-3.64.38-1.67.75-3.37,1.17-5.06.14-.58-.15-1.22.53-1.59l9.93,7.17c.45,3.74.31,7.56-1.08,11.08Z"/>
    <path class="cls-1" d="M2.19,48.65l.52-.55,19.83-8.98.21.59c-1.11,2.96-1.58,6.16-3.13,8.94H2.19Z"/>
    <path class="cls-1" d="M33.08,15.85c.31.24.93.66,1.16.88.71.7.54,3.57.72,4.73.39,2.6,1.46,5.32,1.9,7.93-.24-.12-.53-.17-.76-.31-1.74-1.06-4.44-2.99-6.04-4.27-.38-.31-1.59-1.28-1.68-1.63l1.37-9.35c.21-.29.32-.09.55.04.68.39,2.11,1.47,2.79,1.99Z"/>
    <path class="cls-1" d="M21.95,48.65c-.1-.03-.33-.29-.26-.45.76-1.65,1.05-3.51,1.63-5.2.23-.68.73-2.1,1.03-2.67.09-.17-.05-.32.34-.25l10.21,7.31c.49.26,0,1.26-.29,1.26h-12.65Z"/>
    <path class="cls-1" d="M34.88,13.81c-.27.08-.51.02-.76-.09-.22-.1-3.39-2.4-3.61-2.62-.17-.16-.38-.28-.45-.52-.42-3.19.66-6.23.55-9.4.96.53,1.91,1.13,2.79,1.78.24.18.34.5.53.64.54.4,3.35,2.19,3.46,2.59s-1.41,3.5-1.67,4.3c-.35,1.07-.48,2.26-.85,3.33Z"/>
  </g>
  <g>
    <path class="cls-1" d="M9.02,60.98l.02-.14c.81-.03,1.46.02,1.97.14.52.11.92.27,1.19.48.27.19.44.4.52.62.08.21.08.4,0,.57-.07.18-.18.3-.36.38-.18.08-.38.07-.62-.05-.13-.17-.33-.37-.59-.59-.26-.24-.57-.48-.93-.71-.37-.25-.77-.48-1.21-.69ZM8.9,64.95l1.21,1.05c-.04.07-.08.11-.14.14-.07.02-.16.04-.29.05-.19.67-.46,1.31-.81,1.93-.33.61-.78,1.17-1.33,1.69-.54.51-1.21.95-2,1.31l-.1-.17c.52-.39.98-.86,1.36-1.38s.69-1.08.93-1.69c.24-.62.42-1.24.55-1.86h-2.45l-.12-.36h2.5l.69-.71ZM14.73,63.62l1.62,1.07s-.09.09-.17.12c-.08.04-.18.04-.31,0-.37.29-.81.59-1.33.93s-1.06.64-1.62.9c.35.54.74,1,1.17,1.38.43.38.88.7,1.36.95.49.26.98.47,1.45.64l-.05.12c-.29.07-.54.21-.74.45-.19.24-.33.54-.43.88-.62-.41-1.18-.89-1.67-1.43-.48-.54-.89-1.19-1.24-1.95-.35-.77-.63-1.73-.83-2.86v5.59c0,.32-.05.59-.14.83-.08.24-.26.42-.55.55-.27.14-.69.24-1.26.31-.02-.24-.05-.45-.1-.62-.05-.16-.12-.3-.21-.4-.11-.11-.26-.2-.43-.29-.18-.08-.43-.14-.76-.19v-.17s.07.01.21.02c.14,0,.32.01.52.02.22,0,.42.01.59.02h.4c.11,0,.18-.01.21-.05.03-.05.05-.12.05-.21v-6.31h-2.88l-.1-.33h2.86l.64-.71,1.38,1.02s-.09.1-.17.14c-.08.05-.18.09-.29.12v.02c.1.42.2.8.33,1.17.14.37.3.7.48,1,.25-.29.51-.59.76-.93.25-.33.48-.65.69-.98.22-.33.39-.62.52-.86Z"/>
    <path class="cls-1" d="M29.98,62.67v2.9c0,.51-.02,1.06-.05,1.64-.04.57-.12,1.14-.26,1.71-.13.57-.35,1.13-.64,1.67-.3.54-.71,1.04-1.24,1.5l-.12-.1c.32-.64.55-1.31.69-2.02.15-.71.25-1.44.29-2.19.05-.76.07-1.5.07-2.21v-3.78l1.48.55h3.59c-.14-.03-.3-.1-.45-.21,0-.24-.06-.46-.17-.69-.11-.24-.23-.43-.33-.57l.07-.07c.58.04,1.01.12,1.28.26.27.14.43.31.48.5.05.18,0,.35-.12.5-.11.14-.26.24-.45.29h2.88l.71-1s.07.07.21.19c.15.13.34.28.55.45.2.18.39.35.55.5-.04.13-.14.19-.31.19h-8.71ZM32.81,69.23l.05.12c-.26.24-.59.54-1,.88-.4.35-.87.75-1.43,1.19-.05.15-.14.27-.29.33l-.71-1.43c.19-.05.46-.12.81-.24.36-.11.77-.24,1.21-.38.44-.15.89-.32,1.36-.48ZM30.31,67.59l.07-.07c.54-.05.98-.03,1.31.05.33.08.58.2.74.36.17.16.27.33.31.5.03.16,0,.31-.1.45-.08.13-.21.23-.38.29-.16.05-.35.02-.55-.07-.13-.27-.33-.54-.62-.81-.27-.29-.54-.51-.79-.69ZM34.79,69.59l.07-.12c.71,0,1.3.07,1.76.19.46.11.82.26,1.09.45.27.19.45.39.55.59.1.21.12.39.07.55-.04.17-.13.3-.29.38-.16.08-.36.08-.59.02-.19-.23-.45-.46-.76-.71-.3-.27-.63-.52-.98-.76-.33-.24-.64-.43-.93-.59ZM36.21,66.85v-1.14h-1.64v1.14h1.64ZM34.57,64.21v1.14h1.64v-1.14h-1.64ZM37.64,65.35l.5-.71s.05.05.17.14c.11.1.24.21.38.36.14.13.27.26.38.38-.04.13-.14.19-.31.19h-1.14v1.38s-.1.09-.24.17c-.14.08-.3.15-.48.21l.98.79s-.09.08-.17.1c-.07,0-.16-.01-.29-.05-.19.1-.44.19-.74.29-.29.1-.58.19-.88.29-.3.1-.57.18-.81.26l-.1-.12c.2-.19.43-.43.67-.71.25-.29.48-.54.67-.76h-.02v-.33h-1.64v3.38c0,.32-.04.58-.12.79-.08.22-.24.39-.48.52-.24.14-.61.23-1.12.26,0-.21-.02-.39-.05-.55-.04-.14-.09-.26-.17-.36-.08-.1-.18-.18-.31-.26-.11-.08-.3-.13-.55-.17v-.17s.05.01.14.02c.1,0,.21.01.36.02.14,0,.27.01.38.02h.26c.1,0,.15-.01.19-.05.03-.03.05-.08.05-.14v-3.33h-2.47l-.12-.36h2.59v-1.14h-3.02l-.1-.36h3.12v-1.14h-2.47l-.1-.36h2.57v-1.09l1.83.17c-.02.19-.16.31-.43.36v.57h1.55l.59-.59,1.24.9c-.07.08-.18.14-.33.17v1.02h.02Z"/>
    <path class="cls-1" d="M59.03,62.5h-.93v1.26h.93v-1.26ZM59.03,65.4v-1.28h-.93v1.28h.93ZM55.65,62.5l-.12-.33h1.38v-1.28l1.59.17c-.02.08-.06.15-.12.21-.05.05-.14.08-.29.1v.81h.81l.55-.55,1.09.83s-.09.07-.17.12c-.07.04-.14.06-.24.07v1.12h.1l.43-.76s.05.06.14.17c.1.1.2.21.31.36.12.14.24.28.33.4-.04.13-.13.19-.29.19h-1.02v1.64s-.06.05-.17.1c-.1.05-.23.1-.38.14-.14.05-.27.07-.38.07h-.19v-.33h-.93v1.31h.93l.57-.81s.05.06.17.17c.12.1.27.21.43.36.15.14.3.29.43.43-.04.13-.14.19-.31.19h-2.21v1.19h1.36l.59-.86s.05.06.17.17c.12.11.27.25.43.4.17.16.32.3.45.43-.02.13-.11.19-.29.19h-2.71v1.09s-.05.11-.14.17c-.1.07-.23.12-.38.17-.14.05-.29.07-.43.07h-.24v-1.5h-1.59l-.1-.33h1.69v-1.19h-1.24l-.1-.33h1.33v-1.31h-1.09l-.1-.33h1.19v-1.28h-1.93l-.1-.36h2.02v-1.26h-1.26ZM54.79,65.12l1.14.98s-.09.09-.17.12c-.07.04-.15.06-.26.07-.07.59-.16,1.18-.29,1.76-.11.57-.3,1.13-.57,1.67.49.35,1.07.58,1.74.69.68.11,1.48.17,2.4.17h2.67v.14c-.23.05-.4.18-.52.38-.11.22-.18.46-.19.74h-2.07c-1.02,0-1.89-.1-2.62-.29-.73-.19-1.34-.56-1.83-1.12-.23.32-.49.62-.81.9-.3.29-.67.55-1.09.79l-.1-.17c.35-.32.64-.67.88-1.05s.43-.79.59-1.21c-.21-.35-.38-.74-.52-1.19-.14-.46-.27-.98-.38-1.55l.14-.07c.14.45.29.84.43,1.19.15.35.34.65.55.9.11-.44.19-.9.24-1.38.06-.49.1-.98.12-1.48h-.43l-.4.4-1.02-.69s.11-.08.19-.12c.08-.05.15-.08.24-.12.12-.29.25-.62.38-1l.43-1.14c.14-.39.25-.74.33-1.02h-1.07l-.07-.26c-.24.71-.51,1.4-.81,2.05l.67.24c-.04.07-.08.12-.14.17-.05.04-.13.06-.24.07v7.07s-.06.05-.17.12c-.11.06-.25.12-.4.17-.16.05-.32.07-.48.07h-.24v-6.14c-.32.46-.66.87-1.02,1.24l-.17-.07c.25-.54.49-1.15.71-1.86.24-.7.44-1.43.62-2.19.19-.77.33-1.53.43-2.28l1.86.55c-.02.08-.07.14-.14.19-.08.05-.18.07-.31.07-.04.08-.07.16-.1.24-.02.07-.04.14-.05.21h1.07l.55-.55,1.09.98c-.05.07-.12.11-.21.14-.1.02-.2.04-.31.05-.1.27-.21.59-.36.95-.13.37-.26.74-.4,1.12-.14.37-.28.7-.4,1h.26l.64-.64Z"/>
    <path class="cls-1" d="M74.53,62.67v2.9c0,.51-.02,1.06-.05,1.64-.04.57-.12,1.14-.26,1.71-.13.57-.35,1.13-.64,1.67-.3.54-.71,1.04-1.24,1.5l-.12-.1c.32-.64.55-1.31.69-2.02.15-.71.25-1.44.29-2.19.05-.76.07-1.5.07-2.21v-3.78l1.48.55h3.59c-.14-.03-.3-.1-.45-.21,0-.24-.06-.46-.17-.69-.11-.24-.23-.43-.33-.57l.07-.07c.58.04,1.01.12,1.28.26.27.14.43.31.48.5.05.18,0,.35-.12.5-.11.14-.26.24-.45.29h2.88l.71-1s.07.07.21.19c.15.13.34.28.55.45.2.18.39.35.55.5-.04.13-.14.19-.31.19h-8.71ZM77.37,69.23l.05.12c-.26.24-.59.54-1,.88-.4.35-.87.75-1.43,1.19-.05.15-.14.27-.29.33l-.71-1.43c.19-.05.46-.12.81-.24.36-.11.77-.24,1.21-.38.44-.15.89-.32,1.36-.48ZM74.87,67.59l.07-.07c.54-.05.98-.03,1.31.05.33.08.58.2.74.36.17.16.27.33.31.5.03.16,0,.31-.1.45-.08.13-.21.23-.38.29-.16.05-.35.02-.55-.07-.13-.27-.33-.54-.62-.81-.27-.29-.54-.51-.79-.69ZM79.34,69.59l.07-.12c.71,0,1.3.07,1.76.19.46.11.82.26,1.09.45.27.19.45.39.55.59.1.21.12.39.07.55-.04.17-.13.3-.29.38-.16.08-.36.08-.59.02-.19-.23-.45-.46-.76-.71-.3-.27-.63-.52-.98-.76-.33-.24-.64-.43-.93-.59ZM80.77,66.85v-1.14h-1.64v1.14h1.64ZM79.13,64.21v1.14h1.64v-1.14h-1.64ZM82.2,65.35l.5-.71s.05.05.17.14c.11.1.24.21.38.36.14.13.27.26.38.38-.04.13-.14.19-.31.19h-1.14v1.38s-.1.09-.24.17c-.14.08-.3.15-.48.21l.98.79s-.09.08-.17.1c-.07,0-.16-.01-.29-.05-.19.1-.44.19-.74.29-.29.1-.58.19-.88.29-.3.1-.57.18-.81.26l-.1-.12c.2-.19.43-.43.67-.71.25-.29.48-.54.67-.76h-.02v-.33h-1.64v3.38c0,.32-.04.58-.12.79-.08.22-.24.39-.48.52-.24.14-.61.23-1.12.26,0-.21-.02-.39-.05-.55-.04-.14-.09-.26-.17-.36-.08-.1-.18-.18-.31-.26-.11-.08-.3-.13-.55-.17v-.17s.05.01.14.02c.1,0,.21.01.36.02.14,0,.27.01.38.02h.26c.1,0,.15-.01.19-.05.03-.03.05-.08.05-.14v-3.33h-2.47l-.12-.36h2.59v-1.14h-3.02l-.1-.36h3.12v-1.14h-2.47l-.1-.36h2.57v-1.09l1.83.17c-.02.19-.16.31-.43.36v.57h1.55l.59-.59,1.24.9c-.07.08-.18.14-.33.17v1.02h.02Z"/>
    <path class="cls-1" d="M100.08,62.55h-3.07c-.35.48-.74.89-1.17,1.24-.43.33-.87.61-1.31.83l-.14-.1c.38-.44.74-1,1.09-1.67.35-.68.62-1.39.83-2.12l1.86.59c-.07.18-.23.26-.5.24-.05.11-.11.23-.19.33-.07.11-.13.21-.19.31h1.4l.59-.83s.06.06.19.17c.12.1.27.23.45.38.17.16.33.3.48.43-.04.13-.14.19-.33.19ZM99.16,63.64l.07-.07c.48,0,.84.05,1.09.14.27.1.44.21.52.36.1.14.12.29.07.43-.04.14-.11.26-.24.36-.13.1-.29.15-.48.17-.19,0-.38-.07-.57-.21,0-.2-.06-.42-.17-.64-.1-.22-.2-.39-.31-.52ZM96.97,62.93l.12-.07c.52.07.91.18,1.17.36.25.16.39.33.43.52.05.18.02.33-.07.48s-.24.23-.43.26c-.18.04-.36-.02-.55-.17-.02-.25-.1-.51-.24-.76-.13-.25-.27-.46-.43-.62ZM98.32,67.83h3.47v-1.14h-3.47v1.14ZM102.51,69.59h-4.19v1.33h4.19v-1.33ZM103.65,65.02l.71-.71,1.21,1.17c-.1.1-.26.14-.48.14-.18.18-.4.37-.67.59-.27.23-.52.4-.76.52l-.1-.05c-.08.07-.2.12-.36.17v1.45s-.07.06-.21.12c-.13.05-.29.1-.48.14-.18.04-.35.05-.5.05h-.24v-.43h-3.47v1.07h4.07l.62-.67,1.33.98c-.08.08-.23.14-.43.19v1.95s-.07.07-.21.12c-.13.05-.28.1-.45.14-.18.05-.35.07-.5.07h-.24v-.76h-4.19v.4s-.11.12-.31.24c-.21.12-.49.19-.86.19h-.26v-6.33l1.48.57h3.33l.62-.67,1.24.93c.05-.19.08-.39.12-.62.03-.22.05-.43.07-.64h-7.42c.06.42.05.76-.05,1.05s-.24.5-.43.64c-.18.13-.38.18-.62.14-.23-.05-.37-.17-.45-.38-.08-.2-.07-.39.02-.55.1-.15.24-.29.43-.38.15-.14.3-.36.43-.67.12-.32.15-.64.1-.98l.17-.02c.08.14.14.29.19.43.06.13.11.26.14.38h7.4ZM101.8,62.93l.1-.07c.55.04.96.13,1.21.29.27.16.43.33.48.52.05.18.02.35-.07.5-.1.14-.24.23-.43.26-.19.04-.39-.02-.59-.17-.02-.25-.1-.5-.24-.74s-.3-.43-.45-.59ZM103.94,62.21l.69-.88s.07.06.21.17c.14.11.31.25.5.4.19.16.36.31.5.45-.04.13-.14.19-.31.19h-4c-.48.42-.99.74-1.55.98l-.12-.12c.25-.32.48-.71.69-1.19.2-.48.37-.98.5-1.5l1.78.71c-.07.14-.23.21-.48.21-.08.1-.16.19-.24.29-.08.1-.16.19-.24.29h2.05Z"/>
    <path class="cls-1" d="M122.44,66.59h1.14v-2.07h-1.14v2.07ZM119.49,65.4l.57-.95s.05.07.17.19c.12.11.27.26.43.43.15.16.29.31.4.45v-3.09h-1.62v2.97h.05ZM123.59,62.12h-1.14v2.07h1.14v-2.07ZM126.13,62.12h-1.19v2.07h1.19v-2.07ZM124.94,66.59h1.19v-2.07h-1.19v2.07ZM126.2,71.33l.76-1.07s.04.04.12.12c.1.08.21.18.36.31.15.13.31.26.45.4.15.14.3.27.43.4-.04.12-.14.19-.33.19h-7.97l-.1-.36h3.66v-2.14h-2.47l-.1-.33h2.57v-1.9h-1.14v.33s-.06.11-.17.19c-.11.07-.26.13-.43.19-.18.05-.37.07-.57.07h-.21v-2.12c-.05.08-.14.12-.26.12h-1.36v2.97c.27-.08.54-.15.81-.24.29-.08.56-.15.83-.24l.05.12c-.37.29-.85.63-1.45,1.02-.61.4-1.32.85-2.14,1.36-.05.16-.15.27-.31.33l-.62-1.57c.15-.03.36-.08.59-.14.25-.08.54-.15.86-.24v-3.38h-1.21l-.1-.33h1.31v-2.97h-1.24l-.1-.36h2.57l.74-.98.14.14c.11.08.24.19.4.33.17.13.33.26.48.4v-.79l1.45.57h3.5l.67-.71,1.33,1.05s-.1.1-.19.14c-.08.05-.18.08-.29.1v4.74s-.07.08-.19.14c-.13.07-.28.13-.45.19-.18.05-.35.07-.52.07h-.24v-.52h-1.19v1.9h.9l.71-1s.07.07.21.19c.14.13.32.28.52.45.2.18.38.35.52.5-.02.13-.13.19-.33.19h-2.55v2.14h1.26Z"/>
    <path class="cls-1" d="M147.95,70.78l.88-1.12s.05.04.14.12c.11.08.24.19.4.33.15.13.32.26.5.4.19.14.36.28.5.4-.04.14-.14.21-.33.21h-10.85l-.1-.36h4.83v-7.71h-3.95l-.1-.36h7.33l.88-1.12s.05.04.14.12c.11.08.24.19.4.33.17.13.35.26.52.4.17.14.33.28.48.4-.02.07-.06.12-.12.17-.07.04-.14.05-.21.05h-3.83v7.71h2.47Z"/>
    <path class="cls-1" d="M163.98,64.36l.67.24c-.05.11-.18.19-.38.24v6.88s-.07.08-.19.14c-.11.06-.26.12-.43.17-.18.06-.35.1-.52.1h-.29v-6.31c-.48.56-.99,1.04-1.55,1.45l-.14-.1c.36-.51.72-1.1,1.07-1.78.35-.68.67-1.41.98-2.19.3-.79.55-1.59.76-2.4l1.9.64c-.07.18-.23.26-.48.24-.21.49-.43.96-.67,1.4-.24.45-.49.87-.74,1.28ZM172.33,63.71h-3.16v2.24h.95l.74-.98s.07.07.21.19c.15.13.34.28.55.45.22.18.42.35.59.5-.04.13-.15.19-.36.19h-2.69v2.26h1.02l.81-1.05s.05.04.14.12c.1.08.21.18.36.31.15.13.32.26.48.4.17.13.33.25.48.36-.04.13-.15.19-.36.19h-2.93v2.83s-.11.1-.33.21c-.21.11-.49.17-.86.17h-.29v-8.4h-.29c-.78,1.19-1.68,2.15-2.69,2.88l-.14-.1c.32-.46.62-.99.93-1.59.32-.62.61-1.27.88-1.97.27-.71.5-1.42.69-2.12l1.93.69c-.07.18-.23.25-.5.21-.13.3-.27.59-.43.88-.14.29-.3.56-.45.81h2.83l.79-1.05s.05.04.14.12c.1.08.21.18.36.31.15.11.32.24.48.38.17.13.32.25.45.36-.04.13-.14.19-.33.19Z"/>
    <path class="cls-1" d="M193.31,61.74l1.24,1.19c-.05.07-.11.11-.17.12-.07.02-.15.02-.26.02-.18.19-.39.4-.64.62-.26.21-.5.38-.74.52l.05.05c-.02.13-.12.19-.31.19h-3.9l1.12.55c-.04.07-.09.12-.17.17-.07.04-.17.04-.31.02-.24.14-.52.3-.86.48-.33.16-.68.32-1.05.48-.37.16-.73.3-1.09.43.65,0,1.43,0,2.33-.02.92-.01,1.88-.04,2.88-.07-.18-.2-.36-.4-.55-.59-.18-.19-.35-.36-.52-.52l.12-.07c.65.1,1.17.24,1.57.43.41.19.72.4.93.64.22.23.35.45.38.69.05.23.02.42-.07.57-.08.16-.21.26-.4.31-.18.05-.37.01-.59-.12-.14-.33-.37-.69-.67-1.07-.87.19-2,.4-3.38.62l1.86.14c-.02.08-.06.15-.12.21-.05.05-.15.09-.31.12v1.26h1.48l.76-.95s.08.07.24.19c.15.11.35.26.57.43.24.16.44.32.62.48-.04.13-.14.19-.33.19h-3.33v1.78h2.55l.81-1s.05.04.14.12c.1.07.21.16.36.29.15.11.32.24.48.38.17.12.33.25.48.38-.04.12-.14.19-.33.19h-10.61l-.1-.36h4.74v-1.78h-3.43l-.1-.33h3.52v-1.74c-.38.07-.78.13-1.19.19-.4.07-.81.13-1.24.19-.11.16-.23.27-.36.33l-.62-1.52s.05,0,.14-.02c.11-.03.2-.06.29-.1.29-.1.58-.25.9-.48.33-.24.65-.49.95-.76.3-.27.55-.51.74-.74h-2.59l-.1-.33h5.62l.74-.9s.05.05.17.14c.12.08.27.19.45.33.19.13.37.27.55.43.01-.19.03-.4.05-.64.01-.24.03-.46.05-.67h-7.42c.03.42-.02.77-.14,1.07-.13.29-.3.49-.5.62-.18.13-.38.17-.62.12s-.4-.18-.5-.4c-.07-.2-.05-.39.05-.55.1-.17.24-.3.43-.38.2-.11.4-.3.59-.57.19-.29.27-.59.26-.93h.17c.05.11.08.23.12.33.03.11.05.23.07.33h3.55c-.08-.01-.15-.05-.21-.1-.04-.29-.14-.55-.31-.81-.16-.27-.35-.48-.55-.64l.1-.07c.6-.03,1.06.02,1.38.17.32.13.51.3.59.5.1.19.1.38.02.57-.08.18-.21.3-.4.38h3.21l.71-.71Z"/>
  </g>
</svg>