<?xml version="1.0" encoding="UTF-8"?>
<svg id="_图层_1" data-name="图层 1" xmlns="http://www.w3.org/2000/svg" viewBox="0 0 500 180">
  <defs>
    <style>
      .cls-1 {
        fill: #fff;
      }

      .cls-2 {
        fill: #1685c8;
      }
    </style>
  </defs>
  <path class="cls-1" d="M24.21,138.74V39.63h13.12v87.41h48.81v11.7H24.21Z"/>
  <path class="cls-1" d="M111.88,138.74V39.63h13.12v99.11h-13.12Z"/>
  <path class="cls-1" d="M155.87,138.74V39.63h13.45l52.06,77.81V39.63h12.57v99.11h-13.45l-52.06-77.88v77.88h-12.58Z"/>
  <path class="cls-2" d="M263.34,138.74V39.63h13.12v49.15l49.22-49.15h17.78l-41.58,40.16,43.4,58.95h-17.31l-35.29-50.16-16.23,15.82v34.34h-13.12Z"/>
  <path class="cls-2" d="M411.72,115.62l12.57,1.55c-1.98,7.35-5.66,13.05-11.02,17.1-5.36,4.06-12.21,6.08-20.55,6.08-10.5,0-18.83-3.23-24.98-9.7-6.15-6.47-9.23-15.54-9.23-27.21s3.11-21.45,9.33-28.12c6.22-6.67,14.29-10.01,24.2-10.01s17.44,3.27,23.53,9.8c6.08,6.54,9.13,15.73,9.13,27.58,0,.72-.02,1.8-.07,3.25h-53.54c.45,7.89,2.68,13.93,6.69,18.12,4.01,4.19,9.01,6.29,15.01,6.29,4.46,0,8.27-1.17,11.43-3.52,3.15-2.34,5.66-6.08,7.5-11.22ZM371.76,95.95h40.09c-.54-6.04-2.07-10.57-4.6-13.59-3.88-4.69-8.9-7.03-15.08-7.03-5.59,0-10.29,1.87-14.1,5.61-3.81,3.74-5.92,8.74-6.32,15.01Z"/>
  <path class="cls-2" d="M474.03,127.86l1.76,10.75c-3.43.72-6.49,1.08-9.19,1.08-4.42,0-7.84-.7-10.28-2.1-2.43-1.4-4.15-3.23-5.14-5.51-.99-2.28-1.49-7.06-1.49-14.37v-41.31h-8.92v-9.46h8.92v-17.78l12.1-7.3v25.08h12.24v9.46h-12.24v41.98c0,3.47.21,5.7.64,6.69.43.99,1.13,1.78,2.1,2.37.97.59,2.35.88,4.16.88,1.35,0,3.13-.16,5.34-.47Z"/>
</svg>