<?xml version="1.0" encoding="UTF-8"?>
<svg id="_图层_1" data-name="图层 1" xmlns="http://www.w3.org/2000/svg" viewBox="0 0 90.86 74.51">
  <defs>
    <style>
      .cls-1 {
        fill: #8c3946;
      }
    </style>
  </defs>
  <path class="cls-1" d="M35.15,43.67c-.09.61-.05,1.05.66.79.26-.1.11-.52.13-.79-.23-.04-.54,0-.79,0Z"/>
  <path class="cls-1" d="M75.25,19.15c-.33-.44-.48.03-.53.39-.23,1.7.65,4.4,1.53,5.85,1.25,2.05,3.34,3.3,5.5,4.26,4.98,2.21,7.71.91,8.27,7.82.68,8.35-2.88,16.25-1.25,24.98.08.42.24,1.12.73,1.25-.6-3.89-.93-7.78-.49-11.7.59-5.21,4.06-17.16-1.26-20.69-1.66-1.1-4.55-1.5-6.51-2.45-4.12-2-6.13-5.06-5.97-9.72Z"/>
  <path class="cls-1" d="M84.41,43.99c-.59,1.82-.79,4.12-1.32,6.07-.94,3.46-2.31,6.81-4.01,9.97-.62,1.15-1.97,2.47-1.85,3.68l2.82-4.3,3.12-7.29c-.29,3.51-.97,7.53-.03,10.99.12.45-.19.73.56.61-1.22-6.96.38-13.7,1.32-20.56-.42.07-.49.5-.6.84Z"/>
  <path class="cls-1" d="M39.1,46.95c-.46,4.14,1.34,8.18,1.06,12.4-.11,1.66-.83,3.09-1.03,4.51-.07.51.07,2.4-.02,2.48-.13.12-.94-.2-1.06.13-.26.7.92.26,1.06.39.18.17-.25,3.19.13,3.96.25.52,1.89,1.03,1.72,0-.25-.06-.98.07-1.06,0-.15-.13,0-3.38,0-3.95,0-.14,1.48.38,1.32-.39-.18-.34-1.2,0-1.32-.13-.6-.6.69-5.15.79-6.2.44-4.84-1.38-9.29-1.05-14.1-.48.1-.49.52-.53.91Z"/>
  <path class="cls-1" d="M40.17,45.51c-.02.97.22,1.92.44,2.85.84,3.62,6.05,14.96,9.99,15.58.4.06,2.4.2,2.1-.51-.5-1.16-.86.15-.97.21-1.24.74-4.54-3.04-5.24-4.03-2.84-4.03-4.3-8.58-5.79-13.2-.11-.35,0-.82-.53-.92Z"/>
  <path class="cls-1" d="M88.44,66.34c-.52.44.53.56.55.68.06.47-1.1,2.82-1.6,3.27-.09-1.02-1.22-2.13-1.33-3.05-.06-.47,1.09-.46.54-.9-.11-.08-2.41-.15-2.64.4.34.27.76,0,1.19.39.24.22,1.94,3.48,1.97,3.84.03.45-.75,2.5-1.02,2.85-.35.46-1.29-.28-1.08.69h2.64s-1.05-.66-1.05-.66l3.13-6.83,1.09-.16c.39-.81-2.27-.61-2.37-.53Z"/>
  <path class="cls-1" d="M36.17,46.12c-1.57,5.89,1.54,11.19,1.06,16.63-.01.16-.93,4.07.03,2.8,1.65-6.69-2.14-13.29-.53-20.04-.75-.12-.44.15-.56.61Z"/>
  <path class="cls-1" d="M70.11,42.09c-.9,5.43-1.82,10.92-4.04,16-.85,1.95-2.08,3.69-2.95,5.62,4.11-4.86,6.14-12.41,7.05-18.66.12-.8.51-2.36-.06-2.96Z"/>
  <path class="cls-1" d="M74.48,67.01c.25,1.04-.53,3.28.62,4.09,1.23.87,2.52-.29,2.87-.23.22.04,1.69,1.19,1.77.09-.08-.31-.72.06-.81-.28-.41-1.48,1.16-4.87-1.56-4.34-.27.87.72.3.81.67.09.36.03,1.91-.03,2.34-.32,2.05-2.89,1.56-2.89.81v-3.82h-1.58c-.27.87.72.3.81.67Z"/>
  <path class="cls-1" d="M31.46,66.87c.25.05.98-.08,1.06,0,.39.36-1.28,7.02,3.69,3.69-.2,1.13.38.77,1.32.79.24-.88-.68-.4-.79-.53-.15-.17.11-3.83,0-4.48h-1.58c-.26.94.88.36,1.06.53.31.3.1,3.14-.91,3.7-3.32,1.87-1.81-3.54-2.1-3.98-.22-.32-2.05-.63-1.74.27Z"/>
  <path class="cls-1" d="M50.72,66.34c-.78-.13-1.26.45-1.84.79-.03-.21.07-.68-.02-.77-.15-.16-1.36-.05-1.57.38.12.32.94.02,1.06.13.14.13.07,3.39,0,3.8-.07.44-1.31-.31-1.06.68h2.64c.26-.94-.89-.36-1.06-.53l.15-2.4,1.7-2.08Z"/>
  <path class="cls-1" d="M83.69,66.74c-.32-.65-1.73-.28-1.85-.4-.1-.1.08-2.2,0-2.64-.8-1.05-.42,2.54-.52,2.64-.18.17-1.32-.41-1.06.52.25.05.98-.08,1.06,0,.59.55-1.4,5.38,1.84,4.48-.14-.63-1.09-.39-1.28-.95-.09-.26-.16-3.4-.04-3.53.14-.14,1.55.21,1.85-.13Z"/>
  <path class="cls-1" d="M51.51,62.12c-2.8-3.52-4.79-7.1-6.34-11.33l-.52.13c1.81,3.58,2.64,6.6,5.28,9.75.2.23,1.27,1.77,1.57,1.46Z"/>
  <path class="cls-1" d="M44.39,46.04c1.05,1.42,2.55,2.49,3.69,3.83,1.49,1.77,2.5,3.87,3.96,5.66-.93-2.45-2.72-5.07-4.49-6.98-.87-.94-1.93-2.06-3.16-2.51Z"/>
  <path class="cls-1" d="M37.56,48.51c.3,2.17.73,4.39,1.09,6.56.04.24.11.79.46.72.14-3.49-1.19-6.82-1.45-10.28-.61.6-.22,2.15-.1,3Z"/>
  <polygon class="cls-1" points="57.58 18.1 55.35 20.22 51.78 26 52.94 24.93 57.58 18.1"/>
  <path class="cls-1" d="M57.34,24.58c-.37.28-3.04,2.32-2.66,2.75l6.59-5.01c-1.4.37-2.78,1.38-3.93,2.26Z"/>
  <polygon class="cls-1" points="52.81 48.57 47.03 44.73 48.37 46.15 54.15 49.99 52.81 48.57"/>
  <path class="cls-1" d="M33.57,55.53c-.49-3.02-.12-5.55.79-8.44-1.4,1.23-1.14,3.5-1.59,5.15l.8,3.28Z"/>
  <path class="cls-1" d="M34.44,62.07c-.03.29-.31.9.19.84.8-2.83,1.01-5.87.14-8.7-.42,1.72.22,3.4.14,5.16-.04.91-.36,1.8-.46,2.7Z"/>
  <path class="cls-1" d="M51.5,25.07c.69-.85,1.6-1.96,1.85-3.02l-3.95,5.01c.33.29,1.84-1.66,2.1-1.98Z"/>
  <path class="cls-1" d="M34.39,48.83c-.04.61-.05,1.22-.02,1.83.01.32-.2.98.26.92l.79-5.01-1.03,2.26Z"/>
  <path class="cls-1" d="M41.75,45.51c.06.88.57,2.1,1.31,2.64-.06-.88-.57-2.1-1.31-2.64Z"/>
  <path class="cls-1" d="M50.72,42.09c.46.68,1.59,1.13,2.37,1.31-.46-.68-1.59-1.13-2.37-1.31Z"/>
  <path class="cls-1" d="M44.53,44.2c.27-.34-.08-.54-.14-.79-1.44,0-.75,1.91.14.79Z"/>
  <path class="cls-1" d="M21.44,31.01c-.07-.39-.48-.51-.79-.66-2.76-1.32-6.88-1.84-9.9-1.45-.39.05-.82.2-.39.53,3.99-.24,7.41-.21,11.08,1.58Z"/>
  <path class="cls-1" d="M26.34,36.57c-.26.03-.99.12-.95.5,1.3-.11,2.83.16,4.09,0,.39-.05.82-.2.39-.53-1.17.06-2.38-.1-3.54.02Z"/>
  <path class="cls-1" d="M7.72,42.48c1.62.26,3.22-.21,4.89-.14,2.16.09,3.89.83,6.2.41.28-.05.85-.02.78-.4-3.96.26-7.98-.87-11.87.13Z"/>
  <path class="cls-1" d="M25.66,41.03h-5.41c-.35,0-1.34.55-1.98.27v.26s7.39,0,7.39,0v-.53Z"/>
  <path class="cls-1" d="M23.15,37.6c-1.79.1-3.62-.07-5.41,0l2.23.54c1.68.14,3.26-.23,4.89-.54-.16-.75-1.47-.01-1.71,0Z"/>
  <path class="cls-1" d="M22.76,33.52c1.77.48,3.81.84,5.65.64.26-.03.99-.11.95-.5-3.04.16-5.82-.05-8.7-1.05.36.51,1.52.76,2.11.92Z"/>
  <path class="cls-1" d="M26.85,42.35l-6.99,4.21c1.24-.42,2.55-1.08,3.7-1.71.47-.26,3.29-1.84,3.42-1.99.03-.03.1-.56-.13-.52Z"/>
  <path class="cls-1" d="M29.62,25.87c-.72-.85-2.05-2.19-2.9-2.9-.71-.6-1.78-1.34-2.64-1.71l6.06,5.53c.12-.49-.28-.63-.52-.92Z"/>
  <path class="cls-1" d="M10.88,56.85c1.81-.7,3.69-1.3,5.49-2.04.39-.16.72.16.58-.59-1.96.78-4.48,1.26-6.07,2.63Z"/>
  <path class="cls-1" d="M21.7,52.11c1.29-.79,2.72-1.87,3.69-3.03.25-.3.64-.43.52-.92l-4.22,3.95Z"/>
  <path class="cls-1" d="M6.4,54.74l4.22-3.16c-1.82.2-3.1,1.87-4.22,3.16Z"/>
  <polygon class="cls-1" points="8.77 36.81 13.52 36.81 12.34 36.26 8.77 36.81"/>
  <path class="cls-1" d="M17.01,49.4c-.32.14-.78.13-.85.6,3.33-1.17,7.4-2.28,9.76-5l-3.99,2.47c-1.56.83-3.31,1.23-4.92,1.94Z"/>
  <path class="cls-1" d="M28.82,28.64l-3.96-2.63c.91,1.18,2.52,2.2,3.96,2.63Z"/>
  <path class="cls-1" d="M29.61,37.61c-.56.06-2.47-.2-2.37.79.77.01,1.96,0,2.37-.79Z"/>
  <path class="cls-1" d="M28.83,27.06c-.38.42,1.71,1.99,1.84,1.85.39-.42-1.48-1.68-1.84-1.85Z"/>
  <path class="cls-1" d="M6.53,36.81c-.32.01-.98-.2-.92.26.66-.01,1.32.03,1.98,0,.32-.01.98.2.92-.26-.66.01-1.32-.03-1.98,0Z"/>
  <path class="cls-1" d="M29.62,45.51l1.05-1.05c-.57-.06-1.12.53-1.05,1.05Z"/>
  <rect class="cls-1" x="3.76" y="37.08" width="1.32" height=".26"/>
  <path class="cls-1" d="M28.3,15.2c1.91,2.61,3.46,5.65,5.8,7.91l-4.11-6.3c-.28-.24-1.25-2.01-1.69-1.6Z"/>
  <path class="cls-1" d="M28.56,20.73c.39.95,1.21,1.97,1.85,2.76.74.91,1.77,1.95,2.63,2.78,0-.53-.48-1.03-.8-1.44-.28-.36-3.5-4.3-3.68-4.09Z"/>
  <path class="cls-1" d="M40.17,15.19c.46.06.25-.6.26-.92.09-2.15.24-4.97-.07-7.06-.03-.23-.12-.79-.46-.72-.26.6.24,1.35.26,1.71.13,2.31-.09,4.67,0,6.99Z"/>
  <path class="cls-1" d="M26.98,18.62c-.09.48.36.86.79,1.05.09-.48-.36-.86-.79-1.05Z"/>
  <g>
    <path class="cls-1" d="M37.79,33.65l.53,1.32c1.93.31-.04-1.82-.53-1.32Z"/>
    <path class="cls-1" d="M76.57,2.41c-1.83-.63-8.68-1.14-10.61-.85-1.12.16-5.32,2.51-6.16,3.34-.29.29-.35.78-.38.81-.15.11-.62-.64-.97-.74-.58-.17-1.2.04-1.78-.06-.4-.07-.69-.48-1.06-.5-1.33-.08-3.42,2.17-4.23,3.14-.41-.97-.46-3.87-1.51-4.31-.79-.33-4.52.44-5.3.92-1.24.76-1.8,2.16-2.81,3.12-.13-1.69-2.92-6.25-4.24-6.96-3.26-1.75-3.68,4.19-4.72,5.72-.2.3-.7.38-.94.7-1.71,2.18-1.33,4.55-1.18,7.13l-4.64-6.83c-1.34-1.57-2.92-4.16-5.4-3.33-.95.32-.87,1.12-.78,1.99.4-.47.27-.55.46-.98.56-1.24,1.25,1.45,1.38,2.03-.79-.09-1.76-.2-1.85-1.05-.25.29-.84.42-1,.98-.15.53.05,2.07-.06,2.18-.07.06-1.07-.02-1.71.53-2.03,1.74-.08,4.54,1.2,6.07-2.02-.23-4.4-.62-6.26.47-1.67.98-.06,2.14-.34,2.43-2.89-1.04-8.31.89-5.16,4.5.55.63,1.76,1.22,2.44,1.78l4.03,2.03c-.94,1.31-2.58.42-3.81.39-3.16-.09-2.9.05-5.17,1.71-1.05.77-2.31.71-2.09,2.37.27,2.01,3.16,2.44,3.16,2.66-2,.82-4.82,3.15-2,4.9l3.84.77c-2.72.37-7.76,3.39-6.81,6.67.41,1.41,2.23.85,3.24.99,1.47.2,2.89.63,4.35.79.13.52-.21.51-.44.74-1.61,1.63-4.46,3.61-2.84,6.36,1.14,1.95,2.56,1.31,4.34.81-2.43,4.66.76,4.43,4.29,3.1,2.46-.93,4.67-2.53,7.05-3.63-.65,1.53-2.18,3.07-2.52,4.73-.2.99-.28,3.86,0,4.77.58,1.9,3.36.9,4.63.25-2.39,7.71,9.25,9.03,8.98.93-.02-.72-.49-1.35-.54-2.11-.28-3.76-.01-8.02.53-11.73l.79,5.93c.15,1.59-.2,3.47,0,5.01.05.38.2.82.53.39.69-4.92-1.73-10.6.22-15.21.65-1.54,2.32-2.89,1.63-4.56.26-.02.53,0,.79,0-.64.03-.08-.95.4-1.62l-.66-.22v.8c-.57-.27-1.05-.61-1.32-1.19.26-.36.8.2,1.16.16.17-.02.18-.56.29-.55.04,0,.62.27.64.29.08.11.04.34.02.55.15-.2.29-.36.35-.42,1.5-1.36,2.67,1.81-.08,2.21.15.02,1.02.23,1.06.27.04.04-.53.93.13,1.05.44.08.86-1.38,1.71-.79.11.08-1.06,1.85-.79,2.11,1.3.36.59-.86.79-1.06.06-.06,1.36.26,1.32-.66-.02-.44-1.12-.18-1.05-.66,1.95-.66,1.16,2.28,2.63.26,1.19,2.75,3.38,4.8,5.02,7.24,1.96,2.92,3.48,5.69,5.64,8.6.09.13.29.98.68.5.42-.53-2.84-4.23-3.33-4.97-.89-1.34-1.52-2.84-2.41-4.18-1.05-1.58-4.12-4.74-4.65-6.13-.02-.06-.21-1.28-.16-1.32.08-.06.51.11.73-.07.06-.05.66-1.29.59-1.52.41-.02.46.75.52,1.05.72,0,1.4.65,2.26.01,1.17-.87-.92-.79-.14-1.86,1.13.07.67,1.19.79,1.32.04.04,1,.02,1.03-.02.24-.23-.45-1.72,1.34-1.04-.06-.51.13-1.22-.03-1.68-.13-.37-.65-.37-.71-.46-.04-.07.06-1.44.35-1.54,1.3-.47.23.79.22.92-.16,1.93,2.96,1.29,3.47,1.98.11.15,1.05,3.55.92,3.69-1.32-.48-2.53-1.32-3.83-1.84-.34-.13-.76-.55-.65.12,1.8,1.55,5.34,1.87,5.54,4.62l-2.54-1.55-4.32-1.75c1.59,1.61,5.82,2.52,7.13,4.21.42.55,1.86,6.13,1.57,6.47-3.71-1.37-5.55-4.81-8.3-7.39-.96-.9-2.18-1.41-2.91-2.63-.2-.04-.18.27-.13.39.49,1.19,3.52,3.41,4.62,4.61,2.48,2.74,4.28,6.08,4.88,9.76,2.12-.54,3.91-2.15,4.19-4.38.4-3.18.13-12.29-1.17-15.13-.08-.18-.25-1.01-.65-.52-.13.16.87,3.18.98,3.89.43,2.79.74,9.35.32,12.04-.23,1.48-1.63,3.03-3.15,3.31l-1.58-4.74,2.99,1.56.58,1.07c-.02-5.48-2.88-10.71-4.01-16.03-.44-2.08-1.32-7.11.07-8.73,2.18-2.53,9.45-1.71,12.48-4.66.76-.74,2.14-3.2,2.14-4.19v-5.01c0-.13-.32-.81-.53-.66v5.67c0,.1-.5,1.86-.57,1.93-.12.11-1.87.3-2.33.44-4.06,1.19-8.01,2.78-11.6,5.01.21.4.64-.08.88-.18,2.41-1.02,4.49-2.35,7.05-3.24,1.69-.59,3.76-1.23,5.53-1.33-2.41,4.77-12.23,2.31-14,7.1-.88,2.38-.15,4.85.28,7.26-.58.06-2-.24-2.24-.77-.46-1.02,1.13-1.23,1.19-1.47.08-.34-.56-.63-.49-1,.04-.24.57-.53.49-.84-.06-.23-.61-.3-.72-.45-.08-.1.11-.49.01-.67-.23-.4-.66-.35-.61-1.12.74-.26.56.7.93.79,1.21.29.28-1.92-.93-1.58,1.55-1.3-.22-1.71.79-3.16-1.18.07-1.2-.26-2.11-.8.38-.97.61-.04,1.18.01,1.08-1.68-1.09-.71-1.18-.79-.06-.06-.29-1.41-.23-1.66,3.8-4.76,8.06-9.47,9.73-15.48l1.6,3.83c.19,1.08-.91,1.43-1.34,2.23l1.05-.26c.39,1.46.15.78-.53,1.44-1.86,1.8-3.23,3.95-4.99,5.83-.56.59-4.3,3.12-3.18,4.07.51.43,7.82-9.48,9.1-9.75,1.06,1.31,1.86,2.79,2.5,4.35l1.58,1.18c-3.97,1.86-8.5,3.27-11.87,6.06,1.52-.67,2.88-1.62,4.39-2.33,3.58-1.68,7.8-2.47,10.38-5.71-.87-.07-1.36.94-2.3,1.13-.55.11-1.07.2-1.52-.2-.21-.19-2.56-4.54-2.7-4.95-.21-.63-.23-2.64.2-2.96.07-.05.69.49.79.14-1.18-1.22-2.17-2.89-2.37-4.61.42.04.4.61.77.94,1.17,1.02,3.58,1.29,3.71,1.44.08.09-.23.61-.19.88.08.47.49.97.61,1.48.12.52-.39,1.67.53,1.83,1.02.18.97-2.01.89-2.62.66.68,2.06.6,2.63.93.85.49.89,2.51,3.07,2.75.71.08,1.31-.22,1.78-.17.66.07.93.66,2.08.4.37-.08,2.27-1.59,2.58-1.92,1.72-1.84.66-3.05,1.1-4.96.19-.83,1.32-1.59,1.61-2.61.88-3.05-1.24-5.72-4.04-6.68ZM35.84.72c1.66-.52.35,2.61.18,3.34-.17.72.22,1.46-.52,1.86-3.9,2.12-.19-5.03.34-5.2ZM10.53,24.91c-1.8-.82-3.97-2.02-4.35-4.1-.11-.6.99-.39,1.41-.35.57.07,1.12.17,1.59.52.55-.89-2.08-.76-2.77-1.18,1.55-1.07,3.75-1.71,5.52-.77.74.39,2.95,3.68,3.84,4.6.64.66,1.52,1.02,1.98,1.84l-1.85-.52,1.05.79c-2.73.36-3.94.3-6.42-.83ZM4.81,33.26c-1.12-.29-2.54-1.31-2.38-2.62.14-.55,3.81-.4,4.5-.42.02-.39-.94-.46-1.22-.49-.74-.09-1.48-.01-2.21-.03.3-.51,2.69-2.11,3.03-2.11h4.62c-1.49,1.15-2.12.94-.79,2.77.63.86,3.17,2.32,1.2,2.52-1.54.16-5.54.7-6.75.39ZM25.54,70.81c-4-.63-4.06-7.13.05-7.83,6.39-1.08,6.4,8.84-.05,7.83ZM25.39,62.38c1.86-1.81,3.22-3.98,4.75-6.06v7.65c-1.33-1.29-2.88-2.04-4.75-1.58ZM29.82,55.34c-1.13,2.86-4.49,6.76-6.97,8.59-1.11.82-4.56,2.74-4.85.45-.82-6.49,4-10.46,8.33-14.37.37-.33.57-.91,1.04-1.33,1.66-1.46,4.18-2.31,6.2-3.16-2.33,2.78-2.48,6.59-3.76,9.82ZM32.78,40.24c.19,1.86-1.61-.31-2.18-.23-.62.08-2.39,1.23-2.83,1.81,1.13-.15,1.95-1.24,3.16-1.05.47.4-1.82,1.6-2.04,1.77-.21.16-.74.18-.2.6.66-.48,1.51-.77,2.12-1.31.36-.32.27-.87.65-.79-.12.83.71.49,1.32.53-.76,1.36.89.9,1.05,1.06.1.09-.17,2.1-.32,2.31-.12.17-2.12,1.01-2.31.85l1.19-1.84.66,1.05.26-2.11c-1.75-.06-2.06,2.51-3.03,3.43-.14.14-1.51.95-1.63.98-.28.05-.69-.26-.84-.17-.26.17-2.23,2.78-2.77,3.31-2.73,2.66-11.37,8.94-15.08,8.81-.51-.02-.96-.18-1.45-.28.59-.94-.29-.79-.26-.91,1.45-5.76,7.31-6.22,11.86-8.19,3.11-1.35,5.73-3.23,8.32-5.39l.39.13c-.74.83-1.53,1.66-2.24,2.5-.18.21-.69.53-.26.79,1.68-1.87,3.51-3.5,5.41-5.14-.81-.43-1.79.26-2.51.66-2.64,1.46-4.99,4.08-7.94,5.51-3.2,1.55-6.86,1.86-9.84,3.88-1.95,1.32-3.04,3.5-5.83,3.01l.53-.79c-2.86.24-1.32-3.17-.25-4.54,2.96-3.77,10.71-4.59,15.09-6.33l2.83-1.52-15.4,4.99c-2.5-1.5-9.59.87-7.42-3.94,1.04-2.3,5.56-3.98,7.92-4.21,5.87-.57,14.64,2.49,19.87.61,1.06-.38,1.56-1.42.5-1.36-.86.05-2.58.98-3.61,1.01l.66.26c.44.34-.39.33-.54.28-1.98-.66-1.86-.23-3.94-.28-2.42-.06-5.22-.84-7.66-1.05-2.89-.25-5.91-.03-8.7-.27-2.78-.24-4.42-1.71-1.54-3.64,1.58-1.06,7.91-2.28,9.65-1.83.49.13,1.06.8,1.6,1.04,4.83,2.14,9.31,1.99,14.42,1.01.41-.34-.04-.49-.4-.53-1.17-.14-2.99.47-4.22.53-4.84.25-12.25-.96-14.64-5.8-.02-.04-.53-.19-.23-.76.59-.57,2.81-.63,3.12-.84.07-.04-.55-.57.8-1.17,3.72-1.67,7.55,1.22,10.94,2.51,1.66.63,3.4,1.24,5.15,1.57-.96-1.2-3.05-1.32-4.55-1.91-5.99-2.34-10.89-5.51-13.65-11.53,2.31.65,4.16,1.81,6.24,2.86.24.12.7.55.88.17-2.09-1.77-4.8-2.34-7.12-3.69,1.76-1.14,3.51.42,5.27.66-.63-.84-2.14-1.24-3.16-1.32-.01-.43.93-.54,1.19-.54,4.54.03,11.53,5.94,14.5,9.24.51.56,2.06,3.06,2.5,3.17-.97-3.09-5.33-6.87-7.94-8.81-2.64-1.96-5.53-2.75-6.97-5.95-.33-.73-1.13-1.99-.13-2.38.81,1.88,2.94,2.84,4.36,4.22.46-.33-.11-.56-.31-.74-.67-.62-4.14-3.4-4.03-4.1.33-2.03,4.31.51,5.13,1.16,1.84,1.46,3.88,4.12,5.41,5.93,2.37,2.79,4.47,5.8,6.86,8.57-1.61-3.59-4.59-6.41-7.12-9.36-1.59-1.86-2.58-3.73-4.63-5.39-1.63-1.32-4.11-1.69-3.55-4.23,3.78.33,5.58,4.57,8.17,6.86.03-.5-.41-.91-.68-1.29-1.95-2.7-5.17-4.71-5.38-8.2.61-.05,1.17.26,1.67.57,2.61,1.65,8.77,12.17,10.51,15.33.84,1.53,1.42,3.39,2.59,4.66-1.1-4.42-4.94-7.87-5.27-12.53-.1-1.47-.1-3.53,1.05-4.61-.13,2.74.4,6,2.11,8.17-.44-1.72-1.36-3.38-1.55-5.17-.06-.6,0-3.8.25-4.05.13-.12,1.2-.07,1.45.25.49.64.08,2.26.79,2.9.52-.55-.4-2.89-.13-3.16,2.98-.08,3.86,4.42,4.19,6.75.56,3.92-.2,7.56.16,11.44.45-.64.6-1.99.66-2.77.3-4.34.25-11.35-2.52-14.88-.4-.51-1.07-.54-1.19-1.21-.15-.83.66-3.05.81-4.21.12-.95.36-.96,1.05-.21,3.59,3.93,4.26,10.92,3.96,16.03-.14,2.3-.88,4.59-1.08,6.86-.09,1.11.87,2.52-1.04,2.22l.79-.26c.19-2.26-1.51-.54-1.8-1.49-.39-4.82-.65-10.03-1.91-14.7-.13-.47-.28-1.53-.77-1.73.56,2.59,1.21,5.17,1.55,7.81.31,2.42.08,6.59.56,8.63.05.2.51.18.51.29-.03.46-.63,1.36-.51,1.99-.53-.58-2.17-.39-1.58-1.32.04-.07,1.17.7,1.58-.13-1.88-.77-.9-1-1.05-2.63-.08-.84-.37-1.68-.53-2.51l-.52,1.32-.52-2.78-1.06-1.97,1.58,6.59.52-1.58c-.21.73.32,1.63.26,2.23-.06.7-1.38,1.56-.99,2.61.32.86,1.53-.15,1.78.69l-.79.14c-.19.81.84.72.53.92-.34.22-.9-.28-.26,1.06-.35-.16-2.03-.45-2.11-.53-.11-.1-.1-.71.38-.51.54.22.42.85,1.2-.15-.26-.21-.53-.68-.8-.8-.33-.15-1.35.54-.83-1.07.14-.42.56-.44.58-.51.48-1.55-.8-.01-.88.05-.21.16-.66.1-.86.34-.16.19.31,1.84-1.7,1.32.58,1.86-.27.65-1.34,1.45-.22.17-.04.67-.22,1.07-.18.39-1.11,1.01-1.08,1.31.03.33,1.06.19.78.92l-4.75-.52,2.04.72c1-.16,1.6.29,2.36.51.28.08.95-.59.43.34-.38.69-.22.58-.42,1.39-.17.68-.68.43-.2,1.52.02.04.5.22.42.65-.06.33-.59.68-.42,1.19h1.06c-.81.81.58,1.74,1.19,1.74,1.14,0,1.61-2.36,1.98.37l-1.32-.26ZM42.8,29.7c.37-1.22-.67-1.17-.79-1.32-.13-.16,1.14-1.67,1.06-.91-.04.33-.54,1.03.14,1.16.33.06,1.01-.6,1.44.15l-2.51,1.71c-.21-1.06-.2-1.48-1.45-1.32l.26,1.05-.66-.52-.39.79c-.43.12-.17-.47-.39-.53-.17-.05-.46.05-.66,0,.05.78.7,1.37-.79,1.32v-1.58c.27.09.51.2.79.26-.06-1.02.61-.08.79-.26.65-.67-.72-.81-.8-.96-.36-.64-.37-1.86.41-2.2l.66,1.31-.79.39c.48.37,1.37,1.21,1.87.54.36-.49-.48-1.08.51-.93-.2,1.08.5,1.39,1.32,1.85ZM41.75,26.27s.74.39,1.05.27c-.29,1.06-1.37.15-1.05-.27ZM41.75,31.8v.79c-.83.13-2.01-1.59-.79-1.58v1.06s.79-.26.79-.26ZM40.17,32.33v.52h-1.05c.14-.53.56-.59,1.05-.52ZM36.74,32.07l-.27-1.58c.22.03.7-.07.79,0,.28.2.03,1.54-.52,1.58ZM34.1,28.64l-.79-.26,1.05-.27c.02.33-.11.72.07,1.01.09.15.58-.12.46.31l-1.58.53c-.09-1.07,1.13.05.79-1.32ZM31.2,34.18h.79c-.12,1.74-.67,1.74-.79,0ZM31.72,37.34l-1.05.26c.32-.63.77-1.1,1.05-.26ZM32.25,38.13h.79s0,.79,0,.79c-.04.1-.7-.56-.79-.79ZM34.1,39.19l-.26-1.32,1.05.53-.79.79ZM35.69,38.13l-.53-1.32s.63.25.71.34c.36.38.42.82-.18.98ZM35.31,35.85c-.17-.14-.57-.04-.65-.12-.18-.2.05-.93-.04-1.03-.26-.28-1.52.33-1.58.27-.06-.06-.18-1.24-.35-1.64-.61-1.47-1.2-1.46-.44-3.38.24.03.86.66.79.79-.01.02-.37-.08-.51.2-.78,1.57.15,1.23.46,1.83.19.37.19,1.56.45,1.67,1.55.64-.4-2.56-.13-2.9.61.95,1.73.13,1.32-.26-.09-.09-1.23.17-1.32-.52.52.13.43-.46.66-.54.68-.24.02.75.53.79.18.01.56-.35.65-.26-.39.65-.38,1.68-.58,2.25-.05.15-.82.07-.47.64.02.04.42-.06.72.49.36.67.27,1.98,1.65,1.89-.45,1.01-.73.18-1.16-.17ZM36.47,34.44c-.06.06-.8-.04-1.06,0,.48-.6-.21-.99-.21-1.4,0-.63.89-1.42.21-2.29,1.37-.04.11,2.22.26,2.37.52.19,1.11-.22,1.47-.24.06,0,.39.98.9.5.2-.19-.48-1.56.53-1.32-.57.72.12,1.75.93,1.86.46.06.36-.38.45-.42.13-.07.33.06.46-.02.2-.13.19-.5.4-.59.09-.04,1.5.4,1.71.23l-.26-1.05c.2-.18,1.69.79,1.58-.53-1.04.5-.53-.48-1.84-.13.25-.32.14-.38.51-.59.42-.23,1.62-.66,2.05-.95.18-.12.29-.69.47-.71.84-.07.05,1.19,0,1.32-.33.92.67.11.78.1.78-.1,2.27.97,1.05.96-.9,0-1.36-.73-2.3-.22-1.2.65-.39,1.71-.46,1.78-.48.49-.43-.77-1.18-.53-.5.15-.39,1.25-.44,1.3-.05.05-1.28.31-1.37.29-.08-.02-.66-1.54-.7.26-1.6-.75-.65.18-1.45,1.05-.34-.03-.62-.5-.66-.52-.35-.16-1.02-.23-1.06-.27-.05-.05.54-.94-.4-1.31-.76-.17-.23.9-.39,1.05ZM46.89,28.9c-.92.35-.1-1.59.4-1.05.16.17-.06.92-.4,1.05ZM47.55,29.43c.1.04-.56.69-.79.79v-.79s.79,0,.79,0ZM46.76,27.05s-.94.66-1.05.53c-.79-.89,1.51-1.24,1.05-.53ZM45.71,32.33c.06-.03,1.02-.04,1.05,0,.09.09-.09.97,0,1.06.13.14,1.12-.29,1.06.26-.92-.03-1.02.66-1.58,1.06.12-.35-.67-2.29-.53-2.37ZM44.92,35.38c.48-.55-.11-.84,1.05-.41-.34.9-.87,1.46-1.85,1.05-.14-.89.35-.13.8-.64ZM44.39,33.91l.26-1.58c.34-.11.47.93.46,1-.01.05-.58.52-.72.58ZM40.7,34.44l.79,2.37c-.42-.27-1.35-.22-1.58-.66-.3-.59.67-.31.76-.41.15-.17-.04-.98.03-1.3ZM39.64,36.03s-.3.89-.39,1.05c-.87-.45.02-1.34.39-1.05ZM37,39.97c-.06-.57,1.02-1.04,1.06-1.19.1-.39-.69-.68-.53-1.18.17.11.71.27.74.3.05.06-.16.54.03.84.16.25.64.03.55.44-1.22-.36-.97.79-1.85.79ZM39.37,42.35v1.05c-1.12-.16-1.07-.81,0-1.05ZM38.59,40.5c.05-1.17,1.36-.35,1.72-1.6.12-.4-.93-2.91.91-.78-1.23-.18-.15,3.03-.26,3.17-1.01-.3-1.39-1.48-2.37-.79ZM41.75,43.4c-.05.05-.41-.07-.58.01-.37.18-.06.6-.47.52-.12-.53,0-2.33.66-2.37.22-.01.47,1.77.4,1.84ZM42.54,41.69c1.2-.5.54-.64.54-1.28,0-.08.78-1.04,1.18-.43.05.08.09,1.5.39,1.85-1.27-1.32-.92,1.47-2.11-.13ZM46.5,40.24l-1.05-.27v-.26s1.05,0,1.05,0v.53ZM48.61,41.3c-1.09-.17-.59-1.49-1.84-1.32-.03-.43,1.52-.58,1.58-.52.09.09-.25.6-.2.89.06.34.62.49.46.96ZM47.95,38.13c-.97.38-.57-.71-.66-.79-1.73.51-.25.84-.26.92-.02.26-.51,1.07-.79.54.67-1.37-1.58-1.21-.8.13-1.95.38-.18-.86-1.19-1.31-.5-.22-.36.52-.5.51-.22-.01-.59-.35-.94-.25v.79s1.05-.13,1.05-.13c-.72,1.1-.89.1-1.84.13-.11.12.25,1.47-.53,1.58-.38-2.65.6-1.5,1.02-1.88.12-.1,0-.7.28-.9.3-.22,1.01-.06,1.07-.12.03-.03.02-.76,0-.79-.49-.5-.85.51-.91.51-1.41-.04-.74-1.21-1.21-2.22-.02-.25,1.31.32,1.55-.56.01-.06-.44-1.89.3-.9.06.08-.02,1.85-.05,1.95-.09.33-2.04.4-1.27,1.21.11.12,2.89-.89,2.11,1.05h1.05c-.55-1.24.29-1.14.4,0,1.05-.26,1.09-1.06.13-1.45l.66-.66c.19.8.17,1.58,1.28,1.33.36-.08.4-1.45.96-.28-1.31-.02-.26,1.33-.93,1.58ZM50.19,34.71c.06.05-.31.59-.29.9,0,.11.91.26.55.95-.81-.27-.83-1.08-1.84-.79,1.01-1.9-1.08-.33-1.05-1.18.01-.33.64-.2.79-.3.33-.22.23-.96,1.31-.62l-.79.66c.24.55,1.21.31,1.32.4ZM49.14,31.28v-.79c.51.27.96.15.79.79h-.79c.06.05.31,1.51.25,1.57-.05.05-1.05.18-1.31.54-.32-1.21.69-.65.79-.79.02-.03.03-.76,0-.79-.07-.06-.67.1-.77-.01-.27-.31.52-1.16-.81-1.17,1.76-1.77.97.57,1.06.66.07.07.69-.07.79,0ZM58.39,9.86c-1.41,4.8-3.04,7.62-5.98,11.64-.89,1.22-3.11,4.29-4.07,5.17-.37.34-.9.49-1.28.09-.45-.48,1.33-4.7,1.71-5.47.73-1.48,1.82-2.74,2.47-4.25-1.64,1.33-3.06,3.83-3.82,5.81-.23.6-.71,3.15-.92,3.31-.3.22-.64-.15-.91-.15-.11,0-1.22,1.81-.68-.52-1.56.77-1.73-.46-2.03-.54-.46-.12-1.15.08-1.66,0,1.34-4.32,1.43-8.57,1.33-13.06-.02-.99-.51-2.34-.4-3.33.19-1.62,2.2-3.99,3.81-4.44-.54,2.29-2.2,4.1-2.57,6.53-.04.28-.28.91.2.85.2-.93.55-2.03.93-2.89.3-.69,1.78-3.87,2.11-4.22.19-.2,2.36-.9,2.5-.8-.66,2.23-2.43,3.9-3.36,6-1.81,4.1-1.97,10.31-1.12,14.69.07.38,0,.82.52.93-.53-5.18-.88-10.85,1.27-15.73.61-1.38,1.55-2.48,2.29-3.77.35-.62.77-2.64,1.25-1.52,1.73,4.08-1.07,7.79-2.37,11.47-1.17,3.31-1.99,6.56-2.18,10.08.79.13.42-.19.53-.64,1.25-5.1,3.4-17.22,8.55-19.68,2.77-1.32-.23,2.29-.9,3.05.89.52,2.07-2.52,2.42-2.72.1-.05,2.06-.3,2.17-.27,1.01.23.41,2.07.39,2.72-.01.49.31,1,.29,1.29,0,.15-.45.15-.51.35ZM77.86,4.29c.31.48.94,2.47.04,2.08-1.33-1.6-2.97-2.46-5.01-2.77l1.98-.54c1.07.15,2.36.25,3,1.24ZM72.62,2.54h1.32v.26h-1.32v-.26ZM72.35,2.28l-.64.78-3.32-1.04,3.95.26ZM65.23,16.78c-1,.19-.26-.68-.34-1.15-.13-.74-.63-1.42-.44-2.27.8.25.99,3.16.79,3.42ZM71.18,17.82c-.5-.11-1.22-.57-1.46-1.04.47.2,2.76.4,2.9.53.65.62-1.1.59-1.44.51ZM77.49,16.51c-.26-1.33-1.22,1.2-2.16,1.54-.76.28-.49-.37-.93-.57-1.57-.68-5.61-.54-4.69-2.82-1.52.39-2.56.58-3.69-.66-.3-.33-.76-1.38-.83-1.42-.24-.14-1.04.25-1.6.19-3.15-.33-5.52-4.05-3.86-6.9.58-.99,2.34-2.23,3.39-2.15-.84.82-2.15,1.95-1.71,3.3.91-2.27,3.22-4.4,5.8-4.43,1.34-.01,2.73.82,4.09.74-.14.52-.86.59-1.3.67-2.5.48-6.21.18-7.4,3.02,2.49-2.61,6.16-1.91,9.23-3.16-.92,1.23-2.55,2.04-3.43,3.29-.6.85-1.38,2.59.27,2.11l3.69-4.09c.29,3.04-.39,7.16,3.96,6.86.07.44-.64.29-.93.27-.68-.03-1.37-.32-1.97-.15,1.54,1.28,3.37.42,5.01-.13-.02,1.6.32,3.24-.92,4.48ZM70.41,6.93c-.45.5-1.49,1.13-2.01,1.68.3-1.77,1.95-2.48,3.03-3.69.26.54-.66,1.62-1.02,2.01ZM77.24,11.51c-2.76.37-4.53-.72-4.1-3.7l.94,1.56c.9,1.16,2,1.92,3.54,1.87-.79-.76-1.89-.74-2.77-1.58-1.34-1.29-1.73-3.76-1.98-5.53,2.77.33,5.16,2.33,5.52,5.16.15,1.16.19,2.05-1.15,2.23ZM78.42,6.76c.69.52.8,1.85.79,2.64-.79-.47-.75-1.83-.79-2.64ZM80,8.87l-1.19-2.63-.39-2.11c1.62,1.1,2.2,2.89,1.58,4.74Z"/>
  </g>
  <path class="cls-1" d="M59.42,66.86c1.78-1.24,1.54-4.04-.66-4.48-1.14-.23-2.87.16-4.09,0v.53c.18.04,1.06-.05,1.06,0v7.91c0,.05-.88-.04-1.06,0v.53h4.62c1.57,0,2.57-4.21.13-4.49ZM57.67,62.94c4.04.32,2.12,4.62-1.42,3.67.28-1.67-.95-3.86,1.42-3.67ZM59.31,70.57c-.91.51-2.04.16-3.05.25.13-.74-.28-3.21.25-3.58.49-.34,3,.09,3.39.47.73.71.31,2.35-.59,2.85Z"/>
  <path class="cls-1" d="M72.35,70.82v-4.48c-.45-.18-.62.42-.92.44-.19.01-.79-.4-1.32-.45-3.8-.35-3.94,5.51.25,5.01.41-.05.82-.43,1.06-.41.29.01,1.06.75,1.72.43.28-.81-.79-.48-.79-.53ZM70.31,70.77c-2.78.62-3.2-3.39-.93-3.85,2.69-.55,3.02,3.39.93,3.85Z"/>
  <path class="cls-1" d="M64.55,70.82c-.91.11-1.86-.29-1.96-1.31l3.95-1.45c-1.08-2.63-4.65-2.26-4.96.6-.25,2.38,2.73,3.66,4.44,2.03.08-.89-.99.07-1.47.13ZM65.49,67.92c-.1.13-2.71.95-3.16,1.06-.43-2.79,4.02-2.21,3.16-1.06Z"/>
  <path class="cls-1" d="M42.81,69.51l3.96-1.32c-1.28-3.48-5.69-1.69-4.69,1.67.09.31,1.14,1.36,1.45,1.45.8.24,3.47-.31,2.72-1-.15-.14-3.16,1.63-3.43-.79ZM42.54,68.98c.04-2.07,2.34-3.07,3.43-1.06l-3.43,1.06Z"/>
</svg>