<svg xmlns="http://www.w3.org/2000/svg" xmlns:xlink="http://www.w3.org/1999/xlink" width="180" zoomAndPan="magnify" viewBox="0 0 135 135.000003" height="180" preserveAspectRatio="xMidYMid meet" version="1.0"><defs><clipPath id="ff06cf843e"><path d="M 65 0.851562 L 70 0.851562 L 70 5 L 65 5 Z M 65 0.851562 " clip-rule="nonzero"/></clipPath><clipPath id="723c253cb1"><path d="M 0.496094 23 L 134.503906 23 L 134.503906 133.371094 L 0.496094 133.371094 Z M 0.496094 23 " clip-rule="nonzero"/></clipPath></defs><path fill="#0d1d60" d="M 58.191406 27.699219 C 58.191406 27.699219 68.359375 24.703125 77.261719 27.808594 L 82.992188 13.640625 L 83.226562 11.953125 L 82.570312 13.023438 C 82.570312 13.023438 76.164062 21.820312 73.320312 20.691406 C 73.320312 20.691406 69.953125 19.042969 69.085938 11.003906 L 68.082031 4 L 66.75 3.328125 L 66.90625 5.039062 C 66.90625 5.039062 67.15625 12.027344 63.675781 18.976562 C 63.675781 18.976562 61.851562 23.050781 57.609375 18.664062 L 51.976562 12.417969 L 52.109375 13.40625 L 58.191406 27.695312 Z M 58.191406 27.699219 " fill-opacity="1" fill-rule="nonzero"/><path fill="#0d1d60" d="M 84.746094 13.355469 C 84.019531 13.996094 82.910156 13.925781 82.269531 13.199219 C 81.628906 12.472656 81.699219 11.363281 82.425781 10.722656 C 83.152344 10.078125 84.261719 10.148438 84.902344 10.878906 C 85.542969 11.605469 85.476562 12.710938 84.746094 13.355469 Z M 84.746094 13.355469 " fill-opacity="1" fill-rule="nonzero"/><path fill="#0d1d60" d="M 52.574219 13.308594 C 51.847656 13.949219 50.738281 13.878906 50.097656 13.152344 C 49.457031 12.425781 49.523438 11.316406 50.253906 10.675781 C 50.980469 10.035156 52.089844 10.101562 52.730469 10.832031 C 53.371094 11.558594 53.300781 12.667969 52.574219 13.308594 Z M 52.574219 13.308594 " fill-opacity="1" fill-rule="nonzero"/><g clip-path="url(#ff06cf843e)"><path fill="#0d1d60" d="M 68.96875 4.449219 C 68.117188 5.203125 66.820312 5.121094 66.066406 4.269531 C 65.316406 3.417969 65.398438 2.121094 66.25 1.367188 C 67.101562 0.617188 68.398438 0.699219 69.148438 1.550781 C 69.902344 2.402344 69.820312 3.699219 68.96875 4.449219 Z M 68.96875 4.449219 " fill-opacity="1" fill-rule="nonzero"/></g><g clip-path="url(#723c253cb1)"><path fill="#0d1d60" d="M 125.429688 67.195312 C 125.429688 67.195312 120.082031 81.566406 110.152344 84.667969 C 110.152344 84.667969 106 86.578125 95.449219 88.585938 C 95.449219 88.585938 82.988281 90.253906 81.703125 98.515625 C 81.703125 98.515625 80.078125 105.4375 85.617188 108.828125 C 85.617188 108.828125 85.328125 98.804688 95.738281 96.417969 C 95.738281 96.417969 97.3125 95.605469 103.378906 94.507812 C 103.378906 94.507812 118.742188 92.109375 125.332031 81.894531 C 125.332031 81.894531 134.34375 104.585938 108.339844 110.167969 C 108.339844 110.167969 115.5 111.453125 117.199219 117.632812 C 117.199219 117.632812 119.511719 124.683594 109.296875 125.730469 C 109.296875 125.730469 102.007812 126.832031 81.988281 125.445312 C 81.988281 125.445312 77.773438 124.890625 73.28125 122.332031 C 82.128906 111.554688 79.566406 100.429688 79.566406 100.429688 C 78.855469 94.660156 75.269531 88.957031 72.460938 85.265625 C 77.375 79.507812 85.375 70.535156 96.023438 59.945312 C 96.023438 59.945312 107.578125 47.910156 108.246094 46.382812 C 108.246094 46.382812 118.371094 31.453125 103.757812 24.039062 C 103.757812 24.039062 95.75 19.945312 86.859375 28.242188 C 86.859375 28.242188 85.84375 29.125 85.425781 30.53125 C 85.425781 30.53125 82.753906 47.480469 71.007812 49.34375 C 71.007812 49.34375 85.210938 56.839844 92.367188 33.894531 C 92.550781 33.414062 92.871094 33.011719 92.871094 33.011719 L 92.832031 33.019531 C 93.234375 32.511719 93.976562 31.699219 95.03125 31.109375 C 97.101562 29.945312 100 29.3125 102.328125 31.964844 C 102.328125 31.964844 106.613281 37.464844 100.511719 43.996094 C 100.511719 43.996094 74.210938 71.765625 67.507812 79.386719 C 60.804688 71.765625 34.5 43.996094 34.5 43.996094 C 28.398438 37.464844 32.683594 31.964844 32.683594 31.964844 C 35.007812 29.3125 37.910156 29.941406 39.984375 31.109375 C 41.039062 31.699219 41.78125 32.511719 42.179688 33.019531 L 42.144531 33.011719 C 42.144531 33.011719 42.464844 33.414062 42.644531 33.894531 C 49.804688 56.839844 64.003906 49.34375 64.003906 49.34375 C 52.261719 47.480469 49.585938 30.53125 49.585938 30.53125 C 49.171875 29.125 48.15625 28.242188 48.15625 28.242188 C 39.261719 19.945312 31.253906 24.039062 31.253906 24.039062 C 16.640625 31.453125 26.769531 46.382812 26.769531 46.382812 C 27.4375 47.910156 38.988281 59.945312 38.988281 59.945312 C 49.632812 70.535156 57.636719 79.507812 62.550781 85.265625 C 59.746094 88.957031 56.15625 94.660156 55.449219 100.429688 C 55.449219 100.429688 52.886719 111.554688 61.730469 122.332031 C 57.242188 124.890625 53.023438 125.445312 53.023438 125.445312 C 33.003906 126.832031 25.714844 125.730469 25.714844 125.730469 C 15.5 124.679688 17.816406 117.632812 17.816406 117.632812 C 19.519531 111.453125 26.671875 110.167969 26.671875 110.167969 C 0.660156 104.578125 9.675781 81.886719 9.675781 81.886719 C 16.265625 92.105469 31.628906 94.5 31.628906 94.5 C 37.691406 95.597656 39.269531 96.410156 39.269531 96.410156 C 49.675781 98.796875 49.390625 108.820312 49.390625 108.820312 C 54.925781 105.433594 53.304688 98.511719 53.304688 98.511719 C 52.015625 90.25 39.558594 88.578125 39.558594 88.578125 C 29.007812 86.574219 24.851562 84.664062 24.851562 84.664062 C 14.921875 81.558594 9.578125 67.191406 9.578125 67.191406 C -12 97.117188 11.867188 112.925781 11.867188 112.925781 C 4.828125 131.296875 25.429688 132.976562 25.429688 132.976562 C 25.429688 132.976562 32.4375 133.503906 49.777344 132.691406 C 59.136719 132.371094 65.074219 129.3125 67.507812 127.761719 C 69.941406 129.3125 75.878906 132.371094 85.238281 132.691406 C 102.578125 133.503906 109.585938 132.976562 109.585938 132.976562 C 109.585938 132.976562 130.1875 131.296875 123.144531 112.925781 C 123.144531 112.925781 147.011719 97.117188 125.4375 67.191406 Z M 68.199219 92.117188 C 73.210938 98.371094 72.300781 104.625 72.300781 104.625 C 72.09375 110.394531 70.113281 114.589844 67.5 117.636719 C 64.882812 114.589844 62.90625 110.394531 62.699219 104.625 C 62.699219 104.625 61.792969 98.371094 66.800781 92.117188 C 66.800781 92.117188 67.039062 91.808594 67.5 91.238281 C 67.960938 91.808594 68.199219 92.117188 68.199219 92.117188 Z M 68.199219 92.117188 " fill-opacity="1" fill-rule="nonzero"/></g></svg>