<?xml version="1.0" encoding="UTF-8"?>
<svg id="_图层_1" data-name="图层 1" xmlns="http://www.w3.org/2000/svg" viewBox="0 0 200 200">
  <defs>
    <style>
      .cls-1 {
        fill: #fff;
      }
    </style>
  </defs>
  <path class="cls-1" d="M130.49,7.28c15.05,4.78,17.9,24.26,27.14,35.16.46.54,5.43,3.59,5.7,4.08,4.25,7.63-10.29,5.01-14.32,2.63s-15.82-21.74-21.47-15.95c-4.05,4.15,1.91,10,4.68,12.99,11.34,12.24,26.67,22.35,37.38,36.21,13.84,17.91,21.37,41.68,16.16,64.15-5.24,22.58-23.95,40.27-46.83,44.25-2.58.45-5.27.75-7.5,2.12-21.99,2.09-43.98,1.15-65.67-2.86-8.25-1.52-16.48-3.17-24.63-5.15-5.09-1.24-11.85-2.16-16.22-5.3-.6-.43-1.42-.91-1.58-1.67,13.53.4,26.92,3.14,40.44,4.05,14.15.96,28.35,1.95,42.53,1.1,27.68-1.66,62.17-11.16,66.42-43.07.85-6.4.06-12.71-1.32-18.96-1.24-5.61-2.74-11.31-5.89-16.19-1.77-2.73-3.91-5.18-5.95-7.7s-3.73-5.34-5.88-7.79c-1.62-1.84-3.31-3.62-5.05-5.35-.79-.78-5.4-4.14-5.4-5.07-3.74-3.33-7.59-6.52-11.42-9.74-1.91-1.6-3.81-3.21-5.69-4.85-1.74-1.52-4.14-3.11-5.5-4.99-4.92-4.67-9.54-9.7-13.31-15.36-1.9-2.85-2.85-10.95-3.11-14.57-.33-4.6.21-9.43,2.22-13.63,4.55-9.49,14.63-11.55,24.08-8.55Z"/>
  <path class="cls-1" d="M18.86,60.12c27.92,27,58.68,29.15,96.6,35.94,7.04,2.08,13.88,4.01,21.83,7.4,2.83,1.21,8.79,5.78,9.76,8.95-.29-.97-10.28-3.16-11.43-3.49-4.92-1.42-9.94-2.54-15-3.36-20.76-3.34-41.81-1.12-62.72-4.52-7.51-1.22-13.64-3.03-20.38-5.84-8.54-3.55,3.39,21.29,5.38,24.23,6.25,9.22,15.09,16.49,25.05,21.39,20.28,9.98,45.42,10.38,65.41-.55,1.22-.67,2.42-1.37,3.59-2.12.59-.38,12.35-11.15,9.04-3.12-29.74,72.27-135.39,6.49-133.4-63.06.07-2.38.95-16.73,4.19-14.87.16.09,1.08,2.06,2.05,3.01Z"/>
  <path class="cls-1" d="M47.34,49.42c13.04,20.3,35.61,26.93,56.68,37.11-.69,1.73-8.78.84-10.91.58-19.15-2.27-38.48-8.68-55.58-17.5-6.08-3.13,2.01-19.42,4.02-24,.37-.85,1.01-1.84,1.93-1.72.71.09,1.14.8,1.47,1.43.76,1.42,1.56,2.78,2.39,4.09Z"/>
</svg>