<?xml version="1.0" encoding="UTF-8"?>
<svg id="_白墨層_黑色違白墨區域_" data-name="白墨層（黑色違白墨區域）" xmlns="http://www.w3.org/2000/svg" viewBox="0 0 133.07 48">
  <defs>
    <style>
      .cls-1 {
        fill: #231815;
      }
    </style>
  </defs>
  <g>
    <g>
      <path class="cls-1" d="M66.2,29.02c-.35.42-.84.75-1.49.98-.65.23-1.36.35-2.14.35-.83,0-1.54-.18-2.16-.54-.62-.36-1.1-.88-1.45-1.56-.34-.68-.5-1.49-.5-2.41v-.64c0-.95.15-1.78.46-2.47.32-.69.78-1.22,1.39-1.58.6-.37,1.31-.56,2.12-.56,1.12,0,1.99.27,2.62.81.64.54,1.02,1.32,1.14,2.34h-1.89c-.09-.54-.29-.93-.6-1.18-.3-.26-.7-.39-1.22-.39-.67,0-1.18.25-1.52.75s-.52,1.24-.52,2.22v.62c0,.99.18,1.75.56,2.26.39.5.94.75,1.66.75s1.26-.15,1.58-.46v-1.64h-1.78v-1.43h3.72v3.78Z"/>
      <path class="cls-1" d="M72.49,28.65h4.17v1.56h-6.12v-9.5h1.95v7.93Z"/>
      <path class="cls-1" d="M87.91,25.68c0,.94-.17,1.77-.5,2.47-.32.69-.79,1.24-1.41,1.62-.62.39-1.33.58-2.12.58s-1.49-.18-2.1-.56c-.62-.39-1.1-.93-1.45-1.62-.34-.7-.5-1.52-.5-2.43v-.46c0-.94.16-1.76.5-2.47.33-.72.81-1.26,1.43-1.64.62-.39,1.32-.58,2.1-.58s1.51.19,2.12.58c.62.38,1.09.92,1.43,1.64.33.71.5,1.52.5,2.45v.42ZM85.92,25.25c0-1-.18-1.76-.54-2.28-.35-.51-.85-.77-1.51-.77s-1.17.26-1.52.77c-.36.5-.54,1.25-.54,2.24v.46c0,.98.17,1.74.52,2.28.36.53.87.79,1.54.79s1.16-.26,1.51-.77c.36-.51.54-1.26.54-2.26v-.46Z"/>
      <path class="cls-1" d="M99.47,27.47l1.27-6.76h1.95l-2.1,9.5h-1.97l-1.54-6.35-1.54,6.35h-1.97l-2.1-9.5h1.95l1.27,6.74,1.58-6.74h1.64l1.56,6.76Z"/>
      <path class="cls-1" d="M108.6,30.21h-1.97v-9.5h1.97v9.5Z"/>
      <path class="cls-1" d="M120.88,30.21h-1.95l-3.82-6.25v6.25h-1.95v-9.5h1.95l3.82,6.25v-6.25h1.95v9.5Z"/>
      <path class="cls-1" d="M132.85,29.02c-.35.42-.84.75-1.49.98-.65.23-1.36.35-2.14.35-.83,0-1.54-.18-2.16-.54-.62-.36-1.1-.88-1.45-1.56-.34-.68-.5-1.49-.5-2.41v-.64c0-.95.15-1.78.46-2.47.32-.69.78-1.22,1.39-1.58.6-.37,1.31-.56,2.12-.56,1.12,0,1.99.27,2.62.81.64.54,1.02,1.32,1.14,2.34h-1.89c-.09-.54-.29-.93-.6-1.18-.3-.26-.7-.39-1.22-.39-.67,0-1.18.25-1.52.75s-.52,1.24-.52,2.22v.62c0,.99.18,1.75.56,2.26.39.5.94.75,1.66.75s1.26-.15,1.58-.46v-1.64h-1.78v-1.43h3.72v3.78Z"/>
    </g>
    <g>
      <path class="cls-1" d="M64.41,43.65h-3.76v3.88h-1.95v-9.5h6.18v1.58h-4.23v2.45h3.76v1.58Z"/>
      <path class="cls-1" d="M70.85,47.53h-1.97v-9.5h1.97v9.5Z"/>
      <path class="cls-1" d="M77.36,45.96h4.17v1.56h-6.12v-9.5h1.95v7.93Z"/>
      <path class="cls-1" d="M87.94,38.03l2.45,6.89,2.41-6.89h2.59v9.5h-1.97v-2.59l.19-4.5-2.57,7.08h-1.33l-2.57-7.06.19,4.48v2.59h-1.95v-9.5h2.55Z"/>
      <path class="cls-1" d="M104.76,45.04c0-.37-.14-.66-.41-.85-.26-.2-.73-.41-1.41-.64-.67-.22-1.21-.43-1.6-.64-1.07-.59-1.6-1.38-1.6-2.35,0-.51.14-.97.42-1.37.28-.41.69-.72,1.24-.95.55-.23,1.16-.35,1.83-.35s1.28.13,1.81.37c.53.25.94.59,1.24,1.04.29.45.44.96.44,1.52h-1.97c0-.42-.14-.76-.41-1-.27-.24-.66-.37-1.16-.37s-.85.11-1.12.31c-.26.19-.39.46-.39.79,0,.31.15.57.46.79.31.21.76.4,1.37.58,1.12.34,1.93.75,2.43,1.25.51.49.77,1.1.77,1.83,0,.83-.32,1.48-.95,1.95-.62.46-1.46.69-2.51.69-.72,0-1.38-.14-1.99-.41-.61-.27-1.07-.64-1.39-1.1-.31-.46-.46-1-.46-1.62h1.97c0,1.06.62,1.58,1.87,1.58.46,0,.82-.1,1.08-.29.27-.19.41-.45.41-.79Z"/>
    </g>
    <g>
      <path class="cls-1" d="M68.38,4.87c-1.24-1.15-2.43-2.49-2.97-4.12l1.47-.32.78,1.3,1.22-1.07c.29-.16,1.37.55,1.31.82l-1.64,1.33c.92,1.37,1.56-.29,2.39-.9l1.24,1.06c-.2.23-1.7,1.12-1.48,1.4l1.82.58-.93,1.41-1.71-.67v1.82s.63-.02.63-.02l.19-.8,1.13.52c.11.17.02.6-.05.81-.29.85-2.28.86-2.9.57-.69-.33-.47-1.76-.49-2.39h-1.21s-.8,2.04-.8,2.04l-.96.94h5.03c.09,0,.37.22.56.18.37.42-1.15,2.45-1.46,2.87.02.3,1.96.68,2.31.58.15.13-.76,1.5-1.07,1.49-.79.13-2.16-.92-2.67-.96-.55-.05-2.27,1.15-3.08.94l-.77-1.3c.35.12,2.47-.53,2.47-.74l-1.64-2.01c-.13-.61.46-1.55-.42-1.86-.42-.15-.11.45-.34.5l-3.05-.18v.83h3.14c0,.98-.04,3.45-.65,4.21-.67.84-2.35.52-3.3.56l-.34-1.48c1.94.09,2.69.25,2.64-1.98-1.3-.29-2.26.64-3.47.16l.83-3.63h2.81l-.15-1.08c-.19-.13-1.72-.1-2.07-.07-1.29.12-1.18.8-2.23-.74-.06-.36.07-.19.23-.26.7-.31,1.56-.43,2.08-1.06l-1.15-.83.66-.82c-.63-.17-.23-1.01-.33-1.57h4.54c.07,0,.51.37.73.34-.2,1.46-1.48,2.53-2.46,3.54l1.65.08v2.97c1.08-.61,1.21-1.84,1.16-2.97h2.81ZM62.77,2.39c-.47.01-.94-.02-1.4,0-.2,0-.61-.12-.57.16.93.19,1.53,1.31,1.98-.16ZM69.04,10.32c-.52.02-1.05-.04-1.57,0-.25.02-.48-.13-.41.25l1.05.9.93-1.14Z"/>
      <path class="cls-1" d="M129.93,6.85l.33,1.65,1.4-1.29,1.23,1.04-1.96,1.67c.46,1.03,1.29,1.75,2.13,2.46l-.99,1.17c-.56.3-1.74-1.36-2.01-1.8-.89-1.43-1.42-3.26-1.78-4.9-.1-.07-1.07.51-.99.74,2.41,1.99,3.03,7.31-1.38,6.7l-.44-1.33-2.05.83-.74-1.1c-.08-.31.04-.19.19-.27,1.18-.58,2.32-.84,3.44-1.68.34-.25.85-.48.8-1.01-.12-.24-.43-.01-.59.07-.55.28-2.3,1.51-2.8,1.5l-.9-.91c-.06-.35.06-.19.23-.26.47-.19,3.21-1.16,3.23-1.55.02-.26-.41-.23-.65-.16-.58.17-1.26.75-1.91.84l-1.07-1.02,2.8-1.4h-1.98c-.04-1.35.39-2.31-.99-3.05.71-.67,1.44-1.31,2.05-2.08.85-1.08.41-1.59,2.25-1.06v.58c1.15.13,2.88-.49,3.43.88l-.8,1.27h2.97v3.47h-2.48ZM125.31,3.38h2.31l.33-.82c-1.02.1-2.27-.44-2.64.82ZM126.97,4.54h-1.82v1.16h1.82v-1.16ZM130.76,5.69l-.16-1.08-1.99-.07v1.16s2.15,0,2.15,0ZM127.62,11.64l-1.81,1.07c.87.68,1.65-.18,1.81-1.07Z"/>
      <path class="cls-1" d="M107.49,2.56l.1-1.98h1.56s0,1.98,0,1.98h2.97v4.7l.67.35v1.38h-2.9l-.18.34c.61,1.9,2.27,2.78,3.89,3.7l-.9,1.09c-.39.31-1.82-.64-2.22-.94-.92-.67-1.45-1.45-2.08-2.37-.92,1.63-2.35,2.82-4.11,3.45l-1.09-1.22c1.71-.95,3.62-1.9,3.96-4.04h-3.14v-1.48s.83-.25.83-.25V2.56h2.64ZM107.49,4.21h-1.16v3.05c.27.37.75.24,1.16.25v-3.3ZM110.46,4.21h-1.32v3.3h1.32v-3.3Z"/>
      <path class="cls-1" d="M86.53.41v5.45h5.78v1.65h-3.63c0,2.8,1.45,4.42,3.96,5.36l-1.23,1.4c-1.17-.44-2.54-1.13-3.29-2.16-.96-1.31-1.1-3.05-1.41-4.53l-2.14-.05c-.29,2.7-.93,5.02-3.54,6.28-1.83.89-1.21.24-2.42-.94.38-.36.91-.36,1.37-.61,1.92-1.03,2.59-2.63,2.59-4.76h-3.63v-1.65h5.78V.41h1.82Z"/>
      <path class="cls-1" d="M103.7,1.4v10.07h-2.56c-.41.31-.22.87-.25,1.32h-1.49V1.4h4.29ZM102.04,2.89c-.4.01-.89-.13-1.16.25v2.39h1.16v-2.64ZM102.04,7.18h-1.16v2.56c.27.37.75.24,1.16.25v-2.81Z"/>
      <path class="cls-1" d="M120.53,7.01l-.91.99-.83-1.97c1.45-1.57,2.16-3.59,2.89-5.55l1.66.43c.14.19-1.16,2.54-1.16,2.89v10.48h-1.65v-7.26Z"/>
      <path class="cls-1" d="M90.99,1.57l-1.48,3.71-1.63-.6c-.32-.51,1.27-2.96,1.48-3.6l1.64.49Z"/>
      <path class="cls-1" d="M83.21,4.68l-1.63.68-1.49-3.79c.49.02,1.26-.67,1.65-.42.26.17,1.68,3.2,1.46,3.54Z"/>
    </g>
  </g>
  <path class="cls-1" d="M47.84,28.31h.01S38.59.68,38.59.68c-.14-.41-.52-.68-.95-.68H1C.45,0,0,.45,0,1v36.64c0,.43.27.81.68.95l27.54,9.36h0c.1.02.21.05.32.05h18.37c.55,0,1-.45,1-1v-18.37c0-.11-.03-.21-.06-.31ZM36.92,2l8.6,25.63h-6.88v-8.28c0-.55-.45-1-1-1h-17.45c-.39,0-.75.23-.91.59-.16.36-.09.78.17,1.08l8.09,8.99v7.64H2V2h34.92ZM28.98,27.63l-6.55-7.28h14.21v7.28h-7.66ZM36.64,29.63v7.03h-7.1v-7.03h7.1ZM27.54,38.65v6.95l-20.48-6.96h20.48ZM45.91,46h-16.37v-7.35h8.1c.26,0,.52-.1.71-.29s.29-.44.29-.71v-8.03h7.27v16.37Z"/>
</svg>