<svg xmlns="http://www.w3.org/2000/svg" xmlns:xlink="http://www.w3.org/1999/xlink" width="200" zoomAndPan="magnify" viewBox="0 0 150 149.999998" height="200" preserveAspectRatio="xMidYMid meet" version="1.0"><defs><g/><clipPath id="b088640876"><path d="M 54 2.660156 L 135 2.660156 L 135 109 L 54 109 Z M 54 2.660156 " clip-rule="nonzero"/></clipPath><clipPath id="4c7dd189dd"><path d="M 11.324219 5 L 78 5 L 78 109 L 11.324219 109 Z M 11.324219 5 " clip-rule="nonzero"/></clipPath><clipPath id="d5f6d2f2e5"><path d="M 22 0.28125 L 36 0.28125 L 36 14 L 22 14 Z M 22 0.28125 " clip-rule="nonzero"/></clipPath><clipPath id="fcc36689ea"><path d="M 44 0.28125 L 57 0.28125 L 57 14 L 44 14 Z M 44 0.28125 " clip-rule="nonzero"/></clipPath><clipPath id="6c6e531491"><rect x="0" width="129" y="0" height="15"/></clipPath><clipPath id="eb77047b63"><path d="M 0.078125 1 L 5 1 L 5 6 L 0.078125 6 Z M 0.078125 1 " clip-rule="nonzero"/></clipPath><clipPath id="39df19c394"><rect x="0" width="121" y="0" height="8"/></clipPath></defs><g clip-path="url(#b088640876)"><path fill="#35504b" d="M 117.609375 16.59375 C 102.890625 3.25 81.707031 -0.9375 63.007812 6.105469 C 62.085938 6.449219 56.632812 8.765625 56.351562 9.289062 C 56.171875 9.628906 56.671875 10.421875 57.003906 10.421875 C 57.175781 10.421875 59.21875 9.203125 59.632812 9.011719 C 92.199219 -6.183594 129.644531 15.222656 133.132812 50.769531 C 136.449219 84.585938 106.625 112.507812 73.007812 106.707031 C 67.066406 105.679688 61.183594 103.570312 56.007812 100.5 C 55.507812 100.492188 54.515625 101.140625 55.078125 101.597656 C 55.875 102.242188 57.953125 103.191406 58.964844 103.671875 C 69.636719 108.734375 81.957031 110.113281 93.367188 107.523438 C 134.847656 98.101562 149.328125 45.355469 117.609375 16.59375 Z M 117.609375 16.59375 " fill-opacity="1" fill-rule="nonzero"/></g><path fill="#35504b" d="M 56.960938 16.664062 C 73.777344 5.550781 95.949219 6.5625 111.777344 18.960938 C 125.761719 29.914062 132.398438 48.222656 128.566406 65.703125 C 121.707031 97.011719 86.554688 112.210938 58.75 95.992188 C 58.269531 95.710938 56.027344 94 55.664062 94.214844 C 55.625 94.238281 55.152344 95.007812 55.164062 95.058594 C 69.59375 105.464844 89.136719 106.628906 104.9375 98.460938 C 133.003906 83.953125 139.632812 46.328125 118.085938 23.042969 C 103.066406 6.8125 77.957031 2.816406 58.753906 14.089844 C 58.371094 14.316406 56.316406 15.539062 56.195312 15.730469 C 55.949219 16.125 56.433594 16.910156 56.960938 16.660156 Z M 56.960938 16.664062 " fill-opacity="1" fill-rule="nonzero"/><path fill="#35504b" d="M 81.667969 41.84375 C 80.941406 42.640625 78.96875 42.625 79.511719 44.457031 C 79.832031 45.53125 81.707031 44.484375 82.289062 44.398438 C 84.449219 44.105469 87.359375 44.570312 89.546875 44.730469 C 95.117188 45.132812 103.664062 46.453125 108.792969 44.320312 C 109.414062 44.0625 110.09375 43.832031 110.09375 43.039062 C 110.09375 41.203125 107.320312 42.648438 106.378906 42.878906 C 101.976562 43.964844 95.40625 42.855469 90.828125 42.472656 C 88.550781 42.285156 86.261719 42.132812 83.984375 42.148438 C 84.277344 40.699219 85.417969 39.59375 84.691406 37.980469 C 84.554688 37.675781 83.960938 37.128906 83.996094 36.9375 C 84.03125 36.726562 85.183594 35.574219 85.355469 34.902344 C 85.804688 33.148438 84.859375 32.039062 83.101562 31.984375 C 81.242188 31.925781 81.496094 34.578125 83.339844 34.257812 C 83.683594 34.589844 82.5625 36.03125 82.292969 36.351562 C 81.734375 37.027344 80.449219 37.542969 81.296875 38.71875 C 81.730469 39.316406 82.949219 38.773438 82.859375 39.644531 C 82.835938 39.871094 81.851562 41.636719 81.660156 41.84375 Z M 81.667969 41.84375 " fill-opacity="1" fill-rule="nonzero"/><path fill="#35504b" d="M 83.5 27.902344 C 84.082031 28.140625 84.6875 28.988281 85.398438 28.414062 C 85.535156 28.300781 85.777344 27.609375 85.777344 27.40625 C 85.769531 26.328125 83.242188 25.070312 82.230469 25.238281 C 81.953125 25.703125 82.070312 27.371094 82.441406 27.667969 C 82.710938 27.882812 83.15625 27.761719 83.496094 27.902344 Z M 83.5 27.902344 " fill-opacity="1" fill-rule="nonzero"/><g clip-path="url(#4c7dd189dd)"><path fill="#35504b" d="M 76.398438 39.816406 C 76.261719 39.785156 73.984375 38.832031 73.796875 38.730469 C 73.453125 38.546875 73.175781 38.058594 72.917969 37.988281 C 72.519531 37.878906 71.851562 38.238281 71.371094 38.226562 C 69.375 38.183594 67.445312 38.167969 65.382812 38.289062 C 64.308594 38.347656 63.300781 38.714844 62.171875 38.597656 C 60.242188 38.386719 59.359375 38.675781 57.445312 39.050781 C 54.890625 39.550781 52.628906 39.953125 50.804688 41.992188 C 51.121094 40.976562 50.320312 40.554688 50.105469 39.871094 C 49.578125 38.195312 49.796875 36.339844 49.683594 34.65625 C 49.546875 32.625 49.238281 30.660156 49.347656 28.535156 C 49.503906 25.457031 50.320312 22.316406 50.660156 19.378906 C 50.910156 17.253906 51.558594 15.292969 51.917969 13.230469 C 52.078125 12.328125 52.015625 8.039062 50.726562 8.007812 C 49.917969 7.988281 49.28125 9.6875 49.03125 10.335938 C 48.570312 11.527344 48.398438 12.953125 47.941406 14.089844 C 47.84375 14.335938 48.039062 14.527344 47.582031 14.445312 L 47.175781 5.746094 C 46.839844 5.058594 45.46875 5.75 44.84375 5.425781 C 45.109375 6.324219 44.476562 7.066406 44.371094 7.773438 C 43.996094 10.195312 45.007812 13.066406 45.171875 15.492188 C 45.492188 20.265625 45.355469 26.265625 45.339844 31.125 C 45.339844 31.453125 45.105469 33.546875 45.003906 33.621094 L 39.371094 27.738281 C 38.429688 26.738281 37.960938 25.257812 37.28125 24.191406 C 36.71875 23.304688 36.09375 23.046875 35.03125 23.398438 C 34.484375 23.578125 33.378906 25.289062 33.289062 25.847656 C 32.914062 28.140625 33.414062 30.667969 33.929688 32.859375 C 34.269531 34.285156 34.597656 35.6875 35.261719 37.007812 C 35.390625 37.269531 35.957031 37.972656 35.972656 38.078125 C 36.027344 38.441406 35.175781 38.648438 34.871094 38.867188 C 34.265625 39.304688 31.726562 41.480469 31.324219 41.605469 C 30.59375 41.832031 28.8125 41.71875 27.871094 41.855469 C 25.203125 42.230469 23.664062 43.855469 21.480469 45.289062 C 20.351562 46.03125 19.074219 46.628906 17.988281 47.425781 C 16.511719 48.511719 14.714844 50.644531 13.195312 51.503906 C 12.726562 51.773438 11.164062 51.898438 11.339844 52.546875 C 11.460938 52.96875 12.105469 52.582031 12.144531 52.628906 C 12.171875 52.667969 12.113281 53.230469 12.183594 53.476562 C 12.402344 54.253906 13.242188 54.558594 13.921875 54.800781 C 16.585938 55.746094 18.535156 55.929688 21.238281 56.347656 C 21.808594 56.433594 22.367188 56.996094 23.027344 56.988281 C 24.128906 56.972656 26.992188 55.832031 28.378906 55.570312 C 30.253906 55.222656 32.195312 55.183594 34.066406 54.816406 C 34.527344 54.722656 36.402344 54.277344 36.6875 54.09375 C 36.921875 53.945312 36.957031 53.40625 37.171875 53.164062 C 37.730469 52.535156 39.082031 52.871094 39.859375 52.792969 C 39.574219 53.386719 37.914062 53.609375 37.667969 54.078125 C 37.503906 54.390625 37.945312 54.523438 37.855469 54.722656 C 37.773438 54.910156 36.300781 56.347656 35.992188 56.742188 C 34.082031 59.1875 31.582031 65.308594 31.042969 68.382812 C 30.949219 68.894531 31.007812 70.074219 30.921875 70.34375 C 30.761719 70.820312 29.3125 72.597656 28.898438 73.125 C 27.394531 75.035156 25.511719 76.441406 24.265625 78.515625 C 23.339844 80.054688 22.417969 83.039062 23.585938 84.609375 C 24.226562 85.464844 24.429688 84.707031 25.035156 84.445312 C 27.097656 83.542969 29.394531 83.125 31.429688 82.140625 C 35.90625 79.96875 40.667969 76.164062 43.242188 71.882812 C 43.898438 70.792969 44.414062 69.578125 44.929688 68.417969 C 45.5 68.652344 44.753906 71.578125 44.691406 72.207031 C 44.546875 73.636719 44.527344 75.089844 44.34375 76.53125 C 44.125 78.3125 43.40625 80.371094 43.578125 82.171875 C 43.644531 82.863281 44.097656 83.523438 44.054688 84.125 C 43.90625 86.125 42.699219 89.242188 42.308594 91.417969 C 41.613281 95.292969 41.160156 101.054688 41.984375 104.871094 C 42.242188 106.074219 43.019531 107.132812 44.296875 107.394531 C 44.703125 107.476562 45.332031 107.199219 45.460938 106.816406 C 45.996094 105.199219 44.601562 105.40625 44.265625 104.992188 C 44.136719 104.832031 44.5625 104.378906 44.503906 104.117188 C 44.441406 103.871094 43.515625 103.648438 43.386719 102.339844 C 43.09375 99.359375 44.378906 94.878906 44.84375 91.859375 C 44.878906 91.621094 44.855469 91.359375 45.164062 91.296875 C 45.355469 93.875 45.90625 96.464844 46.417969 98.988281 C 46.953125 101.605469 47.757812 105.832031 49.597656 107.886719 C 50.328125 108.703125 50.878906 108.660156 51.511719 107.875 C 52.726562 106.367188 51.640625 105.886719 51.167969 104.546875 C 50.84375 103.632812 50.453125 102.425781 50.203125 101.476562 C 49.695312 99.589844 49.265625 97.1875 49.351562 95.242188 C 49.359375 95.042969 49.554688 94.574219 49.511719 94.523438 C 49.464844 94.464844 48.921875 94.496094 48.871094 94.238281 C 48.6875 92.839844 48.4375 91.445312 48.265625 90.046875 C 48.078125 88.511719 47.78125 86.660156 47.902344 85.097656 C 47.964844 84.285156 48.371094 83.464844 48.21875 82.601562 L 47.25 82.679688 C 47.515625 81.765625 48.015625 80.851562 48.183594 79.902344 C 48.933594 75.578125 49.695312 71.394531 50.148438 67.054688 C 50.21875 66.378906 50.546875 63.332031 50.386719 62.953125 C 50.308594 62.769531 50.011719 62.617188 49.902344 62.3125 C 49.753906 61.890625 49.53125 60.132812 50.128906 60.957031 C 50.710938 61.765625 53.632812 67.410156 53.816406 68.226562 C 54.261719 70.199219 53.644531 73.675781 53.878906 75.898438 C 54.085938 77.855469 55.207031 79.925781 55.664062 81.84375 C 57.011719 83.082031 58.597656 81.707031 59.664062 80.75 C 65.125 75.839844 66.578125 69.910156 65.097656 62.742188 C 64.691406 60.785156 63.878906 60.246094 63.375 58.660156 C 63.3125 58.464844 63.429688 58.171875 63.332031 57.984375 C 63.25 57.832031 62.355469 57.597656 62.066406 57.398438 C 61.089844 56.730469 59.632812 54.253906 59.066406 53.917969 C 58.746094 53.722656 58.269531 53.820312 57.898438 53.679688 C 57.402344 53.496094 56.734375 52.695312 56.289062 52.550781 C 55.148438 52.183594 54.554688 52.582031 53.464844 51.507812 C 52.441406 50.507812 55.128906 51.015625 55.554688 51.027344 C 60.128906 51.148438 62.988281 51.339844 67.230469 49.496094 C 71.121094 47.804688 73.011719 45.46875 75.9375 42.582031 C 76.191406 42.332031 76.394531 41.835938 76.644531 41.675781 C 76.945312 41.480469 77.535156 41.574219 77.542969 41.445312 C 77.558594 41.261719 77.316406 39.878906 77.230469 39.824219 C 76.976562 39.648438 76.652344 39.882812 76.394531 39.835938 Z M 44.125 105.789062 C 44.75 105.621094 44.851562 106.496094 44.441406 106.589844 C 44.097656 106.667969 43.617188 105.925781 44.125 105.789062 Z M 49.996094 105.628906 C 49.886719 105.980469 50.941406 106.929688 50.242188 107.078125 C 49.714844 107.1875 49.265625 105.761719 49.996094 105.628906 Z M 64.335938 40.449219 C 64.566406 40.289062 64.472656 39.863281 65.144531 40.058594 C 65.195312 40.601562 64.199219 40.703125 63.855469 40.699219 C 63.816406 40.429688 64.144531 40.574219 64.335938 40.449219 Z M 63.050781 42.152344 C 63.316406 42.4375 61.71875 43.6875 61.761719 42.636719 Z M 65.953125 40.972656 C 66.199219 40.832031 66.316406 40.828125 66.59375 40.863281 L 64.984375 42.394531 C 64.984375 42.539062 65.824219 42.941406 65.558594 43.285156 C 63.417969 44.769531 61.570312 46.777344 58.699219 46.339844 L 61.375 43.777344 C 63.28125 43.671875 64.503906 41.796875 65.953125 40.972656 Z M 51.289062 45.695312 C 51.296875 46.226562 50.785156 46.40625 50.328125 46.339844 C 50.183594 45.917969 51.148438 45.566406 51.289062 45.695312 Z M 46.304688 23.6875 C 46.371094 23.90625 46.773438 23.894531 46.785156 24.039062 C 46.816406 24.347656 46.152344 25.675781 46.128906 25.976562 C 46.097656 26.3125 46.402344 26.492188 46.453125 26.777344 C 46.527344 27.203125 46.1875 28.300781 45.8125 28.617188 C 45.875 25.742188 45.542969 22.875 45.640625 19.992188 C 45.671875 19.144531 45.859375 18.117188 45.910156 17.234375 C 45.929688 16.898438 45.53125 16.257812 46.132812 16.375 C 46.21875 17.753906 46.253906 19.09375 46.460938 20.476562 C 46.5 20.730469 46.761719 20.910156 46.769531 21.128906 C 46.777344 21.375 46.5 21.644531 46.460938 21.945312 C 46.429688 22.183594 46.28125 23.609375 46.304688 23.691406 Z M 46.136719 30.601562 C 46.167969 30.742188 46.589844 30.613281 46.453125 31.261719 L 45.816406 32.484375 C 46.027344 31.617188 45.628906 29.761719 45.835938 29.042969 C 45.929688 28.707031 46.410156 28.882812 46.457031 28.941406 C 46.648438 29.195312 45.992188 30 46.140625 30.605469 Z M 46.132812 33.128906 L 46.132812 34.421875 C 46 34.402344 45.695312 34.453125 45.652344 34.421875 C 45.53125 34.324219 45.457031 32.703125 46.132812 33.132812 Z M 46.449219 14.449219 C 46.613281 14.617188 46.164062 16.011719 45.652344 15.894531 C 45.824219 15.257812 44.976562 13.9375 45.972656 13.804688 C 45.769531 14.738281 46.351562 14.355469 46.449219 14.453125 Z M 45.328125 12.507812 C 45.347656 11.652344 44.839844 10.074219 44.863281 9.355469 C 44.867188 9.203125 45.226562 8.15625 45.484375 8.480469 C 45.667969 8.707031 45.160156 9.148438 45.164062 9.367188 C 45.164062 9.585938 45.460938 9.765625 45.484375 10.015625 C 45.542969 10.59375 45.53125 10.796875 45.636719 11.46875 C 45.667969 11.652344 45.746094 12.910156 45.324219 12.507812 Z M 38.183594 27.148438 L 38.402344 27.816406 C 38.125 27.335938 36.875 26.628906 36.71875 26.359375 C 36.421875 25.847656 36.144531 24.40625 36.148438 23.789062 Z M 35.023438 24.914062 C 35.230469 24.867188 35.28125 25.214844 35.300781 25.355469 C 35.375 25.855469 35.300781 27.144531 35.578125 27.496094 C 35.78125 27.75 36.246094 27.597656 36.300781 27.65625 C 36.375 27.726562 36.207031 28.589844 36.382812 28.9375 C 36.582031 29.335938 37.203125 29.191406 37.359375 29.414062 C 37.398438 29.464844 37.695312 30.449219 37.742188 30.640625 C 37.804688 30.867188 37.703125 31.175781 37.777344 31.410156 C 37.859375 31.667969 38.28125 31.675781 38.367188 31.945312 C 38.515625 32.402344 38.160156 33.085938 39.039062 32.964844 L 39.039062 31.835938 C 39.289062 31.5625 39.875 32.683594 39.9375 32.953125 C 40.109375 33.699219 39.648438 35.015625 40.648438 34.894531 L 40.808594 33.933594 C 41.070312 34.65625 40.953125 35.429688 40.972656 36.183594 C 41.253906 36.476562 42.472656 34.929688 42.523438 36.9375 C 42.539062 37.527344 42.023438 38.527344 43.066406 38.445312 L 43.226562 38.035156 C 43.628906 38.496094 43.800781 38.941406 43.707031 39.566406 C 44.199219 39.71875 44.121094 38.710938 44.519531 39.320312 C 44.859375 39.839844 44.4375 40.433594 44.917969 40.855469 L 45.320312 40.214844 C 46.117188 40.691406 45.421875 41.863281 45.367188 42.40625 C 45.339844 42.644531 45.730469 44.074219 45.238281 44.074219 C 44.507812 44.074219 45.136719 43.03125 45.160156 42.539062 C 45.203125 41.726562 44.796875 41.464844 44.191406 41.015625 L 44.027344 42.785156 C 43.074219 42.699219 43.960938 41.230469 43.707031 40.53125 L 43.066406 40.53125 C 42.992188 40.824219 43.308594 40.996094 43.324219 41.25 C 43.355469 41.777344 42.976562 42.285156 42.507812 41.652344 C 42.054688 41.023438 42.5 40.714844 42.308594 40.253906 C 42.121094 39.816406 41.683594 39.78125 41.628906 39.703125 C 41.566406 39.613281 41.828125 39.289062 41.699219 38.929688 C 41.5625 38.546875 40.167969 37.3125 39.769531 36.8125 C 38.570312 35.320312 37.496094 33.605469 36.628906 31.902344 C 36.164062 30.992188 36.347656 31.230469 36.113281 30.5 C 36.039062 30.273438 35.496094 28.957031 35.414062 28.929688 C 34.480469 28.65625 35.183594 29.597656 35.289062 29.859375 C 36.257812 32.300781 36.941406 33.984375 38.488281 36.167969 C 39.386719 37.433594 41.636719 38.882812 40.410156 40.527344 C 40.164062 40.03125 40.582031 39.332031 40.085938 38.917969 C 39.695312 38.839844 39.859375 39.230469 39.847656 39.476562 C 39.820312 40.035156 40.03125 40.917969 39.15625 40.660156 C 38.230469 40.386719 39.226562 39.945312 39.011719 39.511719 C 35.796875 35.5 32.585938 30.105469 35.019531 24.898438 Z M 46.777344 52.300781 C 46.492188 52.222656 46.5 51.757812 46.148438 51.726562 C 45.929688 51.707031 45.144531 52.378906 45.214844 51.570312 C 45.257812 51.039062 46.609375 51.113281 46.757812 51.355469 C 46.867188 51.535156 46.738281 52.046875 46.777344 52.300781 Z M 44.585938 49.964844 C 44.554688 49.4375 45.28125 49.28125 45.46875 49.585938 C 45.972656 50.398438 44.644531 51.003906 44.585938 49.964844 Z M 33.890625 43.921875 C 33.132812 44.226562 32.648438 45.003906 31.960938 45.457031 C 31.636719 46.222656 33.246094 45.058594 33.324219 45.054688 C 33.402344 45.054688 33.699219 45.390625 33.492188 45.539062 C 33.078125 45.546875 32.511719 46.285156 32.332031 46.320312 C 32.058594 46.371094 31.816406 45.921875 31.472656 46.089844 C 31.148438 46.25 29.988281 47.523438 29.539062 47.871094 C 29.378906 47.992188 29.332031 48.183594 29.054688 48.109375 L 29.054688 46.980469 C 29.96875 47.449219 30.382812 45.90625 30.917969 45.222656 C 31.214844 44.84375 32.984375 42.832031 33.242188 42.714844 C 33.507812 42.601562 33.769531 42.621094 34.046875 42.632812 C 33.980469 42.988281 33.347656 43.136719 33.242188 43.359375 C 33.070312 43.726562 33.898438 43.542969 33.886719 43.917969 Z M 31.152344 47.46875 C 31.132812 48.007812 31.4375 49.195312 32.046875 49.25 C 32.226562 49.265625 34.488281 47.867188 34.773438 47.632812 C 36.183594 46.492188 36.191406 44.199219 37.429688 42.960938 C 37.304688 44.898438 36.285156 48.429688 34.613281 49.566406 C 34.082031 49.929688 32.65625 50.375 32.023438 50.378906 C 31.5625 50.378906 31.386719 50.167969 31.074219 50.121094 C 30.714844 50.074219 30.164062 50.382812 29.75 49.832031 C 28.863281 48.664062 30.035156 47.707031 31.148438 47.46875 Z M 37.835938 42.957031 C 37.636719 42.628906 36.820312 42.585938 37.113281 41.667969 C 37.160156 41.617188 38.339844 41.960938 38.382812 42.007812 C 38.765625 42.441406 38.203125 46.707031 37.113281 47.144531 C 37.210938 46.285156 38.242188 43.613281 37.835938 42.957031 Z M 35.507812 39.171875 C 35.660156 39.066406 35.78125 39.050781 35.953125 39.132812 C 35.976562 39.144531 36.125 39.457031 36.316406 39.492188 C 36.296875 39.96875 35.550781 40.105469 35.222656 40.339844 C 34.46875 40.886719 33.128906 42.4375 32.285156 41.75 Z M 31.394531 42.636719 C 31.777344 42.3125 32.011719 42.558594 32.441406 42.636719 C 31.871094 43.46875 31.042969 44.09375 30.441406 44.90625 C 30.289062 45.113281 29.40625 47 29.058594 46.664062 C 29.289062 46.226562 29.320312 45.738281 29.535156 45.292969 C 29.726562 44.890625 31.113281 42.882812 31.394531 42.640625 Z M 35.097656 53.421875 C 34.878906 53.414062 34.691406 53.160156 34.445312 53.113281 C 33.15625 52.890625 32.132812 53.859375 31.046875 53.914062 C 30.75 53.929688 30.855469 53.609375 30.730469 53.582031 C 30.113281 53.460938 29.742188 54.25 29.226562 54.324219 C 29 54.359375 28.835938 54.039062 28.503906 54.066406 C 28.167969 54.089844 27.761719 54.679688 27.289062 54.558594 L 27.53125 55.042969 C 27.390625 55.214844 26.257812 55.445312 26.164062 55.355469 C 26.125 55.316406 25.941406 54.304688 25.511719 54.71875 C 25.160156 55.0625 26.152344 55.277344 25.75 55.527344 C 24.308594 55.46875 22.839844 55.601562 21.398438 55.53125 C 18.710938 55.402344 16.863281 54.851562 14.394531 53.996094 C 12.421875 53.3125 12.40625 53.105469 14 51.820312 C 16.664062 49.671875 20.492188 47 23.363281 45.078125 C 25.847656 43.421875 26.398438 43.226562 29.300781 42.972656 C 29.753906 42.929688 30.121094 42.464844 30.667969 42.632812 C 28.390625 44.828125 27.839844 47.585938 29.058594 50.527344 C 28.898438 50.75 25.703125 50.957031 25.152344 51.050781 C 24.003906 51.246094 19.804688 52.390625 19.003906 52.117188 C 18.78125 52.042969 18.453125 50.878906 18.105469 52.460938 C 19.160156 52.386719 20.351562 52.570312 21.390625 52.449219 C 22.355469 52.332031 23.621094 51.835938 24.644531 51.675781 C 25.464844 51.542969 29.050781 51.03125 29.539062 51.257812 C 30.101562 51.515625 30.773438 52.792969 31.792969 52.464844 C 32.023438 52.238281 31.320312 51.234375 31.878906 51.335938 C 33.277344 51.589844 34.792969 52.65625 36.304688 52.46875 C 36.21875 52.90625 35.507812 53.445312 35.097656 53.425781 Z M 38.964844 51.015625 C 38.8125 51.015625 37.632812 51.550781 37.148438 51.617188 C 35.84375 51.789062 34.96875 51.492188 33.726562 51.257812 L 33.570312 51.015625 C 34.8125 50.609375 36.03125 49.753906 36.863281 48.746094 C 38.429688 46.847656 38.546875 45.910156 39.203125 43.675781 C 39.273438 43.441406 39.109375 43.394531 39.53125 43.441406 C 39.179688 43.960938 40.148438 44.742188 40.417969 44.726562 C 40.578125 44.71875 40.628906 44.199219 40.738281 44.242188 C 41.257812 45.457031 41.34375 44.820312 41.945312 44.082031 C 41.761719 44.429688 42.316406 46.171875 42.507812 46.175781 C 42.554688 46.175781 42.828125 45.761719 43.074219 45.859375 C 43.273438 46.375 42.921875 47.039062 43.09375 47.527344 C 43.226562 47.898438 43.820312 47.714844 43.972656 47.941406 C 44.089844 48.113281 44.011719 48.527344 44.082031 48.792969 C 44.132812 48.972656 44.34375 49.125 44.367188 49.332031 C 44.390625 49.585938 43.800781 50.683594 43.636719 50.6875 C 43.175781 50.160156 43.714844 49.714844 42.75 49.882812 C 42.628906 49.777344 43.253906 48.769531 42.507812 49.082031 C 42.066406 49.269531 42.546875 50.941406 40.664062 51.261719 C 39.589844 51.445312 39.378906 51.019531 38.964844 51.015625 Z M 43.410156 59.492188 C 43.300781 59.84375 43.867188 59.765625 43.871094 59.953125 C 43.871094 60.003906 43.328125 60.417969 43.253906 60.796875 C 43.175781 61.21875 43.394531 61.476562 43.378906 61.734375 C 43.363281 61.980469 43.0625 62.136719 43.09375 62.339844 C 43.117188 62.480469 43.386719 62.605469 43.363281 62.820312 C 43.332031 63.097656 42.785156 63.59375 42.738281 64.136719 C 42.710938 64.507812 42.949219 64.957031 42.738281 65.351562 C 43.957031 65.257812 42.65625 66.339844 42.617188 66.578125 C 42.582031 66.78125 42.789062 67.035156 42.71875 67.328125 C 42.648438 67.617188 41.90625 68.027344 42.171875 68.417969 C 42.261719 68.550781 42.625 68.527344 42.578125 68.652344 C 42.410156 69.113281 41.542969 69.878906 41.609375 70.261719 C 41.621094 70.34375 41.886719 70.34375 41.902344 70.371094 C 42.023438 70.617188 40.574219 72.832031 40.003906 72.921875 C 39.695312 72.597656 42.800781 69.695312 40.324219 70.429688 C 38.878906 72.535156 37.304688 74.59375 35.492188 76.390625 L 37.160156 76.136719 C 37.730469 75.707031 39.105469 73.464844 39.597656 73.246094 C 39.886719 73.121094 39.878906 73.414062 39.804688 73.613281 C 39.695312 73.917969 39.019531 74.84375 38.78125 75.167969 C 36.792969 77.828125 32.507812 80.625 29.480469 81.976562 C 28.132812 82.574219 27.097656 82.667969 25.785156 83.445312 C 24.824219 84.011719 24.625 83.261719 24.292969 83.292969 C 24.132812 83.304688 23.851562 83.855469 23.730469 83.15625 C 23.089844 79.433594 26.917969 76.46875 28.953125 73.878906 C 29.671875 72.96875 31.640625 70.4375 31.984375 69.496094 C 32.34375 68.519531 31.738281 68.921875 31.789062 68.359375 C 32.007812 66.09375 33.746094 62.714844 34.652344 60.566406 C 35.253906 59.136719 35.574219 57.691406 37.015625 56.648438 C 37.320312 56.425781 37.808594 56.503906 38.066406 56.25 C 38.261719 56.066406 38.242188 55.730469 38.554688 55.449219 C 38.863281 55.175781 41.738281 53.527344 41.933594 53.753906 L 41.933594 55.203125 C 41.933594 55.203125 42.824219 54.71875 42.824219 54.71875 C 42.929688 54.6875 42.941406 54.871094 42.902344 54.957031 C 42.78125 55.222656 42.253906 55.75 42.035156 56.191406 C 41.804688 56.667969 40.882812 58.773438 40.8125 59.15625 C 40.773438 59.386719 40.71875 59.621094 41.046875 59.554688 C 41.476562 59.316406 42.425781 56.242188 42.757812 56.019531 C 42.800781 55.988281 43.253906 56.296875 43.519531 56.144531 L 45.46875 53.828125 C 45.578125 53.652344 46.007812 53.5 46.125 53.597656 C 46.3125 53.753906 43.519531 57.261719 43.386719 57.703125 C 43.347656 57.976562 43.375 57.960938 43.628906 57.949219 C 44.515625 57.90625 44.953125 56.148438 45.71875 55.6875 C 45.867188 55.695312 45.816406 55.96875 45.789062 56.078125 C 45.503906 57.375 43.78125 58.273438 43.398438 59.492188 Z M 45.484375 71.875 C 45.605469 70.65625 45.585938 69.425781 45.816406 68.171875 C 45.863281 67.894531 45.984375 67.71875 46.296875 67.769531 C 46.15625 68.535156 46.0625 69.328125 46.128906 70.113281 C 46.15625 70.457031 46.425781 70.65625 46.429688 70.886719 C 46.433594 71.21875 46.058594 71.273438 45.992188 71.4375 C 45.769531 71.972656 45.894531 72.628906 45.8125 73.152344 C 45.769531 73.40625 45.527344 73.585938 45.492188 73.820312 C 45.402344 74.421875 46.304688 74.980469 45.175781 75.660156 C 44.96875 74.335938 45.375 73.113281 45.492188 71.875 Z M 44.324219 80.695312 C 44.433594 80.039062 44.449219 79.363281 44.601562 78.714844 L 45.085938 77.59375 C 45.378906 77.792969 45.332031 77.96875 45.296875 78.273438 C 45.164062 79.472656 44.4375 80.859375 44.363281 82.105469 C 43.640625 81.761719 44.253906 81.109375 44.324219 80.699219 Z M 49.039062 103.320312 C 49.207031 103.957031 48.625 104.5625 48.351562 103.96875 C 48.082031 103.390625 47.617188 102.445312 48.546875 102.402344 C 48.308594 103.015625 49 103.175781 49.039062 103.320312 Z M 47.746094 93.058594 C 47.472656 94.011719 47.726562 94.886719 47.265625 95.796875 L 47.90625 95.636719 L 47.90625 96.925781 C 47.90625 96.925781 48.550781 96.765625 48.550781 96.765625 C 48.511719 97.308594 48.621094 97.914062 48.542969 98.445312 C 48.460938 99.003906 48.03125 99.445312 47.910156 99.984375 C 48.1875 100.230469 48.914062 99.550781 48.878906 100.066406 C 48.832031 100.730469 48.355469 102.902344 47.621094 101.644531 L 45.980469 92.574219 C 46.289062 92.734375 46.472656 92.734375 46.78125 92.574219 C 47.027344 93.105469 46.390625 93.914062 46.460938 94.261719 C 46.523438 94.574219 46.984375 94.429688 47.109375 94.269531 C 47.4375 93.84375 47.011719 93.050781 47.75 93.058594 Z M 46.777344 89.835938 C 46.820312 90.332031 46.667969 91.84375 46.421875 92.210938 C 46.40625 92.234375 45.992188 92.429688 45.976562 92.414062 C 46.273438 91.480469 45.851562 90.476562 46.777344 89.835938 Z M 46.167969 88.511719 C 46.242188 87.851562 46.550781 86.863281 47.097656 86.453125 L 46.453125 89.351562 C 46.039062 89.214844 46.132812 88.835938 46.167969 88.511719 Z M 47.578125 74.765625 C 47.273438 76.496094 46.695312 78.769531 46.101562 80.382812 C 45.816406 81.167969 45.992188 82.152344 45.753906 82.53125 C 45.464844 82.988281 45.007812 84.0625 44.898438 84.625 C 44.757812 85.351562 45.105469 86.546875 44.363281 87.183594 L 45.003906 87.421875 C 45.152344 87.574219 44.476562 89.269531 44.394531 89.632812 C 44.304688 90.03125 44.417969 90.457031 44.320312 90.84375 C 43.875 92.566406 43.34375 93.058594 43.34375 94.875 C 43.34375 95.710938 42.828125 98.734375 42.582031 99.589844 C 42.515625 99.84375 42.757812 100.066406 42.261719 99.984375 C 42.316406 98.839844 42.1875 97.664062 42.261719 96.523438 C 42.570312 91.921875 43.824219 86.980469 44.851562 82.519531 C 45.601562 79.257812 46.59375 76.019531 47.257812 72.757812 C 47.449219 72.714844 47.671875 72.824219 47.710938 73.011719 C 47.730469 73.101562 47.601562 74.578125 47.570312 74.757812 Z M 45.582031 36.019531 C 45.445312 35.660156 45.332031 35.277344 45.8125 35.386719 C 46.46875 36.847656 47.726562 38.0625 47.90625 39.730469 Z M 47.90625 27.007812 C 47.847656 25.433594 47.933594 23.859375 48.003906 22.28125 C 48.101562 20.105469 48.191406 17.519531 48.398438 15.34375 C 48.457031 14.722656 48.84375 13.800781 48.855469 13.085938 C 48.894531 12.925781 49.335938 12.976562 49.355469 12.992188 C 49.457031 13.09375 49.214844 13.703125 49.210938 13.894531 C 49.183594 14.976562 48.929688 15.773438 48.882812 16.625 C 48.847656 17.238281 49.324219 17.703125 49.324219 18.179688 C 49.324219 19.113281 48.8125 19.894531 48.585938 20.679688 C 48.433594 21.203125 48.472656 21.835938 48.226562 22.335938 C 48.75 22.132812 48.867188 22.808594 48.84375 23.230469 C 48.816406 23.800781 48.355469 24.492188 48.371094 25.160156 C 48.386719 25.816406 49.160156 26.671875 47.90625 27.007812 Z M 48.390625 67.925781 C 48.1875 67.359375 48.300781 66.546875 48.4375 65.953125 C 48.507812 65.65625 48.496094 65.417969 48.875 65.511719 L 49.003906 66.195312 L 48.394531 67.925781 Z M 48.390625 59.875 C 48.882812 60.097656 48.902344 60.707031 48.875 61.164062 C 48.308594 61.25 48.4375 60.191406 48.390625 59.875 Z M 62.082031 75.980469 C 62.089844 75.703125 62.578125 74.105469 63.046875 74.53125 C 63.136719 74.613281 62.371094 75.945312 62.082031 75.980469 Z M 60.632812 63.898438 C 60.726562 63.808594 61.164062 63.882812 61.25 64.167969 C 61.347656 64.472656 61.199219 65.246094 61.292969 65.339844 C 61.386719 65.433594 61.988281 65.097656 61.738281 65.886719 C 61.679688 66.070312 61.414062 66.253906 61.28125 66.152344 C 61.1875 66.082031 60.550781 63.980469 60.632812 63.894531 Z M 59.828125 58.421875 C 59.769531 59.4375 60.648438 60.273438 60.46875 61.324219 C 60.207031 61.257812 60.105469 60.949219 60.019531 60.726562 C 59.867188 60.308594 59.589844 59.261719 59.507812 58.820312 C 59.445312 58.492188 59.441406 58.359375 59.824219 58.425781 Z M 59.507812 61.324219 C 59.542969 61.359375 59.65625 62.195312 59.671875 62.367188 C 58.734375 62.914062 59.070312 60.882812 59.507812 61.324219 Z M 57.992188 59.726562 C 58.949219 59.414062 58.683594 60.738281 58.699219 61.324219 C 58.453125 61.597656 57.191406 59.988281 57.992188 59.726562 Z M 53.46875 54.875 C 53.582031 55.097656 53.894531 57.589844 54.511719 56.976562 L 54.835938 54.878906 C 54.910156 55.277344 55.28125 57.289062 55.398438 57.460938 C 55.765625 58.007812 56.03125 57.320312 56.289062 57.136719 C 56.078125 57.851562 57.214844 58.28125 57.257812 58.378906 C 57.375 58.644531 57.535156 59.566406 57.175781 59.714844 C 57.089844 59.75 56.429688 58.519531 55.890625 58.421875 C 55.667969 58.378906 55.582031 58.429688 55.648438 58.664062 C 55.808594 59.214844 56.960938 60.066406 57.351562 60.582031 C 58.035156 61.480469 58.1875 62.113281 59.007812 62.882812 C 60.84375 64.59375 59.453125 66.011719 59.1875 68.089844 L 59.871094 67.5625 L 60.476562 65.675781 C 60.78125 66.304688 60.65625 67.234375 60.800781 67.8125 C 60.84375 68 61.210938 67.980469 61.273438 68.1875 C 61.433594 68.710938 60.054688 71.28125 60.15625 71.710938 C 60.296875 72.292969 60.730469 71.507812 60.804688 71.390625 C 61.140625 70.871094 62.324219 68.554688 62.539062 67.972656 C 62.769531 67.34375 62.882812 66.5 63.0625 65.832031 C 63.609375 66.074219 63.125 67.523438 62.988281 68.089844 C 62.761719 69.023438 61.972656 70.71875 61.925781 71.539062 C 61.917969 71.679688 61.882812 72.113281 62.171875 71.949219 C 62.5 71.765625 62.472656 70.695312 63.382812 70.984375 C 63.472656 71.675781 62.921875 72.179688 62.675781 72.769531 C 61.929688 74.554688 61.585938 76.1875 60.246094 77.75 C 59.898438 78.164062 58.417969 79.566406 57.988281 79.683594 C 57.609375 79.78125 57.761719 78.925781 57.472656 78.75 L 57.425781 77.988281 C 56.316406 77.824219 57.269531 79.789062 57.25 79.898438 C 57.195312 80.257812 56.125 80.804688 55.992188 79.746094 C 55.773438 78.003906 55.667969 76.34375 55.65625 74.609375 C 55.636719 71.050781 55.488281 69.488281 54.28125 66.148438 C 54.042969 65.492188 52.894531 62.523438 52.511719 62.261719 C 52.28125 62.105469 52.058594 62.242188 51.941406 62.183594 C 51.199219 61.816406 51.980469 60.976562 51.910156 60.609375 C 51.839844 60.242188 51.175781 60.082031 51.132812 59.910156 C 51.042969 59.511719 51.34375 58.722656 50.8125 58.488281 C 50.609375 58.394531 50.382812 58.582031 50.175781 58.496094 C 49.46875 58.199219 48.203125 56.050781 48.425781 55.304688 C 48.535156 54.933594 49.183594 54.625 49.328125 53.78125 C 49.480469 52.886719 48.921875 50.902344 50.011719 51.003906 C 49.742188 51.625 50.292969 52.339844 50.320312 52.6875 C 50.347656 53.09375 49.898438 53.730469 50.015625 54.222656 C 50.402344 54.367188 50.769531 53.449219 50.820312 53.417969 C 50.929688 53.351562 51.203125 53.875 51.460938 53.742188 C 51.609375 53.570312 51.144531 52.441406 51.785156 52.613281 C 51.9375 53.164062 52.257812 55.339844 52.988281 55.199219 C 53.117188 55.105469 53.273438 54.464844 53.480469 54.863281 Z M 75.113281 41.394531 C 75.003906 41.75 72.253906 43.710938 71.746094 44.15625 C 69.320312 46.277344 69.429688 46.539062 66.273438 47.890625 C 66.171875 47.9375 64.648438 49.15625 65.113281 48.164062 C 65.378906 47.589844 66.320312 47.605469 66.03125 47.144531 C 65.046875 47.007812 65.253906 47.546875 64.871094 47.800781 C 64.628906 47.964844 62.132812 49.039062 61.757812 49.160156 C 60.472656 49.5625 57.511719 49.261719 55.910156 49.417969 C 54.492188 49.554688 53.113281 50.128906 51.613281 49.886719 L 52.257812 48.925781 C 51.621094 49.085938 50.816406 48.582031 50.960938 47.902344 C 50.980469 47.800781 52.574219 46.910156 52.578125 46.589844 C 52.578125 46.367188 52.019531 46.417969 51.9375 46.269531 C 52.339844 46.023438 52.863281 45.335938 53.308594 45.222656 C 53.734375 45.117188 53.464844 45.632812 53.546875 45.707031 C 53.855469 45.984375 55.621094 44.15625 55.960938 44.417969 C 55.675781 44.753906 55.664062 45.207031 55.410156 45.554688 C 55.003906 46.113281 53.898438 46.351562 53.867188 47.070312 C 53.824219 47.953125 54.972656 46.433594 55.078125 46.347656 C 55.851562 45.714844 56.84375 45.175781 57.65625 44.578125 C 57.886719 44.328125 57.402344 44.421875 57.25 44.339844 C 56.761719 44.074219 57.824219 43.839844 57.957031 43.75 C 58.910156 43.097656 59.871094 41.746094 61.121094 42.398438 C 60.863281 42.847656 59.09375 43.683594 59.1875 44.167969 C 59.304688 44.765625 60.425781 43.679688 60.554688 43.605469 C 60.707031 43.515625 60.996094 43.296875 61.125 43.527344 L 58.027344 46.074219 C 57.570312 46.417969 56.863281 45.964844 56.535156 46.027344 C 56 46.125 56.65625 46.714844 57.050781 46.800781 C 58.96875 47.230469 61.871094 46.753906 63.742188 46.148438 C 64.214844 45.996094 64.917969 45.476562 65.394531 45.382812 C 65.707031 45.324219 65.722656 45.617188 65.636719 45.707031 C 65.554688 45.789062 64.710938 45.898438 64.667969 46.351562 C 65.867188 46.441406 66.804688 45.175781 67.742188 44.515625 C 68.8125 43.761719 68.609375 44.046875 69.5625 43.035156 C 69.773438 42.808594 71.207031 41.605469 70.949219 41.363281 C 70.625 41.292969 70.519531 41.433594 70.300781 41.597656 C 69.347656 42.296875 68.269531 43.617188 67.230469 44.164062 C 66.640625 44.472656 65.644531 44.730469 64.988281 44.984375 C 64.65625 45.117188 63.820312 45.867188 63.867188 45.070312 C 64.679688 44.527344 65.734375 43.871094 66.441406 43.21875 C 66.832031 42.855469 69.207031 39.617188 69.820312 40.238281 C 70.277344 40.699219 68.535156 41.039062 69.019531 41.527344 C 69.277344 41.785156 70.851562 40.519531 71.226562 40.4375 C 71.976562 40.265625 72.859375 40.570312 73.617188 40.28125 C 73.992188 40.351562 73.792969 41.148438 73.851562 41.207031 C 73.871094 41.230469 74.46875 41.226562 74.496094 41.207031 C 74.652344 41.066406 74.070312 40.464844 74.574219 40.5625 C 74.957031 40.761719 75.269531 40.917969 75.117188 41.414062 Z M 75.113281 41.394531 " fill-opacity="1" fill-rule="nonzero"/></g><path fill="#35504b" d="M 108.148438 35.160156 C 108.085938 34.34375 106.652344 34 106.011719 33.582031 C 105.308594 33.125 104.667969 32.546875 103.945312 32.105469 C 103.683594 31.945312 102.898438 31.710938 102.859375 31.664062 C 102.382812 31.09375 104.886719 28.851562 105.0625 28.171875 C 105.296875 27.28125 104.671875 26.519531 103.738281 26.683594 C 102.492188 27.378906 101.472656 30.703125 100.105469 31.132812 C 99.433594 31.34375 98.859375 30.425781 98.230469 30.085938 C 97.765625 29.835938 97.082031 29.59375 96.558594 29.585938 C 97.53125 27.519531 98.957031 25.71875 99.875 23.632812 C 100.109375 20.585938 96.746094 23.242188 95.476562 23.75 C 94.273438 24.230469 92.160156 24.066406 92.761719 25.890625 C 93.304688 27.535156 95.566406 25.472656 96.558594 25.636719 C 95.570312 26.910156 94.945312 28.46875 94.117188 29.804688 C 93.675781 30.515625 92.019531 32.21875 92.085938 33.023438 C 92.15625 33.835938 92.839844 33.949219 93.550781 33.742188 C 94.105469 33.578125 94.867188 32.089844 95.59375 32.003906 C 95.730469 32.152344 94.898438 34.128906 94.742188 34.453125 C 94.488281 34.988281 93.375 36.632812 93.371094 36.949219 C 93.355469 37.792969 95.257812 37.488281 95.515625 36.679688 C 95.640625 36.652344 95.621094 36.832031 95.597656 36.921875 C 95.546875 37.171875 94.089844 40.214844 93.949219 40.339844 C 93.453125 40.792969 92.679688 40.144531 92.683594 41.589844 C 92.6875 42.6875 93.050781 42.914062 94.140625 42.546875 C 94.570312 42.402344 95.316406 41.359375 95.589844 41.519531 C 95.605469 41.527344 95.585938 41.730469 95.71875 41.828125 C 97.621094 43.222656 98.703125 41.574219 99.46875 39.980469 C 99.871094 39.140625 100.488281 37.328125 100.597656 36.433594 C 100.710938 35.460938 100.511719 34.292969 100.597656 33.292969 C 101.058594 33.324219 101.601562 33.390625 102.03125 33.550781 C 103.253906 34.011719 105.9375 36.539062 106.8125 36.671875 C 107.832031 36.835938 108.238281 36.070312 108.164062 35.160156 Z M 97.164062 40.339844 C 96.769531 40.75 96.277344 40.4375 96.4375 39.695312 C 96.542969 39.214844 97.808594 36.484375 98.109375 36.046875 C 98.242188 35.855469 98.425781 35.625 98.652344 35.546875 C 98.472656 36.683594 97.9375 39.539062 97.164062 40.339844 Z M 97.164062 40.339844 " fill-opacity="1" fill-rule="nonzero"/><path fill="#35504b" d="M 102.117188 70.992188 C 101.050781 70.785156 99.132812 71.046875 97.925781 70.996094 C 97.425781 70.976562 97.097656 70.949219 96.59375 70.949219 C 95.988281 70.949219 95.863281 70.566406 96.339844 70.207031 C 97.367188 69.425781 100.753906 68.730469 101.398438 67.855469 C 101.914062 67.15625 101.644531 66.125 100.6875 66.167969 C 99.929688 66.199219 96.257812 68.421875 95.921875 68.09375 C 96.007812 67.457031 95.734375 66.128906 96.0625 65.621094 C 96.207031 65.398438 97.203125 65.222656 97.332031 65 C 97.429688 64.828125 97.410156 63.894531 97.296875 63.734375 C 97.011719 63.332031 95.660156 63.539062 95.203125 63.597656 C 94.976562 63.632812 94.808594 63.820312 94.582031 63.855469 C 93.800781 63.96875 91.765625 63.855469 91.4375 64.824219 C 90.949219 66.269531 93.761719 65.867188 93.957031 66.179688 C 94.09375 66.398438 94.023438 68.792969 93.742188 69.0625 C 93.644531 69.15625 91.46875 69.746094 91.125 69.828125 C 90.601562 69.949219 90.054688 70.054688 89.53125 70.167969 C 88.929688 70.300781 87.296875 70.335938 86.929688 70.707031 C 86.71875 70.917969 86.628906 72.003906 86.765625 72.246094 C 87.320312 73.226562 90.777344 71.773438 91.679688 71.671875 C 91.964844 71.636719 92.023438 71.632812 92.203125 71.882812 C 91.199219 73.070312 90.417969 74.816406 89.148438 75.75 C 88.398438 76.300781 87.527344 75.9375 87.246094 76.90625 C 86.863281 78.238281 87.851562 78.773438 88.972656 78.152344 C 90.621094 77.230469 91.589844 75.628906 92.804688 74.261719 C 92.898438 74.152344 92.796875 73.953125 93.171875 74.054688 C 93.351562 75.082031 92.515625 76.117188 92.9375 77.109375 C 92.992188 77.246094 93.242188 77.351562 93.300781 77.554688 C 93.542969 78.34375 92.261719 82.644531 92.078125 83.839844 C 92.03125 84.175781 91.847656 85.339844 91.878906 85.5625 C 91.949219 86.121094 93.292969 86.71875 93.75 86.78125 C 93.9375 86.8125 97.089844 86.109375 97.445312 85.984375 C 97.960938 85.804688 99.019531 85.1875 99.132812 84.605469 C 99.214844 84.171875 99.082031 83.640625 99.148438 83.171875 C 99.203125 82.78125 99.425781 82.457031 99.457031 82.03125 C 99.59375 80.246094 99.8125 75.144531 96.953125 75.496094 C 96.382812 75.566406 95.804688 76.28125 95.253906 75.433594 C 94.949219 74.964844 95.320312 73.179688 96.140625 73.082031 C 97.863281 72.882812 100.332031 73.386719 101.945312 73.085938 C 102.882812 72.914062 103.171875 71.203125 102.105469 71 Z M 94.304688 84.363281 C 94.121094 83.859375 94.285156 83.402344 94.707031 83.070312 L 97.367188 81.945312 C 97.300781 84.0625 96.066406 84.121094 94.3125 84.363281 Z M 97.042969 77.824219 C 97.460938 78.019531 97.484375 79.566406 97.289062 79.855469 C 97.1875 80.007812 95.058594 80.761719 94.949219 80.652344 C 95.078125 80.101562 96.402344 77.527344 97.042969 77.824219 Z M 97.042969 77.824219 " fill-opacity="1" fill-rule="nonzero"/><g transform="matrix(1, 0, 0, 1, 14, 119)"><g clip-path="url(#6c6e531491)"><g fill="#4c4c4a" fill-opacity="1"><g transform="translate(1.08555, 12.424109)"><g><path d="M 1.109375 -10.625 L 1.1875 -10.796875 C 1.53125 -10.734375 1.894531 -10.644531 2.28125 -10.53125 C 2.664062 -10.425781 2.988281 -10.238281 3.25 -9.96875 C 3.363281 -9.851562 3.460938 -9.710938 3.546875 -9.546875 C 3.628906 -9.390625 3.671875 -9.21875 3.671875 -9.03125 C 3.671875 -8.832031 3.617188 -8.664062 3.515625 -8.53125 C 3.421875 -8.40625 3.296875 -8.34375 3.140625 -8.34375 C 2.941406 -8.34375 2.796875 -8.410156 2.703125 -8.546875 C 2.617188 -8.691406 2.503906 -8.9375 2.359375 -9.28125 C 2.234375 -9.570312 2.066406 -9.816406 1.859375 -10.015625 C 1.660156 -10.210938 1.410156 -10.414062 1.109375 -10.625 Z M 4.03125 -9.953125 L 3.84375 -10.3125 L 10.96875 -10.3125 L 11.703125 -11.21875 L 12.984375 -10.1875 L 12.984375 -9.953125 L 9.203125 -9.953125 C 8.972656 -9.691406 8.785156 -9.484375 8.640625 -9.328125 C 8.492188 -9.179688 8.34375 -9.039062 8.1875 -8.90625 C 8.039062 -8.78125 7.832031 -8.613281 7.5625 -8.40625 C 7.882812 -8.195312 8.15625 -8 8.375 -7.8125 C 8.59375 -7.625 8.789062 -7.398438 8.96875 -7.140625 C 9.15625 -6.890625 9.34375 -6.554688 9.53125 -6.140625 C 9.75 -6.429688 9.945312 -6.695312 10.125 -6.9375 C 10.3125 -7.1875 10.484375 -7.445312 10.640625 -7.71875 C 10.804688 -8 10.988281 -8.320312 11.1875 -8.6875 L 12.3125 -7.921875 C 12.351562 -7.890625 12.390625 -7.851562 12.421875 -7.8125 C 12.453125 -7.769531 12.46875 -7.726562 12.46875 -7.6875 C 12.46875 -7.59375 12.421875 -7.535156 12.328125 -7.515625 C 12.242188 -7.503906 12.085938 -7.503906 11.859375 -7.515625 L 11.46875 -7.171875 C 11.144531 -6.878906 10.894531 -6.648438 10.71875 -6.484375 C 10.539062 -6.328125 10.378906 -6.191406 10.234375 -6.078125 C 10.085938 -5.972656 9.910156 -5.84375 9.703125 -5.6875 L 9.78125 -5.390625 C 10.363281 -5.191406 10.890625 -4.953125 11.359375 -4.671875 C 11.828125 -4.390625 12.195312 -4.082031 12.46875 -3.75 C 12.738281 -3.425781 12.875 -3.101562 12.875 -2.78125 C 12.875 -2.550781 12.816406 -2.378906 12.703125 -2.265625 C 12.585938 -2.148438 12.46875 -2.09375 12.34375 -2.09375 C 12.15625 -2.09375 12.003906 -2.164062 11.890625 -2.3125 C 11.785156 -2.457031 11.691406 -2.625 11.609375 -2.8125 C 11.421875 -3.25 11.242188 -3.597656 11.078125 -3.859375 C 10.910156 -4.117188 10.726562 -4.335938 10.53125 -4.515625 C 10.34375 -4.691406 10.117188 -4.875 9.859375 -5.0625 C 9.898438 -4.875 9.929688 -4.679688 9.953125 -4.484375 C 9.984375 -4.285156 10 -4.035156 10 -3.734375 C 10 -3.171875 9.957031 -2.710938 9.875 -2.359375 C 9.789062 -2.015625 9.679688 -1.742188 9.546875 -1.546875 C 9.421875 -1.359375 9.28125 -1.203125 9.125 -1.078125 C 8.988281 -0.984375 8.832031 -0.90625 8.65625 -0.84375 C 8.488281 -0.78125 8.335938 -0.738281 8.203125 -0.71875 C 8.066406 -0.707031 7.976562 -0.703125 7.9375 -0.703125 C 7.863281 -0.703125 7.816406 -0.71875 7.796875 -0.75 C 7.773438 -0.789062 7.765625 -0.875 7.765625 -1 C 7.753906 -1.132812 7.726562 -1.242188 7.6875 -1.328125 C 7.65625 -1.410156 7.5625 -1.484375 7.40625 -1.546875 C 7.257812 -1.617188 7.003906 -1.691406 6.640625 -1.765625 L 6.640625 -2 L 8.4375 -2 C 8.5 -2.125 8.582031 -2.347656 8.6875 -2.671875 C 8.800781 -3.003906 8.859375 -3.421875 8.859375 -3.921875 C 8.859375 -4.015625 8.851562 -4.113281 8.84375 -4.21875 C 8.84375 -4.320312 8.832031 -4.488281 8.8125 -4.71875 C 8.4375 -4.34375 8.039062 -3.988281 7.625 -3.65625 C 7.21875 -3.332031 6.753906 -3.015625 6.234375 -2.703125 C 5.710938 -2.398438 5.101562 -2.070312 4.40625 -1.71875 L 4.25 -1.984375 C 5.019531 -2.492188 5.753906 -3.066406 6.453125 -3.703125 C 7.148438 -4.347656 7.859375 -5.125 8.578125 -6.03125 C 8.523438 -6.207031 8.476562 -6.347656 8.4375 -6.453125 C 8.40625 -6.554688 8.34375 -6.695312 8.25 -6.875 C 7.78125 -6.34375 7.3125 -5.898438 6.84375 -5.546875 C 6.375 -5.203125 5.914062 -4.910156 5.46875 -4.671875 C 5.03125 -4.429688 4.625 -4.226562 4.25 -4.0625 L 4.0625 -4.296875 C 4.457031 -4.566406 4.804688 -4.816406 5.109375 -5.046875 C 5.421875 -5.285156 5.707031 -5.535156 5.96875 -5.796875 C 6.238281 -6.054688 6.507812 -6.34375 6.78125 -6.65625 C 7.050781 -6.96875 7.34375 -7.332031 7.65625 -7.75 C 7.582031 -7.832031 7.519531 -7.894531 7.46875 -7.9375 C 7.425781 -7.988281 7.359375 -8.066406 7.265625 -8.171875 C 6.828125 -7.867188 6.429688 -7.617188 6.078125 -7.421875 C 5.722656 -7.222656 5.382812 -7.054688 5.0625 -6.921875 C 4.738281 -6.796875 4.398438 -6.660156 4.046875 -6.515625 L 3.90625 -6.78125 C 4.300781 -7.007812 4.695312 -7.253906 5.09375 -7.515625 C 5.488281 -7.785156 5.898438 -8.113281 6.328125 -8.5 C 6.753906 -8.882812 7.195312 -9.367188 7.65625 -9.953125 Z M 0.90625 -5.53125 L 0.78125 -5.921875 L 2.328125 -5.921875 L 2.78125 -6.578125 L 3.890625 -5.8125 C 3.921875 -5.800781 3.953125 -5.773438 3.984375 -5.734375 C 4.023438 -5.703125 4.046875 -5.664062 4.046875 -5.625 C 4.046875 -5.550781 4.007812 -5.492188 3.9375 -5.453125 C 3.875 -5.421875 3.753906 -5.382812 3.578125 -5.34375 L 3.578125 -1.71875 C 3.679688 -1.570312 3.785156 -1.4375 3.890625 -1.3125 C 3.992188 -1.195312 4.164062 -1.078125 4.40625 -0.953125 C 4.75 -0.765625 5.125 -0.628906 5.53125 -0.546875 C 5.945312 -0.460938 6.378906 -0.421875 6.828125 -0.421875 L 13.1875 -0.421875 L 13.1875 -0.171875 C 12.957031 -0.0976562 12.796875 -0.0078125 12.703125 0.09375 C 12.617188 0.207031 12.550781 0.410156 12.5 0.703125 L 7.421875 0.703125 C 6.890625 0.703125 6.445312 0.660156 6.09375 0.578125 C 5.738281 0.492188 5.457031 0.398438 5.25 0.296875 C 5.039062 0.203125 4.878906 0.125 4.765625 0.0625 C 4.660156 -0.0195312 4.460938 -0.164062 4.171875 -0.375 C 3.878906 -0.59375 3.597656 -0.894531 3.328125 -1.28125 C 3.148438 -1.070312 3.003906 -0.910156 2.890625 -0.796875 C 2.785156 -0.679688 2.679688 -0.566406 2.578125 -0.453125 C 2.484375 -0.347656 2.347656 -0.203125 2.171875 -0.015625 L 1.6875 0.5 C 1.675781 0.664062 1.660156 0.785156 1.640625 0.859375 C 1.628906 0.929688 1.585938 0.96875 1.515625 0.96875 C 1.453125 0.96875 1.40625 0.945312 1.375 0.90625 L 0.59375 -0.34375 L 1.140625 -0.59375 C 1.335938 -0.675781 1.492188 -0.742188 1.609375 -0.796875 C 1.734375 -0.859375 1.847656 -0.914062 1.953125 -0.96875 C 2.066406 -1.03125 2.210938 -1.097656 2.390625 -1.171875 L 2.390625 -5.53125 Z M 0.90625 -5.53125 "/></g></g></g><g clip-path="url(#d5f6d2f2e5)"><g fill="#4c4c4a" fill-opacity="1"><g transform="translate(22.310767, 12.424109)"><g><path d="M 4.265625 -2.421875 L 9.46875 -2.421875 L 9.46875 -3.96875 L 4.265625 -3.96875 Z M 4.265625 -0.375 L 9.46875 -0.375 L 9.46875 -2.046875 L 4.265625 -2.046875 Z M 10.15625 -11.5625 L 11.203125 -10.625 C 11.234375 -10.59375 11.265625 -10.554688 11.296875 -10.515625 C 11.328125 -10.472656 11.34375 -10.425781 11.34375 -10.375 C 11.34375 -10.28125 11.289062 -10.234375 11.1875 -10.234375 C 11.144531 -10.234375 11.066406 -10.242188 10.953125 -10.265625 C 10.847656 -10.296875 10.738281 -10.320312 10.625 -10.34375 C 10.519531 -10.363281 10.453125 -10.375 10.421875 -10.375 C 10.054688 -10.3125 9.742188 -10.257812 9.484375 -10.21875 C 9.222656 -10.175781 8.941406 -10.132812 8.640625 -10.09375 C 8.335938 -10.0625 7.9375 -10.019531 7.4375 -9.96875 L 7.4375 -8.328125 L 11.03125 -8.328125 L 11.765625 -9.21875 L 13.046875 -8.25 L 13.046875 -7.953125 L 7.90625 -7.953125 C 8.113281 -7.734375 8.378906 -7.476562 8.703125 -7.1875 C 9.035156 -6.894531 9.484375 -6.601562 10.046875 -6.3125 C 10.804688 -5.925781 11.441406 -5.65625 11.953125 -5.5 C 12.472656 -5.351562 12.882812 -5.242188 13.1875 -5.171875 L 13.125 -4.90625 C 12.8125 -4.863281 12.585938 -4.785156 12.453125 -4.671875 C 12.328125 -4.566406 12.203125 -4.363281 12.078125 -4.0625 C 11.765625 -4.21875 11.382812 -4.414062 10.9375 -4.65625 C 10.5 -4.90625 9.988281 -5.257812 9.40625 -5.71875 C 8.800781 -6.195312 8.359375 -6.625 8.078125 -7 C 7.804688 -7.375 7.59375 -7.691406 7.4375 -7.953125 L 7.4375 -4.953125 L 6.25 -4.796875 L 6.25 -7.328125 C 6.007812 -7.085938 5.765625 -6.851562 5.515625 -6.625 C 5.265625 -6.40625 4.957031 -6.15625 4.59375 -5.875 C 4.238281 -5.601562 3.769531 -5.285156 3.1875 -4.921875 L 4.390625 -4.34375 L 9.390625 -4.34375 L 9.78125 -4.921875 L 10.921875 -4.21875 C 11.085938 -4.113281 11.171875 -4.023438 11.171875 -3.953125 C 11.171875 -3.878906 11.113281 -3.8125 11 -3.75 C 10.894531 -3.695312 10.804688 -3.648438 10.734375 -3.609375 L 10.734375 0.453125 L 9.46875 0.640625 L 9.46875 0 L 4.265625 0 L 4.265625 0.734375 L 3.046875 0.953125 L 3.046875 -4.84375 C 2.722656 -4.644531 2.441406 -4.484375 2.203125 -4.359375 C 1.972656 -4.242188 1.75 -4.140625 1.53125 -4.046875 C 1.320312 -3.960938 1.078125 -3.863281 0.796875 -3.75 L 0.609375 -4.015625 C 1.054688 -4.273438 1.554688 -4.59375 2.109375 -4.96875 C 2.660156 -5.34375 3.207031 -5.78125 3.75 -6.28125 C 4.289062 -6.78125 4.765625 -7.335938 5.171875 -7.953125 L 0.953125 -7.953125 L 0.71875 -8.328125 L 6.25 -8.328125 L 6.25 -9.875 L 5.625 -9.859375 L 5.046875 -9.8125 C 4.472656 -9.78125 3.984375 -9.757812 3.578125 -9.75 C 3.171875 -9.738281 2.804688 -9.734375 2.484375 -9.734375 C 2.160156 -9.734375 1.832031 -9.734375 1.5 -9.734375 L 1.453125 -10 C 2.816406 -10.125 4.019531 -10.257812 5.0625 -10.40625 C 6.113281 -10.5625 7.050781 -10.734375 7.875 -10.921875 C 8.707031 -11.117188 9.46875 -11.332031 10.15625 -11.5625 Z M 10.15625 -11.5625 "/></g></g></g></g><g clip-path="url(#fcc36689ea)"><g fill="#4c4c4a" fill-opacity="1"><g transform="translate(43.535984, 12.424109)"><g><path d="M 4.265625 -2.421875 L 9.46875 -2.421875 L 9.46875 -3.96875 L 4.265625 -3.96875 Z M 4.265625 -0.375 L 9.46875 -0.375 L 9.46875 -2.046875 L 4.265625 -2.046875 Z M 10.15625 -11.5625 L 11.203125 -10.625 C 11.234375 -10.59375 11.265625 -10.554688 11.296875 -10.515625 C 11.328125 -10.472656 11.34375 -10.425781 11.34375 -10.375 C 11.34375 -10.28125 11.289062 -10.234375 11.1875 -10.234375 C 11.144531 -10.234375 11.066406 -10.242188 10.953125 -10.265625 C 10.847656 -10.296875 10.738281 -10.320312 10.625 -10.34375 C 10.519531 -10.363281 10.453125 -10.375 10.421875 -10.375 C 10.054688 -10.3125 9.742188 -10.257812 9.484375 -10.21875 C 9.222656 -10.175781 8.941406 -10.132812 8.640625 -10.09375 C 8.335938 -10.0625 7.9375 -10.019531 7.4375 -9.96875 L 7.4375 -8.328125 L 11.03125 -8.328125 L 11.765625 -9.21875 L 13.046875 -8.25 L 13.046875 -7.953125 L 7.90625 -7.953125 C 8.113281 -7.734375 8.378906 -7.476562 8.703125 -7.1875 C 9.035156 -6.894531 9.484375 -6.601562 10.046875 -6.3125 C 10.804688 -5.925781 11.441406 -5.65625 11.953125 -5.5 C 12.472656 -5.351562 12.882812 -5.242188 13.1875 -5.171875 L 13.125 -4.90625 C 12.8125 -4.863281 12.585938 -4.785156 12.453125 -4.671875 C 12.328125 -4.566406 12.203125 -4.363281 12.078125 -4.0625 C 11.765625 -4.21875 11.382812 -4.414062 10.9375 -4.65625 C 10.5 -4.90625 9.988281 -5.257812 9.40625 -5.71875 C 8.800781 -6.195312 8.359375 -6.625 8.078125 -7 C 7.804688 -7.375 7.59375 -7.691406 7.4375 -7.953125 L 7.4375 -4.953125 L 6.25 -4.796875 L 6.25 -7.328125 C 6.007812 -7.085938 5.765625 -6.851562 5.515625 -6.625 C 5.265625 -6.40625 4.957031 -6.15625 4.59375 -5.875 C 4.238281 -5.601562 3.769531 -5.285156 3.1875 -4.921875 L 4.390625 -4.34375 L 9.390625 -4.34375 L 9.78125 -4.921875 L 10.921875 -4.21875 C 11.085938 -4.113281 11.171875 -4.023438 11.171875 -3.953125 C 11.171875 -3.878906 11.113281 -3.8125 11 -3.75 C 10.894531 -3.695312 10.804688 -3.648438 10.734375 -3.609375 L 10.734375 0.453125 L 9.46875 0.640625 L 9.46875 0 L 4.265625 0 L 4.265625 0.734375 L 3.046875 0.953125 L 3.046875 -4.84375 C 2.722656 -4.644531 2.441406 -4.484375 2.203125 -4.359375 C 1.972656 -4.242188 1.75 -4.140625 1.53125 -4.046875 C 1.320312 -3.960938 1.078125 -3.863281 0.796875 -3.75 L 0.609375 -4.015625 C 1.054688 -4.273438 1.554688 -4.59375 2.109375 -4.96875 C 2.660156 -5.34375 3.207031 -5.78125 3.75 -6.28125 C 4.289062 -6.78125 4.765625 -7.335938 5.171875 -7.953125 L 0.953125 -7.953125 L 0.71875 -8.328125 L 6.25 -8.328125 L 6.25 -9.875 L 5.625 -9.859375 L 5.046875 -9.8125 C 4.472656 -9.78125 3.984375 -9.757812 3.578125 -9.75 C 3.171875 -9.738281 2.804688 -9.734375 2.484375 -9.734375 C 2.160156 -9.734375 1.832031 -9.734375 1.5 -9.734375 L 1.453125 -10 C 2.816406 -10.125 4.019531 -10.257812 5.0625 -10.40625 C 6.113281 -10.5625 7.050781 -10.734375 7.875 -10.921875 C 8.707031 -11.117188 9.46875 -11.332031 10.15625 -11.5625 Z M 10.15625 -11.5625 "/></g></g></g></g><g fill="#4c4c4a" fill-opacity="1"><g transform="translate(64.761201, 12.424109)"><g><path d="M 9.65625 -9.828125 L 11.09375 -9.828125 L 11.84375 -10.65625 L 13.15625 -9.75 L 13.15625 -9.453125 L 9.65625 -9.453125 L 9.65625 -8.453125 L 8.5 -8.28125 L 8.5 -9.453125 L 5.234375 -9.453125 L 5.234375 -8.296875 L 4.0625 -8.109375 L 4.0625 -9.453125 L 0.96875 -9.453125 L 0.78125 -9.828125 L 4.0625 -9.828125 L 4.0625 -11.34375 L 5.546875 -11.203125 C 5.597656 -11.203125 5.65625 -11.1875 5.71875 -11.15625 C 5.789062 -11.132812 5.828125 -11.09375 5.828125 -11.03125 C 5.828125 -10.945312 5.78125 -10.878906 5.6875 -10.828125 C 5.59375 -10.773438 5.441406 -10.710938 5.234375 -10.640625 L 5.234375 -9.828125 L 8.5 -9.828125 L 8.5 -11.328125 L 9.953125 -11.203125 C 10.035156 -11.191406 10.097656 -11.164062 10.140625 -11.125 C 10.191406 -11.09375 10.21875 -11.050781 10.21875 -11 C 10.21875 -10.914062 10.164062 -10.84375 10.0625 -10.78125 C 9.957031 -10.726562 9.820312 -10.664062 9.65625 -10.59375 Z M 7.40625 -7.28125 L 10.859375 -7.28125 L 11.578125 -8.140625 L 12.875 -7.1875 L 12.875 -6.90625 L 7.40625 -6.90625 L 7.40625 -6.28125 C 7.40625 -6.0625 7.398438 -5.882812 7.390625 -5.75 C 7.390625 -5.613281 7.382812 -5.484375 7.375 -5.359375 C 7.375 -5.242188 7.363281 -5.101562 7.34375 -4.9375 C 7.40625 -4.726562 7.5 -4.460938 7.625 -4.140625 C 7.75 -3.816406 7.929688 -3.472656 8.171875 -3.109375 C 8.410156 -2.742188 8.742188 -2.378906 9.171875 -2.015625 C 9.628906 -1.617188 10.085938 -1.296875 10.546875 -1.046875 C 11.003906 -0.804688 11.441406 -0.613281 11.859375 -0.46875 C 12.273438 -0.332031 12.640625 -0.21875 12.953125 -0.125 L 12.875 0.140625 C 12.644531 0.171875 12.460938 0.238281 12.328125 0.34375 C 12.203125 0.445312 12.070312 0.679688 11.9375 1.046875 C 11.65625 0.898438 11.332031 0.734375 10.96875 0.546875 C 10.601562 0.367188 10.222656 0.132812 9.828125 -0.15625 C 9.429688 -0.457031 9.046875 -0.820312 8.671875 -1.25 C 8.210938 -1.78125 7.890625 -2.28125 7.703125 -2.75 C 7.515625 -3.21875 7.363281 -3.65625 7.25 -4.0625 C 7.132812 -3.613281 7.007812 -3.195312 6.875 -2.8125 C 6.738281 -2.4375 6.539062 -2.070312 6.28125 -1.71875 C 6.019531 -1.363281 5.648438 -1.003906 5.171875 -0.640625 C 4.710938 -0.304688 4.226562 -0.0351562 3.71875 0.171875 C 3.207031 0.390625 2.71875 0.554688 2.25 0.671875 C 1.78125 0.785156 1.382812 0.878906 1.0625 0.953125 L 0.9375 0.703125 C 1.90625 0.390625 2.707031 0.046875 3.34375 -0.328125 C 3.988281 -0.710938 4.503906 -1.125 4.890625 -1.5625 C 5.273438 -2 5.5625 -2.46875 5.75 -2.96875 C 5.945312 -3.46875 6.070312 -3.992188 6.125 -4.546875 C 6.1875 -5.097656 6.21875 -5.671875 6.21875 -6.265625 L 6.21875 -6.90625 L 1.1875 -6.90625 L 1 -7.28125 L 6.234375 -7.28125 L 6.234375 -8.890625 L 7.609375 -8.75 C 7.773438 -8.738281 7.859375 -8.675781 7.859375 -8.5625 C 7.859375 -8.5 7.820312 -8.441406 7.75 -8.390625 C 7.6875 -8.347656 7.582031 -8.285156 7.4375 -8.203125 C 7.425781 -8.015625 7.421875 -7.867188 7.421875 -7.765625 C 7.421875 -7.671875 7.414062 -7.507812 7.40625 -7.28125 Z M 3.609375 -6.6875 L 4.84375 -6.28125 C 4.90625 -6.257812 4.953125 -6.222656 4.984375 -6.171875 C 5.023438 -6.128906 5.046875 -6.097656 5.046875 -6.078125 C 5.046875 -5.992188 4.976562 -5.929688 4.84375 -5.890625 C 4.71875 -5.859375 4.613281 -5.832031 4.53125 -5.8125 L 3.859375 -4.859375 C 3.972656 -4.835938 4.128906 -4.796875 4.328125 -4.734375 C 4.523438 -4.679688 4.734375 -4.609375 4.953125 -4.515625 C 5.179688 -4.421875 5.367188 -4.296875 5.515625 -4.140625 C 5.660156 -3.984375 5.734375 -3.796875 5.734375 -3.578125 C 5.734375 -3.367188 5.664062 -3.222656 5.53125 -3.140625 C 5.394531 -3.054688 5.257812 -3.015625 5.125 -3.015625 C 5.03125 -3.015625 4.945312 -3.050781 4.875 -3.125 C 4.8125 -3.195312 4.757812 -3.269531 4.71875 -3.34375 L 4.4375 -3.875 C 4.351562 -4.039062 4.257812 -4.175781 4.15625 -4.28125 C 4.050781 -4.382812 3.894531 -4.503906 3.6875 -4.640625 C 3.414062 -4.316406 3.179688 -4.046875 2.984375 -3.828125 C 2.785156 -3.617188 2.582031 -3.429688 2.375 -3.265625 C 2.164062 -3.097656 1.898438 -2.898438 1.578125 -2.671875 L 1.34375 -2.84375 C 1.644531 -3.195312 1.90625 -3.515625 2.125 -3.796875 C 2.34375 -4.085938 2.535156 -4.375 2.703125 -4.65625 C 2.867188 -4.9375 3.019531 -5.238281 3.15625 -5.5625 C 3.300781 -5.894531 3.453125 -6.269531 3.609375 -6.6875 Z M 9.59375 -6.609375 L 10.8125 -6.15625 C 10.9375 -6.101562 11 -6.035156 11 -5.953125 C 11 -5.878906 10.960938 -5.828125 10.890625 -5.796875 C 10.816406 -5.773438 10.691406 -5.753906 10.515625 -5.734375 C 10.378906 -5.503906 10.273438 -5.335938 10.203125 -5.234375 C 10.128906 -5.128906 10.039062 -4.992188 9.9375 -4.828125 C 10.082031 -4.796875 10.265625 -4.75 10.484375 -4.6875 C 10.710938 -4.632812 10.945312 -4.5625 11.1875 -4.46875 C 11.425781 -4.375 11.644531 -4.253906 11.84375 -4.109375 C 11.945312 -4.015625 12.0625 -3.890625 12.1875 -3.734375 C 12.320312 -3.585938 12.390625 -3.425781 12.390625 -3.25 C 12.390625 -3.125 12.335938 -2.988281 12.234375 -2.84375 C 12.128906 -2.707031 11.988281 -2.640625 11.8125 -2.640625 C 11.757812 -2.640625 11.691406 -2.660156 11.609375 -2.703125 C 11.523438 -2.742188 11.425781 -2.863281 11.3125 -3.0625 C 11.175781 -3.3125 11.046875 -3.515625 10.921875 -3.671875 C 10.804688 -3.828125 10.660156 -3.972656 10.484375 -4.109375 C 10.316406 -4.242188 10.078125 -4.40625 9.765625 -4.59375 C 9.585938 -4.332031 9.429688 -4.125 9.296875 -3.96875 C 9.171875 -3.8125 9.035156 -3.660156 8.890625 -3.515625 C 8.753906 -3.367188 8.582031 -3.195312 8.375 -3 L 8.15625 -3.171875 C 8.34375 -3.546875 8.503906 -3.867188 8.640625 -4.140625 C 8.785156 -4.410156 8.90625 -4.671875 9 -4.921875 C 9.101562 -5.171875 9.195312 -5.425781 9.28125 -5.6875 C 9.375 -5.945312 9.476562 -6.253906 9.59375 -6.609375 Z M 9.59375 -6.609375 "/></g></g></g><g fill="#4c4c4a" fill-opacity="1"><g transform="translate(85.986418, 12.424109)"><g><path d="M 11.34375 -9.390625 L 12.328125 -8.765625 C 12.378906 -8.734375 12.4375 -8.691406 12.5 -8.640625 C 12.5625 -8.597656 12.59375 -8.554688 12.59375 -8.515625 C 12.59375 -8.453125 12.550781 -8.394531 12.46875 -8.34375 C 12.382812 -8.300781 12.296875 -8.253906 12.203125 -8.203125 L 12.203125 -0.03125 C 12.203125 0.164062 12.175781 0.328125 12.125 0.453125 C 12.070312 0.578125 11.890625 0.691406 11.578125 0.796875 C 11.398438 0.859375 11.238281 0.898438 11.09375 0.921875 C 10.957031 0.941406 10.867188 0.953125 10.828125 0.953125 C 10.734375 0.953125 10.675781 0.925781 10.65625 0.875 C 10.644531 0.820312 10.617188 0.695312 10.578125 0.5 C 10.566406 0.457031 10.519531 0.382812 10.4375 0.28125 C 10.363281 0.1875 10.160156 0.0976562 9.828125 0.015625 L 9.828125 -0.25 L 11.078125 -0.25 L 11.078125 -6.171875 L 8.546875 -6.171875 L 8.546875 -5.953125 L 7.5625 -5.78125 C 7.53125 -5.738281 7.5 -5.703125 7.46875 -5.671875 C 7.4375 -5.648438 7.367188 -5.609375 7.265625 -5.546875 L 7.265625 -5.1875 L 8.90625 -5.1875 L 9.40625 -5.828125 L 10.5 -5.0625 L 10.5 -4.828125 L 7.265625 -4.828125 L 7.265625 -4.15625 L 8.640625 -4.15625 L 8.96875 -4.625 L 9.796875 -4.125 C 9.960938 -4.019531 10.046875 -3.9375 10.046875 -3.875 C 10.046875 -3.8125 10.007812 -3.757812 9.9375 -3.71875 C 9.863281 -3.6875 9.785156 -3.65625 9.703125 -3.625 L 9.703125 -1.734375 L 8.71875 -1.578125 L 8.71875 -1.78125 L 7.265625 -1.78125 L 7.265625 -1.578125 C 7.710938 -1.515625 8.070312 -1.445312 8.34375 -1.375 C 8.625 -1.300781 8.882812 -1.195312 9.125 -1.0625 C 9.1875 -1.03125 9.269531 -0.972656 9.375 -0.890625 C 9.476562 -0.804688 9.570312 -0.703125 9.65625 -0.578125 C 9.75 -0.453125 9.796875 -0.3125 9.796875 -0.15625 C 9.796875 -0.0078125 9.753906 0.101562 9.671875 0.1875 C 9.597656 0.269531 9.507812 0.3125 9.40625 0.3125 C 9.300781 0.3125 9.195312 0.28125 9.09375 0.21875 C 9 0.15625 8.859375 0.0195312 8.671875 -0.1875 C 8.347656 -0.539062 8.078125 -0.789062 7.859375 -0.9375 C 7.640625 -1.09375 7.441406 -1.21875 7.265625 -1.3125 L 7.265625 0.703125 L 6.296875 0.859375 L 6.296875 -1.015625 C 5.835938 -0.722656 5.375 -0.445312 4.90625 -0.1875 C 4.4375 0.0703125 3.878906 0.328125 3.234375 0.578125 L 3.125 0.375 C 3.6875 0.0078125 4.140625 -0.300781 4.484375 -0.5625 C 4.835938 -0.832031 5.113281 -1.066406 5.3125 -1.265625 C 5.519531 -1.472656 5.6875 -1.644531 5.8125 -1.78125 L 4.953125 -1.78125 L 4.953125 -1.515625 L 4.015625 -1.34375 L 4.015625 -4.5625 L 4.984375 -4.15625 L 6.296875 -4.15625 L 6.296875 -4.828125 L 3.5 -4.828125 L 3.296875 -5.1875 L 6.296875 -5.1875 L 6.296875 -6.109375 L 7.3125 -5.984375 C 7.382812 -5.972656 7.457031 -5.941406 7.53125 -5.890625 L 7.53125 -9.25 L 8.703125 -8.734375 L 10.96875 -8.734375 Z M 6.296875 -3.21875 L 6.296875 -3.78125 L 4.953125 -3.78125 L 4.953125 -3.21875 Z M 6.296875 -2.171875 L 6.296875 -2.84375 L 4.953125 -2.84375 L 4.953125 -2.171875 Z M 7.265625 -3.21875 L 8.71875 -3.21875 L 8.71875 -3.78125 L 7.265625 -3.78125 Z M 7.265625 -2.84375 L 7.265625 -2.171875 L 8.71875 -2.171875 L 8.71875 -2.84375 Z M 8.546875 -7.296875 L 8.546875 -6.53125 L 11.078125 -6.53125 L 11.078125 -7.296875 Z M 8.546875 -8.34375 L 8.546875 -7.65625 L 11.078125 -7.65625 L 11.078125 -8.34375 Z M 5.0625 -7.625 L 5.0625 -8.390625 L 2.671875 -8.390625 L 2.671875 -7.625 Z M 5.0625 -6.53125 L 5.0625 -7.265625 L 2.671875 -7.265625 L 2.671875 -6.53125 Z M 5.0625 -6.171875 L 2.671875 -6.171875 L 2.671875 0.859375 L 1.578125 1.0625 L 1.578125 -9.375 L 2.640625 -8.75 L 5.015625 -8.75 L 5.375 -9.25 L 6.265625 -8.75 C 6.335938 -8.707031 6.394531 -8.664062 6.4375 -8.625 C 6.476562 -8.59375 6.5 -8.554688 6.5 -8.515625 C 6.5 -8.441406 6.460938 -8.382812 6.390625 -8.34375 C 6.316406 -8.300781 6.210938 -8.253906 6.078125 -8.203125 L 6.078125 -6.046875 L 5.0625 -5.84375 Z M 9.421875 -10.359375 L 11.171875 -10.359375 L 11.78125 -11.171875 L 13.03125 -10.21875 L 13.03125 -9.984375 L 9.421875 -9.984375 L 9.421875 -9.359375 L 8.296875 -9.1875 L 8.296875 -9.984375 L 5.328125 -9.984375 L 5.328125 -9.390625 L 4.234375 -9.1875 L 4.234375 -9.984375 L 0.859375 -9.984375 L 0.71875 -10.359375 L 4.234375 -10.359375 L 4.234375 -11.421875 L 5.5 -11.3125 C 5.570312 -11.300781 5.632812 -11.269531 5.6875 -11.21875 C 5.75 -11.175781 5.78125 -11.128906 5.78125 -11.078125 C 5.78125 -11.015625 5.742188 -10.960938 5.671875 -10.921875 C 5.597656 -10.878906 5.484375 -10.820312 5.328125 -10.75 L 5.328125 -10.359375 L 8.296875 -10.359375 L 8.296875 -11.421875 L 9.59375 -11.3125 C 9.65625 -11.3125 9.71875 -11.289062 9.78125 -11.25 C 9.851562 -11.21875 9.890625 -11.164062 9.890625 -11.09375 C 9.890625 -11.019531 9.863281 -10.96875 9.8125 -10.9375 C 9.769531 -10.90625 9.640625 -10.847656 9.421875 -10.765625 Z M 9.421875 -10.359375 "/></g></g></g><g fill="#4c4c4a" fill-opacity="1"><g transform="translate(107.211635, 12.424109)"><g><path d="M 8.53125 -4.171875 L 8.53125 -5.53125 L 4.96875 -5.53125 L 4.96875 -4.171875 Z M 7.34375 -3.78125 L 7.234375 -3.65625 L 7.234375 -2.9375 C 7.421875 -2.90625 7.570312 -2.878906 7.6875 -2.859375 C 7.8125 -2.835938 7.941406 -2.804688 8.078125 -2.765625 C 8.222656 -2.722656 8.394531 -2.664062 8.59375 -2.59375 C 8.695312 -2.695312 8.78125 -2.785156 8.84375 -2.859375 C 8.90625 -2.929688 8.976562 -3.019531 9.0625 -3.125 C 9.144531 -3.226562 9.269531 -3.375 9.4375 -3.5625 L 8.53125 -3.453125 L 8.53125 -3.78125 Z M 5.921875 -3.78125 L 4.96875 -3.78125 L 4.96875 -3.46875 L 3.890625 -3.328125 L 3.890625 -6.34375 L 5.078125 -5.90625 L 8.34375 -5.90625 L 8.671875 -6.40625 L 9.65625 -5.84375 C 9.675781 -5.832031 9.726562 -5.796875 9.8125 -5.734375 C 9.894531 -5.679688 9.9375 -5.625 9.9375 -5.5625 C 9.9375 -5.5 9.882812 -5.4375 9.78125 -5.375 C 9.6875 -5.320312 9.613281 -5.285156 9.5625 -5.265625 L 9.5625 -3.703125 L 9.734375 -3.890625 L 10.6875 -3.28125 C 10.789062 -3.207031 10.84375 -3.132812 10.84375 -3.0625 C 10.84375 -3 10.816406 -2.957031 10.765625 -2.9375 C 10.710938 -2.925781 10.664062 -2.921875 10.625 -2.921875 C 10.601562 -2.921875 10.578125 -2.921875 10.546875 -2.921875 C 10.515625 -2.929688 10.4375 -2.941406 10.3125 -2.953125 C 10.15625 -2.890625 10.023438 -2.835938 9.921875 -2.796875 C 9.816406 -2.753906 9.703125 -2.703125 9.578125 -2.640625 C 9.453125 -2.578125 9.285156 -2.492188 9.078125 -2.390625 C 9.148438 -2.347656 9.257812 -2.285156 9.40625 -2.203125 C 9.550781 -2.117188 9.695312 -2.019531 9.84375 -1.90625 C 10 -1.789062 10.132812 -1.65625 10.25 -1.5 C 10.363281 -1.351562 10.421875 -1.207031 10.421875 -1.0625 C 10.421875 -0.925781 10.363281 -0.800781 10.25 -0.6875 C 10.132812 -0.570312 10.007812 -0.515625 9.875 -0.515625 C 9.726562 -0.515625 9.601562 -0.566406 9.5 -0.671875 C 9.394531 -0.773438 9.210938 -0.976562 8.953125 -1.28125 C 8.890625 -1.351562 8.71875 -1.523438 8.4375 -1.796875 C 8.15625 -2.066406 7.753906 -2.332031 7.234375 -2.59375 L 7.234375 -0.421875 L 6.125 -0.296875 L 6.125 -2.625 C 5.570312 -2.175781 5.082031 -1.820312 4.65625 -1.5625 C 4.238281 -1.3125 3.875 -1.117188 3.5625 -0.984375 C 3.25 -0.859375 2.976562 -0.75 2.75 -0.65625 L 2.65625 -0.890625 C 2.914062 -1.035156 3.1875 -1.203125 3.46875 -1.390625 C 3.757812 -1.578125 4.085938 -1.835938 4.453125 -2.171875 C 4.785156 -2.484375 5.046875 -2.738281 5.234375 -2.9375 C 5.421875 -3.132812 5.5625 -3.296875 5.65625 -3.421875 C 5.757812 -3.554688 5.847656 -3.675781 5.921875 -3.78125 Z M 11.3125 -0.09375 L 11.3125 -9.984375 L 2.5 -9.984375 L 2.5 -0.09375 Z M 11.3125 0.28125 L 2.5 0.28125 L 2.5 0.96875 L 1.3125 1.125 L 1.3125 -11.0625 L 2.65625 -10.359375 L 11.109375 -10.359375 L 11.578125 -11 L 12.671875 -10.265625 C 12.859375 -10.140625 12.953125 -10.039062 12.953125 -9.96875 C 12.953125 -9.882812 12.910156 -9.816406 12.828125 -9.765625 C 12.753906 -9.710938 12.640625 -9.648438 12.484375 -9.578125 L 12.484375 0.78125 L 11.3125 0.9375 Z M 7.25 -8.53125 L 8.765625 -8.53125 L 9.40625 -9.28125 L 10.40625 -8.40625 L 10.40625 -8.15625 L 7.25 -8.15625 L 7.25 -7.046875 L 9.34375 -7.046875 L 9.890625 -7.765625 L 10.921875 -6.953125 L 10.921875 -6.671875 L 3.078125 -6.671875 L 2.90625 -7.046875 L 6.09375 -7.046875 L 6.09375 -8.15625 L 3.46875 -8.15625 L 3.265625 -8.53125 L 6.09375 -8.53125 L 6.09375 -9.765625 L 7.421875 -9.640625 C 7.492188 -9.628906 7.566406 -9.609375 7.640625 -9.578125 C 7.710938 -9.546875 7.75 -9.5 7.75 -9.4375 C 7.75 -9.375 7.71875 -9.328125 7.65625 -9.296875 C 7.601562 -9.265625 7.46875 -9.207031 7.25 -9.125 Z M 7.25 -8.53125 "/></g></g></g></g></g><g transform="matrix(1, 0, 0, 1, 16, 139)"><g clip-path="url(#39df19c394)"><g clip-path="url(#eb77047b63)"><g fill="#4c4c4a" fill-opacity="1"><g transform="translate(0.205124, 5.451449)"><g><path d="M 4 -3.109375 C 4 -2.898438 3.929688 -2.707031 3.796875 -2.53125 C 3.671875 -2.351562 3.484375 -2.210938 3.234375 -2.109375 C 2.984375 -2.003906 2.6875 -1.953125 2.34375 -1.953125 L 1.71875 -1.953125 L 1.71875 -0.640625 C 1.71875 -0.492188 1.734375 -0.378906 1.765625 -0.296875 C 1.804688 -0.222656 1.863281 -0.175781 1.9375 -0.15625 C 2.019531 -0.132812 2.132812 -0.117188 2.28125 -0.109375 L 2.28125 0 L 0.109375 0 L 0.109375 -0.109375 C 0.265625 -0.117188 0.382812 -0.132812 0.46875 -0.15625 C 0.550781 -0.175781 0.613281 -0.222656 0.65625 -0.296875 C 0.695312 -0.367188 0.71875 -0.484375 0.71875 -0.640625 L 0.71875 -3.65625 C 0.71875 -3.863281 0.664062 -4 0.5625 -4.0625 C 0.46875 -4.125 0.316406 -4.15625 0.109375 -4.15625 L 0.109375 -4.265625 L 2.421875 -4.265625 C 2.671875 -4.265625 2.914062 -4.222656 3.15625 -4.140625 C 3.40625 -4.054688 3.609375 -3.925781 3.765625 -3.75 C 3.921875 -3.570312 4 -3.359375 4 -3.109375 Z M 2.921875 -3.09375 C 2.921875 -3.363281 2.878906 -3.566406 2.796875 -3.703125 C 2.722656 -3.835938 2.617188 -3.925781 2.484375 -3.96875 C 2.347656 -4.019531 2.175781 -4.046875 1.96875 -4.046875 L 1.71875 -4.046875 L 1.71875 -2.1875 L 2.125 -2.1875 C 2.351562 -2.1875 2.539062 -2.257812 2.6875 -2.40625 C 2.84375 -2.550781 2.921875 -2.78125 2.921875 -3.09375 Z M 2.921875 -3.09375 "/></g></g></g></g><g fill="#4c4c4a" fill-opacity="1"><g transform="translate(6.335947, 5.451449)"><g><path d="M 2.203125 -4.15625 C 2.015625 -4.15625 1.878906 -4.117188 1.796875 -4.046875 C 1.710938 -3.984375 1.671875 -3.851562 1.671875 -3.65625 L 1.671875 -1.125 C 1.671875 -0.863281 1.753906 -0.640625 1.921875 -0.453125 C 2.085938 -0.273438 2.347656 -0.1875 2.703125 -0.1875 C 3.109375 -0.1875 3.414062 -0.3125 3.625 -0.5625 C 3.832031 -0.8125 3.9375 -1.117188 3.9375 -1.484375 L 3.9375 -3.625 C 3.9375 -3.8125 3.894531 -3.945312 3.8125 -4.03125 C 3.726562 -4.113281 3.585938 -4.15625 3.390625 -4.15625 L 3.390625 -4.265625 L 4.703125 -4.265625 L 4.703125 -4.15625 C 4.515625 -4.15625 4.375 -4.113281 4.28125 -4.03125 C 4.195312 -3.945312 4.15625 -3.796875 4.15625 -3.578125 L 4.15625 -1.515625 C 4.15625 -0.992188 4.003906 -0.59375 3.703125 -0.3125 C 3.410156 -0.0390625 2.984375 0.09375 2.421875 0.09375 C 2.023438 0.09375 1.695312 0.03125 1.4375 -0.09375 C 1.1875 -0.226562 1 -0.398438 0.875 -0.609375 C 0.75 -0.816406 0.6875 -1.054688 0.6875 -1.328125 L 0.6875 -3.6875 C 0.6875 -3.875 0.640625 -4 0.546875 -4.0625 C 0.453125 -4.125 0.300781 -4.15625 0.09375 -4.15625 L 0.09375 -4.265625 L 2.203125 -4.265625 Z M 2.203125 -4.15625 "/></g></g></g><g fill="#4c4c4a" fill-opacity="1"><g transform="translate(13.10673, 5.451449)"><g><path d="M 3.859375 -3.09375 C 3.859375 -2.832031 3.773438 -2.609375 3.609375 -2.421875 C 3.441406 -2.234375 3.210938 -2.101562 2.921875 -2.03125 L 3.765625 -0.65625 C 3.878906 -0.476562 3.976562 -0.34375 4.0625 -0.25 C 4.15625 -0.164062 4.253906 -0.117188 4.359375 -0.109375 L 4.359375 0 L 3.09375 0 L 1.90625 -1.953125 L 1.703125 -1.953125 L 1.703125 -0.640625 C 1.703125 -0.484375 1.722656 -0.367188 1.765625 -0.296875 C 1.816406 -0.222656 1.882812 -0.175781 1.96875 -0.15625 C 2.050781 -0.132812 2.175781 -0.117188 2.34375 -0.109375 L 2.34375 0 L 0.125 0 L 0.125 -0.109375 C 0.28125 -0.117188 0.394531 -0.132812 0.46875 -0.15625 C 0.550781 -0.175781 0.613281 -0.222656 0.65625 -0.296875 C 0.695312 -0.378906 0.71875 -0.492188 0.71875 -0.640625 L 0.71875 -3.6875 C 0.71875 -3.875 0.671875 -4 0.578125 -4.0625 C 0.484375 -4.125 0.332031 -4.15625 0.125 -4.15625 L 0.125 -4.265625 L 2.3125 -4.265625 C 2.769531 -4.265625 3.140625 -4.160156 3.421875 -3.953125 C 3.710938 -3.753906 3.859375 -3.46875 3.859375 -3.09375 Z M 2.046875 -2.171875 C 2.253906 -2.171875 2.441406 -2.234375 2.609375 -2.359375 C 2.773438 -2.492188 2.859375 -2.742188 2.859375 -3.109375 C 2.859375 -3.734375 2.554688 -4.046875 1.953125 -4.046875 L 1.703125 -4.046875 L 1.703125 -2.171875 Z M 2.046875 -2.171875 "/></g></g></g><g fill="#4c4c4a" fill-opacity="1"><g transform="translate(19.554509, 5.451449)"><g><path d="M 1.671875 -4.359375 C 1.859375 -4.359375 2.019531 -4.335938 2.15625 -4.296875 C 2.300781 -4.265625 2.460938 -4.210938 2.640625 -4.140625 C 2.691406 -4.117188 2.742188 -4.097656 2.796875 -4.078125 C 2.859375 -4.054688 2.90625 -4.046875 2.9375 -4.046875 C 3.007812 -4.046875 3.066406 -4.070312 3.109375 -4.125 C 3.148438 -4.175781 3.171875 -4.253906 3.171875 -4.359375 L 3.28125 -4.359375 L 3.28125 -2.984375 L 3.171875 -2.984375 C 3.128906 -3.203125 3.035156 -3.398438 2.890625 -3.578125 C 2.753906 -3.753906 2.582031 -3.890625 2.375 -3.984375 C 2.175781 -4.078125 1.960938 -4.125 1.734375 -4.125 C 1.484375 -4.125 1.273438 -4.0625 1.109375 -3.9375 C 0.953125 -3.8125 0.875 -3.660156 0.875 -3.484375 C 0.875 -3.347656 0.921875 -3.226562 1.015625 -3.125 C 1.109375 -3.03125 1.222656 -2.953125 1.359375 -2.890625 C 1.503906 -2.828125 1.707031 -2.757812 1.96875 -2.6875 C 2.21875 -2.601562 2.425781 -2.523438 2.59375 -2.453125 C 2.769531 -2.378906 2.921875 -2.289062 3.046875 -2.1875 C 3.191406 -2.070312 3.3125 -1.929688 3.40625 -1.765625 C 3.5 -1.597656 3.546875 -1.410156 3.546875 -1.203125 C 3.546875 -0.953125 3.476562 -0.726562 3.34375 -0.53125 C 3.207031 -0.332031 3.015625 -0.175781 2.765625 -0.0625 C 2.515625 0.0390625 2.226562 0.09375 1.90625 0.09375 C 1.707031 0.09375 1.535156 0.0703125 1.390625 0.03125 C 1.253906 0 1.113281 -0.046875 0.96875 -0.109375 C 0.832031 -0.160156 0.734375 -0.1875 0.671875 -0.1875 C 0.585938 -0.1875 0.519531 -0.164062 0.46875 -0.125 C 0.414062 -0.0820312 0.367188 -0.0078125 0.328125 0.09375 L 0.21875 0.09375 L 0.21875 -1.484375 L 0.328125 -1.484375 C 0.398438 -1.066406 0.578125 -0.734375 0.859375 -0.484375 C 1.140625 -0.242188 1.476562 -0.125 1.875 -0.125 C 2.175781 -0.125 2.410156 -0.1875 2.578125 -0.3125 C 2.753906 -0.4375 2.84375 -0.601562 2.84375 -0.8125 C 2.84375 -0.96875 2.789062 -1.101562 2.6875 -1.21875 C 2.59375 -1.332031 2.46875 -1.421875 2.3125 -1.484375 C 2.164062 -1.554688 1.960938 -1.640625 1.703125 -1.734375 C 1.378906 -1.835938 1.117188 -1.9375 0.921875 -2.03125 C 0.734375 -2.132812 0.566406 -2.273438 0.421875 -2.453125 C 0.285156 -2.628906 0.21875 -2.851562 0.21875 -3.125 C 0.21875 -3.351562 0.28125 -3.5625 0.40625 -3.75 C 0.53125 -3.945312 0.703125 -4.097656 0.921875 -4.203125 C 1.140625 -4.304688 1.390625 -4.359375 1.671875 -4.359375 Z M 1.671875 -4.359375 "/></g></g></g><g fill="#4c4c4a" fill-opacity="1"><g transform="translate(25.28793, 5.451449)"><g><path d="M 2.203125 -4.15625 C 2.015625 -4.15625 1.878906 -4.117188 1.796875 -4.046875 C 1.710938 -3.984375 1.671875 -3.851562 1.671875 -3.65625 L 1.671875 -1.125 C 1.671875 -0.863281 1.753906 -0.640625 1.921875 -0.453125 C 2.085938 -0.273438 2.347656 -0.1875 2.703125 -0.1875 C 3.109375 -0.1875 3.414062 -0.3125 3.625 -0.5625 C 3.832031 -0.8125 3.9375 -1.117188 3.9375 -1.484375 L 3.9375 -3.625 C 3.9375 -3.8125 3.894531 -3.945312 3.8125 -4.03125 C 3.726562 -4.113281 3.585938 -4.15625 3.390625 -4.15625 L 3.390625 -4.265625 L 4.703125 -4.265625 L 4.703125 -4.15625 C 4.515625 -4.15625 4.375 -4.113281 4.28125 -4.03125 C 4.195312 -3.945312 4.15625 -3.796875 4.15625 -3.578125 L 4.15625 -1.515625 C 4.15625 -0.992188 4.003906 -0.59375 3.703125 -0.3125 C 3.410156 -0.0390625 2.984375 0.09375 2.421875 0.09375 C 2.023438 0.09375 1.695312 0.03125 1.4375 -0.09375 C 1.1875 -0.226562 1 -0.398438 0.875 -0.609375 C 0.75 -0.816406 0.6875 -1.054688 0.6875 -1.328125 L 0.6875 -3.6875 C 0.6875 -3.875 0.640625 -4 0.546875 -4.0625 C 0.453125 -4.125 0.300781 -4.15625 0.09375 -4.15625 L 0.09375 -4.265625 L 2.203125 -4.265625 Z M 2.203125 -4.15625 "/></g></g></g><g fill="#4c4c4a" fill-opacity="1"><g transform="translate(32.058714, 5.451449)"><g><path d="M 2.296875 -4.15625 C 2.140625 -4.15625 2.019531 -4.144531 1.9375 -4.125 C 1.863281 -4.101562 1.804688 -4.054688 1.765625 -3.984375 C 1.722656 -3.910156 1.703125 -3.789062 1.703125 -3.625 L 1.703125 -0.640625 C 1.703125 -0.484375 1.71875 -0.367188 1.75 -0.296875 C 1.789062 -0.222656 1.847656 -0.175781 1.921875 -0.15625 C 2.003906 -0.132812 2.128906 -0.117188 2.296875 -0.109375 L 2.296875 0 L 0.109375 0 L 0.109375 -0.109375 C 0.265625 -0.109375 0.378906 -0.117188 0.453125 -0.140625 C 0.535156 -0.160156 0.597656 -0.207031 0.640625 -0.28125 C 0.679688 -0.363281 0.703125 -0.484375 0.703125 -0.640625 L 0.703125 -3.625 C 0.703125 -3.78125 0.679688 -3.894531 0.640625 -3.96875 C 0.597656 -4.050781 0.535156 -4.101562 0.453125 -4.125 C 0.367188 -4.144531 0.253906 -4.15625 0.109375 -4.15625 L 0.109375 -4.265625 L 2.296875 -4.265625 Z M 2.296875 -4.15625 "/></g></g></g><g fill="#4c4c4a" fill-opacity="1"><g transform="translate(36.431761, 5.451449)"><g><path d="M 3.96875 -3.15625 L 3.859375 -3.15625 C 3.828125 -3.445312 3.734375 -3.664062 3.578125 -3.8125 C 3.429688 -3.96875 3.253906 -4.046875 3.046875 -4.046875 L 2.5625 -4.046875 L 2.5625 -0.671875 C 2.5625 -0.515625 2.582031 -0.394531 2.625 -0.3125 C 2.664062 -0.238281 2.726562 -0.1875 2.8125 -0.15625 C 2.90625 -0.132812 3.03125 -0.117188 3.1875 -0.109375 L 3.1875 0 L 0.953125 0 L 0.953125 -0.109375 C 1.109375 -0.109375 1.226562 -0.117188 1.3125 -0.140625 C 1.394531 -0.171875 1.457031 -0.222656 1.5 -0.296875 C 1.550781 -0.378906 1.578125 -0.5 1.578125 -0.65625 L 1.578125 -4.046875 L 1.03125 -4.046875 C 0.851562 -4.046875 0.691406 -3.960938 0.546875 -3.796875 C 0.398438 -3.628906 0.3125 -3.414062 0.28125 -3.15625 L 0.171875 -3.15625 L 0.171875 -4.265625 L 3.96875 -4.265625 Z M 3.96875 -3.15625 "/></g></g></g><g fill="#4c4c4a" fill-opacity="1"><g transform="translate(42.556526, 5.451449)"><g/></g></g><g fill="#4c4c4a" fill-opacity="1"><g transform="translate(46.090988, 5.451449)"><g><path d="M 2.546875 -4.359375 C 2.960938 -4.359375 3.347656 -4.269531 3.703125 -4.09375 C 4.054688 -3.914062 4.335938 -3.65625 4.546875 -3.3125 C 4.753906 -2.976562 4.859375 -2.582031 4.859375 -2.125 C 4.859375 -1.707031 4.765625 -1.332031 4.578125 -1 C 4.390625 -0.664062 4.117188 -0.398438 3.765625 -0.203125 C 3.421875 -0.00390625 3.019531 0.09375 2.5625 0.09375 C 2.113281 0.09375 1.710938 0 1.359375 -0.1875 C 1.015625 -0.382812 0.742188 -0.648438 0.546875 -0.984375 C 0.347656 -1.316406 0.25 -1.703125 0.25 -2.140625 C 0.25 -2.566406 0.347656 -2.945312 0.546875 -3.28125 C 0.742188 -3.625 1.015625 -3.890625 1.359375 -4.078125 C 1.710938 -4.265625 2.109375 -4.359375 2.546875 -4.359375 Z M 1.359375 -2.15625 C 1.359375 -1.820312 1.398438 -1.5 1.484375 -1.1875 C 1.566406 -0.882812 1.695312 -0.628906 1.875 -0.421875 C 2.050781 -0.222656 2.273438 -0.125 2.546875 -0.125 C 2.785156 -0.125 2.992188 -0.203125 3.171875 -0.359375 C 3.359375 -0.523438 3.5 -0.753906 3.59375 -1.046875 C 3.695312 -1.347656 3.75 -1.695312 3.75 -2.09375 C 3.75 -2.53125 3.695312 -2.898438 3.59375 -3.203125 C 3.5 -3.515625 3.363281 -3.75 3.1875 -3.90625 C 3.007812 -4.0625 2.800781 -4.140625 2.5625 -4.140625 C 2.332031 -4.140625 2.128906 -4.066406 1.953125 -3.921875 C 1.773438 -3.773438 1.628906 -3.550781 1.515625 -3.25 C 1.410156 -2.945312 1.359375 -2.582031 1.359375 -2.15625 Z M 1.359375 -2.15625 "/></g></g></g><g fill="#4c4c4a" fill-opacity="1"><g transform="translate(53.184784, 5.451449)"><g><path d="M 3.625 -3.109375 L 3.5 -3.109375 C 3.46875 -3.429688 3.363281 -3.664062 3.1875 -3.8125 C 3.019531 -3.96875 2.769531 -4.046875 2.4375 -4.046875 L 1.671875 -4.046875 L 1.671875 -2.265625 L 1.84375 -2.265625 C 2.113281 -2.265625 2.320312 -2.335938 2.46875 -2.484375 C 2.613281 -2.640625 2.691406 -2.867188 2.703125 -3.171875 L 2.828125 -3.171875 L 2.828125 -1.078125 L 2.703125 -1.078125 C 2.691406 -1.390625 2.609375 -1.625 2.453125 -1.78125 C 2.304688 -1.945312 2.097656 -2.03125 1.828125 -2.03125 L 1.671875 -2.03125 L 1.671875 -0.640625 C 1.671875 -0.484375 1.691406 -0.367188 1.734375 -0.296875 C 1.773438 -0.222656 1.835938 -0.175781 1.921875 -0.15625 C 2.003906 -0.132812 2.140625 -0.117188 2.328125 -0.109375 L 2.328125 0 L 0.078125 0 L 0.078125 -0.109375 C 0.242188 -0.117188 0.367188 -0.132812 0.453125 -0.15625 C 0.535156 -0.175781 0.59375 -0.222656 0.625 -0.296875 C 0.664062 -0.367188 0.6875 -0.484375 0.6875 -0.640625 L 0.6875 -3.625 C 0.6875 -3.78125 0.664062 -3.894531 0.625 -3.96875 C 0.582031 -4.050781 0.519531 -4.101562 0.4375 -4.125 C 0.351562 -4.144531 0.234375 -4.15625 0.078125 -4.15625 L 0.078125 -4.265625 L 3.625 -4.265625 Z M 3.625 -3.109375 "/></g></g></g><g fill="#4c4c4a" fill-opacity="1"><g transform="translate(58.918206, 5.451449)"><g/></g></g><g fill="#4c4c4a" fill-opacity="1"><g transform="translate(62.452668, 5.451449)"><g><path d="M 3.625 -3.109375 L 3.5 -3.109375 C 3.46875 -3.429688 3.363281 -3.664062 3.1875 -3.8125 C 3.019531 -3.96875 2.769531 -4.046875 2.4375 -4.046875 L 1.671875 -4.046875 L 1.671875 -2.265625 L 1.84375 -2.265625 C 2.113281 -2.265625 2.320312 -2.335938 2.46875 -2.484375 C 2.613281 -2.640625 2.691406 -2.867188 2.703125 -3.171875 L 2.828125 -3.171875 L 2.828125 -1.078125 L 2.703125 -1.078125 C 2.691406 -1.390625 2.609375 -1.625 2.453125 -1.78125 C 2.304688 -1.945312 2.097656 -2.03125 1.828125 -2.03125 L 1.671875 -2.03125 L 1.671875 -0.640625 C 1.671875 -0.484375 1.691406 -0.367188 1.734375 -0.296875 C 1.773438 -0.222656 1.835938 -0.175781 1.921875 -0.15625 C 2.003906 -0.132812 2.140625 -0.117188 2.328125 -0.109375 L 2.328125 0 L 0.078125 0 L 0.078125 -0.109375 C 0.242188 -0.117188 0.367188 -0.132812 0.453125 -0.15625 C 0.535156 -0.175781 0.59375 -0.222656 0.625 -0.296875 C 0.664062 -0.367188 0.6875 -0.484375 0.6875 -0.640625 L 0.6875 -3.625 C 0.6875 -3.78125 0.664062 -3.894531 0.625 -3.96875 C 0.582031 -4.050781 0.519531 -4.101562 0.4375 -4.125 C 0.351562 -4.144531 0.234375 -4.15625 0.078125 -4.15625 L 0.078125 -4.265625 L 3.625 -4.265625 Z M 3.625 -3.109375 "/></g></g></g><g fill="#4c4c4a" fill-opacity="1"><g transform="translate(68.18609, 5.451449)"><g><path d="M 3.859375 -3.09375 C 3.859375 -2.832031 3.773438 -2.609375 3.609375 -2.421875 C 3.441406 -2.234375 3.210938 -2.101562 2.921875 -2.03125 L 3.765625 -0.65625 C 3.878906 -0.476562 3.976562 -0.34375 4.0625 -0.25 C 4.15625 -0.164062 4.253906 -0.117188 4.359375 -0.109375 L 4.359375 0 L 3.09375 0 L 1.90625 -1.953125 L 1.703125 -1.953125 L 1.703125 -0.640625 C 1.703125 -0.484375 1.722656 -0.367188 1.765625 -0.296875 C 1.816406 -0.222656 1.882812 -0.175781 1.96875 -0.15625 C 2.050781 -0.132812 2.175781 -0.117188 2.34375 -0.109375 L 2.34375 0 L 0.125 0 L 0.125 -0.109375 C 0.28125 -0.117188 0.394531 -0.132812 0.46875 -0.15625 C 0.550781 -0.175781 0.613281 -0.222656 0.65625 -0.296875 C 0.695312 -0.378906 0.71875 -0.492188 0.71875 -0.640625 L 0.71875 -3.6875 C 0.71875 -3.875 0.671875 -4 0.578125 -4.0625 C 0.484375 -4.125 0.332031 -4.15625 0.125 -4.15625 L 0.125 -4.265625 L 2.3125 -4.265625 C 2.769531 -4.265625 3.140625 -4.160156 3.421875 -3.953125 C 3.710938 -3.753906 3.859375 -3.46875 3.859375 -3.09375 Z M 2.046875 -2.171875 C 2.253906 -2.171875 2.441406 -2.234375 2.609375 -2.359375 C 2.773438 -2.492188 2.859375 -2.742188 2.859375 -3.109375 C 2.859375 -3.734375 2.554688 -4.046875 1.953125 -4.046875 L 1.703125 -4.046875 L 1.703125 -2.171875 Z M 2.046875 -2.171875 "/></g></g></g><g fill="#4c4c4a" fill-opacity="1"><g transform="translate(74.633868, 5.451449)"><g><path d="M 0.796875 -0.859375 L 2.234375 -4.34375 L 2.296875 -4.34375 L 3.734375 -0.84375 C 3.828125 -0.601562 3.921875 -0.421875 4.015625 -0.296875 C 4.109375 -0.171875 4.226562 -0.109375 4.375 -0.109375 L 4.375 0 L 2.375 0 L 2.375 -0.109375 C 2.582031 -0.117188 2.71875 -0.132812 2.78125 -0.15625 C 2.84375 -0.1875 2.875 -0.25 2.875 -0.34375 C 2.875 -0.375 2.863281 -0.40625 2.84375 -0.4375 C 2.832031 -0.476562 2.828125 -0.507812 2.828125 -0.53125 L 2.5625 -1.203125 L 1.1875 -1.203125 L 1 -0.734375 C 0.9375 -0.617188 0.90625 -0.519531 0.90625 -0.4375 C 0.90625 -0.3125 0.953125 -0.222656 1.046875 -0.171875 C 1.140625 -0.128906 1.273438 -0.109375 1.453125 -0.109375 L 1.453125 0 L 0.09375 0 L 0.09375 -0.109375 C 0.226562 -0.117188 0.351562 -0.179688 0.46875 -0.296875 C 0.582031 -0.421875 0.691406 -0.609375 0.796875 -0.859375 Z M 2.46875 -1.4375 L 1.875 -2.859375 L 1.28125 -1.4375 Z M 2.46875 -1.4375 "/></g></g></g><g fill="#4c4c4a" fill-opacity="1"><g transform="translate(80.771058, 5.451449)"><g><path d="M 2.53125 -4.359375 C 2.738281 -4.359375 2.921875 -4.335938 3.078125 -4.296875 C 3.234375 -4.265625 3.390625 -4.210938 3.546875 -4.140625 C 3.660156 -4.097656 3.742188 -4.078125 3.796875 -4.078125 C 3.878906 -4.078125 3.9375 -4.097656 3.96875 -4.140625 C 4.007812 -4.179688 4.046875 -4.253906 4.078125 -4.359375 L 4.203125 -4.359375 L 4.203125 -2.90625 L 4.078125 -2.90625 C 3.953125 -3.289062 3.757812 -3.585938 3.5 -3.796875 C 3.238281 -4.015625 2.945312 -4.125 2.625 -4.125 C 2.226562 -4.125 1.921875 -3.9375 1.703125 -3.5625 C 1.484375 -3.195312 1.375 -2.691406 1.375 -2.046875 C 1.375 -1.253906 1.523438 -0.722656 1.828125 -0.453125 C 1.953125 -0.335938 2.082031 -0.253906 2.21875 -0.203125 C 2.351562 -0.148438 2.488281 -0.125 2.625 -0.125 C 2.8125 -0.125 3.007812 -0.171875 3.21875 -0.265625 L 3.21875 -1.3125 C 3.21875 -1.570312 3.050781 -1.703125 2.71875 -1.703125 L 2.6875 -1.703125 L 2.6875 -1.8125 L 4.703125 -1.8125 L 4.703125 -1.703125 C 4.367188 -1.703125 4.203125 -1.570312 4.203125 -1.3125 L 4.203125 -0.265625 C 4.003906 -0.148438 3.757812 -0.0625 3.46875 0 C 3.175781 0.0625 2.882812 0.09375 2.59375 0.09375 C 2.113281 0.09375 1.695312 0 1.34375 -0.1875 C 1 -0.375 0.734375 -0.628906 0.546875 -0.953125 C 0.367188 -1.273438 0.28125 -1.640625 0.28125 -2.046875 C 0.28125 -2.460938 0.378906 -2.847656 0.578125 -3.203125 C 0.773438 -3.554688 1.046875 -3.835938 1.390625 -4.046875 C 1.734375 -4.253906 2.113281 -4.359375 2.53125 -4.359375 Z M 2.53125 -4.359375 "/></g></g></g><g fill="#4c4c4a" fill-opacity="1"><g transform="translate(87.541841, 5.451449)"><g><path d="M 3.859375 -3.09375 C 3.859375 -2.832031 3.773438 -2.609375 3.609375 -2.421875 C 3.441406 -2.234375 3.210938 -2.101562 2.921875 -2.03125 L 3.765625 -0.65625 C 3.878906 -0.476562 3.976562 -0.34375 4.0625 -0.25 C 4.15625 -0.164062 4.253906 -0.117188 4.359375 -0.109375 L 4.359375 0 L 3.09375 0 L 1.90625 -1.953125 L 1.703125 -1.953125 L 1.703125 -0.640625 C 1.703125 -0.484375 1.722656 -0.367188 1.765625 -0.296875 C 1.816406 -0.222656 1.882812 -0.175781 1.96875 -0.15625 C 2.050781 -0.132812 2.175781 -0.117188 2.34375 -0.109375 L 2.34375 0 L 0.125 0 L 0.125 -0.109375 C 0.28125 -0.117188 0.394531 -0.132812 0.46875 -0.15625 C 0.550781 -0.175781 0.613281 -0.222656 0.65625 -0.296875 C 0.695312 -0.378906 0.71875 -0.492188 0.71875 -0.640625 L 0.71875 -3.6875 C 0.71875 -3.875 0.671875 -4 0.578125 -4.0625 C 0.484375 -4.125 0.332031 -4.15625 0.125 -4.15625 L 0.125 -4.265625 L 2.3125 -4.265625 C 2.769531 -4.265625 3.140625 -4.160156 3.421875 -3.953125 C 3.710938 -3.753906 3.859375 -3.46875 3.859375 -3.09375 Z M 2.046875 -2.171875 C 2.253906 -2.171875 2.441406 -2.234375 2.609375 -2.359375 C 2.773438 -2.492188 2.859375 -2.742188 2.859375 -3.109375 C 2.859375 -3.734375 2.554688 -4.046875 1.953125 -4.046875 L 1.703125 -4.046875 L 1.703125 -2.171875 Z M 2.046875 -2.171875 "/></g></g></g><g fill="#4c4c4a" fill-opacity="1"><g transform="translate(93.989619, 5.451449)"><g><path d="M 0.796875 -0.859375 L 2.234375 -4.34375 L 2.296875 -4.34375 L 3.734375 -0.84375 C 3.828125 -0.601562 3.921875 -0.421875 4.015625 -0.296875 C 4.109375 -0.171875 4.226562 -0.109375 4.375 -0.109375 L 4.375 0 L 2.375 0 L 2.375 -0.109375 C 2.582031 -0.117188 2.71875 -0.132812 2.78125 -0.15625 C 2.84375 -0.1875 2.875 -0.25 2.875 -0.34375 C 2.875 -0.375 2.863281 -0.40625 2.84375 -0.4375 C 2.832031 -0.476562 2.828125 -0.507812 2.828125 -0.53125 L 2.5625 -1.203125 L 1.1875 -1.203125 L 1 -0.734375 C 0.9375 -0.617188 0.90625 -0.519531 0.90625 -0.4375 C 0.90625 -0.3125 0.953125 -0.222656 1.046875 -0.171875 C 1.140625 -0.128906 1.273438 -0.109375 1.453125 -0.109375 L 1.453125 0 L 0.09375 0 L 0.09375 -0.109375 C 0.226562 -0.117188 0.351562 -0.179688 0.46875 -0.296875 C 0.582031 -0.421875 0.691406 -0.609375 0.796875 -0.859375 Z M 2.46875 -1.4375 L 1.875 -2.859375 L 1.28125 -1.4375 Z M 2.46875 -1.4375 "/></g></g></g><g fill="#4c4c4a" fill-opacity="1"><g transform="translate(100.437398, 5.451449)"><g><path d="M 3.953125 -1.5 L 3.953125 -3.625 C 3.953125 -3.8125 3.898438 -3.945312 3.796875 -4.03125 C 3.703125 -4.113281 3.539062 -4.15625 3.3125 -4.15625 L 3.3125 -4.265625 L 4.703125 -4.265625 L 4.703125 -4.15625 C 4.523438 -4.15625 4.390625 -4.101562 4.296875 -4 C 4.210938 -3.90625 4.171875 -3.78125 4.171875 -3.625 L 4.171875 0.0625 L 4.0625 0.0625 L 0.921875 -3.5 L 0.921875 -0.625 C 0.921875 -0.425781 0.96875 -0.289062 1.0625 -0.21875 C 1.164062 -0.144531 1.328125 -0.109375 1.546875 -0.109375 L 1.59375 -0.109375 L 1.59375 0 L 0.09375 0 L 0.09375 -0.109375 C 0.5 -0.109375 0.703125 -0.273438 0.703125 -0.609375 L 0.703125 -3.75 C 0.671875 -3.769531 0.613281 -3.820312 0.53125 -3.90625 C 0.457031 -3.988281 0.382812 -4.050781 0.3125 -4.09375 C 0.25 -4.132812 0.175781 -4.15625 0.09375 -4.15625 L 0.09375 -4.265625 L 1.515625 -4.265625 Z M 3.953125 -1.5 "/></g></g></g><g fill="#4c4c4a" fill-opacity="1"><g transform="translate(107.208181, 5.451449)"><g><path d="M 2.5 -4.359375 C 2.71875 -4.359375 2.894531 -4.335938 3.03125 -4.296875 C 3.175781 -4.265625 3.332031 -4.21875 3.5 -4.15625 C 3.507812 -4.144531 3.546875 -4.125 3.609375 -4.09375 C 3.679688 -4.070312 3.75 -4.0625 3.8125 -4.0625 C 3.96875 -4.0625 4.0625 -4.160156 4.09375 -4.359375 L 4.21875 -4.359375 L 4.21875 -2.921875 L 4.09375 -2.921875 C 4.0625 -3.160156 3.976562 -3.367188 3.84375 -3.546875 C 3.707031 -3.722656 3.546875 -3.859375 3.359375 -3.953125 C 3.171875 -4.046875 2.976562 -4.09375 2.78125 -4.09375 C 2.488281 -4.09375 2.238281 -4.007812 2.03125 -3.84375 C 1.820312 -3.675781 1.660156 -3.441406 1.546875 -3.140625 C 1.441406 -2.835938 1.390625 -2.5 1.390625 -2.125 C 1.390625 -1.519531 1.507812 -1.039062 1.75 -0.6875 C 1.988281 -0.34375 2.320312 -0.171875 2.75 -0.171875 C 3.019531 -0.171875 3.257812 -0.234375 3.46875 -0.359375 C 3.6875 -0.492188 3.910156 -0.691406 4.140625 -0.953125 L 4.140625 -0.609375 C 3.898438 -0.367188 3.65625 -0.191406 3.40625 -0.078125 C 3.15625 0.0351562 2.867188 0.09375 2.546875 0.09375 C 2.085938 0.09375 1.6875 0 1.34375 -0.1875 C 1.007812 -0.382812 0.75 -0.644531 0.5625 -0.96875 C 0.375 -1.300781 0.28125 -1.664062 0.28125 -2.0625 C 0.28125 -2.476562 0.378906 -2.859375 0.578125 -3.203125 C 0.785156 -3.554688 1.054688 -3.835938 1.390625 -4.046875 C 1.734375 -4.253906 2.101562 -4.359375 2.5 -4.359375 Z M 2.5 -4.359375 "/></g></g></g><g fill="#4c4c4a" fill-opacity="1"><g transform="translate(113.655959, 5.451449)"><g><path d="M 3.71875 -3.046875 L 3.59375 -3.046875 C 3.539062 -3.367188 3.425781 -3.613281 3.25 -3.78125 C 3.070312 -3.957031 2.84375 -4.046875 2.5625 -4.046875 L 1.734375 -4.046875 L 1.734375 -2.296875 L 1.859375 -2.296875 C 2.015625 -2.296875 2.144531 -2.316406 2.25 -2.359375 C 2.351562 -2.410156 2.4375 -2.507812 2.5 -2.65625 C 2.570312 -2.800781 2.625 -3.003906 2.65625 -3.265625 L 2.78125 -3.265625 L 2.78125 -1.09375 L 2.65625 -1.09375 C 2.613281 -1.476562 2.523438 -1.734375 2.390625 -1.859375 C 2.265625 -1.992188 2.097656 -2.0625 1.890625 -2.0625 L 1.734375 -2.0625 L 1.734375 -0.6875 C 1.734375 -0.507812 1.757812 -0.390625 1.8125 -0.328125 C 1.863281 -0.265625 1.96875 -0.234375 2.125 -0.234375 L 2.5625 -0.234375 C 2.925781 -0.234375 3.210938 -0.332031 3.421875 -0.53125 C 3.628906 -0.726562 3.789062 -0.988281 3.90625 -1.3125 L 4.015625 -1.3125 L 3.8125 0 L 0.109375 0 L 0.109375 -0.109375 L 0.25 -0.109375 C 0.394531 -0.109375 0.5 -0.128906 0.5625 -0.171875 C 0.632812 -0.222656 0.679688 -0.28125 0.703125 -0.34375 C 0.722656 -0.414062 0.734375 -0.515625 0.734375 -0.640625 L 0.734375 -3.65625 C 0.734375 -3.851562 0.6875 -3.984375 0.59375 -4.046875 C 0.5 -4.117188 0.335938 -4.15625 0.109375 -4.15625 L 0.109375 -4.265625 L 3.71875 -4.265625 Z M 3.71875 -3.046875 "/></g></g></g></g></g></svg>