<?xml version="1.0" encoding="UTF-8"?>
<svg id="_图层_1" data-name="图层_1" xmlns="http://www.w3.org/2000/svg" version="1.1" viewBox="0 0 200 70">
  <!-- Generator: Adobe Illustrator 29.1.0, SVG Export Plug-In . SVG Version: 2.1.0 Build 142)  -->
  <defs>
    <style>
      .st0 {
        fill: #fff;
      }
    </style>
  </defs>
  <path class="st0" d="M24.9,17.5h-6.3c-.3,0-.6,0-1,0-.4,0-.9,0-1.3,0-.4,0-.8,0-1,0,0,0-.1-.2-.2-.4,0-.2-.2-.4-.2-.6,0-.2,0-.4-.1-.4.2,0,.4,0,.8,0,.4,0,.8,0,1.3,0,.5,0,.9,0,1.3,0h3.7c.2-.3.3-.5.6-.7s.4-.4.7-.6c0,0,0,0,.1,0,0,0,.2,0,.4.2.2.1.5.3.7.5.3.2.5.4.6.6.2.2.3.4.3.6s0,.3-.1.4c0,.1-.2.2-.3.2ZM20.3,31.4v-8.8h-1.7c0,1.7-.1,3.2-.4,4.4-.2,1.3-.6,2.4-1.2,3.3-.6.9-1.4,1.8-2.4,2.4s-2.3,1.2-3.8,1.7h0s0,0,0,0c0,0-.2,0-.2,0s0-.1,0-.2c0,0,0-.2.2-.2,1.3-.5,2.3-1.1,3.1-1.9.8-.7,1.4-1.5,1.9-2.4.4-.9.8-2,.9-3.1.2-1.2.3-2.5.3-4-.3,0-.7,0-1,0-.4,0-.7,0-1.1,0-.3,0-.6,0-.8,0,0,0-.1-.2-.2-.4,0-.2-.2-.4-.2-.6,0-.2,0-.4-.1-.4.2,0,.4,0,.8,0,.4,0,.8,0,1.3,0,.5,0,.9,0,1.3,0h5.9c.2-.3.4-.5.6-.8.2-.3.5-.5.7-.8,0,0,0,0,.1,0,0,0,.2,0,.4.2.2.2.5.3.8.6.3.2.5.5.7.7.2.2.3.4.3.6s0,.3-.1.4c0,0-.2.1-.3.1h-3.9v8.4c0,.3,0,.5.2.7.2.2.5.3,1,.3s.8,0,1.1-.2c.3-.1.5-.5.6-1,0-.2.1-.5.2-.9,0-.3.2-.7.2-1.1,0-.4.1-.7.2-1,0,0,0-.1.2-.1s.1,0,.2,0c0,0,.1,0,.1.1h0c0,.3,0,.7,0,1.2,0,.4,0,.8,0,1.2,0,.4,0,.6,0,.6,0,.2,0,.3,0,.4,0,0,.1.2.3.2.1,0,.2.2.3.3,0,.1.1.3.1.5,0,.4-.2.7-.5.9-.3.2-.7.3-1.3.4-.5,0-1.1.1-1.8.1s-1.2,0-1.6-.2c-.4-.1-.8-.3-1-.6-.2-.3-.3-.8-.3-1.5ZM7.7,27.6v-9.1c0-.3,0-.7,0-1.1,0-.4,0-.9,0-1.3,0-.4,0-.8-.1-1.1.2,0,.5.2.9.4.4.2.8.3,1.1.5h2c.1-.1.3-.2.4-.4.2-.1.3-.2.4-.3,0,0,0,0,0,0s0,0,.1,0c.2,0,.5.2.7.4.3.2.5.3.7.5.2.2.3.3.3.5s0,.2-.2.3c-.1,0-.3.2-.6.2-.3.7-.6,1.5-1.1,2.4-.4.9-.9,1.7-1.4,2.4.4.3.8.7,1.2,1.1.4.4.7.9,1,1.5.3.6.4,1.2.4,2s-.1,1.3-.4,1.8c-.2.4-.5.8-.9,1-.3.2-.6.3-.9.4-.3,0-.4,0-.5,0s-.1,0-.2,0c0,0,0-.1-.1-.2,0-.3-.2-.5-.4-.7-.2-.2-.5-.4-.9-.6v1.4c0,.6,0,1.2,0,1.8,0,.6,0,1.1,0,1.6v.5c0,.2,0,.4,0,.5h0c0,0,0,.2,0,.3,0,.1-.2.2-.3.3-.2,0-.4.1-.8.1s-.7-.2-.7-.6h0c0-.2,0-.3,0-.5,0-.2,0-.3,0-.5,0-.4,0-.9,0-1.5,0-.6,0-1.1,0-1.7,0-.6,0-1.1,0-1.5,0-.4,0-.7,0-.9ZM11.6,16.9h-2.2v10.9c.2,0,.4,0,.7,0,.3,0,.5,0,.7,0s.5-.1.8-.4c.2-.3.4-.7.4-1.5s0-1.3-.3-1.9c-.2-.7-.4-1.3-.8-1.8,0,0,0,0-.1,0,0,0-.1,0-.1,0,0,0-.1-.1-.1-.3s0-.2,0-.2c0,0,0-.1.1-.2.2-.7.4-1.5.5-2.3.2-.8.3-1.6.4-2.4Z"/>
  <path class="st0" d="M57,19.9h-8c-.2,0-.5,0-1,0-.4,0-1,0-1.5,0-.6,0-1.1,0-1.6,0-.5,0-1,0-1.4,0-.4,0-.7,0-.9,0,0,0-.1-.2-.2-.4,0-.2-.2-.4-.2-.7,0-.2-.1-.4-.1-.5.3,0,.8.1,1.4.1.6,0,1.3,0,2,0,.7,0,1.4,0,2.1,0,.7,0,1.3,0,1.8,0,.5,0,.9,0,1.1,0h2.8c.2-.3.4-.6.6-.9.2-.3.4-.6.6-.8.2-.2.3-.3.4-.3s0,0,.1,0c.1,0,.3.2.5.4.3.2.5.4.8.7.3.3.5.5.8.8.2.3.3.5.3.6s0,.2-.1.3c0,0-.2.1-.3.1ZM59,31.3h-11.2c-.2,0-.5,0-1,0-.5,0-1,0-1.7,0-.6,0-1.2,0-1.8,0-.6,0-1.1,0-1.6,0-.4,0-.7,0-.9,0,0,0-.1-.2-.2-.4,0-.2-.2-.4-.3-.6,0-.2,0-.4-.1-.5.3,0,.8.1,1.5.1.7,0,1.4,0,2.2,0,.8,0,1.6,0,2.3,0,.8,0,1.4,0,2,0h7c0-.1.2-.3.4-.5.2-.2.3-.4.5-.7.2-.2.4-.4.5-.6.1-.2.2-.2.3-.2s.2.1.5.3c.3.2.6.4.9.7.3.3.6.6.8.9.2.3.4.5.4.7s0,.2-.1.3c0,0-.2.1-.3.1Z"/>
  <path class="st0" d="M88,21.5v-4.3h-8.9c-.3,0-.7,0-1.2,0-.4,0-.9,0-1.3,0-.4,0-.8,0-1.2,0-.3,0-.6,0-.7,0,0,0-.2-.2-.3-.4,0-.2-.1-.4-.2-.6,0-.2,0-.4,0-.4.1,0,.4,0,.8,0,.4,0,.8,0,1.3,0,.5,0,1,0,1.5,0,.5,0,1,0,1.4,0h9.6c.1-.2.3-.4.6-.7s.5-.5.7-.8c0,0,.1,0,.1,0,0,0,.2,0,.4.2.2.1.5.3.8.5.3.2.5.5.7.7.2.2.3.4.3.6s0,.3-.1.4c0,0-.2.1-.3.1h-2.4v2.4c0,.3,0,.6,0,1,0,.4,0,.7,0,.9v.3c0,.3,0,.6-.2,1,0,.3-.3.6-.6.9-.3.3-.8.5-1.5.6h0c0,0-.1,0-.2,0,0,0,0-.1-.1-.2-.1-.3-.3-.5-.7-.7-.3-.1-.8-.3-1.5-.4,0,0,0,0,0-.2s0-.1,0-.2c0,0,0-.1.1-.1.3,0,.6,0,.9.1.3,0,.6,0,.8,0,.5,0,.8,0,.9-.3.2-.2.3-.5.3-.9ZM85.2,22.1h0c0,.2,0,.3-.2.4-.1,0-.3.1-.5.2-.2,0-.3,0-.4,0-.5,0-.8-.2-.8-.5h-4.3c0,0,0,.1,0,.2v.2c0,.2,0,.3-.3.4-.2.1-.4.2-.7.2s-.6,0-.7-.1c-.1,0-.2-.2-.2-.4h0c0-.4,0-.7,0-1.1,0-.4,0-.8,0-1.1v-1.2c0-.3,0-.6,0-.8,0-.3,0-.5,0-.8.3,0,.6.1,1,.3.4,0,.7.2,1,.3h4.2s0,0,.2-.1c.1,0,.2-.2.4-.3.1,0,.2-.1.3-.1,0,0,.2,0,.4.1.2,0,.4.2.6.3.2.1.4.3.6.4.2.1.2.3.2.4,0,.2-.2.4-.7.5,0,0,0,.2,0,.3v.5h0c0,.2,0,.3,0,.5,0,.2,0,.4,0,.5v.3c0,0,0,.2,0,.3ZM88,31.2v-5.7h-9.8c-.3,0-.7,0-1.2,0-.4,0-.9,0-1.3,0-.4,0-.8,0-1.1,0-.3,0-.6,0-.7,0,0,0-.1-.2-.2-.4,0-.2-.1-.4-.2-.6,0-.2,0-.4-.1-.4.2,0,.4,0,.8,0,.4,0,.8,0,1.3,0,.5,0,1,0,1.5,0,.5,0,1,0,1.4,0h11.2c.2-.2.3-.4.6-.7.2-.3.5-.5.7-.7,0,0,.1,0,.1,0,0,0,.2,0,.4.2.2.1.5.3.7.5.3.2.5.5.7.7.2.2.3.4.3.6s0,.3-.1.4c0,0-.2.1-.3.1h-2.8v3.9c0,.2,0,.5,0,.7,0,.3,0,.5,0,.7,0,.2,0,.4,0,.5,0,.6-.1,1.1-.3,1.5-.2.4-.4.7-.7.9-.3.2-.6.4-.9.5-.3.1-.5.2-.8.2s-.3,0-.3,0c-.2,0-.3,0-.3-.3-.2-.4-.5-.7-1-.9-.5-.2-1.1-.3-1.9-.4,0,0,0,0,0-.2s0-.2,0-.3c0,0,0-.1.1-.1.6,0,1.2.1,1.6.2.4,0,.8,0,1.1,0,1,0,1.5-.4,1.5-1.3ZM85.2,31.1h0c0,.1,0,.3-.3.4-.2.1-.5.2-.8.2-.5,0-.8-.2-.8-.5h0s0-.3,0-.3h-4.4v.6c0,0,0,.2,0,.3,0,.2-.1.4-.4.5-.3,0-.5.1-.8.1s-.4,0-.6-.1c-.1,0-.2-.2-.2-.4h0c0-.6.1-1,.1-1.4,0-.4,0-.6,0-.8v-1.2c0-.3,0-.7,0-1.2,0-.5,0-.9-.1-1.4.3,0,.7.2,1.1.3.4.1.8.3,1.1.4h4c.5-.5.8-.7.9-.7s.1,0,.3.1c.2,0,.4.2.6.4.2.1.4.3.6.4.2.2.3.3.3.4,0,.3-.3.5-.8.6,0,0,0,.2,0,.3v.6h0c0,.3,0,.5,0,.8,0,.3,0,.5,0,.8v.3c0,0,0,.2,0,.3ZM83.4,20.5v-1.1h-4.4v1.8h4.4c0-.2,0-.3,0-.4v-.3ZM83.4,29.9v-2h-4.5v2h4.5Z"/>
  <path class="st0" d="M126.1,20.4h-2.7c-.5,3.3-1.5,6-3,8,.8,1,1.8,1.9,2.9,2.6,1.1.7,2.2,1.2,3.5,1.6,0,0,0,0,0,.1s0,.1,0,.2c0,0,0,.1-.1.1-.4,0-.7.2-1.1.4-.4.2-.7.4-.9.7,0,0,0,0-.1,0s-.2,0-.5-.3c-.3-.2-.7-.4-1.2-.8-.5-.4-1-.8-1.6-1.4s-1.1-1.3-1.7-2.1c-.6.7-1.3,1.3-2,1.9-.8.5-1.5,1-2.2,1.4-.7.4-1.4.7-2,1-.6.3-1.1.5-1.5.6-.4.1-.5.2-.5.2,0,0-.2,0-.2-.1,0,0,0-.2,0-.2s0,0,0-.1c1.8-.8,3.3-1.7,4.5-2.6,1.3-1,2.3-2,3.2-3.3-.5-1-1-2.1-1.3-3.3-.4-1.2-.6-2.6-.8-4-.5,1-1.1,1.8-1.6,2.5-.5.7-.9,1.1-1.2,1.5s-.5.5-.6.5c-.2,0-.3,0-.3-.3s0,0,0,0c.7-.9,1.3-1.9,1.7-3,.5-1.1.8-2.1,1.1-3.1.3-1,.5-1.9.6-2.6.1-.8.2-1.4.2-1.8.2,0,.4,0,.7.1.3,0,.7.2,1,.3.3,0,.6.2.8.3.2.1.4.3.4.4s0,.2-.3.4c-.2,0-.4.1-.8.1-.2.5-.3,1-.5,1.5-.2.5-.4,1-.6,1.5h6.1c.1-.2.3-.4.4-.7.2-.3.3-.4.5-.6,0,0,0,0,.1,0s.1,0,.4.2c.2.1.4.3.7.5s.5.4.7.7c.2.2.3.4.3.6s0,.2-.1.3c0,0-.2.1-.3.1ZM114.7,27.6h0s0,0,.1.1c0,0,0,.1,0,.2s0,.1,0,.1c-1.3.7-2.4,1.3-3.5,1.8-1.1.4-2.1.8-3,1.2,0,0,0,0,0,.1h0c0,.5-.1.7-.3.7s-.2,0-.4-.3c-.1-.2-.3-.4-.4-.7-.1-.3-.3-.6-.4-.8,0-.3-.2-.5-.2-.7.5,0,.8,0,1.1,0,.3,0,.6,0,.9-.1.3,0,.7-.1,1.1-.2v-5.7c-.7,0-1.4,0-2.1.1h0c0,0-.1-.2-.2-.4,0-.2-.1-.4-.2-.6,0-.2,0-.3-.1-.4.3,0,.7,0,1.2.1.5,0,.9,0,1.4,0v-4.4h-.3c-.7,0-1.4,0-2.1.1h0c0,0-.1-.2-.2-.4,0-.2-.2-.4-.2-.6,0-.2,0-.3-.1-.4.4,0,.8.1,1.4.1.6,0,1.1,0,1.6,0h2c.2-.3.4-.6.6-.8.2-.3.4-.4.4-.4s.2,0,.4.2c.2.1.4.3.6.5.2.2.4.4.6.6.2.2.3.4.3.6s0,.3-.1.4c0,0-.2.1-.3.1h-2.7v4.4h.2c.2-.5.4-.8.6-1,.2-.1.2-.2.2-.2,0,0,.1,0,.3.2.2.1.3.3.5.5.2.2.4.4.5.6.1.2.2.4.2.6,0,.3-.1.4-.4.4h-2.1v5.3c.5-.1,1-.2,1.5-.4.5-.2,1-.3,1.5-.5ZM121.3,20.4h-4.4c.3,1.3.6,2.6,1,3.7.4,1.1.9,2.1,1.5,3,.5-.9.9-2,1.3-3.1.3-1.1.5-2.3.7-3.6Z"/>
  <path class="st0" d="M152.3,31.4v-6.3c0,0-2.7,0-2.7,0v.5c0,0,0,.2-.2.3,0,.2-.4.2-.9.2s-.8-.2-.8-.5h0c0-.3,0-.7.1-1.2,0-.5,0-1.2,0-2.1v-3.9c0-.4,0-.7,0-1.1,0-.4,0-.8-.1-1,.3,0,.7.1,1.1.3.4.1.8.2,1,.4h.7s0-.1,0-.4c0-.2.1-.5.2-.9,0-.4,0-.8,0-1.3,1.1.2,1.9.3,2.3.4.5.1.7.3.7.5,0,.3-.3.4-.8.4h-.1c-.2.2-.4.4-.7.6-.2.2-.5.4-.7.6h4.3c.1-.1.3-.3.5-.5.2-.2.4-.3.4-.3s.1,0,.3.1c.2,0,.4.2.6.4.2.1.4.3.6.5.2.2.3.3.3.5s0,.2-.2.3c0,.1-.3.2-.6.3,0,.2,0,.5,0,.9v2.4c0,.4,0,.6,0,.6v.5c0,.3,0,.6,0,1,0,.4,0,.7,0,1,0,.3,0,.5,0,.6h0c0,.2,0,.3-.2.4-.2,0-.3.1-.5.1-.2,0-.3,0-.3,0-.5,0-.8-.1-.8-.4h0v-.2c0,0,0-.1,0-.1h-2.2v6c0,.6.1.9.5,1,.4.1.9.2,1.4.2s.9,0,1.3,0c.4,0,.7-.2.9-.5.3-.2.5-.6.6-1.1.2-.5.3-1.3.5-2.3,0,0,0,0,.2,0s.1,0,.2,0c0,0,.1,0,.1.1-.1.9-.2,1.6-.3,2,0,.4,0,.7,0,.8,0,.2,0,.3.1.4.1,0,.3.2.4.3.1,0,.2.3.2.5s0,.3-.1.5c0,.2-.3.3-.6.4-.3.1-.7.3-1.3.3-.6,0-1.3.1-2.3.1s-1.2,0-1.8-.1c-.5,0-1-.3-1.3-.6-.3-.3-.5-.9-.5-1.7h0ZM157.2,29.7c-.3.2-.7.3-1,.5-.4.1-.7.3-1,.4h0c0,.4,0,.5-.3.5s-.2-.1-.3-.4c-.1-.3-.2-.5-.3-.8,0-.3-.1-.5-.2-.6.1,0,.3,0,.4,0h.4c0-.4.1-.9.2-1.3,0-.4,0-.8,0-1.1,0-.4,0-.6,0-.7v-.2c.6,0,1.1.1,1.3.2.3,0,.4.2.5.3,0,0,.1.1.1.2,0,.2-.2.3-.6.3-.2.4-.3.8-.5,1.2-.2.4-.4.8-.5,1.1.3,0,.5,0,.8,0,.3,0,.5,0,.8-.1-.1-.4-.3-.9-.6-1.3,0,0,0,0,0,0h0c0-.1,0-.2.2-.2s.2,0,.4.2c.2.1.4.3.6.5.2.2.4.4.6.7.2.3.3.5.3.8s0,.5-.2.6c-.1.2-.3.3-.5.3s-.2,0-.3-.1c0-.1-.2-.3-.2-.4,0,0,0-.1,0-.2,0,0,0-.2,0-.3ZM147.3,27.4h0c0,0,.1,0,.1.1,0,0,0,.1,0,.2s0,.1,0,.1c-1,.7-2,1.3-3,1.9-1.1.6-2,1.1-2.9,1.5,0,.1,0,.3,0,.4,0,.3-.1.5-.3.5s-.2,0-.4-.3c-.2-.2-.3-.4-.5-.7-.2-.3-.3-.6-.4-.8-.1-.3-.2-.5-.3-.7.3,0,.7,0,1.1-.1.4,0,1.1-.3,1.9-.5v-5.8c-.2,0-.5,0-.8,0-.3,0-.6,0-1.1,0,0,0-.1-.2-.2-.4,0-.2-.2-.4-.2-.5,0-.2,0-.3,0-.4.4,0,.8,0,1.2.1.4,0,.8,0,1.2,0v-4.7c-.3,0-.6,0-.9,0-.3,0-.7,0-1.2,0,0,0-.1-.2-.2-.4,0-.2-.2-.4-.2-.6,0-.2,0-.3,0-.4.3,0,.7,0,1.1,0,.4,0,.8,0,1.3,0,.4,0,.7,0,.9,0h.9c.1-.2.2-.4.4-.6.2-.2.3-.4.5-.5.2-.1.3-.2.3-.2s.2,0,.4.2c.2.1.4.3.6.5.2.2.4.4.6.6.2.2.3.4.3.5s0,.3-.1.4c0,0-.2.1-.3.1h-2.4v4.7h.2c0-.1.2-.3.3-.5,0-.2.2-.3.3-.5.1-.1.2-.2.3-.2s.1,0,.3.2c.2.1.4.3.6.4.2.2.4.3.5.5.2.2.2.4.2.5s0,.3-.1.4c0,.1-.1.2-.3.2h-2.3v5.3c.5-.2.9-.3,1.4-.5.5-.2,1-.4,1.5-.6ZM151.3,26.9c-.3,1.5-.8,2.8-1.5,3.8s-1.6,1.8-2.7,2.4c-1.1.6-2.3,1-3.6,1.3h0c0,0-.1,0-.2,0s0,0,0-.1,0-.1,0-.1c1.3-.5,2.4-1.1,3.2-1.7.8-.7,1.5-1.4,1.9-2.1.5-.8.8-1.5.9-2.3.2-.8.3-1.6.3-2.4.9.1,1.5.3,1.9.5.3.2.5.3.5.5s0,.2-.2.3-.3.1-.5.1h0ZM156.2,20.5v-2.4h-2.6v2.4h2.6ZM156.2,22.4v-.8h-2.6v2.5h2.6v-.8c0-.3,0-.6,0-.8ZM152,20.5v-2.4h-2.4v2.4h2.4ZM152,24.1v-2.5h-2.4v1.8c0,.3,0,.5,0,.8h2.4Z"/>
  <path class="st0" d="M192.1,33.9h0c0,.2,0,.3-.2.4-.2,0-.3.2-.5.2-.2,0-.3,0-.4,0-.3,0-.5,0-.6-.1-.2,0-.2-.2-.2-.4v-.6s-14.1,0-14.1,0h0v.4c0,.1,0,.3,0,.4,0,.2,0,.4-.3.5-.2,0-.4.2-.6.2-.2,0-.3,0-.4,0-.3,0-.5,0-.6-.1-.1,0-.2-.2-.2-.4h0c0,0,0-1,0-1,0-.8,0-1.7,0-2.7,0-1,0-1.9,0-2.8v-9.1c0-.4,0-.8,0-1.3,0-.5,0-1,0-1.4,0-.5,0-.8-.1-1.1.3,0,.6.2,1,.3.4.1.8.3,1.1.5h14c.3-.3.6-.5.7-.6,0,0,.2-.1.2-.1s0,0,0,0c.2,0,.4.2.6.4.3.2.5.4.8.6.2.2.3.4.3.5,0,.2-.2.4-.7.5,0,.3,0,.8,0,1.4,0,.6,0,1.4,0,2.2v7c0,.4,0,1.2,0,2.3,0,1.1,0,2.4.1,4ZM190.1,32.4v-.3c0-.2,0-.6,0-1v-14.3h-14.2v15.2c0,.2,0,.3,0,.4h14.2ZM189.1,22h-8.5c-.3,0-.6,0-1,0-.4,0-.8,0-1.2,0-.4,0-.7,0-.9,0,0,0-.1-.2-.2-.4,0-.2-.2-.4-.3-.6,0-.2,0-.4-.1-.4.2,0,.4,0,.8,0,.4,0,.8,0,1.2,0,.4,0,.8,0,1.2,0h2.1v-1.1h-.9c-.3,0-.6,0-1,0-.4,0-.8,0-1.2,0-.4,0-.7,0-.9,0,0,0-.1-.2-.2-.4,0-.2-.2-.4-.3-.6,0-.2,0-.3-.1-.4.2,0,.4,0,.8,0,.3,0,.7,0,1.1,0,.4,0,.8,0,1.2,0h1.4c0-.2,0-.4,0-.7,0-.3,0-.6,0-.9,0,0,.2,0,.5,0,.3,0,.6,0,.9,0,.3,0,.6.1.8.2.2,0,.4.2.4.4,0,.3-.2.4-.7.5v.2c0,0,0,.1,0,.2h1.9c.2-.3.4-.5.6-.7.2-.2.4-.3.4-.3s.2,0,.4.2c.2.1.4.3.6.5.2.2.4.4.6.6.2.2.3.4.3.5s0,.2-.1.3-.2.1-.3.1h-4.4c0,.2,0,.4,0,.6v.5h2.7c.2-.3.5-.6.7-.8s.4-.3.4-.3c0,0,.2,0,.4.2.2.1.4.3.6.5.3.2.5.4.6.6.2.2.3.3.3.5s0,.2-.1.3c0,0-.2.1-.3.1ZM185.3,26.5h-1.5c-.1.2-.2.3-.4.4v.7c.4,0,.8.2,1.1.3.3.1.7.2,1,.3.4-.4.7-.7,1-1.1.3-.3.4-.7.6-1,.5.2,1,.4,1.3.7.3.3.5.5.5.6s-.1.3-.4.3-.3,0-.5,0c-.3.2-.6.3-.9.4-.3.1-.6.2-1,.3.9.4,1.4.7,1.7,1,.3.3.4.7.4,1s0,.5-.2.6c-.1.1-.2.2-.4.2-.1,0-.2,0-.2,0-.3,0-.5-.2-.8-.6-.3-.3-.7-.8-1.2-1.3-.5-.5-1.2-1-2-1.4v1.1c0,.2,0,.4,0,.6s0,.5,0,.8c0,.3,0,.5,0,.6s0,.3-.1.4c0,.2-.4.2-.9.2s-.6-.2-.6-.5h0c0-.2,0-.3,0-.5s0-.4,0-.6c0-.2,0-.4,0-.6s0-.4,0-.6v-.6c-.5.4-1.1.8-1.6,1.2-.6.3-1.1.6-1.6.9-.5.2-.9.4-1.3.5s-.5.2-.6.2c-.2,0-.3,0-.3-.2s0-.1.1-.2c1.1-.6,2-1.2,3-1.9.9-.7,1.7-1.5,2.3-2.4h-1.5v.2h0c0,.2,0,.4-.2.5-.1.1-.4.2-.8.2s-.7-.2-.7-.5h0c0-.7,0-1.1,0-1.3,0-.2,0-.4,0-.6v-.8c0-.3,0-.6,0-.9,0-.3,0-.6-.1-.9.3,0,.6.1,1,.3.4.1.7.2,1,.3h4.7s0,0,.2-.2c.1-.1.2-.2.3-.3.1,0,.2-.1.3-.1,0,0,.3,0,.5.3.3.2.5.3.7.5.2.2.4.4.4.5s0,.2-.1.3-.2.2-.5.2c0,0,0,.2,0,.3,0,.1,0,.2,0,.2h0v.6c0,.1,0,.2,0,.3,0,0,0,.2,0,.4,0,.2,0,.3,0,.4s0,.2-.2.4c-.1.2-.4.2-.9.2s-.6-.1-.7-.4ZM185.4,25.4v-1.3h-4.9v1.3h4.9Z"/>
  <path class="st0" d="M16.6,45.4c0,.8-.3,1.6-.8,2.2-.6.6-1.3,1-2.3,1.2l3.1,5.1c.2.4.5.7.6.8.2.1.4.2.7.2h.1v.3h-2.5l-3.8-6.2h-.9v4.3c0,.5,0,.9.1,1.1,0,.2.3.4.5.4.2,0,.6,0,1,0v.3h-5.2v-.3c.5,0,.8,0,1.1,0,.2,0,.4-.2.5-.5,0-.2.1-.6.1-1.1v-9.2c0-.5,0-.9-.2-1.1,0-.2-.3-.4-.5-.4-.2,0-.6,0-1,0v-.3h5.5c.7,0,1.4.1,2,.4.6.3,1.1.7,1.4,1.2.3.5.5,1.1.5,1.7ZM10.8,43v5.3h.6c1,0,1.8-.3,2.3-.8.5-.6.7-1.2.7-2s-.2-1.5-.6-2c-.4-.5-1-.8-1.8-.8s-.9,0-1.2.2Z"/>
  <path class="st0" d="M24.6,52.8c0,.4,0,.8.2,1,.2.3.4.4.8.4s.6-.1.9-.3c.3-.2.6-.5.8-.9v-5c0-.5,0-.9-.3-1.1-.2-.2-.5-.3-.8-.3v-.3h2.7v6.9c0,.3,0,.6,0,.7,0,0,.2.1.4.1s.2,0,.4,0v.3c.1,0-2.1,1.1-2.1,1.1h-.3v-1.8h0c-.3.5-.6,1-1.1,1.3-.4.3-.9.5-1.4.5s-1-.2-1.4-.7c-.3-.4-.5-1-.5-1.6v-5c0-.9-.3-1.4-1-1.4v-.3h2.5v6.5Z"/>
  <path class="st0" d="M38.2,46.1c.8,0,1.4.2,1.8.6s.6.9.6,1.4v5.3c0,.6.2.8.5.8s.2,0,.3,0c0,0,.2-.1.4-.3v.3c-.2.4-.5.7-.8.9-.3.2-.6.3-.8.3s-.6-.1-.8-.4c-.2-.3-.3-.7-.3-1.2h0c-.6,1.1-1.3,1.6-2.1,1.6s-1-.2-1.4-.6c-.4-.4-.5-.9-.5-1.5s.2-1.1.5-1.5c.3-.5,1-1,1.9-1.5l1.7-.9v-1.4c0-.4,0-.8-.3-1.1-.2-.3-.5-.4-.9-.4s-.6.1-.8.3c-.2.2-.3.5-.3.8s0,.3,0,.5c0,.2,0,.3,0,.4,0,.2,0,.3-.2.5-.1.1-.3.2-.5.2s-.5,0-.6-.3c-.1-.2-.2-.4-.2-.7s.1-.7.4-1.1c.3-.3.6-.6,1.1-.8.4-.2.9-.3,1.5-.3ZM36.5,52.8c0,.4,0,.8.3,1.1s.5.4.8.4c.5,0,.9-.3,1.4-1v-3.3c-.9.5-1.6.9-1.9,1.3-.4.4-.6.9-.6,1.5Z"/>
  <path class="st0" d="M49.1,46.1v1.8h0c.4-.6.8-1.1,1.2-1.3.4-.3.8-.4,1.2-.4.6,0,1.1.2,1.4.7.3.5.4,1.1.4,1.8v5.1c0,.3,0,.6.2.8.2.2.4.3.7.3v.3h-3.6v-.3c.7,0,1.1-.5,1.1-1.4v-4.9c0-.4,0-.8-.3-1-.2-.2-.5-.3-.8-.3-.6,0-1.2.4-1.7,1.2v5c0,.5,0,.9.3,1.1.2.2.5.3.8.3v.3h-3.7v-.3c.3,0,.6-.1.7-.3.2-.2.3-.6.3-1.1v-5.4c0-.2,0-.3-.1-.4,0,0-.2-.1-.4-.1s-.3,0-.4,0v-.3c0,0,2.2-1.1,2.2-1.1h.3Z"/>
  <path class="st0" d="M76.2,45.4c0,.8-.3,1.6-.8,2.2-.6.6-1.3,1-2.3,1.2l3.1,5.1c.2.4.5.7.6.8.2.1.4.2.7.2h.1v.3h-2.5l-3.8-6.2h-.9v4.3c0,.5,0,.9.1,1.1,0,.2.3.4.5.4.2,0,.6,0,1,0v.3h-5.2v-.3c.5,0,.8,0,1.1,0,.2,0,.4-.2.5-.5,0-.2.1-.6.1-1.1v-9.2c0-.5,0-.9-.2-1.1,0-.2-.3-.4-.5-.4-.2,0-.6,0-1,0v-.3h5.5c.7,0,1.4.1,2,.4.6.3,1.1.7,1.4,1.2.3.5.5,1.1.5,1.7ZM70.4,43v5.3h.6c1,0,1.8-.3,2.3-.8.5-.6.7-1.2.7-2s-.2-1.5-.6-2c-.4-.5-1-.8-1.8-.8s-.9,0-1.2.2Z"/>
  <path class="st0" d="M85.6,46.1c.7,0,1.3.2,1.9.6.5.4,1,.9,1.3,1.6.3.7.5,1.5.5,2.4s-.2,1.7-.5,2.5c-.3.7-.8,1.3-1.3,1.7-.6.4-1.2.6-1.9.6s-1.3-.2-1.9-.6c-.5-.4-1-1-1.3-1.7-.3-.7-.4-1.5-.4-2.4s.2-1.7.5-2.4c.3-.7.8-1.3,1.3-1.7.6-.4,1.2-.6,1.9-.6ZM83.7,50.3c0,1.4.2,2.5.5,3.4.3.8.8,1.2,1.5,1.2s1.1-.3,1.4-.9c.3-.6.4-1.5.4-2.6,0-1.6-.2-2.8-.5-3.5-.3-.7-.8-1.1-1.5-1.1s-1.1.3-1.3.9c-.3.6-.4,1.5-.4,2.6Z"/>
  <path class="st0" d="M96.4,46.1c.3,0,.5,0,.7.1.2,0,.3.1.4.1.2,0,.3.1.4.1s.2,0,.3-.2h.3v2.8h-.3c-.1-.8-.4-1.3-.7-1.8-.3-.4-.7-.6-1.1-.6s-.5.1-.7.3c-.2.2-.3.4-.3.7s0,.4.2.6c.1.2.3.4.5.6l.5.4c.7.6,1.3,1.2,1.7,1.7.3.3.5.6.6.9s.1.6.1.9c0,.7-.2,1.3-.7,1.8-.4.5-1,.7-1.7.7s-.8-.1-1.3-.3c-.2,0-.4-.1-.4-.1s-.1,0-.2,0c0,0,0,0,0,.1h-.3v-3h.3c0,.8.3,1.4.6,1.9.3.5.8.7,1.3.7s.6-.1.8-.4c.2-.3.3-.6.3-.9s-.2-1-.7-1.4l-.8-.7-.9-.8c-.3-.3-.6-.6-.7-.9-.2-.3-.2-.7-.2-1.2,0-.7.2-1.3.6-1.7.4-.4.9-.7,1.5-.7Z"/>
  <path class="st0" d="M107,46.1c.9,0,1.5.4,2,1.1.5.7.7,1.8.7,3.1h-4.2c0,1.1.2,2,.6,2.7s.8,1,1.4,1,1.4-.6,1.9-1.9h.3c-.1,1.1-.5,1.9-1,2.5-.5.6-1.1.9-1.8.9s-1-.2-1.5-.5c-.4-.4-.7-.9-1-1.6-.2-.7-.4-1.5-.4-2.3s0-1.5.3-2.3c.2-.7.5-1.4.9-1.9.4-.5,1-.7,1.7-.7ZM105.6,49.8h2.6c0-1.1-.1-1.8-.3-2.3-.2-.4-.5-.7-.9-.7s-.8.3-1,.8c-.2.5-.3,1.2-.3,2.2Z"/>
  <path class="st0" d="M128.4,41.8c.5,0,1,0,1.4.2.4.1.8.3,1.1.4,0,0,.1,0,.2.1.1,0,.2,0,.3,0,.2,0,.3,0,.4-.2,0-.2.1-.4.1-.6h.3l.2,4.1h-.3c0-.7-.3-1.3-.6-1.8-.3-.5-.8-.9-1.3-1.2-.5-.3-1.1-.4-1.6-.4s-1.4.3-2,.8c-.6.5-1,1.2-1.3,2.2-.3.9-.5,2-.5,3.3s.1,2.1.4,3c.3.9.7,1.7,1.2,2.3.6.6,1.3.9,2.1.9s1.7-.3,2.5-1v-4c0-.5,0-.9-.3-1.1-.2-.2-.5-.3-1-.3v-.3h4.5v.3c-.5,0-.8.1-1,.4-.2.2-.3.6-.3,1.3v3.9c-1.3,1-2.7,1.5-4.2,1.5s-2.2-.3-3.1-.8c-.9-.6-1.6-1.3-2.1-2.3-.5-1-.8-2.1-.8-3.4s.2-2.3.7-3.4c.5-1.1,1.2-2,2-2.7.9-.7,1.9-1,3.1-1Z"/>
  <path class="st0" d="M142.3,46.1c.8,0,1.4.2,1.8.6s.6.9.6,1.4v5.3c0,.6.2.8.5.8s.2,0,.3,0c0,0,.2-.1.4-.3v.3c-.2.4-.5.7-.8.9-.3.2-.6.3-.8.3s-.6-.1-.8-.4c-.2-.3-.3-.7-.3-1.2h0c-.6,1.1-1.3,1.6-2.1,1.6s-1-.2-1.4-.6c-.4-.4-.5-.9-.5-1.5s.2-1.1.5-1.5c.3-.5,1-1,1.9-1.5l1.7-.9v-1.4c0-.4,0-.8-.3-1.1-.2-.3-.5-.4-.9-.4s-.6.1-.8.3c-.2.2-.3.5-.3.8s0,.3,0,.5c0,.2,0,.3,0,.4,0,.2,0,.3-.2.5-.1.1-.3.2-.5.2s-.5,0-.6-.3c-.1-.2-.2-.4-.2-.7s.1-.7.4-1.1c.3-.3.6-.6,1.1-.8.4-.2.9-.3,1.5-.3ZM140.6,52.8c0,.4,0,.8.3,1.1s.5.4.8.4c.5,0,.9-.3,1.4-1v-3.3c-.9.5-1.6.9-1.9,1.3-.4.4-.6.9-.6,1.5Z"/>
  <path class="st0" d="M153.4,46.1v1.8h0c.3-.6.6-1.1.9-1.4.3-.3.7-.5,1.1-.5s.6,0,.8.3c.2.2.3.4.3.7s0,.5-.3.6c-.2.2-.4.2-.6.2s-.4-.1-.6-.3c0,0-.1-.1-.2-.2,0,0-.2,0-.2,0-.2,0-.4,0-.6.3-.2.2-.4.5-.6.9v4.8c0,.5,0,.9.3,1.1.2.2.6.3,1.2.3v.3h-4.2v-.3c.4,0,.7-.1.9-.3.2-.2.3-.6.3-1.1v-5.2c0-.2,0-.4-.2-.5,0-.2-.3-.3-.5-.3s-.2,0-.4,0v-.3c0,0,2.3-1.1,2.3-1.1h.3Z"/>
  <path class="st0" d="M167.7,41.5v11.4c0,.4,0,.8.1,1,.1.2.3.3.6.3s.2,0,.2,0v.3c.1,0-2.2,1.1-2.2,1.1h-.3v-1.5h0c-.7,1-1.4,1.5-2.2,1.5s-1-.2-1.5-.5c-.4-.3-.7-.8-1-1.5-.2-.6-.3-1.4-.3-2.2s.1-1.8.4-2.6c.3-.8.7-1.4,1.2-1.9.5-.4,1.1-.7,1.7-.7s.6,0,.9.2c.3.1.6.3.9.5v-3c0-.3,0-.6-.2-.8,0-.2-.3-.3-.5-.3s-.3,0-.5.1v-.3c-.1,0,2.4-1.1,2.4-1.1h.3ZM162.8,50.4c0,1.2.1,2.2.4,2.9.3.7.7,1,1.3,1s.5,0,.7-.2c.2-.2.5-.4.8-.8v-4c0-.7-.1-1.3-.4-1.8-.3-.5-.7-.8-1.2-.8s-1,.4-1.3,1.1c-.2.7-.3,1.6-.3,2.6Z"/>
  <path class="st0" d="M176.5,46.1c.9,0,1.5.4,2,1.1.5.7.7,1.8.7,3.1h-4.2c0,1.1.2,2,.6,2.7s.8,1,1.4,1,1.4-.6,1.9-1.9h.3c-.1,1.1-.5,1.9-1,2.5-.5.6-1.1.9-1.8.9s-1-.2-1.5-.5c-.4-.4-.7-.9-1-1.6-.2-.7-.4-1.5-.4-2.3s0-1.5.3-2.3c.2-.7.5-1.4.9-1.9.4-.5,1-.7,1.7-.7ZM175.1,49.8h2.6c0-1.1-.1-1.8-.3-2.3-.2-.4-.5-.7-.9-.7s-.8.3-1,.8c-.2.5-.3,1.2-.3,2.2Z"/>
  <path class="st0" d="M186.8,46.1v1.8h0c.4-.6.8-1.1,1.2-1.3.4-.3.8-.4,1.2-.4.6,0,1.1.2,1.4.7.3.5.4,1.1.4,1.8v5.1c0,.3,0,.6.2.8.2.2.4.3.7.3v.3h-3.6v-.3c.7,0,1.1-.5,1.1-1.4v-4.9c0-.4,0-.8-.3-1-.2-.2-.5-.3-.8-.3-.6,0-1.2.4-1.7,1.2v5c0,.5,0,.9.3,1.1.2.2.5.3.8.3v.3h-3.7v-.3c.3,0,.6-.1.7-.3.2-.2.3-.6.3-1.1v-5.4c0-.2,0-.3-.1-.4,0,0-.2-.1-.4-.1s-.3,0-.4,0v-.3c0,0,2.2-1.1,2.2-1.1h.3Z"/>
</svg>