<?xml version="1.0" encoding="UTF-8"?>
<svg xmlns="http://www.w3.org/2000/svg" viewBox="0 0 50 50">
  <defs>
    <style>
      .cls-1 {
        fill: #fff;
      }
    </style>
  </defs>
  <g id="_图层_2" data-name="图层 2">
    <circle class="cls-1" cx="25" cy="25" r="25"/>
  </g>
  <g id="_图层_1" data-name="图层 1">
    <g>
      <path d="M19.93,15.24c3.69.44,6.11,4.52,3.81,7.63-.43.58-.91.65-1.3.99-.15.13-.14.13-.1.34,3.65,1.2,3.56,6.42.91,8.64-1.02.85-3.01,1.5-4.31,1.5h-9.55V15.24h10.55ZM13.04,22.71h5.9c.14,0,1.17-.52,1.32-.67.6-.64.59-2.16.02-2.82-.21-.24-1.07-.65-1.34-.65h-5.9v4.15ZM13.04,31.02h5.9c.06,0,.86-.29.98-.35,1.59-.9,1.7-3.75-.11-4.5-.12-.05-.98-.3-1.03-.3h-5.48l-.25.25v4.9Z"/>
      <path d="M40.61,28.19h-10.22c-.54,0,.07,1.65.22,1.94.91,1.83,3.82,2.28,5.35.97.22-.18.68-.92.74-.92h3.74c-1.26,5.39-9.49,5.94-12.62,2.07-1.7-2.1-1.72-6.24-.67-8.64,2.16-4.92,10.19-5.12,12.66-.36.25.49.8,2.04.8,2.52v2.41ZM36.79,25.87c-.21-4.04-6.27-4.07-6.48,0h6.48Z"/>
      <rect x="29.32" y="16.07" width="8.31" height="2.33"/>
    </g>
  </g>
</svg>