<?xml version="1.0" encoding="UTF-8"?>
<svg xmlns="http://www.w3.org/2000/svg" viewBox="0 0 50 50">
  <g id="_图层_2" data-name="图层 2">
    <path d="M25,2c12.68,0,23,10.32,23,23s-10.32,23-23,23S2,37.68,2,25,12.32,2,25,2M25,0C11.19,0,0,11.19,0,25s11.19,25,25,25,25-11.19,25-25S38.81,0,25,0h0Z"/>
  </g>
  <g id="_图层_1" data-name="图层 1">
    <g>
      <path d="M20.3,15.94c3.42.41,5.67,4.2,3.54,7.08-.4.54-.85.6-1.2.92-.14.12-.13.12-.1.32,3.39,1.11,3.31,5.96.84,8.01-.94.79-2.79,1.39-4,1.39h-8.86V15.94h9.79ZM13.9,22.88h5.47c.13,0,1.09-.48,1.22-.63.55-.59.55-2.01.02-2.62-.19-.22-.99-.61-1.24-.61h-5.47v3.85ZM13.9,30.58h5.47c.06,0,.8-.27.9-.33,1.47-.84,1.58-3.48-.1-4.18-.12-.05-.91-.27-.96-.27h-5.09l-.23.23v4.55Z"/>
      <path d="M39.49,27.96h-9.48c-.5,0,.07,1.53.2,1.8.84,1.7,3.55,2.11,4.97.9.2-.17.63-.85.69-.85h3.47c-1.17,5-8.8,5.51-11.71,1.92-1.58-1.95-1.6-5.79-.62-8.01,2.01-4.57,9.46-4.75,11.74-.33.23.45.74,1.89.74,2.34v2.24ZM35.94,25.81c-.2-3.75-5.82-3.78-6.01,0h6.01Z"/>
      <rect x="29.01" y="16.71" width="7.71" height="2.16"/>
    </g>
  </g>
</svg>