<?xml version="1.0" encoding="UTF-8"?>
<svg xmlns="http://www.w3.org/2000/svg" viewBox="0 0 50 50">
  <g id="_图层_2" data-name="图层 2">
    <path d="M25,2c12.68,0,23,10.32,23,23s-10.32,23-23,23S2,37.68,2,25,12.32,2,25,2M25,0C11.19,0,0,11.19,0,25s11.19,25,25,25,25-11.19,25-25S38.81,0,25,0h0Z"/>
  </g>
  <g id="_图层_1" data-name="图层 1">
    <path d="M32.75,9.54v5.43h-3.9c-.77,0-1.62,1.16-1.62,1.87v3.6h5.51l-.9,5.43h-4.61v16.41h-6.42v-16.41h-3.58v-5.43h3.58c.09-2.76-.43-5.93,1.28-8.3,2.32-3.21,7.18-2.51,10.65-2.6Z"/>
  </g>
</svg>