<?xml version="1.0" encoding="UTF-8"?>
<svg xmlns="http://www.w3.org/2000/svg" viewBox="0 0 50 50">
  <g id="_图层_2" data-name="图层 2">
    <path d="M25,2c12.68,0,23,10.32,23,23s-10.32,23-23,23S2,37.68,2,25,12.32,2,25,2M25,0C11.19,0,0,11.19,0,25s11.19,25,25,25,25-11.19,25-25S38.81,0,25,0h0Z"/>
  </g>
  <g id="_图层_1" data-name="图层 1">
    <g>
      <path d="M20.24,10.55c3.12-.09,6.43-.07,9.55.03,2.55.08,4.86.24,6.86,2.01,3.03,2.68,2.71,6.19,2.77,9.89.04,2.82.14,5.77-.04,8.59-.35,5.4-3.3,8.03-8.62,8.34-3.3.19-6.98.09-10.3,0-2.66-.08-5.04-.16-7.14-2.01-2.92-2.57-2.71-5.81-2.77-9.38-.05-2.88-.09-5.76.05-8.63s.64-5,2.84-6.91c1.88-1.62,4.42-1.86,6.8-1.93ZM22.19,13.13c-3.7.06-7.82-.18-8.78,4.34-.47,2.18-.26,5.19-.26,7.45,0,2.56-.36,7.12.9,9.31,1.62,2.83,4.96,2.53,7.76,2.58,2.85.06,5.7.08,8.54-.05,3.88-.18,6.07-1.42,6.4-5.57.26-3.21.13-6.88.04-10.11-.06-2.3.08-4.8-1.8-6.47-1.41-1.25-2.99-1.33-4.78-1.41-2.66-.11-5.35-.13-8.02-.08Z"/>
      <path d="M24.49,17.57c5.75-.37,9.77,5.74,7.09,10.87s-9.87,5.36-12.9.5.21-11.02,5.81-11.37ZM24.5,20.2c-3.79.34-5.67,4.89-3.25,7.84s7.15,2.06,8.31-1.53c1.08-3.33-1.59-6.61-5.06-6.31Z"/>
      <path d="M31.45,16.05c1.52-1.54,3.98.58,2.62,2.32-1.51,1.91-4.29-.61-2.62-2.32Z"/>
    </g>
  </g>
</svg>