<?xml version="1.0" encoding="UTF-8"?>
<svg xmlns="http://www.w3.org/2000/svg" viewBox="0 0 50 50">
  <defs>
    <style>
      .cls-1 {
        fill: #fff;
      }
    </style>
  </defs>
  <g id="_图层_2" data-name="图层 2">
    <circle class="cls-1" cx="25" cy="25" r="25"/>
  </g>
  <g id="_图层_1" data-name="图层 1">
    <path d="M37.77,14.75c1.94,2.07,3.14,4.55,3.27,7.44.34,7.38-8.04,13.57-13.71,16.93-.51.3-1.65,1.03-2.16,1.19-.41.12-.76.07-1.1-.19-1.27-.98.79-2.89-.52-4.26-.59-.61-1.86-.62-2.68-.79-8.07-1.74-15.08-9.58-10.42-17.89,5.2-9.27,20.28-9.93,27.32-2.43ZM22.04,26.68l.04-7.82c-.02-.06-.07-.1-.12-.13-.15-.09-1.23-.08-1.46-.06-.12.01-.24.03-.33.13v7.8l.08.08h1.8ZM27.77,23.18l-2.73-4.38s-.09-.08-.15-.1c-.18-.05-1.17-.05-1.4-.02-.24.03-.33.14-.33.38v7.44c.05.14.09.17.23.19.17.02,1.48.01,1.55-.03.03-.03.1-.13.1-.15v-4.13l2.68,4.31h1.8l.08-.08v-7.8c-.08-.09-.16-.11-.28-.13-.21-.02-1.28-.02-1.41.06-.04.02-.13.14-.13.17v4.28ZM32.78,20.4h3.98c.09-.08.11-.16.13-.28.02-.19.02-1.22-.05-1.32-.03-.05-.13-.1-.19-.11h-5.46c-.25-.02-.39.12-.38.37.16,2.35-.21,4.98,0,7.3.01.16.03.33.23.33h5.87c.08-.04.12-.1.14-.18.03-.16.02-1.32-.05-1.41-.02-.02-.16-.08-.18-.08h-4.03v-1.6l.08-.08h3.65l.08-.08v-1.47s-.16-.13-.18-.13h-3.62v-1.27ZM15.71,25.01v-6.05s-.08-.12-.1-.15c-.07-.04-1.47-.05-1.65-.03s-.17.08-.21.24v7.51s.11.15.11.15h5.6c.03-.4.13-1.12.05-1.49,0-.04-.01-.08-.05-.1-.05,0-.15-.08-.18-.08h-3.57Z"/>
  </g>
</svg>