<?xml version="1.0" encoding="UTF-8"?>
<svg xmlns="http://www.w3.org/2000/svg" viewBox="0 0 50 50">
  <g id="_图层_2" data-name="图层 2">
    <path d="M25,2c12.68,0,23,10.32,23,23s-10.32,23-23,23S2,37.68,2,25,12.32,2,25,2M25,0C11.19,0,0,11.19,0,25s11.19,25,25,25,25-11.19,25-25S38.81,0,25,0h0Z"/>
  </g>
  <g id="_图层_1" data-name="图层 1">
    <path d="M36.42,15.83c1.74,1.85,2.81,4.07,2.93,6.66.3,6.6-7.19,12.14-12.27,15.15-.46.27-1.48.92-1.93,1.06-.37.11-.68.07-.99-.17-1.14-.88.71-2.59-.47-3.81-.52-.55-1.66-.55-2.4-.71-7.22-1.55-13.5-8.57-9.33-16.01,4.65-8.3,18.15-8.89,24.45-2.17ZM22.35,26.5l.04-6.99c-.02-.05-.06-.09-.11-.12-.13-.08-1.1-.07-1.31-.05-.11.01-.22.03-.29.11v6.98l.07.07h1.61ZM27.48,23.37l-2.45-3.92s-.08-.08-.14-.09c-.16-.05-1.05-.04-1.25-.02-.21.02-.3.12-.3.34v6.65c.04.13.08.16.2.17.15.02,1.33.01,1.38-.03.02-.03.09-.11.09-.14v-3.69l2.4,3.85h1.61l.07-.07v-6.98c-.07-.08-.15-.1-.25-.11-.19-.02-1.15-.02-1.27.05-.03.02-.12.13-.12.15v3.83ZM31.96,20.88h3.56c.08-.07.1-.15.11-.25.02-.17.02-1.1-.04-1.18-.03-.04-.12-.09-.17-.1h-4.89c-.22-.02-.35.11-.34.33.14,2.11-.18,4.45,0,6.53.01.15.02.3.2.3h5.25c.07-.04.11-.09.12-.16.03-.14.01-1.18-.04-1.26-.01-.02-.15-.07-.16-.07h-3.6v-1.43l.07-.07h3.26l.07-.07v-1.31s-.14-.11-.16-.11h-3.24v-1.13ZM16.69,25.01v-5.42s-.07-.11-.09-.14c-.06-.04-1.32-.04-1.48-.03s-.16.07-.19.22v6.72s.1.13.1.13h5.01c.03-.35.11-1,.05-1.34,0-.04,0-.07-.05-.09-.05,0-.13-.07-.16-.07h-3.2Z"/>
  </g>
</svg>