<?xml version="1.0" encoding="UTF-8"?>
<svg id="_图层_2" data-name="图层 2" xmlns="http://www.w3.org/2000/svg" viewBox="0 0 50 50">
  <defs>
    <style>
      .cls-1 {
        fill: #fff;
      }
    </style>
  </defs>
  <circle class="cls-1" cx="25" cy="25" r="25"/>
  <g>
    <path d="M25.62,23.2c.15.04.11-.04.15-.08,2.33-2.61,5.97-3.49,9.01-1.45,1.16.78,2.62,2.91,2.62,4.33v11.48h-4.92c-.07,0-.09-.16-.1-.22-.11-.92-.01-2.37,0-3.35.02-1.74.37-5.31-.17-6.83-.82-2.32-4.43-2.45-5.67-.48-.19.3-.59,1.27-.59,1.6v9.2s-.09.1-.1.1h-4.83s-.1-.09-.1-.1v-16.49h4.7v2.32Z"/>
    <path d="M18.09,20.88v16.49s-.09.1-.1.1h-4.96s-.1-.09-.1-.1v-16.49h5.15Z"/>
    <path d="M15.37,12.54c3.94-.18,4.09,5.79.24,5.9s-4.08-5.73-.24-5.9Z"/>
  </g>
</svg>