<?xml version="1.0" encoding="UTF-8"?>
<svg xmlns="http://www.w3.org/2000/svg" viewBox="0 0 50 50">
  <g id="_图层_2" data-name="图层 2">
    <path d="M25,2c12.68,0,23,10.32,23,23s-10.32,23-23,23S2,37.68,2,25,12.32,2,25,2M25,0C11.19,0,0,11.19,0,25s11.19,25,25,25,25-11.19,25-25S38.81,0,25,0h0Z"/>
  </g>
  <g id="_图层_1" data-name="图层 1">
    <path d="M14.38,14.41l21.11-.02c2.18.14,3.84,1.84,4,4v13.35c-.21,2.1-1.89,3.73-4,3.86H14.37c-2.03-.17-3.67-1.84-3.86-3.86v-13.59c.24-1.98,1.87-3.6,3.87-3.75ZM33.99,17.23h-17.95l7.96,6.36c.51.45,1.22.52,1.79.14l8.2-6.51ZM36.69,18.75l-9.17,7.24c-1.48,1.12-3.57,1.12-5.05,0l-9.17-7.24v12.71c0,.5.52,1.15,1,1.27l21.18.03c.55-.01,1.21-.73,1.21-1.25v-12.76Z"/>
  </g>
</svg>