<?xml version="1.0" encoding="UTF-8"?>
<svg xmlns="http://www.w3.org/2000/svg" viewBox="0 0 50 50">
  <g id="_图层_2" data-name="图层 2">
    <path d="M25,2c12.68,0,23,10.32,23,23s-10.32,23-23,23S2,37.68,2,25,12.32,2,25,2M25,0C11.19,0,0,11.19,0,25s11.19,25,25,25,25-11.19,25-25S38.81,0,25,0h0Z"/>
  </g>
  <g id="_图层_1" data-name="图层 1">
    <path d="M23.85,9.34c8.95-.68,14.89,8.21,10.65,16.2-2.6,4.9-5.75,9.62-8.39,14.51-.49.86-1.74.86-2.22-.02-2.63-4.89-5.8-9.61-8.39-14.51-1.76-3.33-1.91-7.02-.16-10.4,1.6-3.1,4.99-5.52,8.52-5.78ZM24.64,15.63c-4.06.34-5.69,5.39-2.57,8.05,2.07,1.77,5.32,1.24,6.78-1.04,2.03-3.18-.47-7.32-4.21-7.01Z"/>
  </g>
</svg>