<?xml version="1.0" encoding="UTF-8"?>
<svg xmlns="http://www.w3.org/2000/svg" viewBox="0 0 50 50">
  <defs>
    <style>
      .cls-1 {
        fill: #fff;
      }
    </style>
  </defs>
  <g id="_图层_2" data-name="图层 2">
    <circle class="cls-1" cx="25" cy="25" r="25"/>
  </g>
  <g id="_图层_1" data-name="图层 1">
    <path d="M23.7,7.32c10.11-.77,16.81,9.27,12.03,18.3-2.93,5.53-6.5,10.86-9.47,16.39-.56.97-1.97.97-2.51-.02-2.97-5.52-6.55-10.85-9.48-16.38-1.99-3.76-2.16-7.93-.19-11.75,1.81-3.51,5.64-6.23,9.62-6.53ZM24.59,14.42c-4.59.38-6.43,6.09-2.9,9.09,2.34,1.99,6.01,1.4,7.65-1.17,2.29-3.59-.53-8.27-4.75-7.91Z"/>
  </g>
</svg>