<?xml version="1.0" encoding="UTF-8"?>
<svg id="_图层_2" data-name="图层 2" xmlns="http://www.w3.org/2000/svg" viewBox="0 0 50 50">
  <defs>
    <style>
      .cls-1 {
        fill: #fff;
      }
    </style>
  </defs>
  <circle class="cls-1" cx="25" cy="25" r="25"/>
  <path d="M23.95,30.89l-.08.11c-.69,2.57-1.09,5.18-2.37,7.54-.52.96-1.26,2.12-1.95,2.97-.1.12-.18.29-.33.3-.21.02-.26-.06-.3-.24-.09-.38-.14-.97-.18-1.36-.16-1.72-.14-3.53.19-5.23.66-3.38,1.73-6.74,2.34-10.13-.83-2.01-.8-4.89.78-6.53,1.21-1.26,3.5-1.41,4.33.33.98,2.08-.95,5.75-1.33,7.95-.46,2.65,2.15,4,4.41,3.04,3.49-1.48,4.75-7.89,3.95-11.19-1.4-5.78-9.37-6.34-13.3-2.86-2.5,2.22-3.97,6.75-1.95,9.7.32.47.65.58.56,1.25-.04.29-.34,1.45-.46,1.71-.35.75-1.3.15-1.78-.16-2.56-1.69-3.15-5.53-2.61-8.35,2.03-10.48,18.06-12.94,23.01-3.65,2.49,4.68.83,12.36-3.56,15.45-2.29,1.61-5.77,2.26-8.21.62-.46-.31-.96-.74-1.19-1.25Z"/>
</svg>