<svg xmlns="http://www.w3.org/2000/svg" xmlns:xlink="http://www.w3.org/1999/xlink" width="60" zoomAndPan="magnify" viewBox="0 0 45.12 53.039997" height="60" preserveAspectRatio="xMidYMid meet" version="1.0"><defs><clipPath id="8992d6f6fb"><path d="M 0 0.0351562 L 44.140625 0.0351562 L 44.140625 44.175781 L 0 44.175781 Z M 0 0.0351562 " clip-rule="nonzero"/></clipPath><clipPath id="9edbc8dc84"><path d="M 22.070312 0.0351562 C 9.882812 0.0351562 0 9.917969 0 22.105469 C 0 34.292969 9.882812 44.175781 22.070312 44.175781 C 34.257812 44.175781 44.140625 34.292969 44.140625 22.105469 C 44.140625 9.917969 34.257812 0.0351562 22.070312 0.0351562 Z M 22.070312 0.0351562 " clip-rule="nonzero"/></clipPath><clipPath id="7c094f7e39"><path d="M 0 0.0351562 L 44.140625 0.0351562 L 44.140625 44.175781 L 0 44.175781 Z M 0 0.0351562 " clip-rule="nonzero"/></clipPath><clipPath id="6e750f030b"><path d="M 22.070312 0.0351562 C 9.882812 0.0351562 0 9.917969 0 22.105469 C 0 34.292969 9.882812 44.175781 22.070312 44.175781 C 34.257812 44.175781 44.140625 34.292969 44.140625 22.105469 C 44.140625 9.917969 34.257812 0.0351562 22.070312 0.0351562 Z M 22.070312 0.0351562 " clip-rule="nonzero"/></clipPath><clipPath id="f47beb05f0"><rect x="0" width="45" y="0" height="45"/></clipPath><clipPath id="0fb7bf375c"><path d="M 8.09375 8.128906 L 21 8.128906 L 21 21 L 8.09375 21 Z M 8.09375 8.128906 " clip-rule="nonzero"/></clipPath><clipPath id="6095f684a2"><path d="M 8.09375 23.902344 L 20.277344 23.902344 L 20.277344 36.082031 L 8.09375 36.082031 Z M 8.09375 23.902344 " clip-rule="nonzero"/></clipPath><clipPath id="3654db45a0"><path d="M 23.867188 8.128906 L 36.046875 8.128906 L 36.046875 20.316406 L 23.867188 20.316406 Z M 23.867188 8.128906 " clip-rule="nonzero"/></clipPath></defs><g clip-path="url(#8992d6f6fb)"><g clip-path="url(#9edbc8dc84)"><g transform="matrix(1, 0, 0, 1, 0, 0.000000000000004524)"><g clip-path="url(#f47beb05f0)"><g clip-path="url(#7c094f7e39)"><g clip-path="url(#6e750f030b)"><path fill="#ffffff" d="M 0 0.0351562 L 44.140625 0.0351562 L 44.140625 44.175781 L 0 44.175781 Z M 0 0.0351562 " fill-opacity="1" fill-rule="nonzero"/></g></g></g></g></g></g><g clip-path="url(#0fb7bf375c)"><path fill="#000000" d="M 10.054688 18.34375 L 18.304688 18.34375 L 18.304688 10.09375 L 10.054688 10.09375 Z M 20.269531 20.304688 L 8.09375 20.304688 L 8.09375 8.128906 L 20.269531 8.128906 L 20.269531 20.304688 " fill-opacity="1" fill-rule="nonzero"/></g><path fill="#000000" d="M 16.007812 16.042969 L 12.355469 16.042969 L 12.355469 12.390625 L 16.007812 12.390625 L 16.007812 16.042969 " fill-opacity="1" fill-rule="nonzero"/><g clip-path="url(#6095f684a2)"><path fill="#000000" d="M 10.054688 34.121094 L 18.304688 34.121094 L 18.304688 25.871094 L 10.054688 25.871094 Z M 20.269531 36.082031 L 8.09375 36.082031 L 8.09375 23.90625 L 20.269531 23.90625 L 20.269531 36.082031 " fill-opacity="1" fill-rule="nonzero"/></g><path fill="#000000" d="M 16.007812 31.820312 L 12.355469 31.820312 L 12.355469 28.167969 L 16.007812 28.167969 L 16.007812 31.820312 " fill-opacity="1" fill-rule="nonzero"/><g clip-path="url(#3654db45a0)"><path fill="#000000" d="M 25.832031 18.34375 L 34.082031 18.34375 L 34.082031 10.09375 L 25.832031 10.09375 Z M 36.046875 20.304688 L 23.871094 20.304688 L 23.871094 8.128906 L 36.046875 8.128906 L 36.046875 20.304688 " fill-opacity="1" fill-rule="nonzero"/></g><path fill="#000000" d="M 31.785156 16.042969 L 28.132812 16.042969 L 28.132812 12.390625 L 31.785156 12.390625 L 31.785156 16.042969 " fill-opacity="1" fill-rule="nonzero"/><path fill="#000000" d="M 24.476562 24.515625 L 24.476562 28.167969 L 28.132812 28.167969 L 28.132812 24.515625 L 24.476562 24.515625 " fill-opacity="1" fill-rule="nonzero"/><path fill="#000000" d="M 28.132812 28.167969 L 28.132812 31.820312 L 31.785156 31.820312 L 31.785156 28.167969 L 28.132812 28.167969 " fill-opacity="1" fill-rule="nonzero"/><path fill="#000000" d="M 31.785156 24.515625 L 31.785156 28.167969 L 35.4375 28.167969 L 35.4375 24.515625 L 31.785156 24.515625 " fill-opacity="1" fill-rule="nonzero"/><path fill="#000000" d="M 24.476562 31.820312 L 24.476562 35.472656 L 28.132812 35.472656 L 28.132812 31.820312 L 24.476562 31.820312 " fill-opacity="1" fill-rule="nonzero"/><path fill="#000000" d="M 31.785156 31.820312 L 31.785156 35.472656 L 35.4375 35.472656 L 35.4375 31.820312 L 31.785156 31.820312 " fill-opacity="1" fill-rule="nonzero"/></svg>