<svg xmlns="http://www.w3.org/2000/svg" xmlns:xlink="http://www.w3.org/1999/xlink" width="60" zoomAndPan="magnify" viewBox="0 0 45.12 53.039997" height="60" preserveAspectRatio="xMidYMid meet" version="1.0"><defs><clipPath id="642aad1a5e"><path d="M 0 0.0351562 L 44.140625 0.0351562 L 44.140625 44.175781 L 0 44.175781 Z M 0 0.0351562 " clip-rule="nonzero"/></clipPath><clipPath id="06972d2c40"><path d="M 22.070312 0.0351562 C 9.882812 0.0351562 0 9.917969 0 22.105469 C 0 34.292969 9.882812 44.175781 22.070312 44.175781 C 34.257812 44.175781 44.140625 34.292969 44.140625 22.105469 C 44.140625 9.917969 34.257812 0.0351562 22.070312 0.0351562 Z M 22.070312 0.0351562 " clip-rule="nonzero"/></clipPath><clipPath id="97edd54038"><path d="M 0 0.0351562 L 44.140625 0.0351562 L 44.140625 44.175781 L 0 44.175781 Z M 0 0.0351562 " clip-rule="nonzero"/></clipPath><clipPath id="9d58b268ce"><path d="M 22.070312 0.0351562 C 9.882812 0.0351562 0 9.917969 0 22.105469 C 0 34.292969 9.882812 44.175781 22.070312 44.175781 C 34.257812 44.175781 44.140625 34.292969 44.140625 22.105469 C 44.140625 9.917969 34.257812 0.0351562 22.070312 0.0351562 Z M 22.070312 0.0351562 " clip-rule="nonzero"/></clipPath><clipPath id="823a3f97c0"><rect x="0" width="45" y="0" height="45"/></clipPath><clipPath id="6cc2b82026"><path d="M 11.1875 6.164062 L 33.253906 6.164062 L 33.253906 36.324219 L 11.1875 36.324219 Z M 11.1875 6.164062 " clip-rule="nonzero"/></clipPath></defs><g clip-path="url(#642aad1a5e)"><g clip-path="url(#06972d2c40)"><g transform="matrix(1, 0, 0, 1, 0, 0.000000000000004524)"><g clip-path="url(#823a3f97c0)"><g clip-path="url(#97edd54038)"><g clip-path="url(#9d58b268ce)"><path fill="#ffffff" d="M 0 0.0351562 L 44.140625 0.0351562 L 44.140625 44.175781 L 0 44.175781 Z M 0 0.0351562 " fill-opacity="1" fill-rule="nonzero"/></g></g></g></g></g></g><g clip-path="url(#6cc2b82026)"><path fill="#000000" d="M 27.738281 11.648438 L 25.777344 13.59375 L 23.585938 11.414062 L 23.585938 26.726562 L 20.855469 26.726562 L 20.855469 11.414062 L 18.664062 13.59375 L 16.707031 11.648438 L 22.222656 6.164062 Z M 33.253906 18.503906 L 33.253906 33.582031 C 33.253906 35.089844 32.011719 36.324219 30.496094 36.324219 L 13.949219 36.324219 C 12.417969 36.324219 11.191406 35.089844 11.191406 33.582031 L 11.191406 18.503906 C 11.191406 16.980469 12.417969 15.761719 13.949219 15.761719 L 18.085938 15.761719 L 18.085938 18.503906 L 13.949219 18.503906 L 13.949219 33.582031 L 30.496094 33.582031 L 30.496094 18.503906 L 26.359375 18.503906 L 26.359375 15.761719 L 30.496094 15.761719 C 32.011719 15.761719 33.253906 16.980469 33.253906 18.503906 Z M 33.253906 18.503906 " fill-opacity="1" fill-rule="nonzero"/></g></svg>