<?xml version="1.0" encoding="UTF-8"?>
<svg xmlns="http://www.w3.org/2000/svg" viewBox="0 0 50 50">
  <g id="_图层_2" data-name="图层 2">
    <path d="M25,2c12.68,0,23,10.32,23,23s-10.32,23-23,23S2,37.68,2,25,12.32,2,25,2M25,0C11.19,0,0,11.19,0,25s11.19,25,25,25,25-11.19,25-25S38.81,0,25,0h0Z"/>
  </g>
  <g id="_图层_1" data-name="图层 1">
    <path d="M32.74,12.61c2.21,1.5,3.85,4,4.6,6.55.03.12.14.4.07.48l-2.35.65c-.26-.63-.44-1.3-.73-1.92-1.97-4.3-6.34-5.74-10.82-5.15-4.94.65-7.36,3.77-8.12,8.55-.67,4.25-.2,10.28,3.46,13.13s11.74,2.76,14.23-1.82c1.24-2.29.75-5.11-1.54-6.48-.11-.02-.06.02-.08.07-.12.41-.15.87-.26,1.29-.93,3.41-3.82,5.11-7.3,4.52-3.2-.54-5.37-3.88-3.72-6.91,1.43-2.62,4.84-2.94,7.51-2.77.43.03.84.18,1.27.15-.1-.52-.24-1.01-.49-1.48-1.13-2.13-4.51-2.17-6.07-.52-.11.12-.22.41-.4.4l-2.02-1.35c-.1-.15,1.02-1.26,1.19-1.39,2.39-1.97,6.72-1.86,8.79.52,1.12,1.28,1.47,2.94,1.65,4.58,1.98.91,3.67,2.43,4.33,4.57,1.71,5.56-2.99,10.23-8.2,10.97-4.59.66-9.37-.43-12.29-4.21-3.71-4.82-3.74-14.3-.56-19.37,1.74-2.78,4.9-4.72,8.18-5.05s6.86.05,9.68,1.96ZM28.95,25.63s-.62-.14-.72-.16c-1.66-.22-5.45-.34-5.99,1.78-.41,1.6,1.04,2.63,2.46,2.76,1.32.12,2.71-.22,3.47-1.37.45-.69.84-2.02.84-2.84,0-.05-.02-.13-.05-.16Z"/>
  </g>
</svg>