<?xml version="1.0" encoding="UTF-8"?>
<svg xmlns="http://www.w3.org/2000/svg" viewBox="0 0 50 50">
  <defs>
    <style>
      .cls-1 {
        fill: #fff;
      }
    </style>
  </defs>
  <g id="_图层_2" data-name="图层 2">
    <circle class="cls-1" cx="25" cy="25" r="25"/>
  </g>
  <g id="_图层_1" data-name="图层 1">
    <path d="M33.6,11.22c2.45,1.67,4.29,4.45,5.11,7.29.04.13.15.45.07.54l-2.61.73c-.29-.7-.49-1.44-.81-2.13-2.19-4.79-7.05-6.39-12.04-5.73-5.49.73-8.19,4.2-9.03,9.51-.75,4.72-.22,11.43,3.85,14.6,4.2,3.28,13.06,3.07,15.83-2.03,1.38-2.54.83-5.68-1.71-7.2-.12-.02-.06.02-.08.08-.14.46-.16.97-.29,1.43-1.03,3.79-4.25,5.68-8.11,5.03-3.56-.6-5.97-4.32-4.14-7.68,1.59-2.92,5.38-3.27,8.35-3.08.47.03.94.2,1.41.17-.12-.58-.27-1.12-.55-1.65-1.25-2.37-5.01-2.41-6.75-.57-.12.13-.25.46-.44.44l-2.25-1.5c-.11-.16,1.13-1.4,1.32-1.55,2.65-2.19,7.47-2.07,9.78.58,1.24,1.43,1.63,3.27,1.83,5.09,2.21,1.01,4.08,2.71,4.81,5.08,1.91,6.18-3.32,11.38-9.12,12.21-5.11.73-10.43-.48-13.66-4.68-4.13-5.36-4.16-15.91-.63-21.54,1.94-3.1,5.45-5.25,9.09-5.62s7.64.05,10.77,2.18ZM29.4,25.7s-.69-.16-.8-.17c-1.85-.24-6.06-.38-6.67,1.98-.45,1.77,1.16,2.92,2.73,3.07,1.46.13,3.02-.25,3.86-1.53.5-.77.93-2.25.94-3.16,0-.06-.02-.14-.06-.18Z"/>
  </g>
</svg>