<?xml version="1.0" encoding="UTF-8"?>
<svg xmlns="http://www.w3.org/2000/svg" viewBox="0 0 50 50">
  <g id="_图层_2" data-name="图层 2">
    <path d="M25,2c12.68,0,23,10.32,23,23s-10.32,23-23,23S2,37.68,2,25,12.32,2,25,2M25,0C11.19,0,0,11.19,0,25s11.19,25,25,25,25-11.19,25-25S38.81,0,25,0h0Z"/>
  </g>
  <g id="_图层_1" data-name="图层 1">
    <path d="M23.79,10.58c12.34-.82,20.17,12.8,12.91,22.89-6.27,8.71-19.42,7.7-24.49-1.7-4.88-9.05,1.35-20.52,11.59-21.2ZM28.94,19.71c-.34-1.8-.81-3.72-1.72-5.32-2.23-3.91-4.28-.98-5.3,1.79-.42,1.13-.72,2.34-.89,3.54l4.03.25,1.58-.05,2.3-.2ZM19.1,19.36c.28-1.67.76-3.28,1.43-4.82.22-.51.5-.99.7-1.5-2.34.83-4.48,2.23-6.03,4.18-.09.12-.46.6-.49.7s.01.05.06.08c.22.12.51.25.74.34,1.13.48,2.38.87,3.59,1.02ZM35.27,17.98c.06-.07-.85-1.16-.96-1.29-1.21-1.36-2.81-2.51-4.49-3.22-.13-.06-1.03-.42-1.07-.39,1.03,1.96,1.73,4.07,2.12,6.26.13.09,1.66-.33,1.92-.41.85-.26,1.66-.62,2.48-.95ZM18.8,28.66l-.2-2.54c-.12-1.54.14-3.08.2-4.6,0-.06,0-.12-.02-.17-1.77-.35-3.48-.93-5.12-1.68-1.59,3.39-1.57,7.29,0,10.68,1.63-.78,3.35-1.36,5.14-1.69ZM36.31,19.66c-.54.19-1.07.47-1.62.68-1.14.44-2.32.76-3.52.98l.2,2.96v1.49s-.19,2.88-.19,2.88c1.75.35,3.47.87,5.06,1.68,1.51-2.97,1.62-6.51.48-9.62-.13-.35-.32-.68-.41-1.05ZM29.24,21.64c-2.84.37-5.67.37-8.5,0-.18,1.6-.15,3.21-.15,4.82l.15,1.9c.56-.07,1.14-.16,1.71-.2,1.68-.12,3.46-.12,5.14,0,.55.04,1.11.14,1.66.2.12-1.52.18-3.05.15-4.58l-.15-2.15ZM28.94,30.29c-2.63-.31-5.29-.32-7.91,0,.38,2.02.94,4.38,2.19,6.05,1.89,2.52,3.56.37,4.45-1.61.62-1.4.99-2.93,1.28-4.43ZM19.1,30.59c-.93.19-1.85.42-2.74.74-.46.16-1.13.4-1.54.63-.05.03-.12.05-.11.13,1.56,2.27,3.89,3.98,6.52,4.83-1.04-1.98-1.78-4.11-2.13-6.33ZM28.74,36.92c2.63-.86,4.98-2.57,6.53-4.87-1.38-.7-2.88-1.15-4.4-1.46-.37,2.22-1.1,4.33-2.13,6.33Z"/>
  </g>
</svg>