<?xml version="1.0" encoding="UTF-8"?>
<svg xmlns="http://www.w3.org/2000/svg" viewBox="0 0 50 50">
  <defs>
    <style>
      .cls-1 {
        fill: #fff;
      }
    </style>
  </defs>
  <g id="_图层_2" data-name="图层 2">
    <circle class="cls-1" cx="25" cy="25" r="25"/>
  </g>
  <g id="_图层_1" data-name="图层 1">
    <path d="M23.64,8.82c13.86-.92,22.64,14.37,14.48,25.69-7.04,9.78-21.79,8.64-27.49-1.9-5.48-10.15,1.52-23.03,13-23.79ZM29.42,19.07c-.38-2.02-.91-4.18-1.93-5.97-2.5-4.39-4.81-1.1-5.95,2.01-.47,1.27-.81,2.63-1,3.97l4.52.28,1.77-.06,2.58-.22ZM18.38,18.67c.31-1.87.85-3.68,1.6-5.41.25-.57.56-1.11.79-1.68-2.62.93-5.03,2.5-6.77,4.69-.1.13-.52.67-.55.78s.02.06.06.09c.24.14.57.28.83.39,1.27.54,2.67.97,4.03,1.15ZM36.53,17.12c.06-.08-.95-1.3-1.08-1.44-1.36-1.53-3.15-2.81-5.04-3.62-.15-.06-1.15-.47-1.2-.43,1.15,2.2,1.94,4.57,2.38,7.02.14.11,1.86-.37,2.16-.46.95-.29,1.87-.69,2.79-1.07ZM18.04,29.11l-.22-2.85c-.13-1.73.16-3.45.23-5.17,0-.07,0-.13-.03-.2-1.99-.4-3.91-1.04-5.75-1.88-1.78,3.8-1.76,8.18,0,11.99,1.83-.87,3.76-1.52,5.77-1.89ZM37.69,19.01c-.61.22-1.2.53-1.82.76-1.28.49-2.61.85-3.96,1.1l.23,3.32v1.67s-.22,3.24-.22,3.24c1.96.39,3.9.98,5.68,1.89,1.69-3.33,1.82-7.31.54-10.8-.15-.4-.36-.77-.46-1.18ZM29.76,21.23c-3.18.42-6.36.42-9.55,0-.2,1.8-.17,3.6-.17,5.41l.17,2.13c.63-.08,1.28-.18,1.91-.22,1.88-.13,3.89-.13,5.77,0,.62.04,1.24.15,1.86.22.13-1.71.2-3.42.17-5.14l-.17-2.41ZM29.42,30.94c-2.95-.35-5.93-.36-8.88,0,.42,2.26,1.05,4.92,2.45,6.79,2.12,2.83,4,.41,4.99-1.81.7-1.57,1.12-3.29,1.43-4.98ZM18.38,31.27c-1.04.21-2.08.47-3.08.83-.51.18-1.26.45-1.73.71-.06.03-.14.06-.12.14,1.76,2.55,4.37,4.47,7.32,5.42-1.17-2.22-2-4.62-2.39-7.1ZM29.2,38.38c2.95-.97,5.59-2.89,7.33-5.46-1.55-.79-3.23-1.29-4.94-1.64-.41,2.49-1.24,4.86-2.39,7.1Z"/>
  </g>
</svg>