<?xml version="1.0" encoding="UTF-8"?>
<svg id="_图层_6" data-name="图层 6" xmlns="http://www.w3.org/2000/svg" viewBox="0 0 313.43 358.27">
  <defs>
    <style>
      .cls-1 {
        fill: #f4e92b;
      }

      .cls-2 {
        fill: #d8171a;
      }

      .cls-3 {
        fill: #6d4a31;
      }

      .cls-4 {
        fill: #138541;
      }

      .cls-5 {
        fill: #1484c7;
      }

      .cls-6 {
        fill: #eca727;
      }
    </style>
  </defs>
  <g>
    <path class="cls-3" d="M1.65,323.4c-.77-1.54-1.32-2.7-1.65-3.46,5.5-.99,10.45-2.03,14.85-3.13l1.81,2.8c-3.41,1.1-8.41,2.36-15.01,3.79ZM3.13,316.31v-18.81h32.66v18.81H3.13ZM5.28,295.03v-9.57h28.37v9.57H5.28ZM7.42,300.47v2.64h24.08v-2.64H7.42ZM7.42,305.59v2.64h24.08v-2.64H7.42ZM7.42,310.7v2.64h24.08v-2.64H7.42ZM9.57,288.43v3.63h19.79v-3.63H9.57ZM37.45,323.24c-4.95-1.32-9.95-2.53-15.01-3.63l1.49-2.8c6.27,1.1,11.27,2.03,15.01,2.8l-1.49,3.63Z"/>
    <path class="cls-3" d="M58.69,311.03v-3.46h13.53v-3.3h4.29v3.3h13.53v3.46h-10.72c3.63,3.3,8.63,5.72,15.01,7.26-.11.11-.33.44-.66.99-.44.55-.99,1.43-1.65,2.64-6.93-2.2-12.1-5.22-15.51-9.07v10.39h-4.29v-10.56c-3.3,3.85-8.52,7.04-15.67,9.57-.55-1.21-1.27-2.47-2.14-3.79,6.38-1.76,11.33-4.23,14.85-7.42h-10.56ZM55.56,307.24v-7.75h37.45v7.75h-4.12v-4.29h-29.03v4.29h-4.29ZM59.52,292.22c-1.32-1.43-2.53-2.8-3.63-4.12l2.64-2.14c.88.99,2.14,2.31,3.79,3.96l-2.8,2.31ZM71.07,298.82c-.44-.33-.99-.82-1.65-1.48-1.65-1.32-2.97-2.36-3.96-3.13-1.32,1.98-3.58,3.69-6.76,5.11-.33-.33-.88-.99-1.65-1.98-.33-.44-.61-.77-.82-.99,4.07-1.76,6.38-3.74,6.93-5.94.55-1.43.83-3.63.83-6.6h3.63c.11,2.86-.17,5.28-.82,7.26,2.09,1.32,4.34,2.97,6.76,4.95l-2.47,2.8ZM77.83,291.89c-.33-.33-.77-.77-1.32-1.32-.99-.99-1.76-1.76-2.31-2.31-.44.55-1.21,1.43-2.31,2.64-.55.55-.94.99-1.15,1.32l-2.64-2.14c1.43-1.32,2.64-2.64,3.63-3.96l2.64,1.98,2.31-1.98.17.17c1.54,1.32,2.69,2.42,3.46,3.3l-2.47,2.31ZM77.17,299.15c-.66-.99-1.43-2.03-2.31-3.13,3.85-1.76,5.99-3.74,6.43-5.94.44-1.1.71-3.19.82-6.27h3.63c0,2.86-.28,5.28-.82,7.26,1.21.88,2.97,2.14,5.28,3.79.88.66,1.54,1.16,1.98,1.49l-2.47,2.8-6.1-4.95c-1.21,1.65-3.36,3.3-6.43,4.95ZM89.21,292.22l-2.64-2.31c.11,0,.22-.05.33-.17,1.32-1.21,2.53-2.42,3.63-3.63l2.64,2.14c-1.1,1.32-2.42,2.64-3.96,3.96Z"/>
    <path class="cls-3" d="M110.13,306.25v-2.47h38.6v2.47h-13.36v1.98h10.23v15.18h-3.96v-1.16h-24.74v1.16h-4.12v-15.18h10.23v-.83c.11-.55.17-.93.17-1.15h-13.03ZM128.44,299.32c-.44-.22-1.05-.5-1.81-.82-1.54-.77-2.75-1.32-3.63-1.65-.66.88-2.37,1.76-5.11,2.64h12.04v2.31h-18.81v-16.5h19.3v2.31h-11.05l2.47.33c-.33.55-.61.99-.82,1.32h7.92v1.98h-3.96c0,.77-.06,1.38-.17,1.81h4.78v1.98h-5.28v.17c1.87.55,3.68,1.27,5.44,2.14l-1.32,1.98ZM117.72,292.88c-.22-.11-.55-.33-.99-.66-.55-.33-.94-.55-1.16-.66,1.65-1.32,2.75-2.64,3.3-3.96h-4.29v11.88h3.13c-.55-.77-1.15-1.48-1.81-2.14,2.42-.55,4.12-1.32,5.11-2.31h-4.95v-1.98h5.94c0-.55.05-1.15.17-1.81h-2.8c-.44.66-.99,1.21-1.65,1.65ZM118.87,315.48c-.11-.22-.33-.6-.66-1.15-.33-.55-.55-.88-.66-.99.33-.11.83-.22,1.49-.33,1.32-.22,2.14-.38,2.47-.5,1.21-.33,1.81-1.04,1.81-2.14h-6.43v5.77h24.74v-1.65h-5.94c-2.97.11-4.4-1.21-4.29-3.96v-.17h-4.45c-.11,2.09-1.21,3.46-3.3,4.12-1.1.33-2.7.66-4.78.99ZM116.89,318.12v1.65h24.74v-1.65h-24.74ZM127.12,306.25c0,.77-.06,1.43-.17,1.98h4.45v-1.98h-4.29ZM132.89,292.39l-2.47-1.98c1.87-.88,2.75-2.09,2.64-3.63v-1.48h11.88v2.31c0,.88.5,1.32,1.49,1.32h2.47c-.33.88-.55,1.65-.66,2.31h-3.46c-2.2.11-3.25-.71-3.13-2.47v-.99h-5.28c0,1.87-1.15,3.41-3.46,4.62ZM146.26,302.78l-6.27-2.64c-2.09.88-4.84,1.65-8.25,2.31-.11-.33-.39-.88-.83-1.65-.22-.44-.39-.71-.5-.82,2.2-.33,4.12-.77,5.77-1.32-1.65-.55-3.3-1.15-4.95-1.81l1.65-1.98c2.53.77,4.84,1.6,6.93,2.47,1.32-.66,2.53-1.48,3.63-2.47h-12.21v-2.47h15.84v2.8c-1.1,1.32-2.42,2.42-3.96,3.3,1.65.66,3.24,1.27,4.78,1.81l-1.65,2.47ZM141.64,310.37h-6.6v.33c-.11,1.32.55,1.92,1.98,1.81h4.62v-2.14Z"/>
    <path class="cls-3" d="M202.47,307.07c-.33-.22-.77-.44-1.32-.66-.66-.33-1.16-.55-1.49-.66v8.25h-8.91v4.45c.11,2.86-1.43,4.29-4.62,4.29h-3.96c-.33-.77-.61-1.87-.83-3.3h3.63c1.32.11,1.92-.44,1.82-1.65v-3.79h-9.24v-7.59c-.66.33-1.43.66-2.31.99l-1.48-2.31c-.11,7.48-2.04,13.53-5.77,18.15-1.1-.77-2.2-1.65-3.3-2.64,3.08-3.85,4.78-8.19,5.11-13.03-1.65.99-3.36,2.14-5.11,3.46l-.66-4.29c.44-.22,1.1-.6,1.98-1.16,1.76-.99,3.08-1.76,3.96-2.31v-16.17h15.34l-1.15-2.97,4.78-.49c.11.33.33.88.66,1.65.22.77.38,1.38.5,1.81h13.86v3.13h-12.87c-.33.99-.66,1.92-.99,2.8h12.7v3.13h-10.23c.99,1.32,2.03,2.47,3.13,3.46,1.65-1.1,3.19-2.14,4.62-3.13l2.31,2.14c-.55.44-1.43.99-2.64,1.65-.77.55-1.32.94-1.65,1.15,1.65.88,3.57,1.65,5.77,2.31-.55.88-1.1,1.98-1.65,3.3ZM166.68,301.79c-.22-.99-.61-2.58-1.15-4.78-.55-2.09-.99-3.63-1.32-4.62l2.97-.82c.22.66.5,1.71.83,3.13.77,2.75,1.32,4.84,1.65,6.27l-2.97.83ZM175.59,322.41c-.11-.11-.39-.44-.83-.99-.77-.77-1.32-1.32-1.65-1.65,3.41-1.98,5.99-3.74,7.75-5.28l2.64,2.47c-.77.55-2.09,1.43-3.96,2.64-1.87,1.32-3.19,2.25-3.96,2.8ZM175.59,296.18v-3.13h10.56c0-.22.11-.6.33-1.15.11-.77.22-1.32.33-1.65h-13.03v14.02c2.09-.99,3.85-1.92,5.28-2.8-.44-.44-1.21-1.04-2.31-1.81-.66-.44-1.15-.77-1.48-.99l2.31-2.14c1.43,1.1,2.8,2.14,4.12,3.13.99-.77,1.98-1.92,2.97-3.46h-9.07ZM181.36,304.6v2.14h14.52v-2.14h-14.52ZM181.36,309.05v2.47h14.52v-2.47h-14.52ZM188.78,296.18c-1.1,2.2-2.64,4.12-4.62,5.77h9.24c-1.76-1.54-3.3-3.46-4.62-5.77ZM200.99,322.25c-2.86-2.09-5.5-3.74-7.92-4.95l2.31-2.64c.88.55,2.14,1.32,3.79,2.31,1.98,1.1,3.35,1.87,4.12,2.31l-2.31,2.97Z"/>
    <path class="cls-3" d="M219.27,303.77v-6.6h1.65v-11.88h13.53v11.88h1.65v6.6h-1.98v14.85c0,2.64-1.05,4.01-3.13,4.12h-3.3v-.5c-.11-.66-.33-1.6-.66-2.8.66.11,1.48.16,2.47.16s1.43-.44,1.32-1.32v-1.48h-5.94v6.27h-3.3v-19.3h-2.31ZM222.57,300.31v2.8h10.39v-2.8h-10.39ZM224.22,288.43v2.47h5.11v6.27h1.98v-8.74h-7.09ZM227.02,293.54h-2.8v3.63h2.8v-3.63ZM224.88,305.92v2.8h5.94v-2.8h-5.94ZM224.88,311.36v2.8h5.94v-2.8h-5.94ZM237.91,315.48v-7.42h18.81v7.42h-2.8l.82.17c-.66,1.21-1.38,2.26-2.14,3.13h6.43v2.97h-23.26v-2.97h6.43l-2.14-2.97,1.32-.33h-3.46ZM236.42,305.92v-2.8h22.27v2.8h-22.27ZM237.41,301.13v-13.86h5.11v-3.46h3.3v3.46h2.97v-3.46h3.46v3.46h5.11v13.86h-19.96ZM240.38,290.08v2.8h2.97v-2.8h-2.97ZM240.38,295.36v2.97h2.97v-2.97h-2.97ZM241.54,310.53v2.47h11.55v-2.47h-11.55ZM243.68,315.48c.11.22.27.44.49.66.44.88,1.04,1.76,1.82,2.64h2.97l2.14-3.3h-7.42ZM245.83,290.08v2.8h2.97v-2.8h-2.97ZM245.83,295.36v2.97h2.97v-2.97h-2.97ZM254.24,290.08h-2.8v2.8h2.8v-2.8ZM251.44,295.36v2.97h2.8v-2.97h-2.8Z"/>
    <path class="cls-3" d="M276.64,321.92c-.88-1.21-1.81-2.37-2.8-3.46,2.97-1.54,6.49-3.96,10.56-7.26l2.97,2.97c-1.98,1.54-4.73,3.52-8.25,5.94-1.1.77-1.93,1.37-2.47,1.81ZM279.12,300.47l-1.32-3.79c1.43-.33,2.64-.77,3.63-1.32,2.64-1.43,5.33-3.08,8.08-4.95-4.51.11-8.74.28-12.7.5-.22-1.32-.5-2.64-.83-3.96,12.21-.33,23.86-.88,34.97-1.65l.99,3.79c-2.31.11-5.94.33-10.89.66-1.65.11-2.92.22-3.79.33-4.07,2.53-7.86,4.73-11.38,6.6,4.62-.22,8.52-.33,11.71-.33,2.64-1.65,5.22-3.24,7.75-4.78l3.46,2.97c-8.25,4.62-15.89,8.58-22.93,11.88,1.54,0,4.12-.11,7.75-.33,4.51-.11,7.86-.22,10.06-.33l-3.63-3.63,3.13-1.98c4.18,3.96,7.42,7.09,9.73,9.4l-3.13,2.64-2.8-2.97-10.23.33v7.59c.22,3.52-1.6,5.33-5.44,5.44-.99.11-2.75.17-5.28.17-.22-1.65-.55-3.08-.99-4.29,1.54.11,3.08.17,4.62.17,1.87.11,2.75-.71,2.64-2.47v-6.43l-10.56.5c-1.32,0-2.59.11-3.79.33l-1.49-4.12c.99-.11,2.58-.6,4.78-1.49,3.3-1.54,6.71-3.24,10.23-5.11-.99.11-2.47.17-4.45.17-1.98.11-3.46.17-4.45.17h-.49c-.99.22-1.98.33-2.97.33ZM310.62,321.59c-2.97-2.2-6.54-4.62-10.72-7.26l2.97-3.13c3.08,1.98,6.6,4.4,10.56,7.26l-2.8,3.13Z"/>
  </g>
  <g>
    <path class="cls-3" d="M6.23,353.99v-6.13l-5.34-8.44h3.45l3.43,5.77,3.36-5.77h3.39l-5.36,8.46v6.11h-2.93Z"/>
    <path class="cls-3" d="M23.83,353.99v-1.58c-.38.56-.89,1.01-1.52,1.33-.63.33-1.29.49-1.98.49s-1.35-.16-1.91-.47c-.56-.31-.97-.75-1.22-1.31s-.38-1.34-.38-2.34v-6.68h2.79v4.85c0,1.49.05,2.39.15,2.73s.29.6.56.79c.27.2.62.29,1.03.29.48,0,.91-.13,1.28-.39.38-.26.64-.59.78-.97.14-.39.21-1.34.21-2.85v-4.45h2.79v10.56h-2.59Z"/>
    <path class="cls-3" d="M33.44,346.65l-2.54-.46c.29-1.02.78-1.78,1.47-2.27.7-.49,1.73-.74,3.1-.74,1.25,0,2.17.15,2.78.44.61.3,1.04.67,1.29,1.12.25.45.37,1.29.37,2.5l-.03,3.26c0,.93.04,1.61.13,2.05.09.44.26.91.5,1.42h-2.76c-.07-.19-.16-.46-.27-.83-.05-.17-.08-.28-.1-.33-.48.46-.99.81-1.53,1.04-.54.23-1.12.35-1.74.35-1.09,0-1.94-.29-2.57-.88-.63-.59-.94-1.33-.94-2.24,0-.6.14-1.13.43-1.6.29-.47.68-.83,1.2-1.07.51-.25,1.25-.47,2.22-.65,1.31-.25,2.21-.47,2.71-.69v-.28c0-.54-.13-.92-.4-1.15-.26-.23-.76-.34-1.5-.34-.5,0-.88.1-1.16.29s-.5.54-.68,1.03ZM37.18,348.92c-.36.12-.92.26-1.7.43-.78.17-1.28.33-1.52.49-.36.26-.55.59-.55.98s.15.73.44,1.01.66.43,1.11.43c.5,0,.98-.17,1.44-.5.34-.25.56-.56.67-.92.07-.24.11-.69.11-1.36v-.56Z"/>
    <path class="cls-3" d="M54.32,353.99h-2.79v-5.39c0-1.14-.06-1.88-.18-2.21-.12-.33-.31-.6-.58-.78s-.59-.28-.97-.28c-.48,0-.92.13-1.3.4-.38.26-.65.62-.79,1.05s-.21,1.25-.21,2.43v4.78h-2.79v-10.56h2.6v1.55c.92-1.19,2.08-1.79,3.48-1.79.62,0,1.18.11,1.69.33.51.22.9.51,1.16.85s.44.74.55,1.17c.1.44.15,1.06.15,1.88v6.56Z"/>
    <path class="cls-3" d="M66.91,353.99v-14.58h6.19c1.56,0,2.69.13,3.4.39s1.27.73,1.7,1.4c.42.67.64,1.44.64,2.3,0,1.09-.32,2-.96,2.71-.64.71-1.6,1.16-2.88,1.35.64.37,1.16.78,1.58,1.22s.97,1.23,1.67,2.37l1.78,2.84h-3.52l-2.13-3.17c-.76-1.13-1.27-1.85-1.55-2.14s-.57-.5-.88-.61c-.31-.11-.81-.16-1.48-.16h-.6v6.08h-2.94ZM69.86,345.58h2.18c1.41,0,2.29-.06,2.65-.18.35-.12.63-.33.83-.62.2-.29.3-.66.3-1.09,0-.49-.13-.89-.39-1.19s-.63-.49-1.11-.57c-.24-.03-.96-.05-2.15-.05h-2.3v3.7Z"/>
    <path class="cls-3" d="M90.57,353.99v-1.58c-.38.56-.89,1.01-1.52,1.33-.63.33-1.29.49-1.98.49s-1.35-.16-1.91-.47c-.56-.31-.97-.75-1.22-1.31s-.38-1.34-.38-2.34v-6.68h2.79v4.85c0,1.49.05,2.39.15,2.73s.29.6.56.79c.27.2.62.29,1.03.29.48,0,.91-.13,1.28-.39.38-.26.64-.59.78-.97.14-.39.21-1.34.21-2.85v-4.45h2.79v10.56h-2.59Z"/>
    <path class="cls-3" d="M107.7,353.99h-2.79v-5.39c0-1.14-.06-1.88-.18-2.21-.12-.33-.31-.6-.58-.78s-.59-.28-.97-.28c-.48,0-.92.13-1.3.4-.38.26-.65.62-.79,1.05s-.21,1.25-.21,2.43v4.78h-2.79v-10.56h2.6v1.55c.92-1.19,2.08-1.79,3.48-1.79.62,0,1.18.11,1.69.33.51.22.9.51,1.16.85s.44.74.55,1.17c.1.44.15,1.06.15,1.88v6.56Z"/>
    <path class="cls-3" d="M112.31,354.68l3.19.39c.05.37.18.63.37.77.26.2.68.3,1.25.3.73,0,1.28-.11,1.64-.33.25-.15.43-.38.56-.71.09-.23.13-.66.13-1.28v-1.54c-.83,1.14-1.89,1.71-3.16,1.71-1.42,0-2.54-.6-3.37-1.8-.65-.95-.97-2.13-.97-3.54,0-1.77.43-3.12,1.28-4.06.85-.93,1.91-1.4,3.18-1.4s2.38.57,3.23,1.72v-1.48h2.62v9.47c0,1.25-.1,2.18-.31,2.79s-.49,1.1-.87,1.45c-.37.35-.87.63-1.49.83-.62.2-1.4.3-2.35.3-1.79,0-3.06-.31-3.81-.92s-1.12-1.39-1.12-2.33c0-.09,0-.21,0-.34ZM114.81,348.49c0,1.12.22,1.94.65,2.46.43.52.97.78,1.61.78.68,0,1.26-.27,1.73-.8.47-.53.71-1.32.71-2.37s-.23-1.91-.68-2.44c-.45-.53-1.02-.8-1.71-.8s-1.22.26-1.66.78c-.43.52-.65,1.31-.65,2.38Z"/>
    <path class="cls-3" d="M134.72,353.99v-14.58h4.4l2.65,9.94,2.61-9.94h4.42v14.58h-2.73v-11.47l-2.89,11.47h-2.83l-2.88-11.47v11.47h-2.73Z"/>
    <path class="cls-3" d="M159.85,350.63l2.78.47c-.36,1.02-.92,1.8-1.7,2.33-.77.53-1.74.8-2.9.8-1.84,0-3.2-.6-4.08-1.8-.7-.96-1.04-2.17-1.04-3.64,0-1.75.46-3.12,1.37-4.11.91-.99,2.07-1.49,3.47-1.49,1.57,0,2.81.52,3.72,1.56.91,1.04,1.34,2.63,1.3,4.77h-7c.02.83.25,1.47.68,1.93s.97.69,1.61.69c.44,0,.8-.12,1.1-.36.3-.24.52-.62.68-1.15ZM160.01,347.8c-.02-.81-.23-1.42-.63-1.84-.4-.42-.88-.63-1.45-.63-.61,0-1.11.22-1.51.67-.4.44-.59,1.05-.59,1.81h4.18Z"/>
    <path class="cls-3" d="M176.78,353.99h-2.59v-1.55c-.43.6-.94,1.05-1.53,1.35s-1.18.44-1.77.44c-1.21,0-2.25-.49-3.12-1.47s-1.3-2.34-1.3-4.09.42-3.15,1.26-4.08,1.91-1.4,3.19-1.4c1.18,0,2.2.49,3.06,1.47v-5.25h2.79v14.58ZM169.33,348.48c0,1.13.16,1.94.47,2.45.45.73,1.08,1.09,1.89,1.09.64,0,1.19-.27,1.64-.82.45-.55.68-1.36.68-2.45,0-1.21-.22-2.09-.66-2.62s-1-.8-1.68-.8-1.22.26-1.67.79c-.45.53-.67,1.31-.67,2.36Z"/>
    <path class="cls-3" d="M181.57,342v-2.58h2.79v2.58h-2.79ZM181.57,353.99v-10.56h2.79v10.56h-2.79Z"/>
    <path class="cls-3" d="M198.47,346.55l-2.75.5c-.09-.55-.3-.96-.63-1.24s-.75-.42-1.28-.42c-.7,0-1.25.24-1.67.72-.41.48-.62,1.28-.62,2.41,0,1.25.21,2.14.63,2.66.42.52.99.78,1.7.78.53,0,.96-.15,1.3-.45s.58-.82.72-1.56l2.74.47c-.29,1.26-.83,2.21-1.64,2.85s-1.89.96-3.25.96c-1.54,0-2.78-.49-3.69-1.46-.92-.97-1.38-2.32-1.38-4.05s.46-3.1,1.38-4.07c.92-.97,2.17-1.46,3.74-1.46,1.29,0,2.31.28,3.07.83.76.55,1.3,1.4,1.64,2.53Z"/>
    <path class="cls-3" d="M204.71,346.65l-2.54-.46c.29-1.02.78-1.78,1.47-2.27.7-.49,1.73-.74,3.1-.74,1.25,0,2.17.15,2.78.44.61.3,1.04.67,1.29,1.12.25.45.37,1.29.37,2.5l-.03,3.26c0,.93.04,1.61.13,2.05.09.44.26.91.5,1.42h-2.76c-.07-.19-.16-.46-.27-.83-.05-.17-.08-.28-.1-.33-.48.46-.99.81-1.53,1.04-.54.23-1.12.35-1.74.35-1.09,0-1.94-.29-2.57-.88-.63-.59-.94-1.33-.94-2.24,0-.6.14-1.13.43-1.6.29-.47.68-.83,1.2-1.07.51-.25,1.25-.47,2.22-.65,1.31-.25,2.21-.47,2.71-.69v-.28c0-.54-.13-.92-.4-1.15-.26-.23-.76-.34-1.5-.34-.5,0-.88.1-1.16.29s-.5.54-.68,1.03ZM208.45,348.92c-.36.12-.92.26-1.7.43-.78.17-1.28.33-1.52.49-.36.26-.55.59-.55.98s.15.73.44,1.01.66.43,1.11.43c.5,0,.98-.17,1.44-.5.34-.25.56-.56.67-.92.07-.24.11-.69.11-1.36v-.56Z"/>
    <path class="cls-3" d="M215.99,353.99v-14.58h2.79v14.58h-2.79Z"/>
    <path class="cls-3" d="M230.65,349.25l2.86-.28c.17.96.52,1.67,1.05,2.12.53.45,1.24.68,2.13.68.95,0,1.66-.2,2.14-.6.48-.4.72-.87.72-1.41,0-.34-.1-.64-.3-.88s-.55-.45-1.06-.63c-.34-.12-1.13-.33-2.36-.64-1.58-.39-2.68-.87-3.32-1.44-.89-.8-1.34-1.78-1.34-2.93,0-.74.21-1.44.63-2.08s1.03-1.14,1.82-1.48c.79-.34,1.75-.51,2.87-.51,1.83,0,3.21.4,4.13,1.2s1.41,1.87,1.46,3.21l-2.94.13c-.13-.75-.4-1.29-.81-1.62s-1.04-.49-1.86-.49-1.52.18-2.01.53c-.31.23-.47.53-.47.9,0,.34.15.64.44.89.37.31,1.27.64,2.7.97,1.43.34,2.49.69,3.18,1.05.69.36,1.22.86,1.61,1.48.39.63.58,1.4.58,2.32,0,.83-.23,1.62-.7,2.35-.46.73-1.12,1.27-1.97,1.63-.85.35-1.91.53-3.17.53-1.84,0-3.26-.43-4.25-1.28-.99-.85-1.58-2.09-1.77-3.72Z"/>
    <path class="cls-3" d="M245.67,343.43h2.97l2.53,7.5,2.47-7.5h2.89l-3.73,10.16-.67,1.84c-.25.62-.48,1.09-.7,1.41-.22.32-.48.59-.76.79-.29.2-.64.36-1.06.47-.42.11-.9.17-1.43.17s-1.06-.06-1.58-.17l-.25-2.19c.44.09.83.13,1.18.13.65,0,1.13-.19,1.44-.57s.55-.87.72-1.46l-4.02-10.59Z"/>
    <path class="cls-3" d="M259.37,350.98l2.8-.43c.12.54.36.96.73,1.24.36.28.88.42,1.53.42.72,0,1.27-.13,1.63-.4.25-.19.37-.43.37-.75,0-.21-.07-.39-.2-.53-.14-.13-.45-.25-.93-.37-2.25-.5-3.68-.95-4.29-1.36-.84-.57-1.25-1.36-1.25-2.38,0-.91.36-1.68,1.08-2.31.72-.62,1.84-.93,3.36-.93s2.52.24,3.22.71c.7.47,1.19,1.17,1.45,2.09l-2.63.49c-.11-.41-.33-.73-.64-.94s-.76-.33-1.35-.33c-.74,0-1.26.1-1.58.31-.21.15-.32.33-.32.57,0,.2.09.37.28.51.25.19,1.12.45,2.61.79,1.49.34,2.53.75,3.12,1.24.58.5.88,1.19.88,2.08,0,.97-.4,1.8-1.21,2.5-.81.7-2,1.04-3.59,1.04-1.44,0-2.58-.29-3.42-.88-.84-.58-1.39-1.38-1.65-2.38Z"/>
    <path class="cls-3" d="M278.55,343.43v2.23h-1.91v4.26c0,.86.02,1.36.05,1.51s.12.26.25.35c.13.09.29.14.47.14.26,0,.63-.09,1.12-.27l.24,2.17c-.65.28-1.39.42-2.21.42-.5,0-.96-.08-1.36-.25s-.7-.39-.89-.66c-.19-.27-.32-.63-.39-1.09-.06-.33-.09-.98-.09-1.97v-4.6h-1.28v-2.23h1.28v-2.1l2.8-1.63v3.73h1.91Z"/>
    <path class="cls-3" d="M288.64,350.63l2.78.47c-.36,1.02-.92,1.8-1.7,2.33-.77.53-1.74.8-2.9.8-1.84,0-3.2-.6-4.08-1.8-.7-.96-1.04-2.17-1.04-3.64,0-1.75.46-3.12,1.37-4.11.91-.99,2.07-1.49,3.47-1.49,1.57,0,2.81.52,3.72,1.56.91,1.04,1.34,2.63,1.3,4.77h-7c.02.83.25,1.47.68,1.93s.97.69,1.61.69c.44,0,.8-.12,1.1-.36.3-.24.52-.62.68-1.15ZM288.8,347.8c-.02-.81-.23-1.42-.63-1.84-.4-.42-.88-.63-1.45-.63-.61,0-1.11.22-1.51.67-.4.44-.59,1.05-.59,1.81h4.18Z"/>
    <path class="cls-3" d="M295.68,343.43h2.58v1.44c.92-1.12,2.02-1.68,3.29-1.68.68,0,1.26.14,1.76.42s.9.7,1.22,1.26c.46-.56.96-.98,1.5-1.26s1.11-.42,1.72-.42c.78,0,1.43.16,1.97.47.54.31.94.78,1.2,1.39.19.45.29,1.18.29,2.19v6.75h-2.79v-6.04c0-1.05-.1-1.72-.29-2.03-.26-.4-.66-.6-1.19-.6-.39,0-.76.12-1.1.36-.34.24-.59.59-.75,1.05s-.23,1.19-.23,2.18v5.07h-2.79v-5.79c0-1.03-.05-1.69-.15-1.99-.1-.3-.25-.52-.46-.67-.21-.15-.49-.22-.85-.22-.43,0-.82.12-1.16.35-.34.23-.59.57-.74,1-.15.44-.22,1.16-.22,2.18v5.13h-2.79v-10.56Z"/>
  </g>
  <g>
    <path class="cls-2" d="M312.58,74.69C305.65.05,218.28-25.55,170.27,29.85c1.72,11.04-8.11,13.67-8.62,15.56-.26.97-1,11.66,1.85,10.14.99-.53,8.13-16.11,11.04-19.61,4.13-4.96,8.88-7.8,15.38-8.54,35.11-30.34,91.8-14.68,106.5,29.13,10.57,31.51,3.9,58.05-18.07,82.28.43,1.54,2.78,8.27,2.45,8.56-3.66-.11-7.39.18-11.05,0-33.26,34.5-84.73,46.89-112.37,88.14-28.15-38.16-74.89-56.02-109.35-86.88C17.39,121.17-2.54,77.78,25.35,40.86c-.41-4.79.29-9.87.01-14.69,2.68,1.8,4.75,4.16,7.36,6.12,18.73-19.3,46.3-25.56,71.55-15.62,6.7,2.64,10.16,6.42,15.65,9.5,5.81,3.26,8.41,2.54,13.57,4.23,7,2.3,10.41,15.87,14.68,21.48,1.19-.49,2.01-1.22,2.46-2.45-.28-.48.31-3.57-.25-5.22-1.26-3.71-5.97-4.45-5.89-11.92C73.7-50.51-44.67,42.77,18.2,133.07c21.25,30.52,56.53,48.59,86.13,69.62,20.44,14.52,44.18,31.77,50.58,57.31,14.48-25.53,36.67-45.63,61.39-61.23,46.15-29.14,102.33-59,96.28-124.08Z"/>
    <g>
      <path class="cls-6" d="M254.4,146.16c-4.49-.8-6.05-11.43-6.6-15.46-.42-3.07-.59-21.69-1.37-22.51h-17.2v18.98c0,4.18-4.45,16.19-6.75,20.2h-27.63c5.92-13.75,10.25-28.01,6.8-42.89-1.4-6.02-5.44-12.07-6.8-17.1-.22-.8-1.22-7.71-1.23-8.57-8.52-1.39-12.09-8.43-16.59-14.69-3.42,9.82,15.04,16.78,16.59,23.26,2.74,11.51-11.59,12.83-17.21,4.3-1.71-2.6-1.79-6.46-2.75-7.67-.41-.51-11.53-5.68-11.97-5.2v14.69c17.15.07,29.95,13.05,21.12,30.23-1.49,2.89-6.87,6.65-7.11,8.27-.46,3.1,1.45,8.37.44,13.25-.84,4.08-4.96,6.84-5.6,9.1-1.61,5.71-1.31,17.81-3.24,23.7-1.08,3.27-4.72,3.64-5.41,5.62-1.56,4.47,2.92,19.4-5.75,18.71-9.77-.78-3.81-25.35-5.44-32.18-.42-1.74-7.24-.55-7.53-9.99-.06-2.05,1.32-4.48,1.04-5.98-.42-2.3-7.49-8.02-8.05-13.91-.34-3.61,4.08-10.22,3.37-11.24-1.67-2.39-10.11-3.12-11.94-12.01-1.88-9.14,4.79-15.02,4.5-16.69-.28-1.61-5.25-4.58-6.33-7.21-1.18-2.9-.13-6.16-2.15-8.27-5.9,1.31-22.27-.46-25.12,3.73-4.34,6.36-1.83,12.83-1.84,18.87-.02,15.74-1.28,31.8,2.41,47.17-3.78,1.59-18.42,2.67-19.45-1.93l4.81-48.85c-1.44-4.96-.41-14.22-5.33-16.84-5.93-3.16-18.06-4.49-25.94-8.42-15.22-7.58-26.29-20.5-27.79-37.8-27.89,36.91-7.96,80.31,22.69,107.77,34.45,30.87,81.2,48.73,109.35,86.88,27.64-41.25,79.12-53.64,112.37-88.14-4.87-.23-10.05-2.16-15.36-1.22Z"/>
      <path class="cls-6" d="M197.8,144.93h-.44l-2.52,2.45c1.11-.54,2.09-1.39,2.96-2.45Z"/>
      <path class="cls-6" d="M296.42,56.52c-14.69-43.81-71.38-59.47-106.5-29.13,12.05-1.36,22.15,3.44,33.16,7.35,27.85-8.9,60.95,12.47,60.22,42.17-.32,12.77-9.9,26.4-9.97,35.58-.06,7.81,2.87,18.69,5.02,26.31,21.96-24.23,28.64-50.77,18.07-82.28Z"/>
      <path class="cls-6" d="M84.34,37.85c12.76-1.66,22.25-12.63,35.57-11.67-5.48-3.08-8.95-6.86-15.65-9.5-25.25-9.94-52.82-3.68-71.55,15.62,9.04,6.81,11.22,5.31,20.88,8.57l30.75-3.02Z"/>
      <path class="cls-6" d="M150.61,121.66v-15.91c-5.27-2.58-16.73,6.48-13.46,10.95.42.58,11.45,3.86,13.46,4.96Z"/>
      <path class="cls-6" d="M161.67,106.97v17.14c11.02-5.12,17.19-17.41,0-17.14Z"/>
      <path class="cls-6" d="M150.61,92.28v-13.47c-14.69,1.67-16.24,12.15,0,13.47Z"/>
      <path class="cls-6" d="M150.01,131.47c-7.84,3.01-7.77,12.73.6,14.68l-.6-14.68Z"/>
      <path class="cls-6" d="M162.28,132.69l-.6,12.24c1.14-.82,6.08-6.28,6.08-6.73,0-.62-4.66-4.32-5.48-5.5Z"/>
      <path class="cls-6" d="M196.06,62.9c.3-1.03.84-2.76,1.23-3.67l-6.13-2.45c-.5,4.16.28,6.64,4.9,6.12Z"/>
      <path class="cls-6" d="M150.61,164.51l-.6-8.56c-2.75,1.68-2.34,7.55.6,8.56Z"/>
      <path class="cls-6" d="M188.1,89.82c2.91,1.22.8-3.48.58-3.66-2.3-1.88-3.88,2.28-.58,3.66Z"/>
      <path class="cls-6" d="M205.89,45.76c1.65-.33,2.52-1.56,3.68-2.45h-4.91c-.47,1.24,1.21,2.27,1.22,2.45Z"/>
      <path class="cls-6" d="M251.94,93.5c22.72-16.57,3.95-52.14-22.71-41.62l18.42,3.69c-2.03,1.89-8.28,10.17-9.83,11.01,10.21.62,16.59,7.46,16.05,17.78-.21,3.96-2.41,5.87-1.94,9.14Z"/>
      <path class="cls-6" d="M224.31,93.5c-4.62-9.95-3.3-19.48,6.15-25.7-4.39.09-10.9-.92-14.74-2.45-.66,1.56-.82,1.92-1.23,3.67l7.37,2.46-7.37,6.11c1.14,5.83,3.04,13.97,9.82,15.91Z"/>
      <path class="cls-6" d="M110.09,44.54c-1.2-1.26-29.92,5.7-34.38,6.12.36.29,3.25,3.18,3.68,3.67,3.94-1.52,29.64-4.99,30.71-6.13.13-.13.12-3.53-.01-3.66Z"/>
      <path class="cls-6" d="M60.96,58c-.92-.48-5.64-4.26-6.13-3.67-.61,3.29,2.88,3.57,4.9,4.9,2.79,1.83,5.14,2.42,7.37,3.67.85.48,4.46,4.23,4.9,3.67.56-2.71-1.89-3.49-3.67-4.9-2.82-2.22-4.85-2.37-7.37-3.67Z"/>
      <path class="cls-6" d="M133.43,65.34c-.53-4.67-8.36.46-7.37,1.23l7.37-1.23Z"/>
      <path class="cls-6" d="M97.81,71.47c.41-.95,3.09-5.44,3.68-6.12l-14.74,2.45c1.02,3.9,1.73,9.49,1.23,13.47-.67-.17-1.16-.17-1.51-.02-1.41-.61-1.48-3.07-3.39-3.65-.54,2.93,2.62,5.19,3.67,7.34.96,1.95,1.69,5.17,2.47,7.34.66.5,6.79-7.07,7.01-8.12.38-1.75-.5-5.53.34-9.02.21-.88.87-2.83,1.23-3.67Z"/>
      <path class="cls-6" d="M115,70.23c.09-.09.46-2.58-.6-2.43-6.39,2.35-1.99,5.06.6,2.43Z"/>
    </g>
    <g>
      <path class="cls-1" d="M209.57,43.31c2.74-2.1,10.74-7.69,13.51-8.57-11.01-3.9-21.11-8.7-33.16-7.35-6.51.73-11.25,3.58-15.38,8.54-2.91,3.49-10.05,19.08-11.04,19.61-2.84,1.52-2.11-9.17-1.85-10.14.51-1.89,10.34-4.52,8.62-15.56-2.14-13.7-25.64-13.66-25.79,2.45-.07,7.47,4.63,8.21,5.89,11.92.56,1.65-.03,4.74.25,5.22.33.57,2.88-2.09,2.16,3.92-1.76,14.68-14.78,28.39-29.18,31.58,2.02,2.1.97,5.37,2.15,8.27,1.07,2.64,6.05,5.61,6.33,7.21.29,1.67-6.39,7.55-4.5,16.69,1.83,8.88,10.27,9.61,11.94,12.01.71,1.02-3.71,7.63-3.37,11.24.56,5.89,7.63,11.61,8.05,13.91.27,1.5-1.11,3.93-1.04,5.98.29,9.44,7.12,8.25,7.53,9.99,1.63,6.83-4.33,31.4,5.44,32.18,8.67.69,4.19-14.24,5.75-18.71.69-1.98,4.34-2.35,5.41-5.62,1.93-5.89,1.63-17.99,3.24-23.7.64-2.26,4.76-5.02,5.6-9.1,1.01-4.88-.9-10.14-.44-13.25.24-1.62,5.63-5.38,7.11-8.27,8.84-17.18-3.96-30.17-21.13-30.23v-14.69c.45-.48,11.57,4.69,11.98,5.2.97,1.2,1.04,5.07,2.75,7.67,5.61,8.53,19.95,7.21,17.21-4.3-1.54-6.47-20.01-13.44-16.59-23.26,4.5,6.26,8.06,13.3,16.59,14.69-.04-4.07,1.3-11.94,2.46-15.92-4.62.52-5.4-1.96-4.9-6.12l6.13,2.45c1.37-3.19,8.74-11.46,8.6-13.47-.01-.17-1.7-1.21-1.22-2.44h4.91ZM150.62,78.81v13.47c-16.24-1.31-14.69-11.79,0-13.47ZM150.01,155.95l.6,8.56c-2.93-1.01-3.35-6.88-.6-8.56ZM150.01,131.47l.6,14.68c-8.37-1.95-8.44-11.67-.6-14.68ZM150.61,121.66c-2-1.11-13.04-4.38-13.46-4.96-3.27-4.47,8.19-13.54,13.47-10.95v15.91ZM161.69,144.93l.6-12.24c.83,1.18,5.49,4.88,5.48,5.5,0,.45-4.94,5.91-6.08,6.73ZM161.67,106.97c17.19-.27,11.02,12.02,0,17.14v-17.14ZM188.68,86.16c.22.18,2.33,4.87-.58,3.66-3.3-1.38-1.72-5.54.58-3.66Z"/>
      <path class="cls-1" d="M133.48,30.4c-5.15-1.69-7.76-.97-13.57-4.23-13.32-.96-22.81,10.01-35.57,11.67l-30.75,3.02c7.39,2.5,15.86,4.79,22.11,9.79,4.46-.42,33.18-7.38,34.38-6.12.13.13.14,3.53.01,3.66-1.07,1.14-26.77,4.61-30.71,6.13,2.78,3.16,6.31,9.38,7.37,13.47l14.74-2.45c11.68-13.5,31.31-7.12,46.67-13.47-4.27-5.61-7.68-19.18-14.68-21.48Z"/>
      <path class="cls-1" d="M213.09,73.31c.01,2.46,1.22,3.36,1.4,4.28l7.37-6.11-7.37-2.46c-.24,1.04-1.41,1.77-1.4,4.29Z"/>
      <path class="cls-1" d="M229.22,51.88c-7.76,3.06-10.26,5.83-13.51,13.47,3.84,1.53,10.34,2.54,14.74,2.45,1.16-.02,6.76-.9,7.37-1.22,1.55-.83,7.79-9.12,9.83-11.01l-18.42-3.69Z"/>
    </g>
    <path class="cls-4" d="M150.62,49.43c-.45,1.23-1.26,1.95-2.46,2.45-15.36,6.35-34.99-.04-46.67,13.47-.59.69-3.28,5.17-3.68,6.12-.36.84-1.02,2.79-1.23,3.67-.84,3.49.04,7.27-.34,9.02-.23,1.05-6.35,8.62-7.01,8.12-.78-2.18-1.52-5.39-2.47-7.34-1.05-2.15-4.21-4.42-3.67-7.34,1.91.57,1.98,3.04,3.39,3.65.35-.14.84-.15,1.51.02.51-3.98-.21-9.56-1.23-13.47-1.06-4.08-4.59-10.31-7.37-13.47-.44-.5-3.32-3.38-3.68-3.67-6.25-5.01-14.71-7.3-22.11-9.79-9.66-3.26-11.84-1.76-20.88-8.57-2.61-1.96-4.68-4.32-7.36-6.12.28,4.82-.43,9.9-.01,14.69,1.49,17.3,12.57,30.22,27.79,37.8,7.88,3.93,20.01,5.26,25.94,8.42,4.92,2.62,3.88,11.88,5.33,16.84l-4.81,48.85c1.03,4.6,15.67,3.53,19.45,1.93-3.69-15.37-2.43-31.43-2.41-47.17,0-6.04-2.5-12.51,1.84-18.87,2.85-4.19,19.23-2.42,25.12-3.73,14.41-3.19,27.43-16.9,29.18-31.58.72-6.01-1.83-3.35-2.16-3.92ZM114.4,67.81c1.06-.16.69,2.33.6,2.43-2.59,2.64-7-.08-.6-2.43ZM54.83,54.33c.49-.59,5.21,3.2,6.13,3.67,2.52,1.31,4.55,1.45,7.37,3.67,1.78,1.4,4.23,2.18,3.67,4.9-.44.56-4.05-3.19-4.9-3.67-2.22-1.25-4.58-1.85-7.37-3.67-2.02-1.32-5.51-1.6-4.9-4.9ZM133.43,65.34l-7.37,1.23c-.99-.76,6.83-5.89,7.37-1.23Z"/>
    <path class="cls-5" d="M273.33,112.49c.07-9.18,9.65-22.81,9.97-35.58.74-29.7-32.37-51.07-60.22-42.17-2.77.88-10.77,6.47-13.51,8.57-1.16.89-2.03,2.12-3.68,2.45.14,2.01-7.22,10.28-8.6,13.47-.39.91-.93,2.64-1.23,3.67-1.15,3.98-2.5,11.85-2.46,15.92,0,.86,1.01,7.77,1.23,8.57,1.36,5.03,5.4,11.08,6.8,17.1,3.45,14.88-.88,29.14-6.8,42.89l2.52-2.45h.44c-.87,1.06-1.86,1.91-2.96,2.45h27.63c2.31-4.01,6.75-16.02,6.75-20.2v-18.98h17.2c.78.8.96,19.43,1.37,22.5.54,4.03,2.1,14.66,6.6,15.46,5.3-.94,10.48.99,15.36,1.22,3.66.17,7.39-.11,11.05,0,.33-.3-2.02-7.02-2.45-8.56-2.15-7.62-5.08-18.51-5.02-26.31ZM224.31,93.5c-6.78-1.94-8.68-10.08-9.82-15.91-.18-.92-1.39-1.82-1.4-4.28-.01-2.52,1.16-3.25,1.4-4.29.41-1.75.56-2.11,1.23-3.67,3.25-7.64,5.75-10.4,13.51-13.47,26.66-10.53,45.43,25.04,22.71,41.62-.48-3.27,1.73-5.18,1.94-9.14.54-10.32-5.85-17.16-16.05-17.78-.61.33-6.21,1.2-7.37,1.22-9.44,6.22-10.77,15.75-6.15,25.7Z"/>
  </g>
</svg>