<?xml version="1.0" encoding="UTF-8"?>
<svg id="_作圖" data-name="作圖" xmlns="http://www.w3.org/2000/svg" viewBox="0 0 300 150">
  <defs>
    <style>
      .cls-1 {
        fill: #193e59;
      }
    </style>
  </defs>
  <path class="cls-1" d="M291.21,92.56h8.79l-20.47-28.06c9.89-.89,16.12-9.61,16.12-19.91,0-15.08-11.34-19.19-23.54-19.19h-9.3v60.73h-18.85v-20.38h15.48v-6.92h-15.48v-26.37h12.42v-6.92h-19.58v17.19c-1.71-3.42-4.04-6.53-7.06-9.24-7.59-6.74-15.43-8.07-25.07-8.07h-12.11v33.26h-23.59v6.92h17c0,12.42-11.76,20.94-22.94,20.94-6.74,0-13.56-3.64-18.25-8.52-4.77-5.05-7.51-11.8-7.51-18.89,0-15.08,11.6-27.95,26.27-27.95,9.47,0,16.72,4.7,22.09,12.6l5.2-5.07c-6.82-9.22-15.95-14.46-27.21-14.46-13.23,0-24.67,7.98-30.12,19.53v-18.55h-7.16v54.26l-42.97-54.03h-7.19v16.19c-5.83-10.4-16.71-17.4-29.02-17.4-18.33,0-33.51,15.53-33.51,34.69,0,10.69,4.68,20.13,11.98,26.43h-14.23V25.43h-7.16v66.89h34.34c2.75.75,5.63,1.15,8.59,1.15,12.31,0,23.2-6.88,29.02-17.23v16.17h7.17v-55.06l43.05,55.06h7.11v-18.32c5.43,11.41,16.78,19.38,29.69,19.38,8.96,0,17.91-4.08,23.8-11.18,2.91-3.51,4.61-7.1,5.56-10.94v20.96h11.94c10.06,0,17.74-1.33,25.42-8.42,2.92-2.7,5.2-5.76,6.89-9.09v17.7h26.01v.06h7.17v-27.44h1.78l19.45,27.44ZM47.15,86.55c-14.58,0-26.35-12.59-26.35-27.68s11.6-27.67,26.35-27.67,26.36,12.51,26.36,27.67-11.77,27.68-26.36,27.68ZM225.22,78.49c-5.88,5.76-12.45,6.91-20.3,6.91h-5.2v-53.05h5.2c7.59,0,14.08,1.08,19.96,6.48,5.54,5.06,8.36,12.42,8.36,20.04s-2.73,14.46-8.02,19.61ZM269.98,32.33h2.13c8.62,0,16.38,1.8,16.38,12.8,0,10.39-8.19,13.44-16.29,13.44h-2.22v-26.24Z"/>
  <path class="cls-1" d="M157.91,62.22c0,2.32,1.8,4.21,4.04,4.21s4.04-1.88,4.04-4.21-1.82-4.2-4.04-4.2-4.04,1.88-4.04,4.2Z"/>
  <path class="cls-1" d="M292.84,21.45c3.72,0,6.74-3.14,6.74-6.99s-3.03-6.99-6.74-6.99-6.74,3.14-6.74,6.99,3.02,6.99,6.74,6.99ZM292.84,8.42c3.19,0,5.79,2.71,5.79,6.04s-2.6,6.04-5.79,6.04-5.79-2.71-5.79-6.04,2.6-6.04,5.79-6.04Z"/>
  <path class="cls-1" d="M291.65,15.31h1.69l1.31,3.22h1.39l-1.44-3.47c.89-.35,1.35-1.04,1.35-2,0-1.44-.92-2.19-2.74-2.19h-2.88v7.66h1.33v-3.22ZM291.65,11.93h1.43c.96,0,1.49.42,1.49,1.16s-.51,1.18-1.52,1.18h-1.4v-2.34Z"/>
  <path class="cls-1" d="M6.08,10.22c.56-.23,1-.59,1.3-1.08.31-.48.46-1,.46-1.55,0-.61-.13-1.12-.38-1.54-.26-.42-.61-.74-1.07-.98-.45-.24-1.16-.47-2.1-.69-.95-.22-1.55-.44-1.79-.64-.19-.16-.29-.36-.29-.59,0-.25.1-.45.31-.6.32-.23.76-.35,1.33-.35s.96.11,1.23.33c.27.22.45.57.54,1.07l1.95-.09c-.03-.89-.35-1.6-.96-2.13-.61-.53-1.52-.8-2.74-.8-.74,0-1.37.11-1.9.33-.52.22-.93.55-1.2.98-.28.43-.42.89-.42,1.38,0,.76.3,1.41.89,1.94.42.38,1.15.7,2.2.96.81.2,1.33.34,1.56.42.33.12.57.26.7.42.14.16.2.35.2.58,0,.35-.16.67-.48.93-.32.27-.79.4-1.42.4-.59,0-1.06-.15-1.41-.45-.35-.3-.58-.77-.69-1.4l-1.9.19c.13,1.08.52,1.9,1.17,2.47.65.56,1.59.85,2.81.85.84,0,1.54-.12,2.1-.35Z"/>
  <path class="cls-1" d="M50.92,10.4h1.85V.71h-1.5c-.21.59-.6,1.1-1.16,1.55-.57.44-1.09.74-1.57.9v1.68c.92-.3,1.71-.77,2.39-1.4v6.97Z"/>
  <path class="cls-1" d="M58.93,7.14c.7,0,1.28-.27,1.74-.81-.07,1.11-.25,1.84-.51,2.19-.27.35-.59.53-.97.53-.3,0-.55-.09-.73-.26-.18-.18-.3-.45-.34-.81l-1.79.2c.13.8.43,1.4.9,1.8.47.4,1.07.6,1.83.6,1.05,0,1.9-.39,2.56-1.17.65-.78.98-2.05.98-3.82s-.31-2.98-.94-3.74c-.63-.76-1.43-1.14-2.41-1.14-.9,0-1.64.3-2.22.9-.58.6-.87,1.39-.87,2.37s.28,1.7.83,2.29c.55.58,1.21.88,1.97.88ZM58.3,2.65c.22-.27.51-.4.85-.4.36,0,.68.16.95.49.27.33.41.79.41,1.39,0,.54-.12.96-.37,1.24-.24.28-.54.42-.9.42s-.68-.15-.92-.44c-.24-.29-.37-.75-.37-1.37s.11-1.06.34-1.33Z"/>
  <path class="cls-1" d="M29.27,10.57c1.04,0,1.89-.26,2.56-.77.67-.51,1.16-1.29,1.44-2.35l-1.89-.6c-.16.71-.43,1.22-.8,1.55-.37.33-.82.49-1.34.49-.7,0-1.27-.26-1.71-.78-.44-.52-.66-1.39-.66-2.61,0-1.15.22-1.98.67-2.49.44-.51,1.03-.77,1.74-.77.52,0,.96.14,1.32.43.36.29.6.69.71,1.19l1.93-.46c-.22-.77-.55-1.37-.99-1.78-.74-.7-1.7-1.05-2.88-1.05-1.35,0-2.44.45-3.27,1.33-.83.89-1.24,2.14-1.24,3.74,0,1.52.41,2.71,1.24,3.59.83.87,1.88,1.31,3.16,1.31Z"/>
  <path class="cls-1" d="M75.66,10.4h1.85V.71h-1.5c-.21.59-.6,1.1-1.16,1.55-.57.44-1.09.74-1.57.9v1.68c.92-.3,1.71-.77,2.39-1.4v6.97Z"/>
  <polygon class="cls-1" points="16.56 4.11 20.45 10.4 22.41 10.4 22.41 .75 20.6 .75 20.6 7.19 16.65 .75 14.75 .75 14.75 10.4 16.56 10.4 16.56 4.11"/>
  <path class="cls-1" d="M67.88,10.57c.91,0,1.65-.3,2.23-.89.58-.6.87-1.39.87-2.38,0-.93-.28-1.69-.83-2.28-.55-.59-1.21-.88-1.98-.88-.69,0-1.26.27-1.72.82.07-1.11.24-1.84.51-2.19.27-.35.6-.53.99-.53.29,0,.53.09.72.26.18.18.3.45.34.82l1.79-.2c-.13-.78-.44-1.38-.92-1.79-.48-.41-1.09-.62-1.82-.62-1.05,0-1.89.39-2.55,1.17-.65.78-.98,2.06-.98,3.82s.31,2.97.94,3.72c.63.76,1.43,1.13,2.4,1.13ZM66.98,5.91c.24-.28.55-.42.9-.42s.68.15.92.44c.25.29.37.75.37,1.38s-.11,1.05-.34,1.32c-.23.27-.51.4-.86.4s-.67-.16-.95-.49c-.28-.33-.41-.79-.41-1.39,0-.54.12-.96.37-1.24Z"/>
  <polygon class="cls-1" points="43.05 8.77 37.65 8.77 37.65 6.15 42.5 6.15 42.5 4.52 37.65 4.52 37.65 2.38 42.86 2.38 42.86 .75 35.71 .75 35.71 10.4 43.05 10.4 43.05 8.77"/>
  <rect class="cls-1" x="10.18" y=".75" width="1.95" height="9.65"/>
  <path class="cls-1" d="M16.27,116.14v13.36c0,1.23.82,1.84,2.46,1.84h5.77c.96,0,1.74-.21,2.35-.62.59-.36,1.02-1.15,1.28-2.4l-2.24-.64c-.23.89-.46,1.4-.69,1.55-.29.18-.69.27-1.2.27h-4.83c-.43,0-.64-.39-.64-1.18v-.85h7.37v-1.79h-7.37v-1.42h7.27v-1.81h-7.27v-1.25h7.27v-1.84h-7.27v-1.39h7.91v-5.56h-7.69v-1.68h8.34v-1.95h-8.34v-.75c.29-.29.43-.49.43-.62,0-.18-.2-.28-.59-.32l-2.08-.13v7.29h7.69v1.9h-7.91Z"/>
  <path class="cls-1" d="M249.94,116.96c.77-1.1,1.5-2.7,2.19-4.78.5-.2.75-.41.75-.64,0-.18-.15-.31-.45-.4l-2.64-.43c-.61,2.16-1.26,3.73-1.95,4.73-.93,1.45-2.27,2.81-4.04,4.12l2.03,1.71c1.83-1.48,3.21-2.91,4.11-4.3Z"/>
  <path class="cls-1" d="M234.4,124.58c1.2-.8,2.34-1.61,3.45-2.43.5,0,.75-.08.75-.24,0-.13-.05-.25-.16-.37l-1.66-1.63c-.96.96-2.07,1.92-3.31,2.86-.5-1.12-.92-2.43-1.25-3.93h4.35v-11.04h-11.97v20.63c-.8.16-1.62.3-2.46.42l.56,2.41c.04.25.13.37.29.37.18,0,.36-.14.54-.4,3.65-1.12,6.33-2.02,8.02-2.7v-2.03c-1.5.53-3.03.99-4.6,1.39v-9.06h3.05c.39,1.89.81,3.38,1.25,4.49.48,1.37,1.18,2.76,2.08,4.17.86,1.21,1.93,2.53,3.23,3.96l2.46-1.95c-2.12-1.67-3.66-3.32-4.62-4.92ZM226.95,109.83h7.26v2.46h-7.26v-2.46ZM226.95,116.78v-2.43h7.26v2.43h-7.26Z"/>
  <path class="cls-1" d="M260.36,121.19l-1.82,1.47c1.07,1.25,2.09,2.61,3.07,4.09-3.08.41-6.33.71-9.75.91,1.8-3.44,3.24-6.6,4.33-9.48.43-.29.64-.49.64-.62,0-.2-.18-.34-.54-.43l-2.46-.99c-.68,2.37-1.52,4.77-2.54,7.21-.55,1.34-1.25,2.82-2.08,4.46-1.35.05-2.74.09-4.14.11l.96,2.96c.04.3.21.46.54.46.26,0,.55-.22.85-.67l15.5-1.84c.51.87,1.01,1.77,1.5,2.7l2.35-1.61c-2.1-3.54-4.24-6.46-6.41-8.74Z"/>
  <path class="cls-1" d="M41.45,112.4v1.76s-.08-.05-.13-.08l-1.9-.91c-.89,1.51-1.79,2.78-2.7,3.79-.94,1.12-2.11,2.23-3.5,3.34l1.6,1.6c.57-.48,1.11-.96,1.61-1.44v11.06h2.24v-13.39c.73-.87,1.51-1.93,2.35-3.18.18-.05.32-.11.43-.19v4.57h15.92v-6.94h-7.05v-1.39h7.48v-2.14h-7.48v-.86c.29-.23.43-.4.43-.51,0-.23-.21-.36-.62-.37l-2.17-.19v1.92h-7.16v2.14h7.16v1.39h-6.52ZM46.16,117.31h-2.46v-2.89h2.46v2.89ZM52.57,114.42h2.57v2.89h-2.57v-2.89ZM48.18,114.42h2.35v2.89h-2.35v-2.89Z"/>
  <path class="cls-1" d="M221.81,107.4c-.09,0-.2.1-.32.29h-6.95v24.15h2.35v-22.02h3.9l-2.62,6.41c1.87,2.12,2.8,3.83,2.8,5.13,0,1.07-.23,1.87-.69,2.41-.48.64-1.5,1.09-3.07,1.34l.96,2.35c1.51,0,2.75-.52,3.69-1.55.96-1.09,1.44-2.53,1.44-4.33,0-1.69-.93-3.54-2.78-5.56l3.31-7.05-2.03-1.57Z"/>
  <path class="cls-1" d="M15.84,114.75h-2.8l1.02-3.42h1.47v-1.92h-5.13v-1.18c.29-.28.43-.5.43-.64,0-.2-.21-.31-.64-.35l-2.24-.19v2.35H3.55v1.92h1.92c.27,1.26.46,2.4.56,3.42h-3.02v2.03h12.82v-2.03ZM10.66,114.75h-2.17c-.16-1.07-.42-2.21-.77-3.42h3.95l-1.02,3.42Z"/>
  <path class="cls-1" d="M280.41,128.64v-1.79h9.4v-8.79h-11.86v10.58h2.46ZM280.41,120.3h7.05v4.3h-7.05v-4.3Z"/>
  <path class="cls-1" d="M43.37,124.07l-2.03-.56c-.25,1.5-.6,2.84-1.04,4.04-.3.96-.7,1.83-1.2,2.62l2.14.72c.82-1.66,1.5-3.62,2.03-5.88.28-.23.43-.44.43-.62,0-.2-.11-.3-.32-.32Z"/>
  <path class="cls-1" d="M40.36,108.01l-1.9-.96c-.77,1.48-1.54,2.73-2.33,3.74-.82,1.07-1.82,2.13-3.02,3.21l1.6,1.6c1.1-1.07,2.02-2.05,2.75-2.94.8-.96,1.67-2.23,2.59-3.79.42-.11.64-.29.64-.53,0-.13-.11-.23-.35-.32Z"/>
  <path class="cls-1" d="M56.2,129.5l1.92-1.28c-1.05-1.96-2.12-3.56-3.21-4.78l-1.5,1.18c.77,1.01,1.48,2.18,2.14,3.5l-1.82-.85c-.26.94-.62,1.52-1.07,1.74-.39.2-1,.29-1.82.29h-2.88c-.68,0-1.12-.14-1.31-.43-.2-.34-.29-.83-.29-1.5v-1.39c0-.37.12-.64.37-.8.34-.25.51-.47.51-.67,0-.21-.17-.34-.51-.37l-2.51-.29v4.2c0,1.03.22,1.83.67,2.4.52.61,1.25.91,2.22.91h5.24c.76,0,1.4-.18,1.92-.53.55-.36,1.04-1.15,1.45-2.38.16.36.32.72.48,1.07Z"/>
  <rect class="cls-1" x="276.99" y="113.07" width="14.11" height="2.24"/>
  <path class="cls-1" d="M47.54,124.26c1.21,1.09,2.32,2.37,3.31,3.85l1.82-1.18c-1.23-1.55-2.48-2.83-3.74-3.85l-1.39,1.18Z"/>
  <path class="cls-1" d="M263.88,115.01c-1.35-1.8-2.17-4.17-2.46-7.1h-9.08v2.24h6.52c.36,2.24,1.02,4.06,1.98,5.45,1.15,1.82,2.99,3.74,5.5,5.77l2.46-1.71c-2.33-1.8-3.97-3.35-4.92-4.65Z"/>
  <rect class="cls-1" x="41.45" y="120.63" width="15.93" height="2.03"/>
  <path class="cls-1" d="M101.81,107.88l-2.19-1.04c-.98,2.48-1.97,4.56-2.96,6.25-1.05,1.82-2.34,3.62-3.88,5.39l1.82,1.82c.73-.93,1.4-1.83,2.03-2.7v13.92h2.46v-17.77c.77-1.37,1.59-3,2.46-4.89.43-.14.64-.36.64-.64,0-.14-.13-.26-.37-.35Z"/>
  <path class="cls-1" d="M11.7,129.15l-1.74.05.85,2.24c.78,0,1.57-.13,2.35-.4,1-.3,1.5-.99,1.5-2.06v-10.72H4.52v12.96h2.24v-3.77h5.66v.85c0,.52-.24.79-.72.83ZM6.76,120.2h5.66v1.82h-5.66v-1.82ZM6.76,125.67v-1.84h5.66v1.84h-5.66Z"/>
  <path class="cls-1" d="M135.54,126.82c.09.29.21.43.37.43.21,0,.46-.28.75-.85l6.2-1.74v6.87h2.46v-7.57l2.78-.78v-2.35c-.91.3-1.83.59-2.78.85v-13.57c.29-.29.43-.49.43-.62,0-.23-.21-.36-.64-.37l-2.24-.19v15.47c-2.73.75-5.47,1.4-8.23,1.97l.91,2.43Z"/>
  <path class="cls-1" d="M100.36,130.68h17.34v-2.35h-5.85c1.44-3.99,2.6-7.66,3.47-11.01.43-.29.64-.5.64-.64,0-.16-.17-.3-.51-.42l-2.49-.94c-.5,2.57-1.13,5.18-1.9,7.83-.45,1.55-1.01,3.28-1.68,5.18h-9.03v2.35Z"/>
  <path class="cls-1" d="M135.05,121.8c-1.39-1.19-2.59-2.73-3.58-4.6h3.58v-2.24h-4.28v-4.84c.77-.23,1.51-.5,2.24-.8.29-.11.52-.16.7-.16l.69.13c.21,0,.32-.07.32-.21,0-.16-.06-.3-.16-.4l-1.76-1.74c-1.69.73-3.11,1.21-4.25,1.45-1.28.36-2.82.58-4.62.69l1.6,2.24c.96-.14,1.92-.32,2.89-.53v4.17h-4.7v2.24h3.9c-.62,1.83-1.18,3.16-1.66,3.98-.77,1.43-1.69,2.74-2.78,3.93l2.13,1.92c1.02-1.48,1.82-2.9,2.41-4.27.21-.52.44-1.13.69-1.85v10.61h2.35v-11.46c.71,1.37,1.5,2.63,2.35,3.77l1.92-2.03Z"/>
  <path class="cls-1" d="M176.91,119.45c.5-.25.75-.45.75-.61,0-.2-.08-.37-.24-.51l-1.25-1.18c-.18-.18-.36-.26-.53-.26-.05,0-.23.1-.53.32h-3.1v-4.38h5.56v-2.24h-5.56v-2.89c.29-.3.43-.52.43-.64,0-.2-.21-.31-.64-.35l-2.24-.19v4.06h-5.23v2.24h5.23v4.38h-4.7v2.14h1.25c.57,2.85,1.5,5.06,2.8,6.63.27.34.55.68.86,1.02-.68.5-1.45.96-2.3,1.39-1.1.56-2.58,1.04-4.44,1.45l1.61,2.14c2.83-.88,5.1-2.01,6.81-3.4,1.41,1.19,3.16,2.36,5.26,3.5l1.92-2.03c-2.21-1.05-4.03-2.1-5.45-3.16,1.37-1.64,2.62-4.11,3.74-7.43ZM171.4,125.36c-.18-.18-.36-.36-.53-.56-1.23-1.35-2.1-3.17-2.62-5.45h6.07c-.82,2.55-1.71,4.45-2.67,5.69-.07.1-.15.21-.24.32Z"/>
  <path class="cls-1" d="M139.12,120.97l1.71-1.63c-1.19-1.19-2.44-2.23-3.74-3.1l-1.6,1.52c1.18.8,2.39,1.87,3.63,3.21Z"/>
  <path class="cls-1" d="M104.96,115.82l-2.24.67c1.25,3.95,2.03,7.41,2.35,10.37l2.67-.67c-.52-3.19-1.44-6.64-2.78-10.37Z"/>
  <path class="cls-1" d="M110.73,108.12c0-.2-.22-.31-.67-.35l-2.44-.19v4.06h-5.98v2.24h15.18v-2.24h-6.63v-2.89c.36-.28.53-.5.53-.64Z"/>
  <path class="cls-1" d="M141.47,112.61c-1.28-1.16-2.59-2.15-3.93-2.96l-1.63,1.47c1.27.78,2.55,1.82,3.85,3.13l1.71-1.63Z"/>
  <path class="cls-1" d="M84.56,126.1c.69-1.32,1.19-2.79,1.5-4.41.41-1.69.63-4.25.67-7.69h1.07v-2.24h-6.15c.21-.93.41-1.99.59-3.18.5-.21.75-.44.75-.67,0-.16-.13-.27-.4-.35l-2.38-.4c-.32,2.55-.68,4.39-1.07,5.53-.47,1.64-1.16,3.21-2.08,4.73h-4.97v-1.07h5.26v-3.1h1.36v-1.81h-1.36v-3.1h-5.26v-.43c.29-.23.43-.4.43-.51,0-.18-.19-.29-.56-.32l-2.01-.14v1.39h-5.13v3.1h-1.5v1.81h1.5v3.1h5.13v1.07h-5.34v4.73h4.28c-.2.37-.43.77-.7,1.18h-4.43v1.9h3.15c-.68.91-1.44,1.84-2.3,2.8l2.14.51c.16-.18.33-.36.51-.54.89.2,1.74.41,2.54.64-.29.09-.6.18-.93.27-1.05.28-2.82.48-5.32.58.52.64.94,1.32,1.28,2.03,2.53-.2,4.33-.47,5.4-.83.83-.25,1.61-.6,2.32-1.04,1.1.48,2.31,1.1,3.61,1.87l1.61-1.61c-1.09-.61-2.23-1.17-3.42-1.68.71-.75,1.4-1.76,2.06-3.02h2.54v-1.9h-8.29c.21-.41.43-.8.64-1.18h6.25v-4.14l1.28,1.12c.2-.36.38-.71.56-1.07.39,3.13,1.04,5.54,1.92,7.21.16.34.33.66.51.96-.05.09-.12.18-.19.27-.89,1.21-2.22,2.21-3.98,2.99l1.92,1.95c1.5-.98,2.72-2.06,3.66-3.23.87,1.09,1.93,2.17,3.18,3.23l1.82-1.95c-1.5-1.1-2.72-2.23-3.66-3.39ZM72.08,110.15h3.1v1.28h-3.1v-1.28ZM72.08,113.25h3.1v1.29h-3.1v-1.29ZM66.95,110.15h2.99v1.28h-2.99v-1.28ZM66.95,114.53v-1.29h2.99v1.29h-2.99ZM66.74,120.41v-1.28h3.21v1.28h-3.21ZM73.98,125.22c-.57.87-1.19,1.61-1.87,2.19-1.12-.36-2.32-.68-3.61-.98.31-.37.61-.78.91-1.2h4.57ZM75.39,120.41h-3.31v-1.28h3.31v1.28ZM83.11,123.97c-.89-1.59-1.47-3.77-1.73-6.55l-1.74.21c.59-1.21,1.06-2.38,1.41-3.5,0-.05,0-.1.03-.13h3.5c-.05,3.79-.38,6.64-.99,8.52-.14.52-.3,1-.48,1.45Z"/>
  <path class="cls-1" d="M160.45,121.72l3.42-1.52v-2.35c-1.12.54-2.26,1.05-3.42,1.55v-5.82h3.1v-2.35h-3.1v-3.32c.43-.26.64-.52.64-.75,0-.18-.15-.28-.46-.32l-2.64-.32v4.7h-4.17v2.35h4.17v6.81c-1.61.61-3.21,1.15-4.81,1.63l.91,2.46c.09.28.21.42.37.42.21,0,.46-.28.75-.85l2.78-1.23v5.4c-.05.78-.44,1.18-1.15,1.18h-2.06l.96,2.46c2.03,0,3.29-.27,3.79-.8.61-.5.91-1.3.91-2.4v-6.92Z"/>
  <path class="cls-1" d="M275.7,110.37h18.49v17.56c0,.62-.4.95-1.2.98l-2.86.08.96,2.54c1.16,0,2.31-.15,3.45-.46,1.48-.36,2.22-1.17,2.22-2.43v-20.63h-21.06v2.35Z"/>
  <path class="cls-1" d="M202.2,128.21c0,.66-.31,1-.93,1.02l-2.27.05.96,2.35c.94,0,1.88-.13,2.8-.4,1.21-.34,1.82-1.09,1.82-2.24v-13.47h-12.34c.55-.84,1.11-1.81,1.68-2.91h14.08v-2.14h-13.04c.31-.67.62-1.39.93-2.14.36-.07.54-.18.54-.32,0-.23-.19-.4-.56-.51l-1.9-.78c-.48,1.37-1,2.62-1.55,3.74h-8.5v2.14h7.32c-.59.96-1.21,1.8-1.87,2.51-1.94,2.24-3.98,3.76-6.09,4.54l1.6,2.35c1.73-.94,3.26-2.04,4.6-3.29v12.72h2.35v-4.7h10.37v1.47ZM191.83,117.66h10.37v2.54h-10.37v-2.54ZM191.83,124.69v-2.44h10.37v2.44h-10.37Z"/>
  <path class="cls-1" d="M18.87,138.77c-.49-.49-1.05-.86-1.67-1.12-.62-.26-1.27-.39-1.94-.39-.9,0-1.72.2-2.48.6-.76.4-1.38.96-1.89,1.69-.29.43-.51.9-.66,1.39-.15.49-.22,1.02-.22,1.57,0,.71.12,1.38.37,2,.24.62.6,1.19,1.07,1.69.49.53,1.06.93,1.69,1.2.64.27,1.33.4,2.09.4.71,0,1.38-.14,2.03-.41.65-.28,1.22-.67,1.7-1.19.48-.49.85-1.05,1.09-1.69.25-.63.37-1.32.37-2.04s-.13-1.36-.4-1.99c-.26-.63-.65-1.2-1.15-1.71ZM17.45,144.8c-.6.63-1.34.95-2.23.95-.42,0-.83-.09-1.22-.28-.39-.18-.75-.44-1.06-.78-.28-.31-.5-.66-.64-1.03-.14-.38-.22-.78-.22-1.22,0-.87.31-1.61.93-2.21.62-.61,1.37-.91,2.25-.91s1.58.3,2.18.91c.61.61.91,1.35.91,2.21,0,.94-.3,1.73-.9,2.36Z"/>
  <polygon class="cls-1" points="5.82 137.46 3.86 137.46 3.86 147.59 9 147.59 9 145.81 5.82 145.81 5.82 137.46"/>
  <polygon class="cls-1" points="28.56 143.93 24.37 137.46 22.5 137.46 22.5 147.59 24.44 147.59 24.44 140.93 28.67 147.59 30.5 147.59 30.5 137.46 28.56 137.46 28.56 143.93"/>
  <path class="cls-1" d="M43,142.21h-6.32v1.7h3.98c-.24.57-.61,1.02-1.12,1.35-.5.34-1.06.5-1.68.5-.89,0-1.64-.31-2.25-.94-.61-.62-.91-1.39-.91-2.3s.3-1.66.9-2.28c.6-.63,1.34-.94,2.2-.94.49,0,.94.09,1.33.28.4.18.74.46,1.03.82h2.41c-.43-1.03-1.04-1.81-1.84-2.34-.79-.53-1.74-.8-2.83-.8-.75,0-1.43.12-2.04.36-.61.24-1.17.61-1.67,1.11-.53.52-.93,1.1-1.2,1.73-.27.63-.41,1.3-.41,2.01s.11,1.33.34,1.95c.23.61.56,1.16.99,1.64.52.58,1.1,1.01,1.75,1.3.65.29,1.36.44,2.12.44,1.04,0,1.97-.26,2.79-.78.82-.52,1.47-1.25,1.95-2.2.16-.33.28-.68.36-1.05.08-.37.12-.78.12-1.21,0-.04,0-.1,0-.17,0-.08,0-.13,0-.17Z"/>
  <rect class="cls-1" x="294.98" y="145.69" width="1.78" height="1.91"/>
  <path class="cls-1" d="M240.27,140.2c.29-.29.61-.51.98-.67.37-.15.75-.23,1.16-.23.51,0,.96.1,1.35.29.4.19.74.49,1.03.88h2.42c-.5-1.08-1.14-1.89-1.93-2.41-.79-.53-1.73-.79-2.84-.79-.69,0-1.34.12-1.94.37-.6.25-1.15.61-1.64,1.09-.52.52-.91,1.1-1.18,1.73-.27.63-.4,1.3-.4,2.01s.11,1.35.33,1.96c.22.61.55,1.15.98,1.63.51.58,1.09,1.01,1.73,1.3.64.29,1.34.44,2.1.44,1.09,0,2.04-.26,2.83-.78.79-.52,1.42-1.3,1.89-2.33h-2.43c-.25.35-.57.62-.96.81-.4.19-.84.28-1.34.28-.86,0-1.59-.31-2.19-.94-.6-.63-.9-1.41-.9-2.33,0-.42.08-.83.25-1.24.16-.4.4-.76.7-1.06Z"/>
  <polygon class="cls-1" points="225.05 141.82 223.3 137.46 221.12 137.46 224.02 143.95 224.02 147.59 226 147.59 226 143.95 228.95 137.46 226.79 137.46 225.05 141.82"/>
  <path class="cls-1" d="M207.21,138.77c-.49-.49-1.05-.86-1.67-1.12-.62-.26-1.27-.39-1.94-.39-.9,0-1.72.2-2.48.6-.76.4-1.38.96-1.89,1.69-.29.43-.51.9-.66,1.39-.15.49-.22,1.02-.22,1.57,0,.71.12,1.38.37,2,.24.62.6,1.19,1.07,1.69.49.53,1.06.93,1.69,1.2.64.27,1.33.4,2.09.4.71,0,1.38-.14,2.03-.41.65-.28,1.22-.67,1.7-1.19.48-.49.85-1.05,1.09-1.69.25-.63.37-1.32.37-2.04s-.13-1.36-.4-1.99c-.26-.63-.65-1.2-1.15-1.71ZM205.79,144.8c-.6.63-1.34.95-2.23.95-.42,0-.83-.09-1.22-.28-.39-.18-.75-.44-1.06-.78-.28-.31-.5-.66-.64-1.03-.14-.38-.22-.78-.22-1.22,0-.87.31-1.61.93-2.21.62-.61,1.37-.91,2.25-.91s1.58.3,2.18.91c.61.61.91,1.35.91,2.21,0,.94-.3,1.73-.9,2.36Z"/>
  <path class="cls-1" d="M220.81,142.21h-6.32v1.7h3.98c-.24.57-.61,1.02-1.12,1.35-.5.34-1.06.5-1.68.5-.89,0-1.64-.31-2.25-.94-.61-.62-.91-1.39-.91-2.3s.3-1.66.9-2.28c.6-.63,1.34-.94,2.2-.94.49,0,.94.09,1.33.28.4.18.74.46,1.03.82h2.41c-.43-1.03-1.04-1.81-1.84-2.34-.79-.53-1.74-.8-2.83-.8-.75,0-1.43.12-2.04.36-.62.24-1.17.61-1.67,1.11-.53.52-.93,1.1-1.2,1.73-.27.63-.41,1.3-.41,2.01s.11,1.33.34,1.95c.23.61.56,1.16.99,1.64.52.58,1.1,1.01,1.75,1.3.65.29,1.36.44,2.12.44,1.04,0,1.97-.26,2.79-.78.82-.52,1.47-1.25,1.95-2.2.16-.33.28-.68.36-1.05.08-.37.12-.78.12-1.21,0-.04,0-.1,0-.17,0-.08,0-.13,0-.17Z"/>
  <polygon class="cls-1" points="194.16 137.46 192.2 137.46 192.2 147.59 197.34 147.59 197.34 145.81 194.16 145.81 194.16 137.46"/>
  <path class="cls-1" d="M188.57,138.77c-.49-.49-1.05-.86-1.67-1.12-.62-.26-1.27-.39-1.95-.39-.9,0-1.72.2-2.48.6-.76.4-1.38.96-1.89,1.69-.29.43-.51.9-.66,1.39-.15.49-.22,1.02-.22,1.57,0,.71.12,1.38.37,2,.24.62.6,1.19,1.07,1.69.49.53,1.06.93,1.69,1.2.64.27,1.33.4,2.09.4.71,0,1.38-.14,2.03-.41.65-.28,1.22-.67,1.7-1.19.48-.49.85-1.05,1.09-1.69.25-.63.37-1.32.37-2.04s-.13-1.36-.4-1.99c-.26-.63-.65-1.2-1.15-1.71ZM187.16,144.8c-.6.63-1.34.95-2.23.95-.42,0-.83-.09-1.22-.28-.39-.18-.75-.44-1.06-.78-.28-.31-.5-.66-.64-1.03-.15-.38-.22-.78-.22-1.22,0-.87.31-1.61.93-2.21.62-.61,1.37-.91,2.25-.91s1.58.3,2.18.91c.61.61.91,1.35.91,2.21,0,.94-.3,1.73-.9,2.36Z"/>
  <polygon class="cls-1" points="272.62 137.46 270.66 137.46 270.66 147.59 275.8 147.59 275.8 145.81 272.62 145.81 272.62 137.46"/>
  <polygon class="cls-1" points="276.5 139.24 278.4 139.24 278.4 147.59 280.38 147.59 280.38 139.24 282.28 139.24 282.28 137.46 276.5 137.46 276.5 139.24"/>
  <polygon class="cls-1" points="175.69 143.93 171.5 137.46 169.62 137.46 169.62 147.59 171.57 147.59 171.57 140.93 175.79 147.59 177.63 147.59 177.63 137.46 175.69 137.46 175.69 143.93"/>
  <path class="cls-1" d="M257.66,138.77c-.49-.49-1.05-.86-1.67-1.12-.62-.26-1.27-.39-1.95-.39-.9,0-1.72.2-2.48.6-.75.4-1.38.96-1.89,1.69-.29.43-.51.9-.66,1.39-.15.49-.22,1.02-.22,1.57,0,.71.12,1.38.37,2,.24.62.6,1.19,1.07,1.69.49.53,1.06.93,1.69,1.2.64.27,1.33.4,2.09.4.71,0,1.38-.14,2.03-.41.65-.28,1.22-.67,1.7-1.19.48-.49.85-1.05,1.09-1.69.25-.63.37-1.32.37-2.04s-.13-1.36-.4-1.99c-.26-.63-.65-1.2-1.15-1.71ZM256.24,144.8c-.6.63-1.34.95-2.23.95-.42,0-.83-.09-1.22-.28-.39-.18-.75-.44-1.06-.78-.28-.31-.5-.66-.64-1.03-.14-.38-.22-.78-.22-1.22,0-.87.31-1.61.93-2.21.62-.61,1.37-.91,2.25-.91s1.58.3,2.18.91c.61.61.91,1.35.91,2.21,0,.94-.3,1.73-.9,2.36Z"/>
  <path class="cls-1" d="M291.15,138.67c-.45-.44-.95-.75-1.5-.93-.55-.19-1.29-.28-2.21-.28h-3.39v10.13h3.44c.78,0,1.39-.06,1.85-.17.46-.12.87-.31,1.24-.58.66-.47,1.15-1.07,1.5-1.79.34-.73.52-1.55.52-2.46,0-.82-.12-1.56-.37-2.22-.25-.66-.61-1.22-1.09-1.68ZM289.79,145.05c-.52.54-1.33.81-2.43.81h-1.32v-6.67h1.29c1.02,0,1.81.29,2.38.88.57.58.85,1.4.85,2.46,0,1.15-.26,1.99-.78,2.53Z"/>
  <path class="cls-1" d="M266.02,147.59h.58v.07c0,.24-.05.42-.13.52-.09.11-.24.18-.45.2v1.02c.62-.01,1.07-.17,1.35-.48.29-.31.43-.79.43-1.44v-1.81h-1.78v1.91Z"/>
  <rect class="cls-1" x="261.05" y="145.69" width="1.78" height="1.91"/>
  <polygon class="cls-1" points="132.83 139.24 134.74 139.24 134.74 147.59 136.72 147.59 136.72 139.24 138.62 139.24 138.62 137.46 132.83 137.46 132.83 139.24"/>
  <polygon class="cls-1" points="165.12 141.57 161.87 141.57 161.87 137.46 159.89 137.46 159.89 147.59 161.87 147.59 161.87 143.47 165.12 143.47 165.12 147.59 167.11 147.59 167.11 137.46 165.12 137.46 165.12 141.57"/>
  <rect class="cls-1" x="86.47" y="137.46" width="1.98" height="10.13"/>
  <path class="cls-1" d="M100.95,142.21h-6.32v1.7h3.98c-.24.57-.61,1.02-1.12,1.35-.5.34-1.06.5-1.68.5-.89,0-1.64-.31-2.25-.94-.61-.62-.91-1.39-.91-2.3s.3-1.66.9-2.28c.6-.63,1.34-.94,2.2-.94.49,0,.94.09,1.33.28.4.18.74.46,1.03.82h2.41c-.43-1.03-1.04-1.81-1.84-2.34-.79-.53-1.74-.8-2.83-.8-.75,0-1.43.12-2.04.36-.61.24-1.17.61-1.67,1.11-.53.52-.93,1.1-1.2,1.73-.27.63-.41,1.3-.41,2.01s.11,1.33.34,1.95c.23.61.56,1.16.99,1.64.52.58,1.1,1.01,1.75,1.3.65.29,1.36.44,2.12.44,1.04,0,1.97-.26,2.79-.78.82-.52,1.47-1.25,1.95-2.2.16-.33.28-.68.36-1.05.08-.37.12-.78.12-1.21,0-.04,0-.1,0-.17,0-.08,0-.13,0-.17Z"/>
  <rect class="cls-1" x="103.04" y="137.46" width="1.98" height="10.13"/>
  <path class="cls-1" d="M69.81,142.62c.43-.54.65-1.21.65-1.99,0-.65-.15-1.22-.45-1.7-.3-.48-.74-.86-1.32-1.13-.27-.12-.58-.21-.96-.26-.37-.05-.94-.08-1.71-.08h-2.41v10.13h1.98v-4.7l2.61,4.7h2.37l-2.53-3.93c.74-.15,1.33-.49,1.76-1.04ZM66.04,142.39h-.44v-3.28h.74c.74,0,1.28.13,1.63.38.35.26.52.65.52,1.19s-.21.98-.62,1.27c-.42.29-1.03.43-1.83.43Z"/>
  <polygon class="cls-1" points="55.67 147.59 61.14 147.59 61.14 145.81 57.63 145.81 57.63 143.31 61.14 143.31 61.14 141.55 57.63 141.55 57.63 139.24 61.14 139.24 61.14 137.46 55.67 137.46 55.67 147.59"/>
  <path class="cls-1" d="M82.97,138.67c-.45-.44-.95-.75-1.5-.93-.55-.19-1.29-.28-2.21-.28h-3.39v10.13h3.44c.78,0,1.39-.06,1.85-.17.46-.12.87-.31,1.24-.58.66-.47,1.15-1.07,1.5-1.79.34-.73.52-1.55.52-2.46,0-.82-.12-1.56-.37-2.22-.25-.66-.61-1.22-1.09-1.68ZM81.62,145.05c-.52.54-1.33.81-2.43.81h-1.32v-6.67h1.29c1.02,0,1.81.29,2.38.88.57.58.85,1.4.85,2.46,0,1.15-.26,1.99-.78,2.53Z"/>
  <path class="cls-1" d="M52.17,138.67c-.45-.44-.95-.75-1.5-.93-.55-.19-1.29-.28-2.21-.28h-3.39v10.13h3.44c.78,0,1.39-.06,1.85-.17.46-.12.87-.31,1.24-.58.66-.47,1.15-1.07,1.5-1.79.34-.73.52-1.55.52-2.46,0-.82-.12-1.56-.37-2.22-.25-.66-.61-1.22-1.09-1.68ZM50.82,145.05c-.52.54-1.33.81-2.43.81h-1.32v-6.67h1.29c1.02,0,1.81.29,2.38.88.57.58.85,1.4.85,2.46,0,1.15-.26,1.99-.78,2.53Z"/>
  <polygon class="cls-1" points="140.39 147.59 145.86 147.59 145.86 145.81 142.35 145.81 142.35 143.31 145.86 143.31 145.86 141.55 142.35 141.55 142.35 139.24 145.86 139.24 145.86 137.46 140.39 137.46 140.39 147.59"/>
  <path class="cls-1" d="M150.92,140.2c.29-.29.61-.51.98-.67.37-.15.75-.23,1.16-.23.51,0,.96.1,1.35.29.4.19.74.49,1.03.88h2.42c-.5-1.08-1.14-1.89-1.93-2.41-.79-.53-1.73-.79-2.84-.79-.69,0-1.34.12-1.94.37-.6.25-1.15.61-1.64,1.09-.52.52-.91,1.1-1.18,1.73-.27.63-.4,1.3-.4,2.01s.11,1.35.33,1.96c.22.61.55,1.15.98,1.63.51.58,1.09,1.01,1.73,1.3s1.34.44,2.1.44c1.09,0,2.04-.26,2.83-.78.79-.52,1.42-1.3,1.89-2.33h-2.43c-.25.35-.57.62-.96.81-.4.19-.84.28-1.34.28-.86,0-1.59-.31-2.19-.94-.6-.63-.9-1.41-.9-2.33,0-.42.08-.83.25-1.24.16-.4.4-.76.7-1.06Z"/>
  <path class="cls-1" d="M116.32,137.46l-3.93,10.13h2.05l.79-2.12h3.76l.8,2.12h2.12l-3.88-10.13h-1.71ZM115.91,143.59l1.22-3.26,1.2,3.26h-2.42Z"/>
  <polygon class="cls-1" points="112.58 137.46 106.79 137.46 106.79 139.24 108.7 139.24 108.7 147.59 110.67 147.59 110.67 139.24 112.58 139.24 112.58 137.46"/>
  <polygon class="cls-1" points="125.13 137.46 123.17 137.46 123.17 147.59 128.31 147.59 128.31 145.81 125.13 145.81 125.13 137.46"/>
</svg>