<?xml version="1.0" encoding="UTF-8"?>
<svg xmlns="http://www.w3.org/2000/svg" viewBox="0 0 50 50">
  <defs>
    <style>
      .cls-1 {
        fill: #fff;
      }
    </style>
  </defs>
  <g id="_图层_2" data-name="图层 2">
    <circle class="cls-1" cx="25" cy="25" r="25"/>
  </g>
  <g id="_图层_1" data-name="图层 1">
    <g>
      <path d="M19.75,9.05c3.44-.1,7.1-.08,10.54.04,2.81.09,5.36.27,7.57,2.22,3.35,2.95,2.99,6.83,3.06,10.91.05,3.12.16,6.37-.05,9.48-.39,5.96-3.64,8.86-9.51,9.2-3.64.21-7.7.1-11.36,0-2.93-.08-5.56-.17-7.88-2.21-3.23-2.84-2.99-6.41-3.06-10.35-.05-3.18-.09-6.36.05-9.53s.7-5.52,3.13-7.62c2.07-1.79,4.87-2.05,7.51-2.13ZM21.89,11.9c-4.08.07-8.63-.2-9.69,4.79-.51,2.41-.29,5.73-.29,8.22,0,2.83-.39,7.86.99,10.27,1.79,3.12,5.47,2.79,8.57,2.85s6.29.09,9.43-.05c4.28-.19,6.69-1.57,7.06-6.14.29-3.55.14-7.59.05-11.16-.06-2.54.09-5.3-1.99-7.14-1.56-1.38-3.3-1.47-5.28-1.55-2.94-.12-5.9-.14-8.85-.09Z"/>
      <path d="M24.44,16.8c6.34-.4,10.78,6.34,7.82,12-2.92,5.58-10.9,5.91-14.23.55s.24-12.16,6.41-12.55ZM24.44,19.7c-4.18.37-6.26,5.4-3.58,8.65s7.89,2.27,9.17-1.69c1.19-3.68-1.75-7.3-5.58-6.96Z"/>
      <path d="M32.12,15.12c1.67-1.7,4.39.64,2.89,2.56-1.66,2.11-4.74-.68-2.89-2.56Z"/>
    </g>
  </g>
</svg>