<?xml version="1.0" encoding="UTF-8"?>
<svg xmlns="http://www.w3.org/2000/svg" viewBox="0 0 50 50">
  <g id="_图层_2" data-name="图层 2">
    <path d="M25,2c12.68,0,23,10.32,23,23s-10.32,23-23,23S2,37.68,2,25,12.32,2,25,2M25,0C11.19,0,0,11.19,0,25s11.19,25,25,25,25-11.19,25-25S38.81,0,25,0h0Z"/>
  </g>
  <g id="_图层_1" data-name="图层 1">
    <g>
      <path d="M25.6,23.25c.15.04.11-.04.14-.08,2.26-2.54,5.81-3.4,8.77-1.41,1.13.76,2.55,2.83,2.55,4.21v11.17h-4.79c-.07,0-.09-.15-.1-.22-.11-.9,0-2.31,0-3.26.02-1.69.36-5.17-.17-6.65-.8-2.26-4.31-2.38-5.52-.47-.18.29-.57,1.24-.57,1.55v8.95s-.09.09-.09.09h-4.7s-.09-.09-.09-.09v-16.05h4.57v2.25Z"/>
      <path d="M18.27,20.99v16.05s-.09.09-.09.09h-4.82s-.09-.09-.09-.09v-16.05h5.01Z"/>
      <path d="M15.63,12.88c3.84-.17,3.98,5.64.23,5.74s-3.97-5.58-.23-5.74Z"/>
    </g>
  </g>
</svg>