<?xml version="1.0" encoding="UTF-8"?>
<svg id="_圖層_1" xmlns="http://www.w3.org/2000/svg" version="1.1" viewBox="0 0 500 111.5">
  <!-- Generator: Adobe Illustrator 29.1.0, SVG Export Plug-In . SVG Version: 2.1.0 Build 142)  -->
  <defs>
    <style>
      .st0 {
        fill: #fff;
      }
    </style>
  </defs>
  <path class="st0" d="M0,109.7V0h14.5v96.8h54v12.9H0Z"/>
  <path class="st0" d="M97.1,109.7V0h14.5v109.7s-14.5,0-14.5,0Z"/>
  <path class="st0" d="M145.8,109.7V0h14.9l57.6,86.2V0h13.9v109.7h-14.9l-57.6-86.2v86.2h-13.9Z"/>
  <path class="st0" d="M264.8,109.7V0h14.5v54.4L333.8,0h19.7l-46,44.5,48.1,65.3h-19.2l-39.1-55.5-18,17.5v38h-14.5Z"/>
  <path class="st0" d="M429.1,84.1l13.9,1.7c-2.2,8.1-6.3,14.4-12.2,18.9-5.9,4.5-13.5,6.7-22.8,6.7s-20.9-3.6-27.7-10.7c-6.8-7.2-10.2-17.2-10.2-30.1s3.4-23.8,10.3-31.1c6.9-7.4,15.8-11.1,26.8-11.1s19.3,3.6,26,10.9c6.7,7.2,10.1,17.4,10.1,30.5s0,2,0,3.6h-59.3c.5,8.7,3,15.4,7.4,20.1s10,7,16.6,7,9.2-1.3,12.6-3.9,6.3-6.7,8.3-12.4h0ZM384.8,62.3h44.4c-.6-6.7-2.3-11.7-5.1-15-4.3-5.2-9.9-7.8-16.7-7.8s-11.4,2.1-15.6,6.2c-4.2,4.1-6.5,9.7-7,16.6h0Z"/>
  <path class="st0" d="M498,97.7l2,11.9c-3.8.8-7.2,1.2-10.2,1.2-4.9,0-8.7-.8-11.4-2.3-2.7-1.6-4.6-3.6-5.7-6.1s-1.6-7.8-1.6-15.9v-45.7h-9.9v-10.5h9.9V10.6l13.4-8.1v27.8h13.5v10.5h-13.5v46.5c0,3.8.2,6.3.7,7.4.5,1.1,1.2,2,2.3,2.6s2.6,1,4.6,1,3.5-.2,5.9-.5h0Z"/>
</svg>