<?xml version="1.0" encoding="UTF-8"?>
<svg id="_圖層_1" xmlns="http://www.w3.org/2000/svg" version="1.1" viewBox="0 0 502.7 124.7">
  <!-- Generator: Adobe Illustrator 29.1.0, SVG Export Plug-In . SVG Version: 2.1.0 Build 142)  -->
  <defs>
    <style>
      .st0 {
        fill: #fff;
      }
    </style>
  </defs>
  <path class="st0" d="M242.2,92.5c-.1,0-.2,0-.3,0-1.8-1-3.4-2-4.4-2.8-1-.8-2.9-1.1-7.9-1.8-3-.5-4.6-.7-6.7-.8-1.4,0-2,0-3.6,0-.7,0-1.7,0-3.1.2-6.3.3-8.6.2-9.9.1-1.1,0-1.6,0-3,.2h-.3c-.7.2-1.2.3-1.4.2-.5-.3-.4-2.5-.4-5.5v-2.1c0-3.4.1-5.8.4-10,.2-2.2.3-3.3.9-4.7.9-1.9,2.2-3,2.8-3.5,2.4-2,5.3-2.7,6.8-3,.5-.1.8-.2,1-.3.1,0,.2,0,.4,0,.4,0,.9-.1,1.5-.3,1.1-.3,1.8-.6,3.1-1.3l1.1-.5c1.5-.8,2.7-1.3,3-1.4,2.1-.5,3.1-.6,3.3-.7,2.5,0,2.7-2.2,2.7-2.9,0-.2,0-.5,0-.5.5-.7.8-1.3.6-2-.2-1.1-1.2-1.7-1.5-1.9-3.5-2.1-5.3-2.4-5.4-2.4-2.2-.5-3.2-.6-4.2-.8-.9-.1-1.9-.2-3.8-.6-.5,0-1-.2-1.4-.3-1.4-.4-2.7-.7-4,.3-.2.2-.5.3-.7.5-.8.6-1.6,1.1-2.5,2-1.1,1.1-2.6,2-4.3,2.7-.1-1.2-.1-2.4,0-3.6,0-1.4.2-2.3.4-3.2.2-1.1.4-2.2.4-3.9s0-3.9-1-6.5c-1-2.6-2.5-4.2-3.1-4.9-1.1-1.2-1.7-1.6-2.4-2-.5-.3-1-.6-1.9-1.5-.3-.2-1-.9-2-1h0c-.8,0-1.7.3-2.4.9-3.2,2.7-4.3,7.7-4.4,7.9-.8,3.7-1.1,6.4-1.4,9.5,0,.7-.1,1.3-.2,2.1-.3,3.1-.5,4.4-.7,5.4-.2,1-.3,1.9-.5,4.1-.2,2.4-.2,4.1-.3,5.7,0,2-.1,3.9-.5,7.2-.2,1.8-.3,2.5-.4,3.1-.1.6-.2,1.1-.3,2.3-.1,2.2-.1,3.7-.1,5.5,0,1.7,0,3.5,0,6.3-.1,2.9-.3,4.4-1.4,5.9-.4.6-1.1,1.2-1.9,1.8-2.5,1.8-5.2,2.1-8.1,2.4h-.6c-4.4.6-6,1-7.2,1.3-1,.3-1.6.4-3.6.5-1.8,0-3.6.2-5.3.3-3,.2-6.1.4-9.1.3-.9,0-3,.2-3.8,1.6-.6,1-1.3,3.5-.3,4.8l.4.5c1.7,2.1,3.4,4.3,5.8,5.6,3.9,2.2,8.2,3.4,12.9,3.8,2.1.2,4.2.2,6.4,0,2.3-.2,3.3-.4,4.8-.8,1.5-.3,3.3-.8,7.3-1.4,2.6-.4,3.9-.5,6.4-.7,1.5-.1,3.4-.3,6.2-.6,7-.7,9.6-.9,12.3-1.2,1.5-.2,3.1-.3,5.7-.6,2.7-.3,5-.3,7.5-.3,2.1,0,4.3,0,6.8-.2,4.2-.3,8.7-.1,14.1.7,3.7.6,7.8.4,10.1-4.6.8-1.7-.7-5.2-.9-5.6-.9-2.2-1.8-2.7-2.3-2.9h0Z"/>
  <path class="st0" d="M112.4,70c.3-2.8-.3-5.5-.9-8.1-.5-2.2-.9-4.3-.9-6.5,0-1.8-1.1-4.1-3.4-5-7.2-3-13.2-3.1-18.8-.3-5.3,2.6-6.7,7-3.9,12.5,2.5,5.1,4,9.5,4.6,13.7.6,4,.4,6.6-2.4,8.3s-12.5,1.5-15-.3c-2.6-1.9-2.3-4.5-1.6-7.9.8-3.9,1.4-7.8,1.9-11.7.7-5,1.5-10.1,2.7-15,1.4-5.8-1.7-8.1-4.7-9.1-2.2-4-5.8-6.6-8.8-8.5-.4-.3-.8-.5-1.3-.8-3.8-2.4-9-5.7-13.3-2.1-4.4,3.6-4.1,10.4-2.4,15.5,3.9,11.4,3.8,23.4,3.6,35,0,2.7,0,5.4,0,8.1,0,2-.5,3.4-1.5,4.3-1.5,1.3-3.9,1.3-5.6,1.2-3.8-.4-6.4-1.5-7.8-3.3-1.5-1.9-2-4.9-1.4-9.1.7-5.2,1-10.7-1.3-16.1-1.6-3.6-3.1-5.5-5.1-6-2.1-.6-4.4.1-7.7,2.5h-.2c-2.1,1.6-4.3,3.1-6.6,4.4-4.5,2.6-5.9,6.5-3.9,10.9.4.9.8,1.8,1.3,2.8,4.4,9.5,8.5,18.4,6.3,29.2-.4,2.2.2,4.3,1.8,5.4.3.2.7.4,1.3.6,1.1.3,2.8.3,5.1-1.1,5.9-3.5,12.9-4.7,19.6-5.6,2.7-.4,5.3-1,7.9-1.6,6.2-1.5,12.1-2.8,18.3-.9,0,0,.1,0,.2,0,4.9,1.3,10,1.8,14.9,2.2,7.2.6,14.1,1.2,20.5,4.4l.4.2h.4c4.3-.6,5.8-3.9,6.9-6.5.1-.3.2-.5.3-.8,1.6-1.8,1.6-3.9,1.4-6-1.3-10.7-1.5-20.1-.7-28.7h0Z"/>
  <path class="st0" d="M378.5,70.5c.4-2.8,0-5.5-.4-8.1-.3-2.3-.7-4.4-.5-6.5.2-1.8-.8-4.1-3.1-5.2-7-3.5-13-3.9-18.8-1.5-5.4,2.3-7.1,6.5-4.7,12.2,2.2,5.3,3.4,9.7,3.7,14,.4,4.1,0,6.6-2.9,8.1-2.9,1.6-12.6.7-15-1.3-2.5-2.1-2-4.6-1.1-8,1-3.8,1.8-7.7,2.6-11.5,1-4.9,2.1-10,3.6-14.8,1.7-5.7-1.2-8.2-4.1-9.4-1.9-4.2-5.4-7-8.3-9-.4-.3-.8-.6-1.2-.9-3.6-2.6-8.6-6.3-13.2-3-4.6,3.3-4.8,10.1-3.3,15.3,3.2,11.6,2.3,23.6,1.4,35.2-.2,2.6-.4,5.4-.6,8.1-.1,2-.7,3.4-1.8,4.2-1.5,1.2-3.9,1.1-5.7.8-3.8-.7-6.3-1.9-7.6-3.8-1.4-2-1.6-5-.8-9.2,1-5.1,1.7-10.6-.3-16.1-1.3-3.7-2.8-5.6-4.8-6.3-2-.7-4.4-.1-7.9,2h-.2c-2.2,1.4-4.5,2.8-6.8,4-4.6,2.3-6.3,6.1-4.5,10.6.4.9.7,1.9,1.1,2.8,3.8,9.7,7.3,18.9,4.5,29.5-.6,2.2,0,4.3,1.4,5.5.3.2.7.5,1.2.7,1.1.4,2.8.4,5.1-.8,6.1-3.1,13.2-3.9,19.9-4.4,2.7-.2,5.4-.7,8-1.1,6.3-1.1,12.3-2.1,18.4.3,0,0,.1,0,.2,0,4.8,1.6,9.8,2.4,14.7,3.1,7.2,1.1,14,2.1,20.2,5.7l.4.2h.4c4.3-.3,6-3.5,7.3-6,.1-.2.3-.5.4-.8,1.7-1.7,1.8-3.8,1.7-5.9-.6-10.8-.2-20.2,1.1-28.7h0Z"/>
  <path class="st0" d="M496.5,34.7c-.7-1.6-1.7-2.8-3-3.6-2.1-1.3-4.5-1.1-6.7-.8-5.1.8-9.3,1-13.3.6-1,0-2.1-.1-3.6-.1-2.3,0-5.4-.1-9.9-.4-5.5-.4-11.2-.8-16.8-1.3-1.2-.2-2.4-.3-3.6-.5-2.8-.4-5.6-.7-8.4-1.1-1.4-.2-2.9-.5-4.3-.8-2.3-.5-4.7-1-7.2-1.2-6.9-.5-13.1.8-18.4,3.7-2.2,1.2-4,3.4-5.5,5.4l-.4.5c-1,1.2-.4,3.7.2,4.6.9,1.5,2.8,1.5,3.5,1.5h.1c7,.2,14.1,1.1,20.9,2,3.9.5,7.9,1.1,11.8,1.5.1,0,.3,0,.4.1,0,0,.5.3.8.9,1.9,4.4,2,18.7,1.9,23.9-.1,5.2.1,8.8.5,14.3,0,.2.4,6.1,2.3,14.8,0,.1.8,3.5,3,7.5,1.7,3.1,3,4.4,4.5,4.5.4,0,.7,0,1-.1,1.9-.6,3.2-2.8,3.8-3.9,1.2-2.2,1.6-4.2,1.9-6.7.8-5.7,1.1-8.5,1-11.8,0-1.6-.2-3.2-.4-4.8h0c2.1,1.4,4,2.7,6,4.1.8.6,1.3,1,1.6,1.3.4.4.8.8,1.5,1.1,2.1.9,3.5.6,6.4-.1,1.4-.3,3.4-.8,6-1.3.3,0,1.9-.3,5.3-2.3.3-.2,1.3-.8,1.5-1.8.1-.7,0-1.3-.6-1.9,0,0,0-.3,0-.5,0-.6-.1-1.5-.8-2.2-.6-.6-1.4-.7-1.9-.7-1,0-2.4-.3-3.9-.7-2.3-1.4-4.8-2.4-7.4-3.2-.1,0-.2,0-.3,0,0,0,0,0-.1,0-.6-.2-1.2-.5-1.7-.7-2-.8-4.1-1.6-6-2.6-2.1-1.1-4.1-2.5-6-3.9l-.3-.2c-.1-.1-.3-.5-.3-.8-.2-3.6-.3-7.2-.4-10.8,0-1.9-.1-3.8-.2-5.8,0-.6,0-1.1.2-1.3.2-.3.8-.8,2.6-1,1.6-.2,2.7,0,4.7.2l1.3.2c2.7.3,5.5.7,8.6.7h.4c.7,0,1.9,0,3.4,0,.1,0,1.6,0,2.7,0,2.4,0,3.5.2,4.3.3.8,0,1.3.2,2.3.1,3.1-.1,5.4-1.1,7.4-2,2-.9,3.8-1.9,5.3-3.1.6-.5.9-.8,1.3-1.2,1.8-2.1,2.1-5.5,1-8.2h0Z"/>
</svg>