<?xml version="1.0" encoding="UTF-8"?>
<svg id="_圖層_1" xmlns="http://www.w3.org/2000/svg" version="1.1" viewBox="0 0 645.5 107.5">
  <!-- Generator: Adobe Illustrator 29.1.0, SVG Export Plug-In . SVG Version: 2.1.0 Build 142)  -->
  <defs>
    <style>
      .st0 {
        fill: #fff;
      }
    </style>
  </defs>
  <g>
    <path class="st0" d="M103.1,72.3l-.7-.6h0s-.9,0-.9,0c-.5,0-1.4.1-1.9.2s-1.2,0-1.6,0h-.6c0,0,0,1.6,0,1.6,0,.9.2,2,.2,2.4v.7l1.2-.6c.8-.4,1.4-.6,1.6-.6,1.2,0,2.5-.6,3.4-1.3l.5-.5-.2-.4c-.1-.2-.6-.7-1-1Z"/>
    <path class="st0" d="M78.6,36.6c2.1,0,4.7-.1,6.4-.7.4-.1.9-.2,1.2-.2,1.5,0,3.6-.5,4.8-1.1,1.1-.5,1.9-1.1,2.8-2l.7-.7-.4-.6c-.2-.4-1.1-1.3-1.9-2.1l-1.4-1.4h0s-1.6,0-1.6,0c-.9,0-1.5-.1-1.6,0,0,0-.6,0-1.2,0s-1.5.1-2,.2-1.6,0-2.5,0h-1.6v.3c0,0-.1.5-.2.8,0,.3-.3.9-.4,1.4-.2.8-.3,1-1,1.7s-.8.9-.8,1c0,.3-.7,1.7-1.1,2.4l-.4.6h.3c.2,0,1,0,1.7.2Z"/>
    <path class="st0" d="M161.5,47.2h-16.3c-3.1,0-5.7-.7-5.7-1.6s1.5-1.2,3.7-1.5c0-.2,0-.5,0-.7,0-1.9,2.1-3.4,4.7-3.4s1.2,0,1.7.2c.8-1.4,2.6-2.3,4.8-2.3s2.1.3,3,.7c-5.4-12.2-9.4-25.1-11.8-38.6H61.8c-3.8,21.9-11.9,42.2-23.4,60.3.2,0,.3,0,.5,0,2.9,0,5.3,1.3,6.4,3.1.5,0,.9-.1,1.4-.1,3.4,0,6.1,2,6.1,4.4s0,.6-.1.9c3.4.2,6,1,6,2s-3.4,2.1-7.6,2.1h-21.4C21.1,83.8,11.2,93.8,0,102.4v5.1h156.9c-3.7-5.4-3.2-11.7,1.5-18.9,3.7-4.5-1.2-7.7-1-9.3,0-1,1.8-1.8,4.1-1.8s4.1.8,4.1,1.8c.2,1.7-4.6,4.8-1,9.3,4.7,7.2,5.2,13.4,1.5,18.9h8.6c-2.8-.8-2-3-3.2-4h0c3,0,5.9,0,8.8,0-1.3,1-.5,3.1-3.2,4h30.3v-5.1c-19.1-14.8-34.8-33.6-45.9-55.2ZM72.7,76.4c0,2.1-.3,3-.6,4.2-.7,3.1-1.7,5.8-3.1,8.5-.3.6-.9,1.3-2.1,2.7-3.9,4.2-5,5.1-8.2,6.2-.7.2-1.5.6-1.7.7l-.4.2-.3-.2c-.5-.4-.5-.7-.3-1.2.1-.3.1-.8.1-1.1,0-1.1,1.3-4.5,1.7-4.5s0,.3,0,1.9c-.1.8,0,.8.3,1.4.3.7.8,1.2,1.1,1.2.7,0,1.7-.5,1.5-.8-.1,0,.2-.3.9-.9.5-.4,1.5-1.2,2.2-1.9,1.2-1.1,1.4-1.3,1.8-2.1.9-1.8,2.7-4.9,3.3-5.7.8-1.2,1.2-2.2,1.4-3.7,0-.6.2-1.4.3-1.9.4-2.2.4-5.1,0-7.2-.7-4.7-1.5-6.8-2.9-8.6-.7-.9-1.2-1.7-1.8-2.9-.5-1-.6-1.2-.9-1.3-.2,0-.6-.4-.9-.7l-.6-.5.2-.3c0-.2.2-.3.3-.3.2,0,1.6.6,1.9.8.7.4,1.6,1.1,2,1.6.5.6,2.1,3.2,2.7,4.5,1.8,3.8,2.5,7.3,2.1,11.8ZM74.6,45.3c-1.5-.8-2.6-1.7-3.3-2.3-.6-.6-1.4-1.6-1.7-2.3,0-.2-.5-.8-.8-1.1-.7-.7-1.4-1.4-1.8-2.2l-.3-.6.2-.5c.4-1.3,1.9-4,2.2-4s.8-.6.8-.8,0-.3-.2-.4c-.1-.1-.2-.4,0-.7,0-.3.3-.6.4-.8.2-.2.3-.3.2-.5,0-.2,0-.4.4-.7,1-.8,2-1.8,2.6-2.7.8-1.2,2.5-3.1,3-3.5,1.3-.9,3-1,4.3-.3.3.2.9.5,1.3.9l.7.8v.5c-.2.7,0,1,.5,1.3.5.3,2.9.2,4.1-.1,1.1-.2,2.2-.6,3.1-1,.3-.2.9-.5,1.2-.6l.6-.2v-.5c-.1-.3-.1-1.3-.2-2.2-.1-.9-.2-2.5-.2-3.5v-1.9l-.4-.3c-.3-.3-.4-.4-.3-.6,0,0,0-.3.2-.5,0-.2.3-.5.5-.6.2,0,.3-.3.3-.4,0-.2.3-.8.4-.7,0,0,.6-.6.7-.9,0-.2.2-.4.5-.7,1-.7,2.2-1.5,3.6-2.3.8-.5,1.3-.8,1.4-.8h0s0,0,0,0c0,0,.4,0,.7.2.7.2,1.7.6,2.1,1,.3.3.5.3,1.2.3s1,0,1.2,0c.3-.1.7-.2.9-.2.3,0,.5-.1.6-.2.1,0,.4,0,.8.2.8.4,1.1.6,1.2,1.1,0,.3.2.4.7.6.7.2,1.4.9,1.7,1.4.1.2.5.6.9.9.7.5,1.1,1,1.6,1.8.2.3.2.5.2.6,0,.1,0,.7,0,1.2,0,1-.2,2.1-.9,3.4-.3.6-.4.9-.4,1.4-.1,1.4-.7,2.9-1.5,3.9-.5.7-.7,1-1,1.8-.2.5-.4.8-1.1,1.4-.4.4-.7.8-.6.8.2.1,7-2.8,10.6-4.4.8-.3,2.3-1,2.8-1.2.5-.2.9-.5,1.1-.7.2-.3.3-.6.3-.7,0-.2,0-.5,0-.5s.4-.4.7-.8c.6-.8,1.4-1.5,2.3-1.9.3,0,.8-.4,1-.5.3,0,.7-.3.9-.3s.5-.1.6-.2c.3-.3,1.1-.2,2,.3.5.2,1.2.5,1.6.6,1.9.6,3.3,1.9,3.8,3.5.1.3.4.8.8,1.3,1.4,1.6,1.6,3.2.8,5-.6,1.4-1.4,2-3.2,2.1-.6,0-1.3,0-1.7.2-1.2.2-3,1-4.3,1.9-.4.3-.9.5-1.6.7-1.3.4-2.4.8-4.2,1.7-.9.4-2.6,1.1-3.7,1.6-1.6.6-2.3.9-2.7,1.3-1,.8-2.6,1.8-3.7,2.4l-1.1.5.8-.8h-.4c-.2.1-.6.2-.9.3-.3,0-.6.2-.7.2s0,0,.2-.2c.4-.3.6-.5.5-.5s-.9.2-1.9.6c-1.8.6-2.1.7-1.5.4.2-.1.6-.3.8-.5.3-.2.4-.3.2-.3s-.4,0-.6.1c-.3,0-.4,0-.4,0s0-.1-.2-.1,0,.1-.2.1-.3,0-.5.3c-.3.3-.6.4-1.3.5-.7,0-.9.2-1.4.5-.8.5-2.7,1.4-3.5,1.7-.4.1-.7.3-.8.4,0,0-.2,0-.4,0s-.5.1-.8.2c-.6.2-1.9,1.1-1.9,1.2s-.3.1-.6.2-.7.3-.9.4c-.2,0-.6.4-1,.6-.4.2-.9.6-1.1.7l-.4.2.3-.3c.6-.6,1.8-1.4,2.8-2,3.8-2.4,10-6.9,14.6-10.8,3.5-2.9,9.3-8.1,9.3-8.4s-7,3.4-10.5,5.5c-.9.5-1.8,1.4-2.1,2,0,.2,0,.3,0,.3-.4,0-3.1.4-3.3.5s-.5.2-.9.2c-1.4,0-1.5,0-6.2,2.3-1.7.8-3.5,1.6-4,1.9-1.4.6-2.5,1.3-3.9,2.2-1,.7-1.4,1-3.4,2.6-1.1.9-2.2,1.6-3.6,2.2-1.2.5-1.9.6-3.3.6h-.9l-1.2-.7ZM86.3,86.7c-.2.2-.3.2-.5.2-.6-.2-2.9-1.9-4.3-3.3-2-2-3.5-3.9-4.8-6.4-.7-1.5-.8-1.8-.8-2.3,0-1.1,0-1.9.5-2.3s.4-.4.4-.5c.1-.2.2-.3.3-.3.2,0,.5-.2.6-.3s.3-.1.5,0h0s0,0,0,0c.4.3.8.6.8.9s0,.6-.1,1c0,.7-.2.8-.5,1.1-.5.4-.5.6,0,1.3,0,.2.3.8.4,1.3,0,.9.2,1.1.6,1.7,1,1.5,2.7,3,4.2,4.1.7.5.9.6,1.3.6.6,0,.9.3.8.8,0,.3,0,.4.2.7.6.8.8,1.3.4,1.8ZM138.3,97.4c-.4,1.1-.6,1.5-1.2,1.8-.7.4-1.1.9-1.1,1.5v.4h-.5c-.3,0-.9.3-1.3.4-.9.3-1.7.3-2.4,0-1.2-.4-10.8-8.3-12.8-10.6-3-3.4-4.9-7.6-5.5-12.7-.2-1.2-.4-2.8-.5-2.9,0-.1-.3,0-.7,0h-1.8c-.6,0-1.3,0-1.4,0,0,0-.3,0-.7,0-.3,0-.9-.2-1.3-.2h-.6l.8.8c.5.4,1.2,1.1,1.7,1.4.9.6,1.3,1,1.6,1.7.2.4.2.6.1,1-.1.3-.3.7-.4.8-.3.3-2.2,1-3,1s-.9.1-1.3.1-.8,0-1.1,0c-.4-.1-.7-.1-1.5,0-.6,0-1.4.2-1.9.2s-1.1.2-1.5.4c-.3,0-.9.2-1.3.3-1.8.5-2.3,1.3-1.8,3.4,0,.6.4,1.3.4,1.6v.5h.5c1.3-.3,2.9-.9,3.9-1.6,1.1-.8,2.3-1.1,3.5-.8.4.1,1.3.6,2.2,1,1.9.9,3,1.7,4,3,.4.5.6,1,.7,1.4,0,.3,0,.9,0,1.3s0,.8.1,1c0,.3,0,.4,0,.5-.2.2-.2.4,0,.6,0,0,0,.2-.3.7-.2.3-.6.9-.7,1-.2.2-.4.5-.5.7-.3.5-.8,1-1.4,1.1-.9.2-2.9,0-4.2-.2-1-.2-1.4-.2-2-.2-.8,0-1.5.3-2.1.6-.5.3-.8.4-.8.3,0-.4.6-1.5,1.4-2.3,1-1,1.7-2.3,2.1-3.7,0-.5.3-.7.3-.8s-.2,0-.5-.2l-.5-.2-.8.5c-1,.6-2.2,1.1-3.1,1.4-.4,0-1.1.5-1.6.8-1.3.8-3.4,1.3-5.3,1.3h-.9l-.8-.7c-2.2-1.9-3.4-4.5-2.9-6.3.1-.3.1-.4,0-.4,0,0,0-.3.3-.6.3-.3.6-.6.7-.9.3-.6.7-1.6.6-1.9,0-.2-.5-.5-.8-.5s-1.5-1.7-1.8-2.9c-.3-1.3-.3-1.5,0-2,.2-.2.4-.7.5-1,.4-1.1.7-1.3,2-1.3s1,0,1.5-1.4c.5-1.4.6-2.6.4-2.8-.2-.2-1.7-.7-2.5-.9-.6-.2-2.4-.5-2.7-.5s.3-.3,2.7-1.1l2.8-.9-.2-.3c0-.2-.4-.7-.6-1.2-.5-1.2-.6-1.2-1.5-.9-.5.2-2,.9-2.9,1.3-1.1.5-2,1-2.1,1s-.2,0-.3-.1-.2,0-.3.2c-.3.5-.8.8-1.5.9-.4,0-.8-.1-1.2-.4-1.4-1.1-1.4-1.3.5-4.2,2.6-4,5.6-7,9.7-9.7.9-.6,2.1-1.3,2.8-1.7,1.4-.8,4.1-1.9,7-2.9,1.1-.4,2.1-.7,2.2-.8,0,0,.2,0,.4,0,.2,0,.2.2.3,0,.1,0,0,.1,0,.2s.5.5,1.2,1.2c1.5,1.3,3.7,3.5,4.9,5,.9,1.1,1.1,1.4,1.2,2,0,.4.3,1.1.4,1.5l.3.7-.3.4c-.4.6-.8.9-1.4,1-.6.1-1.2,0-2.3-.2-.6,0-1.2,0-1.8,0s-1.9,0-2.9,0c-1.6,0-2,.1-3.7.9-1,.4-1.2.5-1.1.7,0,0,0,.8.2,1.6v1.4c.1,0,.7-.2.7-.2.3-.1,1.6-.5,1.9-.6,1.1-.3,1.7-.3,2.4-.3s1.1,0,1.5-.3c.4-.2.6-.3.7-.2.1,0,.4,0,.6,0s.4.1.9.5c1.4,1.1,2.9,2.3,4,3.3l1.4,1.2v-4c0-4.7.3-6.2.9-9.3.6-3.1,1-4.4,1.5-5,.2-.3.6-.8.8-1.2.1-.3.2-.8.2-1.6s0-1.1-.2-1.5c0-.4-.2-.4-.6-.4s-.4,0-.8-.4c-.6-.6-.9-.6-3.1-.5-3.7.2-5.5.5-7,.9-6.2,1.8-11.8,4.2-16.9,7.7-3.5,2.3-6.4,4.8-9,7.3s-1.7,1.7-2,1.6c-.1,0-.2-.2-.2-.4s0-.5-.1-.6.1-.4,1.4-1.7c7.5-7.6,15.9-12.8,27.2-16.8,1.9-.7,2.2-.8,4.4-1.2,1-.2,1.8-.4,1.9-.4s.1,0,.2-.3.2-.4.3-.4.5-.4.8-.8c.4-.4.8-.8,1-.9.4-.2,1-.6.8-.6s0-.3.4-.5c.2-.1.7-.2,1.3-.2s1.1-.1,1.5-.1c1-.2,3.6,0,4.1.1h0s0,0,0,0c.6.2.8.4,1,1,.2.5.5,1.1.8,1.4.4.3,1.1.5,1.9.6.5,0,.9,0,1.1.2.3,0,.3.3.3.7,0,.7.2,2.7.3,2.9,0,0,.3.3.6.4.3.1.7.3,1,.5.3.2.6.6.8,1.3.5,1.4,1.1,3.6,1.4,4.8l.2,1-.2.4c-.4.6-1.1,1.1-2,1.4-.4.1-1,.4-1.2.6-.4.3-1,1-1,1.2s-.3.5-.7.9c-.4.4-.8.9-1,1.2-.1.3-.6.8-.9,1.2-1.1,1.4-1.8,3.3-1.9,5.1,0,.6,0,1.3-.2,1.6-.3,1-.2,2.5,0,4.1.3,2.2.5,4.5.4,6.5,0,1.7.1,2.4.1,2.7.2.8.5,1.7.9,2.3.2.3.2.4.2.9s0,.7.4,1.3c.2.4.5.9.6,1.2.1.3.3.7.5.9.2.2.4.4.4.5,0,.3.2.5.6.5s1.8.3,2.4.6c.3,0,.9.2,1.2.3.5.1.7.1,1.2,0,1.3-.4,2.5-1.4,3.1-2.4.2-.3.5-.9.8-1.4.5-.9.7-1.3,1-2.6.6-2.5,1.2-5.1,1.3-6.3,0-.3.1-1.1.2-1.8.1-.7.3-1.6.4-2.1.2-1.3.3-1.3.3-1.2.3.6.4,6.4.1,8.7-.1,1-.1,1.2,0,2.1.2,1.6.3,3.7,0,5.1-.2,1.7-.2,1.8.1,3.9,0,1,.4,2.6.5,3.5v1.7c0,0,0,.7,0,.7Z"/>
  </g>
  <g>
    <path class="st0" d="M237,35.2c.3.3.8,1,.9,1.2.3.8,1.2,1.9,1.9,2.5.8.7,2,1.6,3.6,2.5l1.3.8h1c1.5,0,2.3-.1,3.6-.7,1.5-.7,2.8-1.4,3.9-2.4,2.2-1.8,2.6-2.1,3.7-2.9,1.5-1,2.8-1.8,4.3-2.4.7-.3,2.6-1.2,4.5-2.1,5.3-2.5,5.4-2.5,6.9-2.5s.8-.1,1-.2,3.2-.6,3.6-.6,0-.1.1-.3c.3-.7,1.3-1.6,2.3-2.2,3.8-2.4,11.7-6.5,11.7-6.2s-6.5,6.2-10.3,9.3c-5.2,4.3-12.1,9.3-16.3,12-1.1.7-2.4,1.5-3.1,2.2l-.3.3.4-.2c.2-.1.8-.6,1.2-.8s.9-.6,1.1-.7.7-.3,1-.4c.3-.1.7-.1.7-.2s1.4-1.1,2.1-1.3c.3-.1.7-.2.9-.2s.3,0,.4-.1c.1-.1.4-.3.9-.4.9-.3,3-1.3,3.8-1.9.6-.3.8-.4,1.5-.6s1.1-.2,1.4-.6c.2-.2.4-.3.6-.3s.1-.1.2-.1.2,0,.2.1.1.1.4,0c.2-.1.6-.1.7-.1.2,0,.1.1-.2.3-.2.2-.7.4-.9.6-.7.3-.3.2,1.6-.4,1.1-.4,2-.7,2.1-.7s-.1.2-.6.6c-.2.1-.3.2-.2.2s.4-.1.8-.2c.3-.1.8-.2,1-.2h.4c0-.1-.9.8-.9.8l1.2-.6c1.2-.7,3-1.8,4.1-2.6.4-.4,1.2-.8,3-1.4,1.2-.6,3.1-1.3,4.1-1.8,2.1-1,3.3-1.4,4.7-1.9.8-.2,1.3-.4,1.8-.8,1.5-1,3.5-1.9,4.8-2.1.4-.1,1.2-.2,1.9-.2,2-.1,2.9-.8,3.5-2.3.9-2.1.7-3.8-.9-5.6-.4-.6-.8-1.1-.9-1.4-.6-1.8-2.1-3.2-4.2-3.8-.4-.1-1.2-.4-1.8-.7-1-.6-1.9-.7-2.2-.3-.1.1-.4.2-.7.2s-.7.2-1,.3c-.2.1-.8.4-1.1.6-1,.4-1.9,1.2-2.5,2.1-.3.4-.7.9-.8.9s0,.3,0,.6-.1.4-.3.8c-.2.2-.7.6-1.2.8s-2.2,1-3.1,1.3c-3.9,1.9-11.5,5-11.8,4.9-.1,0,.2-.4.7-.9.8-.7,1-1,1.2-1.5.3-.9.6-1.2,1.1-2,.9-1.1,1.5-2.8,1.6-4.3,0-.6.1-.9.4-1.5.8-1.4,1-2.6,1-3.7s0-1.2.1-1.3c0-.1,0-.3-.2-.7-.6-.9-1-1.4-1.8-2-.4-.3-.9-.8-1-1-.3-.6-1.1-1.3-1.9-1.5-.6-.2-.7-.3-.8-.7-.1-.6-.4-.8-1.3-1.2-.4-.2-.7-.3-.9-.2-.1.1-.3.2-.7.2s-.7.1-1,.2c-.2.1-.9.1-1.3.1-.8,0-1,0-1.3-.3-.4-.4-1.5-.9-2.3-1.1-.3-.1-.7-.2-.8-.2s-.7.3-1.5.9c-1.5.9-2.9,1.8-3.9,2.5-.3.3-.6.6-.6.8-.1.3-.7,1.1-.8,1-.1-.1-.4.6-.4.8s-.1.3-.3.4c-.2.1-.4.4-.6.7s-.1.4-.2.6c-.1.2,0,.3.3.7l.4.3v2.1c0,1.1.1,2.9.2,3.8s.1,2.1.1,2.4v.6c.1,0-.6.2-.6.2-.3.1-1,.4-1.3.7-1,.4-2.2.9-3.4,1.1-1.4.3-4.1.4-4.6.1-.6-.3-.8-.7-.7-1.4v-.6c.1,0-.7-.9-.7-.9-.4-.4-1.1-.8-1.4-1-1.5-.8-3.4-.7-4.8.3-.6.4-2.4,2.5-3.3,3.8-.7,1-1.8,2.1-2.9,3-.4.3-.4.6-.4.8.1.2,0,.3-.2.6-.1.2-.3.6-.4.9,0,.4,0,.6.1.8.1.1.2.3.2.4,0,.2-.6.9-.9.9s-2,3-2.4,4.4l-.2.6.3.7c.4.9,1.2,1.6,2,2.4h0,0ZM246,30.9c.4-.8,1.2-2.3,1.2-2.6s.4-.7.9-1.1c.8-.8.9-1,1.1-1.9.1-.6.3-1.2.4-1.5.1-.3.2-.8.2-.9v-.3h1.8c1,0,2.2,0,2.8-.1s1.5-.2,2.2-.2,1.2,0,1.3-.1.8,0,1.8,0h1.8l1.5,1.5c.9.9,1.9,1.9,2.1,2.3l.4.7-.8.8c-1,1-1.9,1.6-3.1,2.2-1.4.7-3.7,1.2-5.4,1.2s-.9.1-1.3.2c-2,.7-4.8.9-7.1.8-.8-.1-1.6-.2-1.9-.2h-.3l.4-.7h0Z"/>
    <path class="st0" d="M247.6,74c.3-.3.4-.4.6-1.2.1-.4.1-1,.1-1.1,0-.3-.4-.7-.9-1-.2-.1-.4-.1-.6,0-.1.1-.4.3-.7.3s-.2.1-.3.3c0,.1-.2.3-.4.6-.4.4-.6,1.3-.6,2.5s.1.9.9,2.5c1.4,2.9,3.1,4.9,5.3,7.1,1.6,1.5,4.2,3.4,4.8,3.6.2,0,.3,0,.6-.2.4-.6.2-1.1-.4-2-.2-.3-.2-.4-.2-.8.1-.6-.2-.9-.9-.9s-.7-.1-1.4-.7c-1.8-1.2-3.6-2.9-4.7-4.5-.4-.7-.6-.9-.7-1.9-.1-.6-.3-1.2-.4-1.4-.6-.8-.6-1,0-1.4h0,0Z"/>
    <path class="st0" d="M241.3,76.1c.4-4.9-.3-8.9-2.3-13.1-.7-1.4-2.4-4.3-3-4.9-.4-.6-1.4-1.3-2.2-1.8-.3-.2-1.9-.9-2.1-.9s-.2.1-.3.3l-.2.3.7.6c.3.3.8.7,1,.8.3.1.4.3,1,1.4.7,1.3,1.2,2.2,2,3.2,1.5,2,2.4,4.4,3.2,9.6.3,2.3.3,5.6-.1,8-.1.6-.2,1.4-.3,2.1-.2,1.6-.7,2.8-1.5,4.1-.7,1-2.6,4.4-3.6,6.4-.4.9-.7,1.1-2,2.3-.8.8-1.9,1.6-2.4,2.1-.8.7-1.1.9-1,1,.2.3-.9.9-1.6.9s-.9-.6-1.2-1.3c-.2-.7-.4-.7-.3-1.5.1-1.8.1-2.1,0-2.1-.4,0-1.9,3.7-1.9,4.9s0,.9-.1,1.2c-.2.6-.2.9.3,1.3l.3.2.4-.2c.2-.1,1.1-.6,1.9-.8,3.5-1.2,4.8-2.2,9.1-6.9,1.3-1.5,2-2.3,2.3-3,1.5-3,2.6-6,3.4-9.4.3-1.4.6-2.4.7-4.7h0Z"/>
    <path class="st0" d="M275.4,99.9c.7,0,1.1,0,2.2.2,1.4.3,3.6.4,4.6.2.7-.1,1.2-.7,1.5-1.2.1-.2.3-.6.6-.8.1-.1.6-.8.8-1.1.3-.6.3-.7.3-.8-.2-.2-.2-.4,0-.7.1-.1.1-.2,0-.6-.1-.2-.1-.7-.1-1.1s-.1-1.1-.1-1.4c0-.4-.3-1-.8-1.5-1.1-1.4-2.3-2.3-4.4-3.3-1-.4-2-1-2.4-1.1-1.3-.3-2.6,0-3.8.9-1.1.8-2.9,1.4-4.3,1.6h-.6c0,.1,0-.5,0-.5,0-.3-.3-1.1-.4-1.8-.6-2.3,0-3.2,2-3.7.4-.1,1.1-.2,1.4-.3.4-.2,1-.4,1.6-.4s1.4-.1,2.1-.2c.9-.1,1.2-.1,1.6,0,.3.1.7,0,1.2,0s1.1-.1,1.4-.1c.9,0,3-.8,3.3-1.1.1-.1.3-.6.4-.9.1-.4.1-.7-.1-1.1-.3-.8-.8-1.2-1.8-1.9-.6-.3-1.3-1.1-1.9-1.5l-.9-.9h.7c.4,0,1.1.1,1.4.2.4.1.7.1.8.1.1-.1.9-.1,1.5-.1h2c.4-.1.7-.2.8-.1s.3,1.9.6,3.2c.8,5.6,2.9,10.3,6.2,14.1,2.2,2.5,12.9,11.3,14.2,11.8.8.2,1.6.2,2.6-.1.4-.1,1.1-.4,1.4-.4h.6v-.4c0-.7.4-1.2,1.2-1.6.7-.3.9-.8,1.3-2l.2-.8v-1.9c-.2-1-.5-2.8-.7-3.8-.3-2.3-.3-2.4-.1-4.3.2-1.6.1-3.9-.1-5.7-.1-1-.1-1.2,0-2.3.3-2.5.2-9-.1-9.7,0-.1-.1-.1-.3,1.3-.1.6-.3,1.5-.4,2.3-.1.8-.2,1.6-.2,2-.1,1.3-.8,4.3-1.4,7-.3,1.4-.6,1.9-1.1,2.9-.3.6-.7,1.2-.9,1.5-.7,1.1-2,2.2-3.4,2.6-.6.1-.8.1-1.3,0-.3-.1-1-.2-1.3-.3-.7-.3-2.1-.7-2.6-.7s-.7-.2-.7-.6-.2-.3-.4-.6c-.2-.2-.4-.7-.6-1s-.4-.9-.7-1.3c-.4-.7-.4-.9-.4-1.4s0-.7-.2-1c-.4-.7-.8-1.6-1-2.5,0-.3-.1-1.1-.1-3,.1-2.3-.1-4.8-.4-7.2-.2-1.8-.3-3.4,0-4.5.1-.3.2-1.1.2-1.8.1-2.1.9-4.2,2.1-5.7.3-.4.9-1,1-1.3.2-.3.7-.9,1.1-1.3s.8-.9.8-1c0-.2.7-1,1.1-1.3.2-.2.9-.6,1.3-.7,1-.3,1.8-.9,2.2-1.5l.2-.4-.2-1.1c-.3-1.3-1-3.7-1.5-5.3-.2-.7-.5-1.2-.9-1.4-.3-.2-.8-.4-1.1-.6s-.6-.3-.7-.4c-.1-.2-.3-2.4-.3-3.2s0-.7-.3-.8c-.2-.1-.7-.2-1.2-.2-.9-.1-1.6-.3-2.1-.7-.3-.3-.7-1-.9-1.5-.2-.7-.4-.9-1.1-1.1-.6-.2-3.4-.3-4.5-.1-.4,0-1.1.1-1.6.1s-1.2.1-1.4.2c-.3.2-.6.6-.4.6.2,0-.4.4-.9.7-.2.1-.7.6-1.1,1-.3.4-.8.9-.9.9s-.2.2-.3.4c-.1.2-.1.3-.2.3s-1,.2-2.1.4c-2.5.4-2.9.6-4.9,1.3-12.5,4.5-21.9,10.2-30.2,18.7-1.4,1.4-1.6,1.8-1.5,1.9s.1.4.1.7,0,.4.2.4c.3.1.4,0,2.2-1.8,2.9-2.9,6.2-5.6,10-8.1,5.7-3.8,11.9-6.6,18.8-8.6,1.6-.4,3.7-.8,7.8-1,2.4-.1,2.8-.1,3.4.6.3.3.6.4.9.4.4,0,.6,0,.7.4.2.4.2.9.2,1.6s-.1,1.4-.2,1.8c-.2.4-.7,1-.9,1.3-.6.7-1,2.2-1.6,5.6-.7,3.4-.9,5.2-1,10.3v4.4l-1.5-1.3c-1.2-1.1-2.9-2.4-4.4-3.6-.6-.4-.8-.6-1-.6s-.6-.1-.7-.1c-.1-.1-.3,0-.8.2s-.8.3-1.6.3-1.4,0-2.6.3c-.3.1-1.8.6-2.1.7l-.7.2v-1.5c-.2-.9-.3-1.6-.3-1.8-.1-.2.1-.3,1.2-.8,1.9-.9,2.3-1,4.1-1s2.5-.1,3.2-.1,1.3,0,2,.1c1.2.2,1.9.3,2.5.2s1.1-.4,1.5-1.1l.3-.4-.3-.8c-.1-.4-.3-1.2-.4-1.6-.1-.7-.3-1-1.3-2.2-1.3-1.6-3.7-4.1-5.4-5.5-.8-.8-1.3-1.2-1.3-1.3s0-.3-.1-.2-.1,0-.3-.1-.3-.1-.4,0c-.1.1-1.2.4-2.4.9-3.3,1.1-6.3,2.3-7.8,3.2-.8.4-2.1,1.2-3.1,1.9-4.5,3-7.9,6.3-10.8,10.8-2.1,3.2-2.1,3.4-.6,4.6.4.3.9.4,1.3.4.8-.1,1.3-.4,1.6-1,.1-.2.2-.3.3-.2s.2.1.3.1,1.1-.6,2.3-1.1c1-.4,2.6-1.2,3.2-1.4,1-.3,1.1-.3,1.6,1,.2.6.6,1.1.7,1.3l.2.3-3.1,1c-2.6.9-3.3,1.2-3,1.2s2.3.3,3,.6c.9.2,2.5.8,2.8,1,.2.2.1,1.5-.4,3.1s-.7,1.5-1.6,1.5c-1.4,0-1.8.2-2.2,1.4-.1.3-.3.9-.6,1.1-.3.6-.3.8,0,2.2.3,1.3,1.5,3.2,2,3.2s.8.3.9.6c.1.3-.3,1.4-.7,2.1-.1.3-.4.7-.8,1s-.4.6-.3.7c.1,0,.1.1,0,.4-.6,2,.8,4.9,3.2,7l.9.8h1c2.2,0,4.5-.6,5.9-1.4.6-.3,1.3-.8,1.8-.9,1-.3,2.3-.9,3.4-1.5l.9-.6.6.2c.3.1.6.1.6.2s-.2.3-.3.9c-.4,1.5-1.2,3-2.3,4.1-.9.9-1.5,2.1-1.5,2.5s.3,0,.9-.3c.7-.4,1.4-.6,2.3-.7h0s0,0,0,0ZM268.8,71.1h.7c.4.1,1.2.1,1.8,0,.6-.1,1.5-.2,2.1-.2h1l.8.7c.4.3,1,.9,1.1,1.1l.2.4-.6.6c-1,.8-2.4,1.4-3.7,1.4s-.9.2-1.8.7l-1.3.7v-.8c0-.4-.2-1.6-.2-2.6v-1.9h0Z"/>
    <path class="st0" d="M341.8,47.6c.3.3.8,1,1.1,1.4.7,1,2,2.6,3.1,3.9,1.3,1.4,4.2,4.1,4.5,4.1s.2-.2-.4-1.6c-.2-.7-.6-1.3-.7-1.6-.3-1-1.2-2.6-1.9-3.6-.3-.4-1-1.3-1.5-1.9-.6-.6-1.1-1.3-1.3-1.5-.6-.9-1.8-2.1-2.5-2.8l-.8-.7h-.9c-.7,0-.9.1-1,.2s-.2.3-.2.6.2.6,1,1.6c.6.8,1.3,1.5,1.5,1.9h0Z"/>
    <path class="st0" d="M430.4,56.4c0-.8-.6-1.3-2.5-2.5-1.6-1.1-3.7-2-3.9-1.8-.1.1-.3.1-.4.1s-.8.1-1.3.3c-.7.2-2.2.7-4.1,1-1.6.3-3.4.6-3.8.7s-.8.2-.9.1c-.1-.1.4-2.9.7-4.2.2-1.2.1-1.3,0-1.4s-.2,0-.3.1c0,0-.1,0-.1-.1s.2-1,.3-1.9c.3-2.4,1.3-6.8,1.5-7.2.1-.1.3-.2.7-.3.8-.2,1.4-.7,1.6-1,.3-.7,0-2.1-.6-3.2-.1-.4-.1-.7,0-1.1.1-.3.4-1.1.7-1.6.1-.2.6-1.4.8-2,.7-1.9,1.6-3.6,3.1-5.3l.8-.9-.2-.3c-.3-.7-1.2-1.4-2-1.9l-.8-.3-.7.2c-.3.1-1.1.6-1.5.9-.8.4-.9.6-1.1,1.1-.1.3-.3.9-.4,1.2s-.3,1-.4,1.1c-.4.8-1.2,2.4-1.5,3.4-.1.4-.3.9-.4.9-.1.1-.4-.1-.9-.4-1.2-.9-2.1-1.4-2.3-1.2-.1.1-.2,0-.7-.4-.8-.9-1.6-1.1-2.3-.7-.2.1-.4.2-.7.1-.2-.1-.8-.2-1.3-.3-.9-.2-2.4-.6-2.6-.7-.1-.1.3-.2,1-.3,2-.6,3.9-1.6,5.1-3l.2-.3-.3-.7c-1.2-3-3.2-5.7-5.9-7.7-.4-.3-.8-.4-.9-.4s-.2,0-.2-.1c0-.3.6-1.4,1-2.2l.4-.8v-.8c-.3-1.5-.8-2.6-1.7-3.9-.6-.7-1.2-1.2-2.9-2.2-.6-.3-1.9-1.3-3.1-2.3-1.1-1-2.2-1.8-2.3-1.8s-.3,0-.4.1c-.3.1-.4.6-.3,1,.1.2.2.3.1.4s-1.4-.4-2.1-.9c-.4-.3-.7-.4-.8-.4s-4.6,1.2-8.7,2.3c-3.5,1-3.8,1.1-5.6,2-4.1,2-7.9,4.4-11.2,7-2.1,1.6-3.1,2.5-3.8,3.5-1.1,1.3-2.1,2.2-2.6,2.2s-5.5,4.1-8.4,6.9c-1.2,1.2-1.6,1.6-1.6,1.9-.1.2-.2.7-.3.9-.2.2-.2.4-.2.7.1.6.4.7,1.5.7s1.1-.1,1.5-.4c.9-.6,3.1-1.6,4.3-2.1,1.3-.4,2-.6,2.8-.3.4,0,.8,0,1.2-.2.8-.4,2.1-1.2,2.9-1.8.3-.2,1-.7,1.1-.7.3-.1,1-.6,1.3-.8.8-.4,1.3-.4,1.2-.1,0,.1.1.1.6-.1.1,0,1-.3,1.4-.4.4-.1,1-.2,1.3-.2.3-.1.8-.2.9-.2.3-.1,0,.2-.3.4-.8.3-.2.2,1.3-.1.8-.2,1.6-.6,1.8-.6.2-.1.3,0,.2.7,0,.3-.2.9-.3,1.1-.2.6-.9,1.2-1,1.1-.1-.1.1-.2.2-.3.1-.1.2-.3.1-.6s-.3-.2-.6,0c-.6,1-.3,2.5.8,4.6.3.6.6,1.2.7,1.4.3,1,.9,1.8,2,2.3.6.2.7.3.4.4-.1,0-1.5.7-3.3,1.4-7.4,3.1-12.3,5.3-12.9,5.8-.2.2-.6.6-.8.7-.2.1-.3.3-.2.4.1.1.3.2.7.2.7,0,.8.1.7.6,0,.2-.1.3-.9.8l-.9.4v.8c0,.3.1,1,.2,1.3.1.6.1.7-.1,1l-.2.4.4.7c.9,1.4,1.6,2.6,2.4,3,.2.1.8.3,1.1.3h.7l-2.5,1.3c-2.8,1.3-3.4,1.6-3.8,2.6-.1.3-.2.7-.3.8s-.1.3.1,1,.3.8.6.8.7,0,1.2-.1c1-.1,1.5-.1,2.1,0,.8.2,1.2.2,2.1.2s1.2-.1,1.3-.2.8-.4,1.2-.8c1.2-.9,3.3-2,5.2-2.6,1.4-.4,1.5-.4,1.8-.2.1,0,.7,0,1.5-.4.8-.3,1.5-.4,1.6-.4.2.1,1.9-.8,1.9-1s.1-.1.3-.1c.6,0,1-.1,2.3-.8s4.7-1.9,6.6-2.3c3.2-.9,6.2-1.1,9.6-.9,2.2.1,3.5,0,4.9-.2.9-.2,3-.3,3.9-.3s.9-.1,1-.3c.1-.1.2-.4.2-.7s0-.4-.3-.8c-.2-.2-.8-.4-1.1-.7l-.7-.3.2-.3c.6-.9,1.4-1.5,2.4-1.8.8-.2,3-.1,3.1.1.1.1.4.1.7-.1.1-.1.3-.2.6-.1.2,0,.4,0,.2.1-.2.1-.7.4-.7.6s.4,0,1.4-.6c.4-.2.7-.4.8-.3.1.1-.1.6-.2,1.3-.7,3.2-1.3,8.1-1.8,12.1-.1,1.2-.3,2.3-.4,2.4-.1.1-1,.4-2.3,1-3.6,1.4-9.2,4.3-13.7,7-4.8,3-9.2,6-13.7,9.8-1.5,1.3-2.1,1.6-2,1.3,1-2.2,1.5-3.8,1.6-5.2.1-1,.4-2,.8-2.5l.4-.9c.2-.7.7-1.3,1.3-1.8.7-.4.7-.6.7-1.6s0-.9-.6-1.9c-.7-1.3-1.2-2.1-2.2-2.8-.1-.1-.9-.8-1.2-1.1-.6-.7-1.6-1.5-2.6-1.9-.4-.2-.9-.2-1.8-.2s-1.2-.1-1.8-.3c-.3-.2-.8-.4-.9-.6-.2-.2-1.8-.1-2.6.2-.7.2-1.8.8-2,1.1-.1.1-.3.2-.6.2-.7.1-1.4.7-2,1.1-.1.1-1,.6-1.6.9-2.9,1.3-8.6,4.3-11,5.7-.4.3-1.8,1-2.9,1.5-3.6,1.9-6.2,3.5-8.7,5.7-2,1.6-4.8,4.6-6.4,6.7-.7.9-.7,1.1,0,1.3.8.2,1.1.1,2.9-1.5.9-.9,2.2-2.1,3-2.8,1.6-1.3,3.7-3,3.9-3s.1.1.1.3c0,.7,1.5,1.6,2.5,1.6s.6.4.9,1.1c1.2,2.5,1.8,4.3,2.2,6.3.3,1.4.6,3.8.4,4.1-.4.7-.7,1.1-.7,1.3,0,.4,0,.9-.3,1.4-.2.4-.6,1.2-.7,1.8-.2,1.1-.3,1.2-.8,1.2-.6.1-1.5,1.1-1.5,1.6s-.1.2-.2.3c-.3.2-.6.6-.7,1.2,0,.1-.2.9-.3,1.2-.3,1-.2,2,.2,3,.8,1.6,2.8,4.4,4.5,6.2l1.1,1.1h.6c.4,0,.6,0,.8-.2.6-.7,1.5-.9,2.9-.7.2,0,.6,0,1.1-.2.6-.2.7-.4.8-.8.1-.2,0-.6,0-.7,0-.2.1-.2.2-.4.3-.3.6-1,.6-1.5s.6-.9,1.8-1.9c1-.8,2.4-2,3.2-2.6,2.6-2.4,4.6-4.1,6.8-5.6,1.6-1.1,3.1-2,3.2-2s.4-.1.7-.2c.2-.1.4-.2.6-.1.2.1.3.9.2,1.3-.2,1-.3,1.2-6,4.9-4.1,2.8-4.3,3-3.6,3.2h.2c0,.1-.2.3-.2.3-.1.1-.3.2-.2.2.2,0,2.1-1.1,3.2-1.9,1-.8,1.3-1,3.4-2.3.4-.2,1.2-.8,1.6-1.2.8-.7,1.1-.9,1.9-1,.3,0,.4-.1.4,0s.2.1,1.6.1h1.9l.8.3c1,.4,2.5,1.1,3.1,1.2.4.1,1,.3,1.2.4.6.3,1.3.4,1.9.3h1.1c.3,0,1,.1,1.4.1s.9-.1,1.5-.4c1.8-.9,2.4-1.3,2.5-2.4.1-.9-.1-1.2-1.4-2.5-2.1-2.1-3.8-3.5-6.3-4.7-3-1.5-5.3-2.2-10-3-2.6-.4-3.5-.6-4.2-.6-1.4.1-3.2,0-3.3-.1,0-.1.2-.3.8-.6.9-.4,1-.7.7-.8-.1,0,0-.7.3-1.6.4-1.2.9-1.6,1.3-1.8s1.1,0,1.4.3c.1,0,.4.1.8.1.6-.1,1.3.3,1.6.8l.2.2.8-.4c1.1-.7,2.8-1.4,3.1-1.4s-.2.3-.6.7c-1,1.1-1.6,2.5-1.3,3.5.1.4.8,1.1,1.3,1.3.6.2,1,.3,1.4.2,1-.2,3.9-2.8,5.3-4.4,3.6-4.5,8.2-8.7,13.2-12,2.3-1.5,5.8-3.5,6.2-3.6.2,0,.4-.2.7-.3s1.5-.8,3-1.4c2.1-.9,2.8-1.1,2.9-1s.1.4-.1,1.4c-.6,3.2-1,8.1-1.2,12.3v1.8l-.4-.3c-.9-.9-2.3-1.8-3.6-2.3-1.2-.6-3.7-1.1-6.7-1.4l-1.8-.2-.8.3c-1.1.4-2.1.9-2.9,1.4-1,.8-3,2.8-3.2,3.2s-.2.4-.3.4-.2.1-.3.4l-.2.6.4,1.1h-.3c-.1.2-.3.3-.4.4s0,.2.3,1.1c.2.6.7,1.4.9,1.9.3.7,2,2.9,4.1,5.4.7.7,1.3,1.5,1.5,2,.2.3.6.8.7,1l.2.3-.8,1.1c-.9,1.4-1.9,2.8-3.1,4.2-1.4,1.6-2.5,3-3.8,4.8-1,1.3-1.9,2.8-1.6,2.5.1-.1.9-.9,1.8-1.9,3.1-3.4,5.6-6.2,6.5-6.8s2.3-1.5,2.8-1.6c.2,0,.4.1,5.7,6,3.2,3.6,3.5,3.9,4.4,4.4.7.3,2,.4,2.3.2.3-.1,1.9-2,2.5-3,1.9-2.8,2.3-3.9,2.5-6.3.2-3,.2-3.8-.1-5.7-1.1-5.5-1.5-9.1-1.5-14.3s.3-8.4,1.1-12.3c.6-3.1.8-3.4,1.2-3.8.3-.3.6-.4,1-.4.7,0,.9-.1,1-.2.2-.2.7-.3,1.3-.3s1.3-.1,1.8-.2c.6-.1,1.1-.2,1.5-.2s2.2.1,3.6.2c2.8.1,4.6.2,5.8.4.9.1,1.1.1,1.1-.4h0c0,0-.1,0-.1,0ZM373.2,36.8c-.3,1.1-.7,2.6-.9,3.3-.1.7-.3,1.3-.4,1.5-.1.3-4.3,4.5-4.5,4.5s-.1-.7-.1-1.9c.1-1.8-.7-2.8-2.9-3.8-.7-.3-1.2-.7-1.3-.7-.4,0-.2-.3.9-1,2.9-1.9,5.9-3.3,9.4-4.5.4-.2.4-.1.4.2s-.3,1.2-.7,2.3h0ZM376.1,31.2c-.1,0,.3-.1.8-.3,1.8-.9,3.6-2.4,3.9-3.4.3-.8.6-2.2.7-3.4.1-.7.1-1.2.2-1.4.1-.2.2-.7.2-1s-.2-.7-.7-1.1c-.3-.3-.8-.7-1.1-.9l-.6-.4h.7c.4,0,1-.2,1.4-.4.9-.4,3-.9,3.7-.9h.7l-.3.2-.3.3h.7c.4,0,.8,0,1.1.2.7.3,1.5.3,2.4,0,.6-.2.7-.4.6-.6s-.2,0-.3,0c-.4.1.4-.6,1.1-.8,1.2-.4,1.8-.6,3.3-.6h1.5l-.7.4c-1,.6-1.9,1.3-2.4,2l-.4.6h.8c0-.1-.9.9-.9.9-1.6,2-3.4,3.9-5.2,5.7-1,1-1.8,2-1.9,2.1-.1.2-.6.4-1.8.8-1.6.6-7.1,2-7.2,2h0,0ZM391.2,36.8c-2.3,1.4-4.7,2.6-4.9,2.6-.2-.1.4-1,1-1.3,1-.7,1-1.8,0-3.1-.6-.8-1.4-1.3-3.3-2.1-.6-.2-1.8-.8-1.9-.8l-.7-.3h.7c1-.3,1.5-.3,1.6-.1.1.1.3.2,1.4,0,.7-.1,1.8-.3,2.3-.4,1.3-.3,3.8-.2,5.7,0,.8.1,1.9.3,2.1.3,1.3.3,2.4.6,2.4.7,0,.2-4.1,3.1-6.5,4.5h0,0ZM349.4,73.5c0-.2-.1-.7-.3-1-.3-.7-.8-2-.9-2.8v-.6c-.1,0,1.9-1,1.9-1,2.1-1.1,4.1-2.2,5.2-3,.3-.2.9-.4,1.1-.6.9-.2,5.3-2.4,5.7-2.8.1-.1.6-.1,1.2-.1h1.2v.3c-.1.2-.1.4-.2.7-.2.9-.4,3.1-.4,4.3s.3,3.4.7,4.9c.2,1,.2,1.1.1,1.9-.1,1.2-.6,2.1-1.4,2.8-2.3,1.9-4.6,3.7-6.8,5.3l-1.3,1v-.4c-.4-1.3.5-5.2,1.2-6l.3-.3h.8c1.8.3,4.5,0,6-.8.9-.4.9-.6.9-1.8s-.3-1.9-1.2-2.5c-1-.7-1.9-1.4-2.9-2.3-1-.9-2-1.4-3.4-2l-.7-.2-.8.3c-.4.1-1,.4-1.3.7-.6.3-1.1.9-1.1,1.1s-.1.2-.4.3c-.6.2-1,.7-1.1,1.2,0,.2-.2.7-.6,1-.7.7-1.2,1.5-1.1,2,0,.2.1.3,0,.3s-.1.2-.1.6,0,.3-.1.1c0-.1-.1-.4-.1-.7h0c0,0,0,0,0,0ZM349.6,74.9c.1.1.3.4.4.7.6.8,2.1,1.5,2.9,1.3.2-.1.3-.1.4-.1s-1,2.5-1.2,3c-.2.4-1.1,1-1.2.9-.2-.2-1.1-3.7-1.3-5.5,0-.2-.1-.4,0-.2h0ZM365,86.3c.4,0,.9,0,.9.1,0,.2-4.8,3.8-7.5,5.5-2.6,1.8-7.4,4.5-7.8,4.5s-1.2-1-1-1.3c.1-.2,2.6-2.2,3.8-3,.7-.4,1.9-1.2,2.5-1.5.4-.2,1.4-.9,1.8-1.1.3-.2.9-.4,1.2-.6.9-.2.9-.1.9-.3s-.1-.3-.2-.3-.3,0-.3-.1.9-1.3,1.4-2c.3-.3.7-.4,1.1-.3.3,0,1,.1,1.4.2s1.3.2,1.8.2h0ZM397.4,81.7c0,.3,0,.8-.1,1.2s-.3,1.1-.4,1.4c-.3.8-.9,1.9-1,1.9s-1-1-1.2-1.5c-.2-.4-.2-.7-.2-1.5s-.1-1,0-1.1.6-.1,1.1-.2c.8-.1,1.1-.2,1.4-.4l.4-.2v.6h0ZM406.9,87.8c-.8.9-2,1.1-2.8.8h-.3c0-.1-.3.2-.3.2-.2.2-.4.4-.7.4-.6.1-2.9-.3-3.3-.7-.1-.1-.1-.2.3-.7,2.3-2.6,3.7-4.4,5.1-6.3.7-1,1.4-1.9,1.5-1.8s.2,1.8.4,3.8l.3,3.6-.3.4h0,0Z"/>
    <path class="st0" d="M366.5,29.7s-.1,0-.1,0c0-.7-.4-2.5-.7-2.9-.3-.6-1.2-1.4-2-1.9-.6-.3-1.1-.7-1.3-.7s-.3,0-.6.1c-.2.1-.7.4-.9.7-.4.4-1.2.8-2.4,1-.3.1-1,.4-1.4.7-1.5.8-2.5,1.9-3.1,3.4-.2.7-.2.9-.1,1.4.3,1.6,1.4,3.2,3,3.9l.8.3h1.8c1,0,2.1-.1,2.5-.2,2.5-.6,4.9-3,4.5-4.6,0-.3,0-.6.1-.8.2-.3.1-.7-.1-.6h0,0Z"/>
    <path class="st0" d="M536.8,60.1c-1.1-2-2.3-3.8-3.6-5.7-.7-.9-1.4-2-1.6-2.4-1.4-2.5-3.5-4.5-5.9-5.4l-1.3-.7c-.9-.8-2.4-1.6-3.7-2.2l-.6-.2-1.2.3c-.7.2-2.3.6-3.5.8-2.3.4-3,.8-3.6,1.2-.3.2-.9,1.1-.9,1.4s.4.6.9.6.4.1,1,.7c.3.4.8.8,1.1.9l.6.2-1.6,1.9c-2,2.2-6.5,6.6-8.5,8.4-2.3,2-4.8,4.1-7,5.7-3.1,2.3-3.2,2.3-3.5,2.2-.2-.1-.3-.2-.6-.4-.2-.3-.2-.6-.2-.8.2-.7.9-1.9,1.3-2.4.3-.4.3-.6.2-.7-.1-.1,0-.3.4-1.8.9-2.6,2.3-5.7,3.7-8.1.4-.7.7-1.2.6-1.3s.1-.3.3-.3.3-.3.6-.8c.2-.4.8-1.1,1.2-1.5.8-.9.9-.9,1-.7v.2c.1,0,.3-.2.3-.2.1-.1.6-.6.7-.6.8-.4,2-2,2.9-4.1.2-.6.7-1.4.9-2,.3-.6.6-1,.4-1.1s1.5-2.3,3-4.1c2.1-2.6,7.4-7.7,8-7.7s.8-.4,1.3-1.9c.3-.9.6-1.4.4-1.4s-.1.2-.2.2c-.2.1-.2-.3-.1-.8,0-.1,0-.3-.2-.8-.4-.9-1-1.8-1.8-2.5-.6-.7-.7-.9-.8-1.4-.4-1.8-1.3-3-2.8-3.6-.9-.4-1.2-.7-1.3-1.8-.1-.6-.2-.8-.7-1.2-.7-.7-1.5-1.1-2.5-1.3-.7-.1-1.1,0-2.2.3-.9.3-2.1.7-2.6.8-.9.2-1.1.3-1.3.6-.1.1-.4.3-.7.4-.3.1-.4.2-.8.9-.4.8-1.3,1.8-1.8,2.2-.2.2-.2.3-.2,1s.3,1.8.9,2.2l.3.3-.8,1.2c-2.4,4.3-7.2,13-8.5,15.2-2,3.6-3.6,7.6-4.8,11.3-.3,1.1-.7,2.1-.7,2.2s-.1.3-.2.6c-.1.2-.3.9-.6,1.6-.4,1.6-2.6,10.6-2.8,10.6s-.3.3-.7.7l-.7.6v-.7c0-.6.2-1.1,1.2-3.2l1.1-2.4v-1c0-.6-.1-1.4-.2-2-.1-.7-.1-.9,0-1.2.1-.3.1-.4-.3-1.3-.6-1.1-1.4-2.5-2.1-3.2l-.4-.4h-1.8c-1.5,0-2.8.2-3.5.4-.1,0-.3-.1-.7-.7l-.6-.7.3-.3c.4-.6.9-1.6.9-2.1s.1-.7.2-.9c.1-.4.1-.6,0-1.2-.1-.4-.3-1-.6-1.4-.2-.6-.4-.9-.7-1-.8-.3-.8-.6-.2-.9.2-.1.8-.6,1.2-.9,1.4-1.2,2.9-2.2,3.1-2.2s1.1-.3,1.3-.6c.1-.1.4-.2.7-.3.8-.2,1.5-.9,2.1-1.8,0-.1.1-.4.1-.9s.1-.6.3-.7c.4-.1,1-.6,1-.8,0-.3-.9-1.5-1.4-2-.7-.6-1.8-1.2-2.6-1.3-.6-.1-.9-.1-2.5.4-2,.7-3,.9-3.8.8h-.6v-.8c0-.9.3-2.1.7-3.1.2-.7.3-.9.8-1.2.6-.4.9-1.1.7-1.3-.1-.1,0-.3,0-.7.1-.8,0-1.2-.4-1.6l-.3-.3.3-.3c.2-.2.8-.6,1.2-.8,2.1-.9,3.9-2,6-3.8l.8-.7v-.9c-.1-2-.7-3-2.4-5.3-1.3-1.6-3.6-3.7-5.4-4.7-.3-.2-.9-.7-1.3-1.1-.8-.8-2.3-2-2.4-2s-.3.1-.8.4c-.4.2-.9.6-1,.6-.4,0-1.6.4-2.2.8-.3.2-.8.6-1,.9-.3.4-.6.4-.8.4-.1,0-.2,0-.1.2.1.2.1.3-.6,1.1l-3.9,3.9c-3.1,3-6.3,6.3-7.9,8.2-.8.9-1,1.4-.9,2,0,.1.1.2.7.3.8.1,1.2.1,2.4-.2,1.3-.3,2.5-.2,3.4.7.4.4.4.6.2.6s-.6.2-.4.3.2.1.4.2l.4.2h-.7c-.3,0-.4-.1-.6,0-.1.2,1.5,1.1,2.9,1.5,1,.3,2.6.4,3.7.2h.6c0-.1.1.3.1.3.1.2.2.6.3.8s.1.6,0,1.6c-.3,2.3-.8,8.1-.8,9.9s-.6.7-2.6,2.2c-6.3,4.7-12.3,9.8-13.4,10.9-.6.6-.9.8-1.2.9-.2.1-.7.2-.8.3s-.1.2-.2.1c-.1-.2-.3,0-.4.4,0,.2-.4.6-.8.9s-.6.7-.6.8-.4.6-.9,1.1c-.6.7-.8,1-.8,1.1s-.2.6-.9,1.2c-1.1,1.1-1.8,2.3-1.8,3.3s.1,2.5.4,3.1c.2.2.4.7.6.7s.3-.1.7-.2c.3-.2.9-.4,1.3-.6,1-.2,1.6-.4,2.4-1,.4-.3,1-.6,1.3-.7s.7-.1.9-.2c.6-.2,1.3-1.2,1.9-2.3.9-1.9,1.4-2.6,3.8-5.1,2.2-2.2,4.1-3.8,5.6-5.1.4-.3,1-1,1.4-1.3.8-.7,1.6-1.3,2.3-1.8l.4-.2.4.9-.6,1.2c-.7,1.6-2.3,5.1-3.3,6.8-2.6,4.8-5.8,9.4-9.2,13.4l-1,1.2v-1c.1-1.5.3-2.1.8-3,.2-.4.4-1.1.6-1.3,0-.2.2-.3,0-.3-.3.1-.7.4-1.6,2-1.5,2.4-3.4,4.9-5.1,6.7-.4.4-.8.8-.8.9s-.2.4-.6.7c-.8.7-1.2,1.6-1.4,2.5-.2.8-.2,1,0,1.8.6,2.1,1.5,3.7,2.5,4.3.3.2.7.4.7.6,0,.3.3.8.6.9.3.1.8.1.9,0s.2-.1.4.2c.2.2.2.3.3.3s.3-.2.6-.4c.4-.4,1.2-.9,2-1,1.2-.1,1.1-.1,1.5-.6.3-.3.6-.7.8-1.4.4-1.1.9-1.9,1.8-2.3.4-.2.6-.4.9-1.1.6-1.2,1.8-3.1,2.6-3.9.4-.4.8-.9.9-1.1.1-.4.6-.9,1.1-1.1.3-.1.7-.4,1.2-1.2.4-.6,1.1-1.4,1.5-2,.8-.9.9-1,1.4-1.1.9-.1,1.1,0,1.3.3.1.3.1.4-.1,1.3-.2,1-.2,1.1-.2,3.9s.2,9.2.3,10.8c.1.7.1,1.4.1,1.8s.1,1,.1,1.8c.1,2-.1,3.7-.9,5.2-.2.4-.3.6-.6.6s-.4,0-.6.1c-.2.1-.3.2-.3.8,0,1,.2,1.4.8,2.1.8.9,1,1.5,1.1,2.8.1.9.2,1.3.6,2,.4.9,1.4,2.2,1.9,2.6.1.1.3,0,.6-.3.2-.3.4-.8.7-1,.3-.4.3-.6.3-.9s-.1-.6,0-.9.1-.8.1-.9c-.1-3.9,0-4.6-.2-5.6-.2-1-.2-1.2-.1-3,.1-1,.2-2.2.2-2.4.1-.3.1-.9.1-1.3,0-.7-.1-.9-.3-1.3-.2-.6-.2-.8-.2-1.8v-1.5c0-.2-.1-1.3-.3-2.4-.9-5.3-1-10.7-.3-16.1.3-2.4.4-2.8.9-3.2l.3-.4v.4c.1.2.2.9.3,1.3.1.6.3.8,1,1.3.4.3,1,.9,1.3,1.3.3.4,1,.8,1.2,1,.2.2,1,.9,1.6,1.4.7.6,1.2,1.1,1.3,1.1s.3.1.6.2c.3.1.3.2.2.2-.1.1-.2.1-.3.1-.1-.1-.1.1-.1.3s-.2.7-.3.9l-.2.3.8,1.5c.4.9,1.1,2.1,1.4,2.8.3.7.7,1.3.7,1.4,0,.2.3.9.8,1.6.1.1.3.8.7,1.5,2,4.3,5.2,7.1,9.2,8.6l1,.3.4-.2c.6-.2,1-.9,1.3-1.6.2-.6.3-.9.3-1.5s.1-1.1.4-1.6c.6-.9.9-1.2,1.1-1.1.1,0,.2,0,.2-.1.1-.2.1-.6,0-.4-.2.1-.2-.1,0-.4.1-.2.9-1.4,1.9-2.8,1.4-1.9,1.8-2.4,1.6-2.5-.2-.2.2-1,1-1.8,1.1-1.2,3.1-3.7,3.5-4.8,1.6-3.7,3.9-7.2,6.7-10.1.6-.6,1.3-1.4,1.6-1.9,1.1-1.4,3.2-3.3,4.2-3.8.2-.1,1-.4,1.8-.9,1.1-.7,1.5-.9,2-.9.9-.1,1.3.2,2.1,1,.6.6.8.8,1.6,3.4l.6,1.8-.7,1.1c-2.6,4.7-6,8.5-10.2,11.3-.9.6-1.1.9-1,1s.2,0,.1.1c-.3.2-.7.4-1,.4s-.3,0-.3.1-.2.3-.7.6c-1,.7-2.5,2.1-2.1,2,.4-.2,2-1,2.3-1.2.3-.2,1.1-.6,1.8-.8s1.2-.6,1.3-.7.6-.2.9-.2c.6-.1.8-.2.9-.3s1.5-.4,2.8-.7h.4c0-.1-.1.2-.1.2-.1.2-.2.2-.1.3.2.1.4.1.6-.1.1-.2.3-.1.4,0,.1.1,0,0-.1.1s.1.2.8.2.8-.1.9,0-.2.2-.7.4c-1.3.8-4.3,2.9-4.1,2.9s.6-.2,1.1-.6c.9-.4,1.3-.7,1.9-1.2.8-.8,1.8-1.4,2.9-1.8.7-.2,2-.1,2.3,0,.1,0,.1.2-.1.3-.2.1-.8.3-1.3.6-.4.2-.9.3-.8.3.4,0,3.4-1,4.6-1.5.4-.2.8-.2,1.3-.2.9,0,1.8-.2,2.4-.6.3-.1.6-.2.7-.1.4.2,1.4.2,2.2.1.6-.1,1.1-.1,1.8-.1s1.3-.1,1.8-.2c.4-.2,1.3-.6,1.9-.7,1.1-.3,1.2-.4,1.2-.8s.2-.7.4-1.1l.4-.9-.9-2.5c-.7-2.2-.9-2.9-1.5-3.9h-.1c0,0,0,0,0,0Z"/>
    <path class="st0" d="M584.6,40.5c.8.2,5.9.2,7.5,0,1.8-.3,3.5-.9,5.2-1.5.2-.1.3,0,.1.3-.2.4-.9.8-1,.6,0-.1-.4.2-1.1.9-.8.9-1,1.2-1.4,2-.6,1.1-1,2-1.2,3.3v1h-.8c-.3,0-1.1.2-1.6.3-.6.1-1.2.2-1.3.2-.3,0-1.1.6-1.3,1-.1.2-.3.6-.6.8-.2.1-.6.3-.7.6,0,.2,0,.4.2.7.6.6,1,.6,2.3.4.7-.1,1.6-.2,2.2-.3s1-.3,1.1-.2.1.6.2,1.2c.3,1.8.6,3.7,1,5.1.2.8.4,1.3.3,1.3s-.7.2-1.3.4c-6.4,2.2-13.3,6-18.4,10.2-.4.4-1,.7-1.1.7s-.2,0-.2.2-.1.4-.2.6c-.2.2-.2.3,0,.7.2.3.3.3,1,.3s2.1-.2,3.2-.7c.7-.2,1.2-.7,2.3-1.5,1.8-1.4,3.9-3,5.8-3.9,1.4-.8,3-1.4,5.8-2.5,1-.3,2.4-.9,3.2-1.2l1.4-.7,1.2,1.2.3-.3c1-.8,3.1-1.5,3.6-1.4.1,0,.4-.1.7-.2.3-.1.7-.3.9-.3h.3l-.4.4c-1.5,1.4-4.8,3.7-7.6,5.6-3.6,2.4-7.9,4.9-9.1,5.3-1.3.3-2.8,1.3-2.9,2.1,0,.3-.1.3-.2.3s-.2,0-.2.1,0,.2-.1.3c-.4.3-.1,1.9.7,2.4.2.1.6.6.9,1,.9,1.2,2.1,2.4,3.4,3.2,1.9,1.1,3.8,1.3,5.1.8,1.5-.7,5.5-5.1,5.8-6.4.3-1,.6-2.1.4-2.8-.1-.6.1-1.2.3-1.2s.1-1-.1-1.4c-.1-.2-.1-.3,0-1.2.4-2.1,1.2-3.6,2.6-5.2,1.5-1.6,2.5-3.1,2.4-3.2s0-.1.1-.2c.3-.3,1.5-1.2,2.2-1.4.3-.1.7-.4,1-.7.8-.7,1.2-.9,2.2-1.2.4-.1,1-.2,3.6-.3,1.5,0,3.2-.1,3.6-.2,2.4-.3,5.4-.4,8.6-.2.2,0,1.2,0,2.2-.1,1.9-.1,4.5-.1,6.3.1.9.1,1.2.2,1.8.7.9.7,3,1.6,3.8,1.9.1,0,1.3.2,2.1.3.9,0,1.6.1,1.9.2l.3.2.6-.4c.4-.4.4-.6.4-1s0-.6-.6-1.2c-1.5-2-4.2-3.9-6.8-4.9-.3-.1-.6-.1-.7-.2s-.4-.1-.6,0-.9.1-2.8.1c-5.9-.1-9.3.1-15.8.8-1,.1-1.8.2-1.9.1,0-.1,1.5-3.7,2-4.6.2-.4.6-1.1.6-1.2.1-.7.4-1.5.7-1.9l.2-.3h1.5c.8,0,2.3-.1,3.4-.2,1.3-.1,2.3-.2,2.8-.2.9.1,1.4-.1,2.1-.8l.4-.4-.6-.7c-1-1.2-2.3-2.2-4.1-2.9-.6-.2-1.2-.6-1.4-.7s-.8-.4-1.1-.6c-.6-.1-.7-.1-1,0-.2.1-.8.2-1,.2h-.4v-.8c.1-.9.4-2.2.6-2.4.1-.1.2-.1.9,0,.4.1,1.5.1,2.4.1,2,.1,3.4.3,5.8.9,2.3.6,3.7.6,5.2.2,1.2-.3,2-.6,1.9-.8-.2-.7-.6-1.8-.7-2.4v-.8l-1.9-1.8c-1-1-2.4-2.2-3.2-2.8-2.6-2.1-5.9-4.8-5.9-5.1s.2-.1.4-.2c.2-.1.9-.4,1.4-.7.7-.3,1.4-.6,2.1-.7,1.3-.3,3.5-.4,4.5-.3,1.3.2,1.8.1,2.4-.2.4-.2.6-.4.7-.8.1-.7,0-2-.2-2.8-.2-.8-.9-2-1.3-2.6-.1-.2-.2-.7-.3-1-.4-1.9-1.6-3.6-3.3-4.8-.7-.6-.9-.9-.9-1.6s-.1-.6-.7-1c-.9-.8-1.2-1-2.5-1.4-.7-.2-1.8-.7-2.4-.9-1.1-.4-1.3-.4-1.6-.3-.1,0-.3.1-.4.2-.1.1-.6.2-1.1.2-2.9.2-5.6,1.6-7.7,3.7-1.3,1.3-1.8,2-1.6,2.3.1.3.7.7.9.7s1-.1,1.9-.2l1.6-.2,2.1,1c1.2.6,2.3,1.1,2.5,1.2s.4.1.4.2-.3.4-.6.8c-1.4,2-2.6,3.1-4.4,3.7-2.5,1-2.8,1.1-4.1,3l-.6.9v.8c.1,1.5-.6,5.1-1.5,7.4l-.4,1.2v.6c.4,1.1,1.4,2.1,2.3,2.5.6.2,1.4.4,2.2.6.4.1.6.2.6.3-.1.6-.7,3-1,4.8-.2,1.1-.3,2.1-.4,2.2-.1.1-.8.4-1.5.8-1.6.8-3.8,1.4-5.4,1.9l-1.1.3-1.3-1.1c-1.8-1.5-4.3-3.5-4.7-3.5s-.3,0-.3.2,0,.1-.1.2c-.1.1-.9-.3-.9-.4-.1-.3,2.6-1.9,5.3-3.2,1.8-.9,2.1-1,3.1-1.1,1.1-.1,1.3-.2,1.9-.6.3-.2.7-.3.8-.3.2,0,.7-.4.6-.6-.1-.2-4.7-3.3-8-5.3l-2.9-1.8.8-.7c.4-.3,1-.7,1.2-.7.8-.1,1-.2,1.3-.9.7-1.2,1.6-1.9,3-2.2.3-.1,1.4-.2,2.3-.2,1.3,0,1.6-.1,2.2-.3.3-.1.9-.2,1.2-.3.3,0,.4-.2.6-.6,0-.2.1-.9.1-1.5v-1.1l-.6-1.1c-.3-.7-.8-1.5-1.1-1.9-.6-.8-1.6-1.8-2.3-2.2-.2-.1-.6-.4-.8-.8-.9-1.5-2.5-3.3-3.9-4.2-2.1-1.3-3.8-1.8-7-1.6h-1.8l-1.2.7c-1.4.9-2.8,1.9-4.1,3.2-1.4,1.4-2,2-1.9,2.3.1.3,1.1.8,2.1.9.7,0,.9,0,1.4-.2l.7-.2,1.5,1.4c.8.8,1.9,1.6,2.3,2.1l.9.8-1,1.1c-.9.9-1.1,1-1.4,1s-.7.2-.9.4c-.2.2-.6.2-.8.2-.4,0-1.4.3-2.1.8-.3.2-.8.4-1,.4-.7.1-1.4.7-1.9,1.2-.2.3-.6.6-.8.8-.4.4-1.2,2.8-1.8,5.2-.2.8-.6,2.1-.9,3-.6,1.6-1,3.4-1.2,4.9v1c-.1,0,.3.8.3.8,1.1,2.1,1.6,2.5,2.8,2.9h0s0,0,0,0ZM617.1,26.1c.4-.5.9-.7,1.4-.7.6.1,1.1-.1,1.1-.4s.1-.2.2-.2c.4-.1.8-.7.9-1.2,0-.4.1-.4,1.4.4,2.3,1.5,4.7,3.8,5.2,4.8.3.6.4,1.4.2,1.8-.1.2-2.1.4-3.5.3-1.4-.1-2.8-.3-4.2-.7-1.6-.4-2.3-.8-3-1.4-.6-.6-.6-.7-.6-.9.2-.9.3-1.2.8-1.9h0ZM607.3,48.8c-.1-.6-.3-1.3-.4-2.2v-.6c-.1,0,.7-.2.7-.2,1.9-.6,4.6-1,4.6-.7s-.1,1.8-.2,3.6-.2,3.4-.2,3.5-.7.2-4.9,1.2c-.1,0-.2-.1-.2-.3,0-.8.3-2.4.7-3.2.2-.7.2-.8.1-1.2h0ZM590.8,29.6c.2-.6.3-.9.4-.9h.7c.3,0,.8-.1,1-.2.2-.1.3-.2.4-.2.1-.1.6.3,1.1.7,2,1.2,3,1.6,3.6,1.6s2.6.4,3.2.7c.4.2.8.6.9,1.1.1.2,0,.3-.4.8-1.1,1.1-2.3,1.6-4.7,2.1-1.3.2-4.1.6-4.7.4-.6-.1-1.6-.8-2-1.1-.4-.6-.2-3.1.6-4.9h0s0,0,0,0Z"/>
    <path class="st0" d="M627.9,81.2c-.6.1.1.2,2,.2s1.9,0,2.4.3c.8.4,1.5.8,2.2.9.3,0,1.1.1,1.6.3,1.4.3,2.8.6,3.1.3.3-.2.8-.9,1-1.8.2-.9.2-2.4-.1-3.2-.3-1-2.5-5.2-3.2-6.2-1.8-2.6-4.5-4.7-7.5-5.7-.9-.3-1-.4-1.2-.8-.6-.9-2.5-2.3-4.3-3.3-.6-.3-1-.4-1.8-.6-.6,0-1.8-.1-2.8-.2-1.5-.2-2-.3-2.9-.7-2.6-1-6-1.4-7.1-.9-.9.4-.9.6-.2,1.1.3.3,1,.9,1.4,1.2.9.8,3.2,2.1,9.3,5.2,2.5,1.3,4.2,2.2,4.3,2.3.6.6.6,2.1,0,3.2s-.9,1.3-3.8,2.9c-2.9,1.4-4.8,2.3-7.5,3.3-1.5.6-1.9.8-1.8,1,.3.6,4.2-.6,7-1.9,1-.4,1.3-.4,1.8-.4s.9,0,1.1-.1c.7-.2,1.4-.3,2.1-.2h.6c0,.1-1.3.7-1.3.7-.8.2-1.8.6-2.1.7h-.7c0,.1.2.5.2.5v.3h.8c.3,0,1.4-.1,2.4-.3s1.9-.3,2-.3.6.1.9.2c.6.2.6.3.4.4-.1.2.1.3.6.2.1,0,.2,0,.2.1s.1.2,1,.3h.7l-.3.3c-.1.2-.4.4-.6.4h0Z"/>
    <path class="st0" d="M626.7,99.7c.8.4,1.1.4,1.5.4.8,0,1.5.4,2.3,1.3.6.6.8.7,1.6.9.6.1,1.2.2,1.4.2s.8.1,1.3.2c2.1.4,4.5.2,6.6-.2.8-.1.9-.2,1-.6.1-.2.1-.6.1-.8s0-.7.1-.9c.1-.3.1-.4-.1-.7-.1-.1-.2-.3-.2-.4s-.1-.3-.2-.4c-.3-.3-.6-.8-.7-1.8-.1-.9-.2-1.1-.7-1.6-.7-.9-2.6-3-3.6-3.7-1.8-1.4-3.9-2.8-5.1-3-1.1-.2-1.9-.9-2.8-2-.4-.7-.7-.9-.7-.6s-.8.1-3.4-1.2c-3.3-1.6-4.8-2.4-7.2-3.2-1.6-.6-2.4-.7-2.4-.3s.9.8,1.2.9c1,.2,5.2,2.6,7.4,4.2,1.6,1.2,4.4,3.3,3.8,3.1l-.2-.2c0-.1-.1-.1-.2-.1s.2.6,1.3,1.9c1.2,1.4,2.6,2.9,4.1,3.7.1.1.2.4.1.7-.1.2-.2.6-.4.8l-.3.3-5.5-.2-1.8-.8c-2.3-1.1-3.1-1.3-3.4-1.2-.2.1-.3.1-.4-.1-.1-.3-.4-.4-2.2-.9-2.1-.6-4.4-1.3-6-2-.7-.3-1.4-.7-1.8-.8-.4-.2-.6-.2-.7-.1,0,.1-.2.1-.3,0-.3-.2-5.3-1.8-6.4-2.1-.6-.1-1.2-.3-1.5-.3-.9-.1-2.1-.1-3.7-.4-5.3-1-12.5-1.9-18.9-2.2-3.4-.1-3.6-.2-4.3-1.2-1.9-2.4-2.5-3.2-3.7-4.1-.7-.4-2.2-1.6-3.4-2.5l-2.2-1.8v-.7c.2-.9.5-2.1,1-2.9.4-.6,3.1-3.4,5.5-5.5,1.1-1,1.8-1.5,2.3-1.8,1.3-.7,2.1-1.4,2.6-3.1.2-.7.3-1.2.3-1.6v-.7l-1.3-1.3c-3.6-3.5-7.6-6.6-12.1-9-1.1-.6-1.2-.9-.7-1.5.3-.4.8-1.2.8-1.4s.2-.8.6-1.4c1-2.1,1.4-3.5,1.6-4.9.2-1.3.7-2.9,1.1-3.7,0-.1.1-.6.1-.8s.1-.4.1-.6c0,0,.2,0,.4.1.8.6,2.8.2,4.2-.4.3-.1.8-.2.9-.2.4,0,.8-.2,1.2-.7s.7-1.1.7-1.8.1-.6.3-.8c.6-.4.8-.9.8-1.6s.1-1,.3-1.4c.3-.8.4-1.5.2-3.2-.1-.9,0-1.6.4-2.5l.2-.4-.4-.8c-.7-1.1-2.4-2.8-3.4-3.4-1.1-.8-2.4-1.4-3.7-1.9-1.1-.3-1.5-.3-2.3-.1-.7.2-1.3.1-1.8-.2-.2-.1-.2-.2-.3-.2-.1.1-.4.2-.9.4-.4.2-.9.4-1,.6s-.3.2-.6.3c-.4.2-1.4,1.1-1.9,1.8-.1.2-.2.4-.3.4s-.2.3-.3.9-.8,2-1.2,3.2l-.8,2.2.4,1.1c1.1,2.8,2.9,4.9,5.2,6.5.6.3,1.1.8,1.2.9.7.7.9,1,.9,1.1,0,.3-.4.9-.8,1.1-.2.1-.3.3-.4.8-.1.4-.3.7-1.3,1.4-1.5,1.3-2.9,2.5-3.7,3.8-1.1,1.6-2.9,4.4-3.1,4.8-.1.2-.3.6-.6.8-.3.3-.4.6-.7,1.4l-.2,1.1.3.7c1,1.9,2.5,3.1,4.8,3.9,1.4.6,3.5,1.9,5.3,3.5,1.4,1.3,1.8,1.6,2.1,2.8.2.7.2,1.1.2,2,0,1.8-.1,2.2-1.5,3.7-1.3,1.4-3.7,3.9-4.7,4.7-.3.2-.9.6-1.2.8-.7.3-1.6,1.3-2,1.9-.3.7-.9,2.1-1,2.5-.1.6.2,1.5.7,2.3s1.9,2.4,2.9,3.1c1,.7,1.5.8,2.5,1.2,1.2.4,1.6.8,1.8,1.3.2.9-.3,1.8-1.5,2-.7.1-1.5.7-1.5.9s-.6.2-1.1.6c-1.4.7-2.6,2-3.3,3.3l-.4.9.4,1.4c.2.8.6,1.4.7,1.5s.4.2.8.3c.7.3,2.1.3,4.9.1,2.4-.2,2.6-.3,4.5-1.6l1.6-1.2,1-.2c.6-.1,1.5-.2,2.1-.3s2.5-.4,4.5-.8c3.2-.6,3.8-.7,6.3-.8,1.5-.1,3.2-.1,3.7-.1,1.2,0,5.1.2,8.5.7,1.3.1,2.9.3,3.5.4,3.5.3,7.7,1.4,10.7,2.6.6.2,1.5.6,2.2.7,3.3.7,6.9,1.9,9.7,3.4.6.3,1.3.6,1.8.7s1.3.6,1.9.8h0c0,0,0,0,0,0Z"/>
  </g>
</svg>