<?xml version="1.0" encoding="UTF-8"?>
<svg id="_圖層_1" data-name="圖層 1" xmlns="http://www.w3.org/2000/svg" viewBox="0 0 500 80.66">
  <defs>
    <style>
      .cls-1 {
        fill: #fff;
      }
    </style>
  </defs>
  <g>
    <path class="cls-1" d="M.4,52.22c-.56-.56-.53-1.09.07-1.59,3.79-3.34,7.05-7.58,9.79-12.74,2.68-5.11,4.7-10.9,6.07-17.37.15-.81.61-1.14,1.37-.99.86.15,1.16.63.91,1.44-.96,4.14-2.2,8.19-3.71,12.13,5.31,5.06,9.66,9.61,13.04,13.65.35.4.25.85-.3,1.33-.56.48-1.01.52-1.36.11-3.79-4.5-7.86-8.87-12.21-13.12-3.08,6.98-7.05,12.72-11.91,17.22-.61.51-1.19.48-1.74-.08M1.54,80.66c-.71,0-1.06-.36-1.06-1.06,0-.76.35-1.14,1.06-1.14h30.79v-18.43H6.85c-.71,0-1.06-.38-1.06-1.14,0-.71.35-1.06,1.06-1.06h25.48V17.64c0-.71.38-1.06,1.14-1.06.71,0,1.06.35,1.06,1.06v40.19h26.47c.7,0,1.06.35,1.06,1.06,0,.76-.35,1.14-1.06,1.14h-26.47v18.43h31.17c.7,0,1.06.38,1.06,1.14,0,.7-.35,1.06-1.06,1.06H1.54ZM64.03,51.69c-3.9-5.16-8.67-10.57-14.33-16.23-2.88,5.86-6.57,10.77-11.07,14.71-.71.61-1.34.61-1.9,0-.56-.61-.48-1.19.23-1.75,3.89-3.18,7.1-7.05,9.63-11.6,2.58-4.7,4.57-10.14,5.99-16.31.15-.76.58-1.06,1.29-.91.76.15,1.06.61.91,1.37-1.01,4.25-2.4,8.44-4.17,12.59,6.27,6.02,11.3,11.6,15.09,16.76.3.4.2.83-.3,1.29-.61.51-1.06.53-1.37.08M.4,32.72c-.56-.56-.53-1.08.07-1.59,3.79-3.34,7.05-7.58,9.79-12.74,2.68-5.11,4.7-10.89,6.07-17.37.15-.81.61-1.14,1.37-.99.86.15,1.16.63.91,1.44-.96,4.15-2.2,8.19-3.71,12.13,5.31,5.06,9.66,9.61,13.04,13.65.35.41.25.85-.3,1.33-.56.48-1.01.52-1.36.11-3.79-4.5-7.86-8.87-12.21-13.12-3.08,6.97-7.05,12.72-11.91,17.22-.61.5-1.19.48-1.74-.08M64.03,32.19c-3.9-5.16-8.67-10.57-14.33-16.23-2.88,5.87-6.57,10.77-11.07,14.71-.71.61-1.34.61-1.9,0-.56-.61-.48-1.19.23-1.74,3.89-3.18,7.1-7.05,9.63-11.6,2.58-4.7,4.57-10.14,5.99-16.3.15-.76.58-1.06,1.29-.91.76.15,1.06.61.91,1.36-1.01,4.25-2.4,8.45-4.17,12.59,6.27,6.02,11.3,11.6,15.09,16.76.3.41.2.84-.3,1.29-.61.51-1.06.53-1.37.08"/>
    <path class="cls-1" d="M91.63,80.66c-1.57,0-2.35-.78-2.35-2.35v-17.29c-4.7,1.57-8.69,2.73-11.98,3.49-.56.15-1.01-.05-1.37-.61-.51-.76-.3-1.24.61-1.44,11.83-2.78,22.32-6.9,31.47-12.36-5.61-3.59-10.11-7.63-13.5-12.13-3.94,3.69-8.37,6.88-13.27,9.55-.66.36-1.19.36-1.59,0-.71-.56-.51-1.16.61-1.82,4.35-2.37,8.29-5.18,11.83-8.42,3.23-2.88,5.86-5.84,7.89-8.88.2-.4.66-.56,1.36-.45,1.16.15,1.39.66.68,1.51-1.11,1.62-2.38,3.16-3.79,4.63h28.21l.53-.15.91.68c.35.2.4.51.15.91-3.74,5.36-9.07,10.21-16,14.56,8.49,4.9,18.4,8.34,29.73,10.31,1.16.25,1.44.78.84,1.59-.3.45-.79.63-1.44.53-11.78-2.17-22.14-5.89-31.09-11.15-5.92,3.54-12.44,6.6-19.57,9.18h36.63c1.57,0,2.35.78,2.35,2.35v15.39c0,1.57-.78,2.35-2.35,2.35h-35.49ZM79.27,19.96c-.76,0-1.14-.38-1.14-1.14v-8.34c0-1.57.78-2.35,2.35-2.35h27.61V1.68c0-.76.38-1.14,1.14-1.14s1.13.38,1.13,1.14v6.45h27.76c1.56,0,2.35.78,2.35,2.35v8.34c0,.76-.38,1.14-1.14,1.14s-1.14-.38-1.14-1.14v-7.74c0-.51-.25-.76-.76-.76h-56.27c-.51,0-.76.25-.76.76v7.74c0,.76-.38,1.14-1.14,1.14M92.24,78.46h34.28c.51,0,.76-.25.76-.76v-14.18c0-.5-.25-.76-.76-.76h-35.04v14.94c0,.51.25.76.76.76M109.98,34.22c6.17-3.79,11.07-7.99,14.71-12.59h-28.52l-.08.08c3.39,4.75,8.01,8.93,13.88,12.51"/>
  </g>
  <g>
    <path class="cls-1" d="M227.43,51.25l-2.5,22.91h-54.61v-1.63l37.13-59.27c-10.16,0-17.06.8-20.67,2.41-4.82,2.12-8.56,6.81-11.2,14.04h-2.25l1.98-19.47h50.13v1.64l-37.12,59.35c8.73,0,14.64-.23,17.74-.69,5.17-.75,9.16-2.46,11.97-5.17,3.22-2.93,5.63-7.63,7.24-14.13h2.15Z"/>
    <path class="cls-1" d="M294.45,12.32c-2.76.4-4.68,1.32-5.77,2.76-1.15,1.32-1.72,3.36-1.72,6.11v29.29c0,16.6-7.87,24.9-23.6,24.9-17.17,0-25.76-7.55-25.76-22.66v-31.35c0-3.39-.75-5.74-2.24-7.06-1.15-.98-3.24-1.64-6.28-1.98v-2.07h32.73v2.07c-3.5,0-5.97.55-7.41,1.64-1.55,1.32-2.33,3.79-2.33,7.41v31.26c0,12.3,4.74,18.44,14.22,18.44,11.31,0,16.97-6.87,16.97-20.59v-29.02c0-3.11-.55-5.26-1.64-6.46-1.38-1.55-3.96-2.44-7.75-2.67v-2.07h20.59v2.07Z"/>
    <path class="cls-1" d="M364.57,42.73c0,9.88-3.18,17.8-9.56,23.77-6.32,5.91-14.5,8.88-24.55,8.88s-18.09-2.79-24.29-8.36c-6.55-5.97-9.82-14.1-9.82-24.38,0-10.97,3.33-19.47,9.99-25.5,6.09-5.4,14.01-8.1,23.77-8.1s17.77,2.73,24.04,8.19c6.95,6.09,10.42,14.59,10.42,25.5M348.55,42.38c0-8.38-1.38-15.36-4.13-20.93-3.27-6.5-7.92-9.74-13.95-9.74s-11,3.42-14.21,10.26c-2.53,5.57-3.8,12.37-3.8,20.41,0,7.58.98,13.84,2.93,18.78,2.99,7.58,8.01,11.38,15.08,11.38s12.06-3.99,15.16-11.98c1.95-5.17,2.93-11.23,2.93-18.18"/>
    <path class="cls-1" d="M437.71,74.16h-32.48v-2.15c5.63-.17,8.44-.84,8.44-1.98,0-.75-.77-2.12-2.32-4.14l-17.58-22.31-3.7,3.36v18.27c0,2.58.86,4.36,2.58,5.34.98.52,3.07,1,6.28,1.46v2.15h-32.56v-2.15c3.45-.4,5.57-.84,6.37-1.3,1.67-.92,2.5-2.84,2.5-5.77V19.12c0-2.81-.95-4.7-2.85-5.69-1.03-.57-3.04-.94-6.03-1.12v-2.07h32.65v2.07c-3.27.29-5.4.75-6.37,1.37-1.72,1.21-2.58,3.62-2.58,7.24v21.62l21.45-21.89c2.35-2.41,3.53-4.13,3.53-5.16,0-1.15-.61-1.96-1.81-2.41-1.15-.47-3.39-.73-6.72-.78v-2.07h27.3v2.07c-4.48.23-8.7,1.92-12.66,5.09-2.24,1.78-7.96,7.41-17.14,16.88l28.43,35.49c1.09,1.37,2.85,2.12,5.26,2.24v2.15Z"/>
    <path class="cls-1" d="M498,54.61l-3.87,19.55h-56v-2.06c3.39-.34,5.57-.78,6.55-1.3,1.67-.98,2.5-2.84,2.5-5.6V19.21c0-2.81-.98-4.73-2.93-5.77-1.09-.57-3.13-.95-6.12-1.12v-2.07h55.39v18.96h-2.24c-.98-6.37-3.27-10.74-6.89-13.1-3.1-2.06-8.06-3.1-14.9-3.1-2.87,0-4.79.24-5.77.69-1.21.58-1.81,1.84-1.81,3.8v22.65c5.05,0,8.76-.89,11.11-2.67,2.76-2.12,4.48-5.97,5.17-11.54h2.15v31.79h-2.15c-.57-5.63-2.18-9.53-4.82-11.71-2.41-2.01-6.23-3.01-11.46-3.01v23.43c0,1.95.63,3.32,1.9,4.13,1.32.68,3.56,1.03,6.72,1.03,12,0,20.36-5.66,25.07-16.97h2.41Z"/>
  </g>
</svg>