<?xml version="1.0" encoding="UTF-8"?>
<svg xmlns="http://www.w3.org/2000/svg" viewBox="0 0 50 50">
  <defs>
    <style>
      .cls-1 {
        fill: #fff;
      }
    </style>
  </defs>
  <g id="_图层_2" data-name="图层 2">
    <circle class="cls-1" cx="25" cy="25" r="25"/>
  </g>
  <g id="_图层_1" data-name="图层 1">
    <path d="M13.28,13.31l23.29-.02c2.4.15,4.24,2.03,4.41,4.41v14.74c-.23,2.31-2.09,4.11-4.41,4.26H13.27c-2.23-.19-4.05-2.03-4.26-4.26v-14.99c.26-2.19,2.06-3.97,4.27-4.14ZM34.93,16.43H15.12l8.78,7.02c.57.49,1.34.58,1.98.16l9.04-7.18ZM37.9,18.1l-10.12,7.98c-1.64,1.24-3.93,1.24-5.57,0l-10.12-7.98v14.03c0,.55.57,1.27,1.11,1.4l23.37.04c.61-.01,1.33-.8,1.33-1.38v-14.08Z"/>
  </g>
</svg>