<?xml version="1.0" encoding="UTF-8"?>
<svg xmlns="http://www.w3.org/2000/svg" viewBox="0 0 50 50">
  <g id="_图层_2" data-name="图层 2">
    <path d="M25,2c12.68,0,23,10.32,23,23s-10.32,23-23,23S2,37.68,2,25,12.32,2,25,2M25,0C11.19,0,0,11.19,0,25s11.19,25,25,25,25-11.19,25-25S38.81,0,25,0h0Z"/>
  </g>
  <g id="_图层_1" data-name="图层 1">
    <path d="M22.06,20.89l-3.35,1.5c1.53,4.65,5.26,8.38,9.9,9.93l1.61-3.34,7.91,1.81c1.04,2.67-.55,5.71-3.3,6.44-1.53.41-4.11.02-5.67-.32-8.24-1.81-14.53-8.88-15.42-17.28-.21-1.97-.29-3.77,1.08-5.35s3.49-2.08,5.4-1.4l1.83,8.01Z"/>
  </g>
</svg>