<?xml version="1.0" encoding="UTF-8"?>
<svg xmlns="http://www.w3.org/2000/svg" viewBox="0 0 50 50">
  <g id="_图层_2" data-name="图层 2">
    <path d="M25,2c12.68,0,23,10.32,23,23s-10.32,23-23,23S2,37.68,2,25,12.32,2,25,2M25,0C11.19,0,0,11.19,0,25s11.19,25,25,25,25-11.19,25-25S38.81,0,25,0h0Z"/>
  </g>
  <g id="_图层_1" data-name="图层 1">
    <path d="M24.18,30.33l-.07.09c-.61,2.27-.96,4.57-2.09,6.66-.46.85-1.11,1.88-1.72,2.62-.08.1-.16.25-.29.26-.18.02-.23-.05-.27-.21-.08-.33-.12-.85-.16-1.2-.14-1.52-.13-3.11.16-4.61.58-2.98,1.53-5.95,2.07-8.94-.73-1.77-.7-4.32.69-5.76,1.07-1.11,3.09-1.25,3.82.3.87,1.83-.84,5.08-1.18,7.02-.41,2.34,1.89,3.53,3.89,2.68,3.08-1.31,4.2-6.96,3.49-9.88-1.24-5.1-8.27-5.59-11.74-2.53-2.21,1.96-3.5,5.96-1.72,8.56.28.42.57.52.5,1.1-.03.26-.3,1.28-.4,1.51-.31.66-1.15.13-1.57-.14-2.26-1.49-2.78-4.89-2.3-7.37,1.8-9.25,15.95-11.42,20.31-3.22,2.2,4.14.73,10.91-3.14,13.64-2.02,1.42-5.1,1.99-7.25.54-.4-.27-.85-.65-1.05-1.1Z"/>
  </g>
</svg>