<?xml version="1.0" encoding="UTF-8"?>
<svg xmlns="http://www.w3.org/2000/svg" viewBox="0 0 50 50">
  <g id="_图层_2" data-name="图层 2">
    <path d="M25,2c12.68,0,23,10.32,23,23s-10.32,23-23,23S2,37.68,2,25,12.32,2,25,2M25,0C11.19,0,0,11.19,0,25s11.19,25,25,25,25-11.19,25-25S38.81,0,25,0h0Z"/>
  </g>
  <g id="_图层_1" data-name="图层 1">
    <path d="M30.43,11.17c.03,3.59,3.03,6.63,6.64,6.58v4.78c-1.62,0-3.22-.36-4.69-1.02l-1.94-1.11v10.43c-.71,7.51-10.09,10.8-15.23,5.1-5.22-5.79-.76-15.09,6.98-14.62.21.01.56.04.72.13v4.8c-3.81-1.16-6.87,3.36-4.22,6.42,2.43,2.81,6.94,1.07,7.04-2.57V11.17s4.72,0,4.72,0Z"/>
  </g>
</svg>