<?xml version="1.0" encoding="UTF-8"?>
<svg xmlns="http://www.w3.org/2000/svg" viewBox="0 0 50 50">
  <g id="_图层_2" data-name="图层 2">
    <path d="M25,2c12.68,0,23,10.32,23,23s-10.32,23-23,23S2,37.68,2,25,12.32,2,25,2M25,0C11.19,0,0,11.19,0,25s11.19,25,25,25,25-11.19,25-25S38.81,0,25,0h0Z"/>
  </g>
  <g id="_图层_1" data-name="图层 1">
    <path d="M13.86,15.32l22.01-.04c2.08.35,3.57,1.98,3.78,4.09.26,2.63.26,8.48,0,11.1-.24,2.41-2.22,3.91-4.54,4.09-6.49.51-13.65-.4-20.21,0-2.34-.11-4.25-1.75-4.53-4.11-.29-2.5-.27-8.55-.02-11.08.2-2.03,1.57-3.53,3.5-4.05ZM22.07,19.75v10.33l8.94-5.09-8.94-5.24Z"/>
  </g>
</svg>