<?xml version="1.0" encoding="UTF-8"?>
<svg id="_图层_1" data-name="图层 1" xmlns="http://www.w3.org/2000/svg" xmlns:xlink="http://www.w3.org/1999/xlink" viewBox="0 0 300 300">
  <defs>
    <style>
      .cls-1 {
        fill: none;
      }

      .cls-2 {
        fill: #fff;
      }

      .cls-3 {
        opacity: .16;
      }

      .cls-4 {
        clip-path: url(#clippath);
      }
    </style>
    <clipPath id="clippath">
      <rect class="cls-1" x="274" y="447" width="1200" height="630"/>
    </clipPath>
  </defs>
  <g class="cls-3">
    <g class="cls-4">
      <image width="960" height="960" transform="translate(274 -97) scale(1.25)" xlink:href="../../talk/img-queue-3s3s.jpg"/>
    </g>
  </g>
  <g>
    <g>
      <polygon class="cls-2" points="129.66 135.94 122.03 135.94 122.03 180.86 129.66 180.86 154.24 180.86 154.24 173.23 129.66 173.23 129.66 135.94"/>
      <path class="cls-2" d="M104.01,146.96c-7.61,0-14.2,4.93-14.2,11.02h0v13.56h0c0,6.09,6.59,11.02,14.2,11.02s13.78-4.93,13.78-11.02v-13.56c0-6.09-6.17-11.02-13.78-11.02ZM110.16,171.54c0,2.57-2,4.66-6.15,4.66s-6.57-2.09-6.57-4.66v-13.56c0-2.57,2.42-4.66,6.57-4.66s6.15,2.09,6.15,4.66v13.56Z"/>
      <path class="cls-2" d="M172.68,146.96c-7.61,0-13.78,4.93-13.78,11.02h7.21c0-2.57,2.42-4.66,6.57-4.66s6.15,2.09,6.15,4.66v2.54h-11.87c-5.15,0-9.32,4.72-9.32,10.28s4.17,10.07,9.32,10.07h0s11.87,0,11.87,0h7.63v-23.74h-.05c-.54-5.69-6.47-10.17-13.72-10.17ZM178.82,174.08h-11.87c-2.18,0-2.54-1.7-2.54-3.28,0-1.8.36-3.5,2.54-3.5h11.87v6.78Z"/>
      <path class="cls-2" d="M204.89,146.96c-2.38,0-4.62.48-6.57,1.33v-13.2h-7.63v35.6h0c.06,6.14,6.29,11.1,13.98,11.1s13.92-4.96,13.98-11.1h0v-12.72c0-6.09-6.17-11.02-13.78-11.02ZM211.03,170.69c0,2.61-2.14,4.65-6.36,4.65s-6.3-2.07-6.36-4.65h0v-12.72c0-2.57,2.42-4.66,6.57-4.66s6.15,2.09,6.15,4.66v12.72Z"/>
      <path class="cls-2" d="M71.8,146.96c-4.03,0-7.65,1.4-10.17,3.61-2.52-2.21-6.14-3.61-10.17-3.61-2.38,0-4.62.48-6.57,1.33v-1.33h-7.63v33.91h7.63v-22.89c0-2.57,2.42-4.66,6.57-4.66s6.15,2.09,6.15,4.66v22.89h7.63v-22.89c0-2.57,2.42-4.66,6.57-4.66s6.15,2.09,6.15,4.66v22.89h7.63v-22.89c0-6.09-6.17-11.02-13.78-11.02Z"/>
      <path class="cls-2" d="M16.91,146.96c-7.58,0-13.79,4.48-14.35,10.17h-.06v14.41s.85,9.32,11.02,9.32h16.95v-6.78H13.52s-3.39,0-3.39-2.54v-4.24h21.19v-9.32c0-6.09-6.45-11.02-14.41-11.02ZM23.69,160.52h-13.56v-3.35c.47-2.19,2.9-3.86,6.78-3.86,4.34,0,6.78,2.09,6.78,4.66v2.54Z"/>
    </g>
    <g>
      <path class="cls-2" d="M245.67,130.59h51.83s-8.42-13.15-25.92-13.15-25.92,13.15-25.92,13.15Z"/>
      <polygon class="cls-2" points="269.73 136.88 248.07 151.46 245.67 169.5 297.5 169.5 296.19 158.26 269.73 136.88"/>
      <rect class="cls-2" x="245.67" y="175.76" width="51.72" height="6.8"/>
    </g>
  </g>
</svg>