<?xml version="1.0" encoding="UTF-8"?>
<svg id="_图层_1" data-name="图层 1" xmlns="http://www.w3.org/2000/svg" viewBox="0 0 300 300">
  <defs>
    <style>
      .cls-1 {
        fill: #fff;
      }
    </style>
  </defs>
  <g>
    <path class="cls-1" d="M155.58,159.51h-9.57v7.63h-27.11v11.44h27.11s-3.19,9.53-7.97,9.53h-19.14v11.44h19.14s7.97-1.91,7.97-5.72v9.53h9.57v-9.53c0,3.81,7.97,5.72,7.97,5.72h19.14v-11.44h-19.14c-4.78,0-7.97-9.53-7.97-9.53h27.11v-11.44h-27.11v-7.63Z"/>
    <path class="cls-1" d="M262.42,117.56l7.18-8.58s-7.18-8.58-11.96-12.39l-6.38,7.63s9.57,7.63,11.16,13.35Z"/>
    <path class="cls-1" d="M216.18,180.48l9.05,5.72c6.12-7.32,8.49-26.7,8.49-26.7l-11.16-5.72c-1.59,19.07-6.38,26.7-6.38,26.7Z"/>
    <path class="cls-1" d="M284.74,144.25l-7.97,5.72c6.38,7.63,12.76,24.79,12.76,24.79l7.97-5.72c-4.78-13.35-12.76-24.79-12.76-24.79Z"/>
    <path class="cls-1" d="M262.42,191.92c-6.38,0-7.97-5.72-7.97-5.72v-59.11h-11.16v59.11c0,19.07,19.14,17.16,19.14,17.16,19.14,0,19.14-20.98,19.14-20.98h-11.16c0,5.72-1.59,9.53-7.97,9.53Z"/>
    <path class="cls-1" d="M190.66,134.72l-4.03-7.63h-12.49l5.36-6.13s-8.41-1.48-17.41-3.99c8.4-3.97,15.8-8.89,19.03-14.68l-5.37-5.72h-52.05v11.44h4.78l-1.59,5.72s4.32,1.64,10.34,3.81c-5.24,1.14-10.93,1.91-16.72,1.91l3.85,7.63h-11.82v9.53h5.32l-3.72,7.63s3.1,1.42,7.25,3.43c-5.86,2.02-10.44,2.29-10.44,2.29l1.59,11.6c7.02-.59,13.59-4.19,19.23-8.69,4.98,2.61,9.42,5.17,10.75,6.62l5.09-9.53s-3.25-2.27-7.52-4.94c6.27-6.83,10.12-13.18,10.12-13.18l-4.19-4.77h-12.95c4.51-1.17,10.51-2.89,16.8-5.12,6.02,2.03,12.1,3.95,16.73,5.12h-14.2v9.53h6.69l-6.69,7.71s3.68,1.3,8.71,3.3c-1.67.49-3.49.93-5.52,1.27l1.59,8.7s7.35-1.1,15.4-5.07c6.23,2.89,12.24,6.14,15.22,9.04l4.47-9.69s-4.46-2.53-10.16-5.57c3.5-3.04,6.58-6.84,8.57-11.6ZM133.45,141.12c-4.46-2.47-8.88-4.49-11.36-4.49h15.95c-1.43,1.71-2.98,3.19-4.59,4.49ZM142.03,108.02h21.53s-4.8,2.65-12.26,5.39c-4.02-1.61-7.42-3.42-9.27-5.39ZM161.62,136.63h14.69s-.78,2.23-3.61,4.85c-4.23-2.09-8.26-3.92-11.08-4.85Z"/>
  </g>
  <g>
    <path class="cls-1" d="M2.5,118.15h68.71s-11.16-21.57-34.36-21.57S2.5,118.15,2.5,118.15Z"/>
    <polygon class="cls-1" points="34.39 128.47 5.69 152.39 2.5 181.99 71.21 181.99 69.47 163.55 34.39 128.47"/>
    <rect class="cls-1" x="2.5" y="192.26" width="68.57" height="11.16"/>
  </g>
</svg>