<?xml version="1.0" encoding="UTF-8"?>
<svg id="_图层_1" data-name="图层 1" xmlns="http://www.w3.org/2000/svg" xmlns:xlink="http://www.w3.org/1999/xlink" viewBox="0 0 300 300">
  <defs>
    <style>
      .cls-1 {
        fill: none;
      }

      .cls-2 {
        fill: #fff;
      }

      .cls-3 {
        opacity: .16;
      }

      .cls-4 {
        clip-path: url(#clippath);
      }
    </style>
    <clipPath id="clippath">
      <rect class="cls-1" x="-366" y="447" width="1200" height="630"/>
    </clipPath>
  </defs>
  <g>
    <path class="cls-2" d="M144.34,164.73h-.18c-1.1-.61-2.08-1.22-2.69-1.71s-1.77-.67-4.82-1.1c-1.83-.31-2.81-.43-4.09-.49h-2.2c-.43,0-1.04,0-1.89.12-3.85.18-5.25.12-6.04.06-.67,0-.98,0-1.83.12h-.18c-.43.12-.73.18-.85.12-.31-.18-.24-1.53-.24-3.36v-1.28c0-2.08.06-3.54.24-6.11.12-1.34.18-2.01.55-2.87.55-1.16,1.34-1.83,1.71-2.14,1.47-1.22,3.24-1.65,4.15-1.83.31-.06.49-.12.61-.18h.24c.24,0,.55-.06.92-.18.67-.18,1.1-.37,1.89-.79l.67-.31c.92-.49,1.65-.79,1.83-.85,1.28-.31,1.89-.37,2.01-.43,1.53,0,1.65-1.34,1.65-1.77v-.31c.31-.43.49-.79.37-1.22-.12-.67-.73-1.04-.92-1.16-2.14-1.28-3.24-1.47-3.3-1.47-1.34-.31-1.95-.37-2.56-.49-.55-.06-1.16-.12-2.32-.37-.31,0-.61-.12-.85-.18-.85-.24-1.65-.43-2.44.18-.12.12-.31.18-.43.31-.49.37-.98.67-1.53,1.22-.67.67-1.59,1.22-2.63,1.65-.06-.73-.06-1.47,0-2.2,0-.85.12-1.4.24-1.95.12-.67.24-1.34.24-2.38s0-2.38-.61-3.97c-.61-1.59-1.53-2.56-1.89-2.99-.67-.73-1.04-.98-1.47-1.22-.31-.18-.61-.37-1.16-.92-.18-.12-.61-.55-1.22-.61h0c-.49,0-1.04.18-1.47.55-1.95,1.65-2.63,4.7-2.69,4.82-.49,2.26-.67,3.91-.85,5.8,0,.43-.06.79-.12,1.28-.18,1.89-.31,2.69-.43,3.3s-.18,1.16-.31,2.5c-.12,1.47-.12,2.5-.18,3.48,0,1.22-.06,2.38-.31,4.4-.12,1.1-.18,1.53-.24,1.89-.06.37-.12.67-.18,1.4-.06,1.34-.06,2.26-.06,3.36v3.85c-.06,1.77-.18,2.69-.85,3.6-.24.37-.67.73-1.16,1.1-1.53,1.1-3.18,1.28-4.95,1.47h-.37c-2.69.37-3.66.61-4.4.79-.61.18-.98.24-2.2.31-1.1,0-2.2.12-3.24.18-1.83.12-3.72.24-5.56.18-.55,0-1.83.12-2.32.98-.37.61-.79,2.14-.18,2.93l.24.31c1.04,1.28,2.08,2.63,3.54,3.42,2.38,1.34,5.01,2.08,7.88,2.32,1.28.12,2.56.12,3.91,0,1.4-.12,2.01-.24,2.93-.49.92-.18,2.01-.49,4.46-.85,1.59-.24,2.38-.31,3.91-.43.92-.06,2.08-.18,3.79-.37,4.27-.43,5.86-.55,7.51-.73.92-.12,1.89-.18,3.48-.37,1.65-.18,3.05-.18,4.58-.18,1.28,0,2.63,0,4.15-.12,2.56-.18,5.31-.06,8.61.43,2.26.37,4.76.24,6.17-2.81.49-1.04-.43-3.18-.55-3.42-.55-1.34-1.1-1.65-1.4-1.77h0l-.12-.06Z"/>
    <path class="cls-2" d="M65.08,150.99c.18-1.71-.18-3.36-.55-4.95-.31-1.34-.55-2.63-.55-3.97,0-1.1-.67-2.5-2.08-3.05-4.4-1.83-8.06-1.89-11.48-.18-3.24,1.59-4.09,4.27-2.38,7.63,1.53,3.11,2.44,5.8,2.81,8.37.37,2.44.24,4.03-1.47,5.07s-7.63.92-9.16-.18c-1.59-1.16-1.4-2.75-.98-4.82.49-2.38.85-4.76,1.16-7.14.43-3.05.92-6.17,1.65-9.16.85-3.54-1.04-4.95-2.87-5.56-1.34-2.44-3.54-4.03-5.37-5.19-.24-.18-.49-.31-.79-.49-2.32-1.47-5.5-3.48-8.12-1.28-2.69,2.2-2.5,6.35-1.47,9.46,2.38,6.96,2.32,14.29,2.2,21.37v4.95c0,1.22-.31,2.08-.92,2.63-.92.79-2.38.79-3.42.73-2.32-.24-3.91-.92-4.76-2.01-.92-1.16-1.22-2.99-.85-5.56.43-3.18.61-6.53-.79-9.83-.98-2.2-1.89-3.36-3.11-3.66-1.28-.37-2.69.06-4.7,1.53h-.12c-1.28.98-2.63,1.89-4.03,2.69-2.75,1.59-3.6,3.97-2.38,6.66.24.55.49,1.1.79,1.71,2.69,5.8,5.19,11.23,3.85,17.83-.24,1.34.12,2.63,1.1,3.3.18.12.43.24.79.37.67.18,1.71.18,3.11-.67,3.6-2.14,7.88-2.87,11.97-3.42,1.65-.24,3.24-.61,4.82-.98,3.79-.92,7.39-1.71,11.17-.55h.12c2.99.79,6.11,1.1,9.1,1.34,4.4.37,8.61.73,12.52,2.69l.24.12h.24c2.63-.37,3.54-2.38,4.21-3.97.06-.18.12-.31.18-.49.98-1.1.98-2.38.85-3.66-.79-6.53-.92-12.27-.43-17.52h0l-.12-.12Z"/>
    <path class="cls-2" d="M227.56,151.29c.24-1.71,0-3.36-.24-4.95-.18-1.4-.43-2.69-.31-3.97.12-1.1-.49-2.5-1.89-3.18-4.27-2.14-7.94-2.38-11.48-.92-3.3,1.4-4.34,3.97-2.87,7.45,1.34,3.24,2.08,5.92,2.26,8.55.24,2.5,0,4.03-1.77,4.95-1.77.98-7.69.43-9.16-.79-1.53-1.28-1.22-2.81-.67-4.88.61-2.32,1.1-4.7,1.59-7.02.61-2.99,1.28-6.11,2.2-9.04,1.04-3.48-.73-5.01-2.5-5.74-1.16-2.56-3.3-4.27-5.07-5.5-.24-.18-.49-.37-.73-.55-2.2-1.59-5.25-3.85-8.06-1.83-2.81,2.01-2.93,6.17-2.01,9.34,1.95,7.08,1.4,14.41.85,21.49-.12,1.59-.24,3.3-.37,4.95-.06,1.22-.43,2.08-1.1,2.56-.92.73-2.38.67-3.48.49-2.32-.43-3.85-1.16-4.64-2.32-.85-1.22-.98-3.05-.49-5.62.61-3.11,1.04-6.47-.18-9.83-.79-2.26-1.71-3.42-2.93-3.85s-2.69-.06-4.82,1.22h-.12c-1.34.85-2.75,1.71-4.15,2.44-2.81,1.4-3.85,3.72-2.75,6.47.24.55.43,1.16.67,1.71,2.32,5.92,4.46,11.54,2.75,18.01-.37,1.34,0,2.63.85,3.36.18.12.43.31.73.43.67.24,1.71.24,3.11-.49,3.72-1.89,8.06-2.38,12.15-2.69,1.65-.12,3.3-.43,4.88-.67,3.85-.67,7.51-1.28,11.23.18h.12c2.93.98,5.98,1.47,8.98,1.89,4.4.67,8.55,1.28,12.33,3.48l.24.12h.24c2.63-.18,3.66-2.14,4.46-3.66.06-.12.18-.31.24-.49,1.04-1.04,1.1-2.32,1.04-3.6-.37-6.59-.12-12.33.67-17.52h.18Z"/>
    <path class="cls-2" d="M299.61,129.44c-.43-.98-1.04-1.71-1.83-2.2-1.28-.79-2.75-.67-4.09-.49-3.11.49-5.68.61-8.12.37-.61,0-1.28-.06-2.2-.06-1.4,0-3.3-.06-6.04-.24-3.36-.24-6.84-.49-10.26-.79-.73-.12-1.47-.18-2.2-.31-1.71-.24-3.42-.43-5.13-.67-.85-.12-1.77-.31-2.63-.49-1.4-.31-2.87-.61-4.4-.73-4.21-.31-8,.49-11.23,2.26-1.34.73-2.44,2.08-3.36,3.3l-.24.31c-.61.73-.24,2.26.12,2.81.55.92,1.71.92,2.14.92h.06c4.27.12,8.61.67,12.76,1.22,2.38.31,4.82.67,7.2.92.06,0,.18,0,.24.06,0,0,.31.18.49.55,1.16,2.69,1.22,11.42,1.16,14.59s.06,5.37.31,8.73c0,.12.24,3.72,1.4,9.04,0,.06.49,2.14,1.83,4.58,1.04,1.89,1.83,2.69,2.75,2.75.24,0,.43,0,.61-.06,1.16-.37,1.95-1.71,2.32-2.38.73-1.34.98-2.56,1.16-4.09.49-3.48.67-5.19.61-7.2,0-.98-.12-1.95-.24-2.93h0c1.28.85,2.44,1.65,3.66,2.5.49.37.79.61.98.79.24.24.49.49.92.67,1.28.55,2.14.37,3.91-.06.85-.18,2.08-.49,3.66-.79.18,0,1.16-.18,3.24-1.4.18-.12.79-.49.92-1.1.06-.43,0-.79-.37-1.16v-.31c0-.37-.06-.92-.49-1.34-.37-.37-.85-.43-1.16-.43-.61,0-1.47-.18-2.38-.43-1.4-.85-2.93-1.47-4.52-1.95h-.24c-.37-.12-.73-.31-1.04-.43-1.22-.49-2.5-.98-3.66-1.59-1.28-.67-2.5-1.53-3.66-2.38l-.18-.12c-.06-.06-.18-.31-.18-.49-.12-2.2-.18-4.4-.24-6.59,0-1.16-.06-2.32-.12-3.54,0-.37,0-.67.12-.79.12-.18.49-.49,1.59-.61.98-.12,1.65,0,2.87.12l.79.12c1.65.18,3.36.43,5.25.43h3.97c1.47,0,2.14.12,2.63.18.49,0,.79.12,1.4.06,1.89-.06,3.3-.67,4.52-1.22s2.32-1.16,3.24-1.89c.37-.31.55-.49.79-.73,1.1-1.28,1.28-3.36.61-5.01h0v-.24Z"/>
  </g>
  <g class="cls-3">
    <g class="cls-4">
      <image width="960" height="960" transform="translate(-366 -97) scale(1.25)" xlink:href="../../talk/img-queue-3s3s.jpg"/>
    </g>
  </g>
</svg>