<?xml version="1.0" encoding="UTF-8"?>
<svg id="_图层_1" data-name="图层 1" xmlns="http://www.w3.org/2000/svg" xmlns:xlink="http://www.w3.org/1999/xlink" viewBox="0 0 300 300">
  <defs>
    <style>
      .cls-1 {
        fill: none;
      }

      .cls-2 {
        fill: #fff;
      }

      .cls-3 {
        opacity: .16;
      }

      .cls-4 {
        clip-path: url(#clippath);
      }
    </style>
    <clipPath id="clippath">
      <rect class="cls-1" x="-46" y="447" width="1200" height="630"/>
    </clipPath>
  </defs>
  <g class="cls-3">
    <g class="cls-4">
      <image width="960" height="960" transform="translate(-46 -97) scale(1.25)" xlink:href="../../talk/img-queue-3s3s.jpg"/>
    </g>
  </g>
  <g>
    <path class="cls-2" d="M95.56,158.9h-10.71v7.14h-30.34v10.71h30.34s-3.57,8.92-8.92,8.92h-21.42v10.71h21.42s8.92-1.78,8.92-5.35v8.92h10.71v-8.92c0,3.57,8.92,5.35,8.92,5.35h21.42v-10.71h-21.42c-5.35,0-8.92-8.92-8.92-8.92h30.34v-10.71h-30.34v-7.14Z"/>
    <path class="cls-2" d="M215.15,119.63l8.03-8.03s-8.03-8.03-13.39-11.6l-7.14,7.14s10.71,7.14,12.49,12.49Z"/>
    <path class="cls-2" d="M163.39,178.53l10.13,5.35c6.85-6.85,9.5-24.99,9.5-24.99l-12.49-5.35c-1.78,17.85-7.14,24.99-7.14,24.99Z"/>
    <path class="cls-2" d="M240.13,144.62l-8.92,5.35c7.14,7.14,14.28,23.2,14.28,23.2l8.92-5.35c-5.35-12.49-14.28-23.2-14.28-23.2Z"/>
    <path class="cls-2" d="M215.15,189.24c-7.14,0-8.92-5.35-8.92-5.35v-55.33h-12.49v55.33c0,17.85,21.42,16.06,21.42,16.06,21.42,0,21.42-19.63,21.42-19.63h-12.49c0,5.35-1.78,8.92-8.92,8.92Z"/>
    <path class="cls-2" d="M134.83,135.7l-4.52-7.14h-13.98l6-5.73s-9.41-1.38-19.49-3.73c9.4-3.72,17.69-8.32,21.3-13.74l-6.01-5.35h-58.27v10.71h5.35l-1.78,5.35s4.83,1.53,11.57,3.56c-5.87,1.07-12.23,1.79-18.71,1.79l4.31,7.14h-13.23v8.92h5.95l-4.17,7.14s3.47,1.33,8.12,3.21c-6.55,1.9-11.69,2.14-11.69,2.14l1.78,10.86c7.85-.55,15.22-3.92,21.53-8.13,5.58,2.44,10.54,4.84,12.04,6.2l5.7-8.92s-3.64-2.12-8.42-4.62c7.02-6.4,11.33-12.34,11.33-12.34l-4.69-4.46h-14.49c5.04-1.1,11.77-2.7,18.8-4.79,6.74,1.9,13.54,3.7,18.72,4.79h-15.9v8.92h7.48l-7.48,7.21s4.11,1.21,9.75,3.09c-1.86.46-3.9.87-6.18,1.19l1.78,8.14s8.23-1.03,17.23-4.75c6.98,2.7,13.7,5.74,17.03,8.46l5-9.07s-4.99-2.37-11.38-5.21c3.92-2.84,7.37-6.4,9.59-10.85ZM70.79,141.68c-5-2.31-9.94-4.2-12.71-4.2h17.85c-1.6,1.6-3.33,2.99-5.13,4.2ZM80.39,110.71h24.1s-5.37,2.48-13.72,5.05c-4.5-1.51-8.3-3.2-10.37-5.05ZM102.32,137.48h16.45s-.87,2.09-4.04,4.54c-4.73-1.95-9.25-3.67-12.4-4.54Z"/>
  </g>
</svg>